G04 EAGLE Gerber RS-274X export*
G75*
%MOMM*%
%FSLAX34Y34*%
%LPD*%
%INSoldermask Top*%
%IPPOS*%
%AMOC8*
5,1,8,0,0,1.08239X$1,22.5*%
G01*
%ADD10R,1.303200X1.203200*%
%ADD11R,1.203200X0.503200*%
%ADD12R,1.503200X2.203200*%
%ADD13R,1.203200X0.803200*%
%ADD14C,0.853200*%
%ADD15C,2.203200*%
%ADD16R,0.753200X1.403200*%
%ADD17R,1.203200X1.303200*%
%ADD18R,1.103200X1.003200*%
%ADD19R,3.403200X2.703200*%
%ADD20C,1.003200*%
%ADD21C,0.505344*%
%ADD22C,3.505200*%
%ADD23R,0.965200X1.727200*%
%ADD24C,2.082800*%
%ADD25C,1.203200*%
%ADD26C,1.270000*%
%ADD27C,1.703200*%

G36*
X60304Y999774D02*
X60304Y999774D01*
X60307Y999771D01*
X61429Y999926D01*
X61434Y999931D01*
X61438Y999928D01*
X62509Y1000299D01*
X62513Y1000305D01*
X62518Y1000303D01*
X63495Y1000876D01*
X63498Y1000882D01*
X63503Y1000881D01*
X64350Y1001634D01*
X64352Y1001641D01*
X64357Y1001641D01*
X65041Y1002544D01*
X65041Y1002551D01*
X65046Y1002552D01*
X65541Y1003571D01*
X65539Y1003578D01*
X65544Y1003580D01*
X65831Y1004677D01*
X65829Y1004681D01*
X65831Y1004682D01*
X65829Y1004684D01*
X65832Y1004686D01*
X65899Y1005817D01*
X65897Y1005821D01*
X65899Y1005823D01*
X65832Y1006954D01*
X65827Y1006959D01*
X65831Y1006963D01*
X65544Y1008060D01*
X65538Y1008064D01*
X65541Y1008069D01*
X65046Y1009088D01*
X65040Y1009091D01*
X65041Y1009096D01*
X64357Y1009999D01*
X64350Y1010001D01*
X64350Y1010006D01*
X63503Y1010759D01*
X63496Y1010759D01*
X63495Y1010764D01*
X62518Y1011337D01*
X62511Y1011336D01*
X62509Y1011341D01*
X61438Y1011712D01*
X61432Y1011709D01*
X61429Y1011714D01*
X60307Y1011869D01*
X60302Y1011866D01*
X60300Y1011869D01*
X48300Y1011869D01*
X48295Y1011866D01*
X48292Y1011869D01*
X47025Y1011664D01*
X47019Y1011658D01*
X47015Y1011661D01*
X45825Y1011179D01*
X45821Y1011172D01*
X45815Y1011174D01*
X44762Y1010440D01*
X44760Y1010432D01*
X44754Y1010433D01*
X43891Y1009483D01*
X43890Y1009474D01*
X43885Y1009474D01*
X43255Y1008355D01*
X43256Y1008347D01*
X43250Y1008345D01*
X42885Y1007115D01*
X42888Y1007107D01*
X42883Y1007104D01*
X42801Y1005823D01*
X42804Y1005819D01*
X42801Y1005817D01*
X42883Y1004536D01*
X42889Y1004530D01*
X42885Y1004525D01*
X43250Y1003295D01*
X43257Y1003290D01*
X43255Y1003285D01*
X43885Y1002166D01*
X43892Y1002163D01*
X43891Y1002157D01*
X44754Y1001207D01*
X44762Y1001206D01*
X44762Y1001200D01*
X45815Y1000466D01*
X45823Y1000466D01*
X45825Y1000461D01*
X47015Y999979D01*
X47022Y999981D01*
X47025Y999976D01*
X48292Y999771D01*
X48297Y999774D01*
X48300Y999771D01*
X60300Y999771D01*
X60304Y999774D01*
G37*
G36*
X535284Y1086174D02*
X535284Y1086174D01*
X535287Y1086171D01*
X536409Y1086326D01*
X536414Y1086331D01*
X536418Y1086328D01*
X537489Y1086699D01*
X537493Y1086705D01*
X537498Y1086703D01*
X538475Y1087276D01*
X538478Y1087282D01*
X538483Y1087281D01*
X539330Y1088034D01*
X539332Y1088041D01*
X539337Y1088041D01*
X540021Y1088944D01*
X540021Y1088951D01*
X540026Y1088952D01*
X540521Y1089971D01*
X540519Y1089978D01*
X540524Y1089980D01*
X540811Y1091077D01*
X540809Y1091081D01*
X540811Y1091082D01*
X540809Y1091084D01*
X540812Y1091086D01*
X540879Y1092217D01*
X540877Y1092221D01*
X540879Y1092223D01*
X540812Y1093354D01*
X540807Y1093359D01*
X540811Y1093363D01*
X540524Y1094460D01*
X540518Y1094464D01*
X540521Y1094469D01*
X540026Y1095488D01*
X540020Y1095491D01*
X540021Y1095496D01*
X539337Y1096399D01*
X539330Y1096401D01*
X539330Y1096406D01*
X538483Y1097159D01*
X538476Y1097159D01*
X538475Y1097164D01*
X537498Y1097737D01*
X537491Y1097736D01*
X537489Y1097741D01*
X536418Y1098112D01*
X536412Y1098109D01*
X536409Y1098114D01*
X535287Y1098269D01*
X535282Y1098266D01*
X535280Y1098269D01*
X523280Y1098269D01*
X523275Y1098266D01*
X523272Y1098269D01*
X522005Y1098064D01*
X521999Y1098058D01*
X521995Y1098061D01*
X520805Y1097579D01*
X520801Y1097572D01*
X520795Y1097574D01*
X519742Y1096840D01*
X519740Y1096832D01*
X519734Y1096833D01*
X518871Y1095883D01*
X518870Y1095874D01*
X518865Y1095874D01*
X518235Y1094755D01*
X518236Y1094747D01*
X518230Y1094745D01*
X517865Y1093515D01*
X517868Y1093507D01*
X517863Y1093504D01*
X517781Y1092223D01*
X517784Y1092219D01*
X517781Y1092217D01*
X517863Y1090936D01*
X517869Y1090930D01*
X517865Y1090925D01*
X518230Y1089695D01*
X518237Y1089690D01*
X518235Y1089685D01*
X518865Y1088566D01*
X518872Y1088563D01*
X518871Y1088557D01*
X519734Y1087607D01*
X519742Y1087606D01*
X519742Y1087600D01*
X520795Y1086866D01*
X520803Y1086866D01*
X520805Y1086861D01*
X521995Y1086379D01*
X522002Y1086381D01*
X522005Y1086376D01*
X523272Y1086171D01*
X523277Y1086174D01*
X523280Y1086171D01*
X535280Y1086171D01*
X535284Y1086174D01*
G37*
G36*
X60304Y852494D02*
X60304Y852494D01*
X60307Y852491D01*
X61429Y852646D01*
X61434Y852651D01*
X61438Y852648D01*
X62509Y853019D01*
X62513Y853025D01*
X62518Y853023D01*
X63495Y853596D01*
X63498Y853602D01*
X63503Y853601D01*
X64350Y854354D01*
X64352Y854361D01*
X64357Y854361D01*
X65041Y855264D01*
X65041Y855271D01*
X65046Y855272D01*
X65541Y856291D01*
X65539Y856298D01*
X65544Y856300D01*
X65831Y857397D01*
X65829Y857401D01*
X65831Y857402D01*
X65829Y857404D01*
X65832Y857406D01*
X65899Y858537D01*
X65897Y858541D01*
X65899Y858543D01*
X65832Y859674D01*
X65827Y859679D01*
X65831Y859683D01*
X65544Y860780D01*
X65538Y860784D01*
X65541Y860789D01*
X65046Y861808D01*
X65040Y861811D01*
X65041Y861816D01*
X64357Y862719D01*
X64350Y862721D01*
X64350Y862726D01*
X63503Y863479D01*
X63496Y863479D01*
X63495Y863484D01*
X62518Y864057D01*
X62511Y864056D01*
X62509Y864061D01*
X61438Y864432D01*
X61432Y864429D01*
X61429Y864434D01*
X60307Y864589D01*
X60302Y864586D01*
X60300Y864589D01*
X48300Y864589D01*
X48295Y864586D01*
X48292Y864589D01*
X47025Y864384D01*
X47019Y864378D01*
X47015Y864381D01*
X45825Y863899D01*
X45821Y863892D01*
X45815Y863894D01*
X44762Y863160D01*
X44760Y863152D01*
X44754Y863153D01*
X43891Y862203D01*
X43890Y862194D01*
X43885Y862194D01*
X43255Y861075D01*
X43256Y861067D01*
X43250Y861065D01*
X42885Y859835D01*
X42888Y859827D01*
X42883Y859824D01*
X42801Y858543D01*
X42804Y858539D01*
X42801Y858537D01*
X42883Y857256D01*
X42889Y857250D01*
X42885Y857245D01*
X43250Y856015D01*
X43257Y856010D01*
X43255Y856005D01*
X43885Y854886D01*
X43892Y854883D01*
X43891Y854877D01*
X44754Y853927D01*
X44762Y853926D01*
X44762Y853920D01*
X45815Y853186D01*
X45823Y853186D01*
X45825Y853181D01*
X47015Y852699D01*
X47022Y852701D01*
X47025Y852696D01*
X48292Y852491D01*
X48297Y852494D01*
X48300Y852491D01*
X60300Y852491D01*
X60304Y852494D01*
G37*
G36*
X60304Y1086174D02*
X60304Y1086174D01*
X60307Y1086171D01*
X61429Y1086326D01*
X61434Y1086331D01*
X61438Y1086328D01*
X62509Y1086699D01*
X62513Y1086705D01*
X62518Y1086703D01*
X63495Y1087276D01*
X63498Y1087282D01*
X63503Y1087281D01*
X64350Y1088034D01*
X64352Y1088041D01*
X64357Y1088041D01*
X65041Y1088944D01*
X65041Y1088951D01*
X65046Y1088952D01*
X65541Y1089971D01*
X65539Y1089978D01*
X65544Y1089980D01*
X65831Y1091077D01*
X65829Y1091081D01*
X65831Y1091082D01*
X65829Y1091084D01*
X65832Y1091086D01*
X65899Y1092217D01*
X65897Y1092221D01*
X65899Y1092223D01*
X65832Y1093354D01*
X65827Y1093359D01*
X65831Y1093363D01*
X65544Y1094460D01*
X65538Y1094464D01*
X65541Y1094469D01*
X65046Y1095488D01*
X65040Y1095491D01*
X65041Y1095496D01*
X64357Y1096399D01*
X64350Y1096401D01*
X64350Y1096406D01*
X63503Y1097159D01*
X63496Y1097159D01*
X63495Y1097164D01*
X62518Y1097737D01*
X62511Y1097736D01*
X62509Y1097741D01*
X61438Y1098112D01*
X61432Y1098109D01*
X61429Y1098114D01*
X60307Y1098269D01*
X60302Y1098266D01*
X60300Y1098269D01*
X48300Y1098269D01*
X48295Y1098266D01*
X48292Y1098269D01*
X47025Y1098064D01*
X47019Y1098058D01*
X47015Y1098061D01*
X45825Y1097579D01*
X45821Y1097572D01*
X45815Y1097574D01*
X44762Y1096840D01*
X44760Y1096832D01*
X44754Y1096833D01*
X43891Y1095883D01*
X43890Y1095874D01*
X43885Y1095874D01*
X43255Y1094755D01*
X43256Y1094747D01*
X43250Y1094745D01*
X42885Y1093515D01*
X42888Y1093507D01*
X42883Y1093504D01*
X42801Y1092223D01*
X42804Y1092219D01*
X42801Y1092217D01*
X42883Y1090936D01*
X42889Y1090930D01*
X42885Y1090925D01*
X43250Y1089695D01*
X43257Y1089690D01*
X43255Y1089685D01*
X43885Y1088566D01*
X43892Y1088563D01*
X43891Y1088557D01*
X44754Y1087607D01*
X44762Y1087606D01*
X44762Y1087600D01*
X45815Y1086866D01*
X45823Y1086866D01*
X45825Y1086861D01*
X47015Y1086379D01*
X47022Y1086381D01*
X47025Y1086376D01*
X48292Y1086171D01*
X48297Y1086174D01*
X48300Y1086171D01*
X60300Y1086171D01*
X60304Y1086174D01*
G37*
G36*
X1010264Y1086174D02*
X1010264Y1086174D01*
X1010267Y1086171D01*
X1011389Y1086326D01*
X1011394Y1086331D01*
X1011398Y1086328D01*
X1012469Y1086699D01*
X1012473Y1086705D01*
X1012478Y1086703D01*
X1013455Y1087276D01*
X1013458Y1087282D01*
X1013463Y1087281D01*
X1014310Y1088034D01*
X1014312Y1088041D01*
X1014317Y1088041D01*
X1015001Y1088944D01*
X1015001Y1088951D01*
X1015006Y1088952D01*
X1015501Y1089971D01*
X1015499Y1089978D01*
X1015504Y1089980D01*
X1015791Y1091077D01*
X1015789Y1091081D01*
X1015791Y1091082D01*
X1015789Y1091084D01*
X1015792Y1091086D01*
X1015859Y1092217D01*
X1015857Y1092221D01*
X1015859Y1092223D01*
X1015792Y1093354D01*
X1015787Y1093359D01*
X1015791Y1093363D01*
X1015504Y1094460D01*
X1015498Y1094464D01*
X1015501Y1094469D01*
X1015006Y1095488D01*
X1015000Y1095491D01*
X1015001Y1095496D01*
X1014317Y1096399D01*
X1014310Y1096401D01*
X1014310Y1096406D01*
X1013463Y1097159D01*
X1013456Y1097159D01*
X1013455Y1097164D01*
X1012478Y1097737D01*
X1012471Y1097736D01*
X1012469Y1097741D01*
X1011398Y1098112D01*
X1011392Y1098109D01*
X1011389Y1098114D01*
X1010267Y1098269D01*
X1010262Y1098266D01*
X1010260Y1098269D01*
X998260Y1098269D01*
X998255Y1098266D01*
X998252Y1098269D01*
X996985Y1098064D01*
X996979Y1098058D01*
X996975Y1098061D01*
X995785Y1097579D01*
X995781Y1097572D01*
X995775Y1097574D01*
X994722Y1096840D01*
X994720Y1096832D01*
X994714Y1096833D01*
X993851Y1095883D01*
X993850Y1095874D01*
X993845Y1095874D01*
X993215Y1094755D01*
X993216Y1094747D01*
X993210Y1094745D01*
X992845Y1093515D01*
X992848Y1093507D01*
X992843Y1093504D01*
X992761Y1092223D01*
X992764Y1092219D01*
X992761Y1092217D01*
X992843Y1090936D01*
X992849Y1090930D01*
X992845Y1090925D01*
X993210Y1089695D01*
X993217Y1089690D01*
X993215Y1089685D01*
X993845Y1088566D01*
X993852Y1088563D01*
X993851Y1088557D01*
X994714Y1087607D01*
X994722Y1087606D01*
X994722Y1087600D01*
X995775Y1086866D01*
X995783Y1086866D01*
X995785Y1086861D01*
X996975Y1086379D01*
X996982Y1086381D01*
X996985Y1086376D01*
X998252Y1086171D01*
X998257Y1086174D01*
X998260Y1086171D01*
X1010260Y1086171D01*
X1010264Y1086174D01*
G37*
G36*
X1010264Y852494D02*
X1010264Y852494D01*
X1010267Y852491D01*
X1011389Y852646D01*
X1011394Y852651D01*
X1011398Y852648D01*
X1012469Y853019D01*
X1012473Y853025D01*
X1012478Y853023D01*
X1013455Y853596D01*
X1013458Y853602D01*
X1013463Y853601D01*
X1014310Y854354D01*
X1014312Y854361D01*
X1014317Y854361D01*
X1015001Y855264D01*
X1015001Y855271D01*
X1015006Y855272D01*
X1015501Y856291D01*
X1015499Y856298D01*
X1015504Y856300D01*
X1015791Y857397D01*
X1015789Y857401D01*
X1015791Y857402D01*
X1015789Y857404D01*
X1015792Y857406D01*
X1015859Y858537D01*
X1015857Y858541D01*
X1015859Y858543D01*
X1015792Y859674D01*
X1015787Y859679D01*
X1015791Y859683D01*
X1015504Y860780D01*
X1015498Y860784D01*
X1015501Y860789D01*
X1015006Y861808D01*
X1015000Y861811D01*
X1015001Y861816D01*
X1014317Y862719D01*
X1014310Y862721D01*
X1014310Y862726D01*
X1013463Y863479D01*
X1013456Y863479D01*
X1013455Y863484D01*
X1012478Y864057D01*
X1012471Y864056D01*
X1012469Y864061D01*
X1011398Y864432D01*
X1011392Y864429D01*
X1011389Y864434D01*
X1010267Y864589D01*
X1010262Y864586D01*
X1010260Y864589D01*
X998260Y864589D01*
X998255Y864586D01*
X998252Y864589D01*
X996985Y864384D01*
X996979Y864378D01*
X996975Y864381D01*
X995785Y863899D01*
X995781Y863892D01*
X995775Y863894D01*
X994722Y863160D01*
X994720Y863152D01*
X994714Y863153D01*
X993851Y862203D01*
X993850Y862194D01*
X993845Y862194D01*
X993215Y861075D01*
X993216Y861067D01*
X993210Y861065D01*
X992845Y859835D01*
X992848Y859827D01*
X992843Y859824D01*
X992761Y858543D01*
X992764Y858539D01*
X992761Y858537D01*
X992843Y857256D01*
X992849Y857250D01*
X992845Y857245D01*
X993210Y856015D01*
X993217Y856010D01*
X993215Y856005D01*
X993845Y854886D01*
X993852Y854883D01*
X993851Y854877D01*
X994714Y853927D01*
X994722Y853926D01*
X994722Y853920D01*
X995775Y853186D01*
X995783Y853186D01*
X995785Y853181D01*
X996975Y852699D01*
X996982Y852701D01*
X996985Y852696D01*
X998252Y852491D01*
X998257Y852494D01*
X998260Y852491D01*
X1010260Y852491D01*
X1010264Y852494D01*
G37*
G36*
X535284Y999774D02*
X535284Y999774D01*
X535287Y999771D01*
X536409Y999926D01*
X536414Y999931D01*
X536418Y999928D01*
X537489Y1000299D01*
X537493Y1000305D01*
X537498Y1000303D01*
X538475Y1000876D01*
X538478Y1000882D01*
X538483Y1000881D01*
X539330Y1001634D01*
X539332Y1001641D01*
X539337Y1001641D01*
X540021Y1002544D01*
X540021Y1002551D01*
X540026Y1002552D01*
X540521Y1003571D01*
X540519Y1003578D01*
X540524Y1003580D01*
X540811Y1004677D01*
X540809Y1004681D01*
X540811Y1004682D01*
X540809Y1004684D01*
X540812Y1004686D01*
X540879Y1005817D01*
X540877Y1005821D01*
X540879Y1005823D01*
X540812Y1006954D01*
X540807Y1006959D01*
X540811Y1006963D01*
X540524Y1008060D01*
X540518Y1008064D01*
X540521Y1008069D01*
X540026Y1009088D01*
X540020Y1009091D01*
X540021Y1009096D01*
X539337Y1009999D01*
X539330Y1010001D01*
X539330Y1010006D01*
X538483Y1010759D01*
X538476Y1010759D01*
X538475Y1010764D01*
X537498Y1011337D01*
X537491Y1011336D01*
X537489Y1011341D01*
X536418Y1011712D01*
X536412Y1011709D01*
X536409Y1011714D01*
X535287Y1011869D01*
X535282Y1011866D01*
X535280Y1011869D01*
X523280Y1011869D01*
X523275Y1011866D01*
X523272Y1011869D01*
X522005Y1011664D01*
X521999Y1011658D01*
X521995Y1011661D01*
X520805Y1011179D01*
X520801Y1011172D01*
X520795Y1011174D01*
X519742Y1010440D01*
X519740Y1010432D01*
X519734Y1010433D01*
X518871Y1009483D01*
X518870Y1009474D01*
X518865Y1009474D01*
X518235Y1008355D01*
X518236Y1008347D01*
X518230Y1008345D01*
X517865Y1007115D01*
X517868Y1007107D01*
X517863Y1007104D01*
X517781Y1005823D01*
X517784Y1005819D01*
X517781Y1005817D01*
X517863Y1004536D01*
X517869Y1004530D01*
X517865Y1004525D01*
X518230Y1003295D01*
X518237Y1003290D01*
X518235Y1003285D01*
X518865Y1002166D01*
X518872Y1002163D01*
X518871Y1002157D01*
X519734Y1001207D01*
X519742Y1001206D01*
X519742Y1001200D01*
X520795Y1000466D01*
X520803Y1000466D01*
X520805Y1000461D01*
X521995Y999979D01*
X522002Y999981D01*
X522005Y999976D01*
X523272Y999771D01*
X523277Y999774D01*
X523280Y999771D01*
X535280Y999771D01*
X535284Y999774D01*
G37*
G36*
X535284Y151454D02*
X535284Y151454D01*
X535287Y151451D01*
X536409Y151606D01*
X536414Y151611D01*
X536418Y151608D01*
X537489Y151979D01*
X537493Y151985D01*
X537498Y151983D01*
X538475Y152556D01*
X538478Y152562D01*
X538483Y152561D01*
X539330Y153314D01*
X539332Y153321D01*
X539337Y153321D01*
X540021Y154224D01*
X540021Y154231D01*
X540026Y154232D01*
X540521Y155251D01*
X540519Y155258D01*
X540524Y155260D01*
X540811Y156357D01*
X540809Y156361D01*
X540811Y156362D01*
X540809Y156364D01*
X540812Y156366D01*
X540879Y157497D01*
X540877Y157501D01*
X540879Y157503D01*
X540812Y158634D01*
X540807Y158639D01*
X540811Y158643D01*
X540524Y159740D01*
X540518Y159744D01*
X540521Y159749D01*
X540026Y160768D01*
X540020Y160771D01*
X540021Y160776D01*
X539337Y161679D01*
X539330Y161681D01*
X539330Y161686D01*
X538483Y162439D01*
X538476Y162439D01*
X538475Y162444D01*
X537498Y163017D01*
X537491Y163016D01*
X537489Y163021D01*
X536418Y163392D01*
X536412Y163389D01*
X536409Y163394D01*
X535287Y163549D01*
X535282Y163546D01*
X535280Y163549D01*
X523280Y163549D01*
X523275Y163546D01*
X523272Y163549D01*
X522005Y163344D01*
X521999Y163338D01*
X521995Y163341D01*
X520805Y162859D01*
X520801Y162852D01*
X520795Y162854D01*
X519742Y162120D01*
X519740Y162112D01*
X519734Y162113D01*
X518871Y161163D01*
X518870Y161154D01*
X518865Y161154D01*
X518235Y160035D01*
X518236Y160027D01*
X518230Y160025D01*
X517865Y158795D01*
X517868Y158787D01*
X517863Y158784D01*
X517781Y157503D01*
X517784Y157499D01*
X517781Y157497D01*
X517863Y156216D01*
X517869Y156210D01*
X517865Y156205D01*
X518230Y154975D01*
X518237Y154970D01*
X518235Y154965D01*
X518865Y153846D01*
X518872Y153843D01*
X518871Y153837D01*
X519734Y152887D01*
X519742Y152886D01*
X519742Y152880D01*
X520795Y152146D01*
X520803Y152146D01*
X520805Y152141D01*
X521995Y151659D01*
X522002Y151661D01*
X522005Y151656D01*
X523272Y151451D01*
X523277Y151454D01*
X523280Y151451D01*
X535280Y151451D01*
X535284Y151454D01*
G37*
G36*
X60304Y618814D02*
X60304Y618814D01*
X60307Y618811D01*
X61429Y618966D01*
X61434Y618971D01*
X61438Y618968D01*
X62509Y619339D01*
X62513Y619345D01*
X62518Y619343D01*
X63495Y619916D01*
X63498Y619922D01*
X63503Y619921D01*
X64350Y620674D01*
X64352Y620681D01*
X64357Y620681D01*
X65041Y621584D01*
X65041Y621591D01*
X65046Y621592D01*
X65541Y622611D01*
X65539Y622618D01*
X65544Y622620D01*
X65831Y623717D01*
X65829Y623721D01*
X65831Y623722D01*
X65829Y623724D01*
X65832Y623726D01*
X65899Y624857D01*
X65897Y624861D01*
X65899Y624863D01*
X65832Y625994D01*
X65827Y625999D01*
X65831Y626003D01*
X65544Y627100D01*
X65538Y627104D01*
X65541Y627109D01*
X65046Y628128D01*
X65040Y628131D01*
X65041Y628136D01*
X64357Y629039D01*
X64350Y629041D01*
X64350Y629046D01*
X63503Y629799D01*
X63496Y629799D01*
X63495Y629804D01*
X62518Y630377D01*
X62511Y630376D01*
X62509Y630381D01*
X61438Y630752D01*
X61432Y630749D01*
X61429Y630754D01*
X60307Y630909D01*
X60302Y630906D01*
X60300Y630909D01*
X48300Y630909D01*
X48295Y630906D01*
X48292Y630909D01*
X47025Y630704D01*
X47019Y630698D01*
X47015Y630701D01*
X45825Y630219D01*
X45821Y630212D01*
X45815Y630214D01*
X44762Y629480D01*
X44760Y629472D01*
X44754Y629473D01*
X43891Y628523D01*
X43890Y628514D01*
X43885Y628514D01*
X43255Y627395D01*
X43256Y627387D01*
X43250Y627385D01*
X42885Y626155D01*
X42888Y626147D01*
X42883Y626144D01*
X42801Y624863D01*
X42804Y624859D01*
X42801Y624857D01*
X42883Y623576D01*
X42889Y623570D01*
X42885Y623565D01*
X43250Y622335D01*
X43257Y622330D01*
X43255Y622325D01*
X43885Y621206D01*
X43892Y621203D01*
X43891Y621197D01*
X44754Y620247D01*
X44762Y620246D01*
X44762Y620240D01*
X45815Y619506D01*
X45823Y619506D01*
X45825Y619501D01*
X47015Y619019D01*
X47022Y619021D01*
X47025Y619016D01*
X48292Y618811D01*
X48297Y618814D01*
X48300Y618811D01*
X60300Y618811D01*
X60304Y618814D01*
G37*
G36*
X535284Y618814D02*
X535284Y618814D01*
X535287Y618811D01*
X536409Y618966D01*
X536414Y618971D01*
X536418Y618968D01*
X537489Y619339D01*
X537493Y619345D01*
X537498Y619343D01*
X538475Y619916D01*
X538478Y619922D01*
X538483Y619921D01*
X539330Y620674D01*
X539332Y620681D01*
X539337Y620681D01*
X540021Y621584D01*
X540021Y621591D01*
X540026Y621592D01*
X540521Y622611D01*
X540519Y622618D01*
X540524Y622620D01*
X540811Y623717D01*
X540809Y623721D01*
X540811Y623722D01*
X540809Y623724D01*
X540812Y623726D01*
X540879Y624857D01*
X540877Y624861D01*
X540879Y624863D01*
X540812Y625994D01*
X540807Y625999D01*
X540811Y626003D01*
X540524Y627100D01*
X540518Y627104D01*
X540521Y627109D01*
X540026Y628128D01*
X540020Y628131D01*
X540021Y628136D01*
X539337Y629039D01*
X539330Y629041D01*
X539330Y629046D01*
X538483Y629799D01*
X538476Y629799D01*
X538475Y629804D01*
X537498Y630377D01*
X537491Y630376D01*
X537489Y630381D01*
X536418Y630752D01*
X536412Y630749D01*
X536409Y630754D01*
X535287Y630909D01*
X535282Y630906D01*
X535280Y630909D01*
X523280Y630909D01*
X523275Y630906D01*
X523272Y630909D01*
X522005Y630704D01*
X521999Y630698D01*
X521995Y630701D01*
X520805Y630219D01*
X520801Y630212D01*
X520795Y630214D01*
X519742Y629480D01*
X519740Y629472D01*
X519734Y629473D01*
X518871Y628523D01*
X518870Y628514D01*
X518865Y628514D01*
X518235Y627395D01*
X518236Y627387D01*
X518230Y627385D01*
X517865Y626155D01*
X517868Y626147D01*
X517863Y626144D01*
X517781Y624863D01*
X517784Y624859D01*
X517781Y624857D01*
X517863Y623576D01*
X517869Y623570D01*
X517865Y623565D01*
X518230Y622335D01*
X518237Y622330D01*
X518235Y622325D01*
X518865Y621206D01*
X518872Y621203D01*
X518871Y621197D01*
X519734Y620247D01*
X519742Y620246D01*
X519742Y620240D01*
X520795Y619506D01*
X520803Y619506D01*
X520805Y619501D01*
X521995Y619019D01*
X522002Y619021D01*
X522005Y619016D01*
X523272Y618811D01*
X523277Y618814D01*
X523280Y618811D01*
X535280Y618811D01*
X535284Y618814D01*
G37*
G36*
X1010264Y999774D02*
X1010264Y999774D01*
X1010267Y999771D01*
X1011389Y999926D01*
X1011394Y999931D01*
X1011398Y999928D01*
X1012469Y1000299D01*
X1012473Y1000305D01*
X1012478Y1000303D01*
X1013455Y1000876D01*
X1013458Y1000882D01*
X1013463Y1000881D01*
X1014310Y1001634D01*
X1014312Y1001641D01*
X1014317Y1001641D01*
X1015001Y1002544D01*
X1015001Y1002551D01*
X1015006Y1002552D01*
X1015501Y1003571D01*
X1015499Y1003578D01*
X1015504Y1003580D01*
X1015791Y1004677D01*
X1015789Y1004681D01*
X1015791Y1004682D01*
X1015789Y1004684D01*
X1015792Y1004686D01*
X1015859Y1005817D01*
X1015857Y1005821D01*
X1015859Y1005823D01*
X1015792Y1006954D01*
X1015787Y1006959D01*
X1015791Y1006963D01*
X1015504Y1008060D01*
X1015498Y1008064D01*
X1015501Y1008069D01*
X1015006Y1009088D01*
X1015000Y1009091D01*
X1015001Y1009096D01*
X1014317Y1009999D01*
X1014310Y1010001D01*
X1014310Y1010006D01*
X1013463Y1010759D01*
X1013456Y1010759D01*
X1013455Y1010764D01*
X1012478Y1011337D01*
X1012471Y1011336D01*
X1012469Y1011341D01*
X1011398Y1011712D01*
X1011392Y1011709D01*
X1011389Y1011714D01*
X1010267Y1011869D01*
X1010262Y1011866D01*
X1010260Y1011869D01*
X998260Y1011869D01*
X998255Y1011866D01*
X998252Y1011869D01*
X996985Y1011664D01*
X996979Y1011658D01*
X996975Y1011661D01*
X995785Y1011179D01*
X995781Y1011172D01*
X995775Y1011174D01*
X994722Y1010440D01*
X994720Y1010432D01*
X994714Y1010433D01*
X993851Y1009483D01*
X993850Y1009474D01*
X993845Y1009474D01*
X993215Y1008355D01*
X993216Y1008347D01*
X993210Y1008345D01*
X992845Y1007115D01*
X992848Y1007107D01*
X992843Y1007104D01*
X992761Y1005823D01*
X992764Y1005819D01*
X992761Y1005817D01*
X992843Y1004536D01*
X992849Y1004530D01*
X992845Y1004525D01*
X993210Y1003295D01*
X993217Y1003290D01*
X993215Y1003285D01*
X993845Y1002166D01*
X993852Y1002163D01*
X993851Y1002157D01*
X994714Y1001207D01*
X994722Y1001206D01*
X994722Y1001200D01*
X995775Y1000466D01*
X995783Y1000466D01*
X995785Y1000461D01*
X996975Y999979D01*
X996982Y999981D01*
X996985Y999976D01*
X998252Y999771D01*
X998257Y999774D01*
X998260Y999771D01*
X1010260Y999771D01*
X1010264Y999774D01*
G37*
G36*
X1010264Y766094D02*
X1010264Y766094D01*
X1010267Y766091D01*
X1011389Y766246D01*
X1011394Y766251D01*
X1011398Y766248D01*
X1012469Y766619D01*
X1012473Y766625D01*
X1012478Y766623D01*
X1013455Y767196D01*
X1013458Y767202D01*
X1013463Y767201D01*
X1014310Y767954D01*
X1014312Y767961D01*
X1014317Y767961D01*
X1015001Y768864D01*
X1015001Y768871D01*
X1015006Y768872D01*
X1015501Y769891D01*
X1015499Y769898D01*
X1015504Y769900D01*
X1015791Y770997D01*
X1015789Y771001D01*
X1015791Y771002D01*
X1015789Y771004D01*
X1015792Y771006D01*
X1015859Y772137D01*
X1015857Y772141D01*
X1015859Y772143D01*
X1015792Y773274D01*
X1015787Y773279D01*
X1015791Y773283D01*
X1015504Y774380D01*
X1015498Y774384D01*
X1015501Y774389D01*
X1015006Y775408D01*
X1015000Y775411D01*
X1015001Y775416D01*
X1014317Y776319D01*
X1014310Y776321D01*
X1014310Y776326D01*
X1013463Y777079D01*
X1013456Y777079D01*
X1013455Y777084D01*
X1012478Y777657D01*
X1012471Y777656D01*
X1012469Y777661D01*
X1011398Y778032D01*
X1011392Y778029D01*
X1011389Y778034D01*
X1010267Y778189D01*
X1010262Y778186D01*
X1010260Y778189D01*
X998260Y778189D01*
X998255Y778186D01*
X998252Y778189D01*
X996985Y777984D01*
X996979Y777978D01*
X996975Y777981D01*
X995785Y777499D01*
X995781Y777492D01*
X995775Y777494D01*
X994722Y776760D01*
X994720Y776752D01*
X994714Y776753D01*
X993851Y775803D01*
X993850Y775794D01*
X993845Y775794D01*
X993215Y774675D01*
X993216Y774667D01*
X993210Y774665D01*
X992845Y773435D01*
X992848Y773427D01*
X992843Y773424D01*
X992761Y772143D01*
X992764Y772139D01*
X992761Y772137D01*
X992843Y770856D01*
X992849Y770850D01*
X992845Y770845D01*
X993210Y769615D01*
X993217Y769610D01*
X993215Y769605D01*
X993845Y768486D01*
X993852Y768483D01*
X993851Y768477D01*
X994714Y767527D01*
X994722Y767526D01*
X994722Y767520D01*
X995775Y766786D01*
X995783Y766786D01*
X995785Y766781D01*
X996975Y766299D01*
X996982Y766301D01*
X996985Y766296D01*
X998252Y766091D01*
X998257Y766094D01*
X998260Y766091D01*
X1010260Y766091D01*
X1010264Y766094D01*
G37*
G36*
X535284Y766094D02*
X535284Y766094D01*
X535287Y766091D01*
X536409Y766246D01*
X536414Y766251D01*
X536418Y766248D01*
X537489Y766619D01*
X537493Y766625D01*
X537498Y766623D01*
X538475Y767196D01*
X538478Y767202D01*
X538483Y767201D01*
X539330Y767954D01*
X539332Y767961D01*
X539337Y767961D01*
X540021Y768864D01*
X540021Y768871D01*
X540026Y768872D01*
X540521Y769891D01*
X540519Y769898D01*
X540524Y769900D01*
X540811Y770997D01*
X540809Y771001D01*
X540811Y771002D01*
X540809Y771004D01*
X540812Y771006D01*
X540879Y772137D01*
X540877Y772141D01*
X540879Y772143D01*
X540812Y773274D01*
X540807Y773279D01*
X540811Y773283D01*
X540524Y774380D01*
X540518Y774384D01*
X540521Y774389D01*
X540026Y775408D01*
X540020Y775411D01*
X540021Y775416D01*
X539337Y776319D01*
X539330Y776321D01*
X539330Y776326D01*
X538483Y777079D01*
X538476Y777079D01*
X538475Y777084D01*
X537498Y777657D01*
X537491Y777656D01*
X537489Y777661D01*
X536418Y778032D01*
X536412Y778029D01*
X536409Y778034D01*
X535287Y778189D01*
X535282Y778186D01*
X535280Y778189D01*
X523280Y778189D01*
X523275Y778186D01*
X523272Y778189D01*
X522005Y777984D01*
X521999Y777978D01*
X521995Y777981D01*
X520805Y777499D01*
X520801Y777492D01*
X520795Y777494D01*
X519742Y776760D01*
X519740Y776752D01*
X519734Y776753D01*
X518871Y775803D01*
X518870Y775794D01*
X518865Y775794D01*
X518235Y774675D01*
X518236Y774667D01*
X518230Y774665D01*
X517865Y773435D01*
X517868Y773427D01*
X517863Y773424D01*
X517781Y772143D01*
X517784Y772139D01*
X517781Y772137D01*
X517863Y770856D01*
X517869Y770850D01*
X517865Y770845D01*
X518230Y769615D01*
X518237Y769610D01*
X518235Y769605D01*
X518865Y768486D01*
X518872Y768483D01*
X518871Y768477D01*
X519734Y767527D01*
X519742Y767526D01*
X519742Y767520D01*
X520795Y766786D01*
X520803Y766786D01*
X520805Y766781D01*
X521995Y766299D01*
X522002Y766301D01*
X522005Y766296D01*
X523272Y766091D01*
X523277Y766094D01*
X523280Y766091D01*
X535280Y766091D01*
X535284Y766094D01*
G37*
G36*
X60304Y766094D02*
X60304Y766094D01*
X60307Y766091D01*
X61429Y766246D01*
X61434Y766251D01*
X61438Y766248D01*
X62509Y766619D01*
X62513Y766625D01*
X62518Y766623D01*
X63495Y767196D01*
X63498Y767202D01*
X63503Y767201D01*
X64350Y767954D01*
X64352Y767961D01*
X64357Y767961D01*
X65041Y768864D01*
X65041Y768871D01*
X65046Y768872D01*
X65541Y769891D01*
X65539Y769898D01*
X65544Y769900D01*
X65831Y770997D01*
X65829Y771001D01*
X65831Y771002D01*
X65829Y771004D01*
X65832Y771006D01*
X65899Y772137D01*
X65897Y772141D01*
X65899Y772143D01*
X65832Y773274D01*
X65827Y773279D01*
X65831Y773283D01*
X65544Y774380D01*
X65538Y774384D01*
X65541Y774389D01*
X65046Y775408D01*
X65040Y775411D01*
X65041Y775416D01*
X64357Y776319D01*
X64350Y776321D01*
X64350Y776326D01*
X63503Y777079D01*
X63496Y777079D01*
X63495Y777084D01*
X62518Y777657D01*
X62511Y777656D01*
X62509Y777661D01*
X61438Y778032D01*
X61432Y778029D01*
X61429Y778034D01*
X60307Y778189D01*
X60302Y778186D01*
X60300Y778189D01*
X48300Y778189D01*
X48295Y778186D01*
X48292Y778189D01*
X47025Y777984D01*
X47019Y777978D01*
X47015Y777981D01*
X45825Y777499D01*
X45821Y777492D01*
X45815Y777494D01*
X44762Y776760D01*
X44760Y776752D01*
X44754Y776753D01*
X43891Y775803D01*
X43890Y775794D01*
X43885Y775794D01*
X43255Y774675D01*
X43256Y774667D01*
X43250Y774665D01*
X42885Y773435D01*
X42888Y773427D01*
X42883Y773424D01*
X42801Y772143D01*
X42804Y772139D01*
X42801Y772137D01*
X42883Y770856D01*
X42889Y770850D01*
X42885Y770845D01*
X43250Y769615D01*
X43257Y769610D01*
X43255Y769605D01*
X43885Y768486D01*
X43892Y768483D01*
X43891Y768477D01*
X44754Y767527D01*
X44762Y767526D01*
X44762Y767520D01*
X45815Y766786D01*
X45823Y766786D01*
X45825Y766781D01*
X47015Y766299D01*
X47022Y766301D01*
X47025Y766296D01*
X48292Y766091D01*
X48297Y766094D01*
X48300Y766091D01*
X60300Y766091D01*
X60304Y766094D01*
G37*
G36*
X1010264Y618814D02*
X1010264Y618814D01*
X1010267Y618811D01*
X1011389Y618966D01*
X1011394Y618971D01*
X1011398Y618968D01*
X1012469Y619339D01*
X1012473Y619345D01*
X1012478Y619343D01*
X1013455Y619916D01*
X1013458Y619922D01*
X1013463Y619921D01*
X1014310Y620674D01*
X1014312Y620681D01*
X1014317Y620681D01*
X1015001Y621584D01*
X1015001Y621591D01*
X1015006Y621592D01*
X1015501Y622611D01*
X1015499Y622618D01*
X1015504Y622620D01*
X1015791Y623717D01*
X1015789Y623721D01*
X1015791Y623722D01*
X1015789Y623724D01*
X1015792Y623726D01*
X1015859Y624857D01*
X1015857Y624861D01*
X1015859Y624863D01*
X1015792Y625994D01*
X1015787Y625999D01*
X1015791Y626003D01*
X1015504Y627100D01*
X1015498Y627104D01*
X1015501Y627109D01*
X1015006Y628128D01*
X1015000Y628131D01*
X1015001Y628136D01*
X1014317Y629039D01*
X1014310Y629041D01*
X1014310Y629046D01*
X1013463Y629799D01*
X1013456Y629799D01*
X1013455Y629804D01*
X1012478Y630377D01*
X1012471Y630376D01*
X1012469Y630381D01*
X1011398Y630752D01*
X1011392Y630749D01*
X1011389Y630754D01*
X1010267Y630909D01*
X1010262Y630906D01*
X1010260Y630909D01*
X998260Y630909D01*
X998255Y630906D01*
X998252Y630909D01*
X996985Y630704D01*
X996979Y630698D01*
X996975Y630701D01*
X995785Y630219D01*
X995781Y630212D01*
X995775Y630214D01*
X994722Y629480D01*
X994720Y629472D01*
X994714Y629473D01*
X993851Y628523D01*
X993850Y628514D01*
X993845Y628514D01*
X993215Y627395D01*
X993216Y627387D01*
X993210Y627385D01*
X992845Y626155D01*
X992848Y626147D01*
X992843Y626144D01*
X992761Y624863D01*
X992764Y624859D01*
X992761Y624857D01*
X992843Y623576D01*
X992849Y623570D01*
X992845Y623565D01*
X993210Y622335D01*
X993217Y622330D01*
X993215Y622325D01*
X993845Y621206D01*
X993852Y621203D01*
X993851Y621197D01*
X994714Y620247D01*
X994722Y620246D01*
X994722Y620240D01*
X995775Y619506D01*
X995783Y619506D01*
X995785Y619501D01*
X996975Y619019D01*
X996982Y619021D01*
X996985Y619016D01*
X998252Y618811D01*
X998257Y618814D01*
X998260Y618811D01*
X1010260Y618811D01*
X1010264Y618814D01*
G37*
G36*
X535284Y852494D02*
X535284Y852494D01*
X535287Y852491D01*
X536409Y852646D01*
X536414Y852651D01*
X536418Y852648D01*
X537489Y853019D01*
X537493Y853025D01*
X537498Y853023D01*
X538475Y853596D01*
X538478Y853602D01*
X538483Y853601D01*
X539330Y854354D01*
X539332Y854361D01*
X539337Y854361D01*
X540021Y855264D01*
X540021Y855271D01*
X540026Y855272D01*
X540521Y856291D01*
X540519Y856298D01*
X540524Y856300D01*
X540811Y857397D01*
X540809Y857401D01*
X540811Y857402D01*
X540809Y857404D01*
X540812Y857406D01*
X540879Y858537D01*
X540877Y858541D01*
X540879Y858543D01*
X540812Y859674D01*
X540807Y859679D01*
X540811Y859683D01*
X540524Y860780D01*
X540518Y860784D01*
X540521Y860789D01*
X540026Y861808D01*
X540020Y861811D01*
X540021Y861816D01*
X539337Y862719D01*
X539330Y862721D01*
X539330Y862726D01*
X538483Y863479D01*
X538476Y863479D01*
X538475Y863484D01*
X537498Y864057D01*
X537491Y864056D01*
X537489Y864061D01*
X536418Y864432D01*
X536412Y864429D01*
X536409Y864434D01*
X535287Y864589D01*
X535282Y864586D01*
X535280Y864589D01*
X523280Y864589D01*
X523275Y864586D01*
X523272Y864589D01*
X522005Y864384D01*
X521999Y864378D01*
X521995Y864381D01*
X520805Y863899D01*
X520801Y863892D01*
X520795Y863894D01*
X519742Y863160D01*
X519740Y863152D01*
X519734Y863153D01*
X518871Y862203D01*
X518870Y862194D01*
X518865Y862194D01*
X518235Y861075D01*
X518236Y861067D01*
X518230Y861065D01*
X517865Y859835D01*
X517868Y859827D01*
X517863Y859824D01*
X517781Y858543D01*
X517784Y858539D01*
X517781Y858537D01*
X517863Y857256D01*
X517869Y857250D01*
X517865Y857245D01*
X518230Y856015D01*
X518237Y856010D01*
X518235Y856005D01*
X518865Y854886D01*
X518872Y854883D01*
X518871Y854877D01*
X519734Y853927D01*
X519742Y853926D01*
X519742Y853920D01*
X520795Y853186D01*
X520803Y853186D01*
X520805Y853181D01*
X521995Y852699D01*
X522002Y852701D01*
X522005Y852696D01*
X523272Y852491D01*
X523277Y852494D01*
X523280Y852491D01*
X535280Y852491D01*
X535284Y852494D01*
G37*
G36*
X60304Y532414D02*
X60304Y532414D01*
X60307Y532411D01*
X61429Y532566D01*
X61434Y532571D01*
X61438Y532568D01*
X62509Y532939D01*
X62513Y532945D01*
X62518Y532943D01*
X63495Y533516D01*
X63498Y533522D01*
X63503Y533521D01*
X64350Y534274D01*
X64352Y534281D01*
X64357Y534281D01*
X65041Y535184D01*
X65041Y535191D01*
X65046Y535192D01*
X65541Y536211D01*
X65539Y536218D01*
X65544Y536220D01*
X65831Y537317D01*
X65829Y537321D01*
X65831Y537322D01*
X65829Y537324D01*
X65832Y537326D01*
X65899Y538457D01*
X65897Y538461D01*
X65899Y538463D01*
X65832Y539594D01*
X65827Y539599D01*
X65831Y539603D01*
X65544Y540700D01*
X65538Y540704D01*
X65541Y540709D01*
X65046Y541728D01*
X65040Y541731D01*
X65041Y541736D01*
X64357Y542639D01*
X64350Y542641D01*
X64350Y542646D01*
X63503Y543399D01*
X63496Y543399D01*
X63495Y543404D01*
X62518Y543977D01*
X62511Y543976D01*
X62509Y543981D01*
X61438Y544352D01*
X61432Y544349D01*
X61429Y544354D01*
X60307Y544509D01*
X60302Y544506D01*
X60300Y544509D01*
X48300Y544509D01*
X48295Y544506D01*
X48292Y544509D01*
X47025Y544304D01*
X47019Y544298D01*
X47015Y544301D01*
X45825Y543819D01*
X45821Y543812D01*
X45815Y543814D01*
X44762Y543080D01*
X44760Y543072D01*
X44754Y543073D01*
X43891Y542123D01*
X43890Y542114D01*
X43885Y542114D01*
X43255Y540995D01*
X43256Y540987D01*
X43250Y540985D01*
X42885Y539755D01*
X42888Y539747D01*
X42883Y539744D01*
X42801Y538463D01*
X42804Y538459D01*
X42801Y538457D01*
X42883Y537176D01*
X42889Y537170D01*
X42885Y537165D01*
X43250Y535935D01*
X43257Y535930D01*
X43255Y535925D01*
X43885Y534806D01*
X43892Y534803D01*
X43891Y534797D01*
X44754Y533847D01*
X44762Y533846D01*
X44762Y533840D01*
X45815Y533106D01*
X45823Y533106D01*
X45825Y533101D01*
X47015Y532619D01*
X47022Y532621D01*
X47025Y532616D01*
X48292Y532411D01*
X48297Y532414D01*
X48300Y532411D01*
X60300Y532411D01*
X60304Y532414D01*
G37*
G36*
X535284Y532414D02*
X535284Y532414D01*
X535287Y532411D01*
X536409Y532566D01*
X536414Y532571D01*
X536418Y532568D01*
X537489Y532939D01*
X537493Y532945D01*
X537498Y532943D01*
X538475Y533516D01*
X538478Y533522D01*
X538483Y533521D01*
X539330Y534274D01*
X539332Y534281D01*
X539337Y534281D01*
X540021Y535184D01*
X540021Y535191D01*
X540026Y535192D01*
X540521Y536211D01*
X540519Y536218D01*
X540524Y536220D01*
X540811Y537317D01*
X540809Y537321D01*
X540811Y537322D01*
X540809Y537324D01*
X540812Y537326D01*
X540879Y538457D01*
X540877Y538461D01*
X540879Y538463D01*
X540812Y539594D01*
X540807Y539599D01*
X540811Y539603D01*
X540524Y540700D01*
X540518Y540704D01*
X540521Y540709D01*
X540026Y541728D01*
X540020Y541731D01*
X540021Y541736D01*
X539337Y542639D01*
X539330Y542641D01*
X539330Y542646D01*
X538483Y543399D01*
X538476Y543399D01*
X538475Y543404D01*
X537498Y543977D01*
X537491Y543976D01*
X537489Y543981D01*
X536418Y544352D01*
X536412Y544349D01*
X536409Y544354D01*
X535287Y544509D01*
X535282Y544506D01*
X535280Y544509D01*
X523280Y544509D01*
X523275Y544506D01*
X523272Y544509D01*
X522005Y544304D01*
X521999Y544298D01*
X521995Y544301D01*
X520805Y543819D01*
X520801Y543812D01*
X520795Y543814D01*
X519742Y543080D01*
X519740Y543072D01*
X519734Y543073D01*
X518871Y542123D01*
X518870Y542114D01*
X518865Y542114D01*
X518235Y540995D01*
X518236Y540987D01*
X518230Y540985D01*
X517865Y539755D01*
X517868Y539747D01*
X517863Y539744D01*
X517781Y538463D01*
X517784Y538459D01*
X517781Y538457D01*
X517863Y537176D01*
X517869Y537170D01*
X517865Y537165D01*
X518230Y535935D01*
X518237Y535930D01*
X518235Y535925D01*
X518865Y534806D01*
X518872Y534803D01*
X518871Y534797D01*
X519734Y533847D01*
X519742Y533846D01*
X519742Y533840D01*
X520795Y533106D01*
X520803Y533106D01*
X520805Y533101D01*
X521995Y532619D01*
X522002Y532621D01*
X522005Y532616D01*
X523272Y532411D01*
X523277Y532414D01*
X523280Y532411D01*
X535280Y532411D01*
X535284Y532414D01*
G37*
G36*
X1010264Y532414D02*
X1010264Y532414D01*
X1010267Y532411D01*
X1011389Y532566D01*
X1011394Y532571D01*
X1011398Y532568D01*
X1012469Y532939D01*
X1012473Y532945D01*
X1012478Y532943D01*
X1013455Y533516D01*
X1013458Y533522D01*
X1013463Y533521D01*
X1014310Y534274D01*
X1014312Y534281D01*
X1014317Y534281D01*
X1015001Y535184D01*
X1015001Y535191D01*
X1015006Y535192D01*
X1015501Y536211D01*
X1015499Y536218D01*
X1015504Y536220D01*
X1015791Y537317D01*
X1015789Y537321D01*
X1015791Y537322D01*
X1015789Y537324D01*
X1015792Y537326D01*
X1015859Y538457D01*
X1015857Y538461D01*
X1015859Y538463D01*
X1015792Y539594D01*
X1015787Y539599D01*
X1015791Y539603D01*
X1015504Y540700D01*
X1015498Y540704D01*
X1015501Y540709D01*
X1015006Y541728D01*
X1015000Y541731D01*
X1015001Y541736D01*
X1014317Y542639D01*
X1014310Y542641D01*
X1014310Y542646D01*
X1013463Y543399D01*
X1013456Y543399D01*
X1013455Y543404D01*
X1012478Y543977D01*
X1012471Y543976D01*
X1012469Y543981D01*
X1011398Y544352D01*
X1011392Y544349D01*
X1011389Y544354D01*
X1010267Y544509D01*
X1010262Y544506D01*
X1010260Y544509D01*
X998260Y544509D01*
X998255Y544506D01*
X998252Y544509D01*
X996985Y544304D01*
X996979Y544298D01*
X996975Y544301D01*
X995785Y543819D01*
X995781Y543812D01*
X995775Y543814D01*
X994722Y543080D01*
X994720Y543072D01*
X994714Y543073D01*
X993851Y542123D01*
X993850Y542114D01*
X993845Y542114D01*
X993215Y540995D01*
X993216Y540987D01*
X993210Y540985D01*
X992845Y539755D01*
X992848Y539747D01*
X992843Y539744D01*
X992761Y538463D01*
X992764Y538459D01*
X992761Y538457D01*
X992843Y537176D01*
X992849Y537170D01*
X992845Y537165D01*
X993210Y535935D01*
X993217Y535930D01*
X993215Y535925D01*
X993845Y534806D01*
X993852Y534803D01*
X993851Y534797D01*
X994714Y533847D01*
X994722Y533846D01*
X994722Y533840D01*
X995775Y533106D01*
X995783Y533106D01*
X995785Y533101D01*
X996975Y532619D01*
X996982Y532621D01*
X996985Y532616D01*
X998252Y532411D01*
X998257Y532414D01*
X998260Y532411D01*
X1010260Y532411D01*
X1010264Y532414D01*
G37*
G36*
X1010264Y385134D02*
X1010264Y385134D01*
X1010267Y385131D01*
X1011389Y385286D01*
X1011394Y385291D01*
X1011398Y385288D01*
X1012469Y385659D01*
X1012473Y385665D01*
X1012478Y385663D01*
X1013455Y386236D01*
X1013458Y386242D01*
X1013463Y386241D01*
X1014310Y386994D01*
X1014312Y387001D01*
X1014317Y387001D01*
X1015001Y387904D01*
X1015001Y387911D01*
X1015006Y387912D01*
X1015501Y388931D01*
X1015499Y388938D01*
X1015504Y388940D01*
X1015791Y390037D01*
X1015789Y390041D01*
X1015791Y390042D01*
X1015789Y390044D01*
X1015792Y390046D01*
X1015859Y391177D01*
X1015857Y391181D01*
X1015859Y391183D01*
X1015792Y392314D01*
X1015787Y392319D01*
X1015791Y392323D01*
X1015504Y393420D01*
X1015498Y393424D01*
X1015501Y393429D01*
X1015006Y394448D01*
X1015000Y394451D01*
X1015001Y394456D01*
X1014317Y395359D01*
X1014310Y395361D01*
X1014310Y395366D01*
X1013463Y396119D01*
X1013456Y396119D01*
X1013455Y396124D01*
X1012478Y396697D01*
X1012471Y396696D01*
X1012469Y396701D01*
X1011398Y397072D01*
X1011392Y397069D01*
X1011389Y397074D01*
X1010267Y397229D01*
X1010262Y397226D01*
X1010260Y397229D01*
X998260Y397229D01*
X998255Y397226D01*
X998252Y397229D01*
X996985Y397024D01*
X996979Y397018D01*
X996975Y397021D01*
X995785Y396539D01*
X995781Y396532D01*
X995775Y396534D01*
X994722Y395800D01*
X994720Y395792D01*
X994714Y395793D01*
X993851Y394843D01*
X993850Y394834D01*
X993845Y394834D01*
X993215Y393715D01*
X993216Y393707D01*
X993210Y393705D01*
X992845Y392475D01*
X992848Y392467D01*
X992843Y392464D01*
X992761Y391183D01*
X992764Y391179D01*
X992761Y391177D01*
X992843Y389896D01*
X992849Y389890D01*
X992845Y389885D01*
X993210Y388655D01*
X993217Y388650D01*
X993215Y388645D01*
X993845Y387526D01*
X993852Y387523D01*
X993851Y387517D01*
X994714Y386567D01*
X994722Y386566D01*
X994722Y386560D01*
X995775Y385826D01*
X995783Y385826D01*
X995785Y385821D01*
X996975Y385339D01*
X996982Y385341D01*
X996985Y385336D01*
X998252Y385131D01*
X998257Y385134D01*
X998260Y385131D01*
X1010260Y385131D01*
X1010264Y385134D01*
G37*
G36*
X535284Y385134D02*
X535284Y385134D01*
X535287Y385131D01*
X536409Y385286D01*
X536414Y385291D01*
X536418Y385288D01*
X537489Y385659D01*
X537493Y385665D01*
X537498Y385663D01*
X538475Y386236D01*
X538478Y386242D01*
X538483Y386241D01*
X539330Y386994D01*
X539332Y387001D01*
X539337Y387001D01*
X540021Y387904D01*
X540021Y387911D01*
X540026Y387912D01*
X540521Y388931D01*
X540519Y388938D01*
X540524Y388940D01*
X540811Y390037D01*
X540809Y390041D01*
X540811Y390042D01*
X540809Y390044D01*
X540812Y390046D01*
X540879Y391177D01*
X540877Y391181D01*
X540879Y391183D01*
X540812Y392314D01*
X540807Y392319D01*
X540811Y392323D01*
X540524Y393420D01*
X540518Y393424D01*
X540521Y393429D01*
X540026Y394448D01*
X540020Y394451D01*
X540021Y394456D01*
X539337Y395359D01*
X539330Y395361D01*
X539330Y395366D01*
X538483Y396119D01*
X538476Y396119D01*
X538475Y396124D01*
X537498Y396697D01*
X537491Y396696D01*
X537489Y396701D01*
X536418Y397072D01*
X536412Y397069D01*
X536409Y397074D01*
X535287Y397229D01*
X535282Y397226D01*
X535280Y397229D01*
X523280Y397229D01*
X523275Y397226D01*
X523272Y397229D01*
X522005Y397024D01*
X521999Y397018D01*
X521995Y397021D01*
X520805Y396539D01*
X520801Y396532D01*
X520795Y396534D01*
X519742Y395800D01*
X519740Y395792D01*
X519734Y395793D01*
X518871Y394843D01*
X518870Y394834D01*
X518865Y394834D01*
X518235Y393715D01*
X518236Y393707D01*
X518230Y393705D01*
X517865Y392475D01*
X517868Y392467D01*
X517863Y392464D01*
X517781Y391183D01*
X517784Y391179D01*
X517781Y391177D01*
X517863Y389896D01*
X517869Y389890D01*
X517865Y389885D01*
X518230Y388655D01*
X518237Y388650D01*
X518235Y388645D01*
X518865Y387526D01*
X518872Y387523D01*
X518871Y387517D01*
X519734Y386567D01*
X519742Y386566D01*
X519742Y386560D01*
X520795Y385826D01*
X520803Y385826D01*
X520805Y385821D01*
X521995Y385339D01*
X522002Y385341D01*
X522005Y385336D01*
X523272Y385131D01*
X523277Y385134D01*
X523280Y385131D01*
X535280Y385131D01*
X535284Y385134D01*
G37*
G36*
X60304Y385134D02*
X60304Y385134D01*
X60307Y385131D01*
X61429Y385286D01*
X61434Y385291D01*
X61438Y385288D01*
X62509Y385659D01*
X62513Y385665D01*
X62518Y385663D01*
X63495Y386236D01*
X63498Y386242D01*
X63503Y386241D01*
X64350Y386994D01*
X64352Y387001D01*
X64357Y387001D01*
X65041Y387904D01*
X65041Y387911D01*
X65046Y387912D01*
X65541Y388931D01*
X65539Y388938D01*
X65544Y388940D01*
X65831Y390037D01*
X65829Y390041D01*
X65831Y390042D01*
X65829Y390044D01*
X65832Y390046D01*
X65899Y391177D01*
X65897Y391181D01*
X65899Y391183D01*
X65832Y392314D01*
X65827Y392319D01*
X65831Y392323D01*
X65544Y393420D01*
X65538Y393424D01*
X65541Y393429D01*
X65046Y394448D01*
X65040Y394451D01*
X65041Y394456D01*
X64357Y395359D01*
X64350Y395361D01*
X64350Y395366D01*
X63503Y396119D01*
X63496Y396119D01*
X63495Y396124D01*
X62518Y396697D01*
X62511Y396696D01*
X62509Y396701D01*
X61438Y397072D01*
X61432Y397069D01*
X61429Y397074D01*
X60307Y397229D01*
X60302Y397226D01*
X60300Y397229D01*
X48300Y397229D01*
X48295Y397226D01*
X48292Y397229D01*
X47025Y397024D01*
X47019Y397018D01*
X47015Y397021D01*
X45825Y396539D01*
X45821Y396532D01*
X45815Y396534D01*
X44762Y395800D01*
X44760Y395792D01*
X44754Y395793D01*
X43891Y394843D01*
X43890Y394834D01*
X43885Y394834D01*
X43255Y393715D01*
X43256Y393707D01*
X43250Y393705D01*
X42885Y392475D01*
X42888Y392467D01*
X42883Y392464D01*
X42801Y391183D01*
X42804Y391179D01*
X42801Y391177D01*
X42883Y389896D01*
X42889Y389890D01*
X42885Y389885D01*
X43250Y388655D01*
X43257Y388650D01*
X43255Y388645D01*
X43885Y387526D01*
X43892Y387523D01*
X43891Y387517D01*
X44754Y386567D01*
X44762Y386566D01*
X44762Y386560D01*
X45815Y385826D01*
X45823Y385826D01*
X45825Y385821D01*
X47015Y385339D01*
X47022Y385341D01*
X47025Y385336D01*
X48292Y385131D01*
X48297Y385134D01*
X48300Y385131D01*
X60300Y385131D01*
X60304Y385134D01*
G37*
G36*
X1010264Y298734D02*
X1010264Y298734D01*
X1010267Y298731D01*
X1011389Y298886D01*
X1011394Y298891D01*
X1011398Y298888D01*
X1012469Y299259D01*
X1012473Y299265D01*
X1012478Y299263D01*
X1013455Y299836D01*
X1013458Y299842D01*
X1013463Y299841D01*
X1014310Y300594D01*
X1014312Y300601D01*
X1014317Y300601D01*
X1015001Y301504D01*
X1015001Y301511D01*
X1015006Y301512D01*
X1015501Y302531D01*
X1015499Y302538D01*
X1015504Y302540D01*
X1015791Y303637D01*
X1015789Y303641D01*
X1015791Y303642D01*
X1015789Y303644D01*
X1015792Y303646D01*
X1015859Y304777D01*
X1015857Y304781D01*
X1015859Y304783D01*
X1015792Y305914D01*
X1015787Y305919D01*
X1015791Y305923D01*
X1015504Y307020D01*
X1015498Y307024D01*
X1015501Y307029D01*
X1015006Y308048D01*
X1015000Y308051D01*
X1015001Y308056D01*
X1014317Y308959D01*
X1014310Y308961D01*
X1014310Y308966D01*
X1013463Y309719D01*
X1013456Y309719D01*
X1013455Y309724D01*
X1012478Y310297D01*
X1012471Y310296D01*
X1012469Y310301D01*
X1011398Y310672D01*
X1011392Y310669D01*
X1011389Y310674D01*
X1010267Y310829D01*
X1010262Y310826D01*
X1010260Y310829D01*
X998260Y310829D01*
X998255Y310826D01*
X998252Y310829D01*
X996985Y310624D01*
X996979Y310618D01*
X996975Y310621D01*
X995785Y310139D01*
X995781Y310132D01*
X995775Y310134D01*
X994722Y309400D01*
X994720Y309392D01*
X994714Y309393D01*
X993851Y308443D01*
X993850Y308434D01*
X993845Y308434D01*
X993215Y307315D01*
X993216Y307307D01*
X993210Y307305D01*
X992845Y306075D01*
X992848Y306067D01*
X992843Y306064D01*
X992761Y304783D01*
X992764Y304779D01*
X992761Y304777D01*
X992843Y303496D01*
X992849Y303490D01*
X992845Y303485D01*
X993210Y302255D01*
X993217Y302250D01*
X993215Y302245D01*
X993845Y301126D01*
X993852Y301123D01*
X993851Y301117D01*
X994714Y300167D01*
X994722Y300166D01*
X994722Y300160D01*
X995775Y299426D01*
X995783Y299426D01*
X995785Y299421D01*
X996975Y298939D01*
X996982Y298941D01*
X996985Y298936D01*
X998252Y298731D01*
X998257Y298734D01*
X998260Y298731D01*
X1010260Y298731D01*
X1010264Y298734D01*
G37*
G36*
X60304Y298734D02*
X60304Y298734D01*
X60307Y298731D01*
X61429Y298886D01*
X61434Y298891D01*
X61438Y298888D01*
X62509Y299259D01*
X62513Y299265D01*
X62518Y299263D01*
X63495Y299836D01*
X63498Y299842D01*
X63503Y299841D01*
X64350Y300594D01*
X64352Y300601D01*
X64357Y300601D01*
X65041Y301504D01*
X65041Y301511D01*
X65046Y301512D01*
X65541Y302531D01*
X65539Y302538D01*
X65544Y302540D01*
X65831Y303637D01*
X65829Y303641D01*
X65831Y303642D01*
X65829Y303644D01*
X65832Y303646D01*
X65899Y304777D01*
X65897Y304781D01*
X65899Y304783D01*
X65832Y305914D01*
X65827Y305919D01*
X65831Y305923D01*
X65544Y307020D01*
X65538Y307024D01*
X65541Y307029D01*
X65046Y308048D01*
X65040Y308051D01*
X65041Y308056D01*
X64357Y308959D01*
X64350Y308961D01*
X64350Y308966D01*
X63503Y309719D01*
X63496Y309719D01*
X63495Y309724D01*
X62518Y310297D01*
X62511Y310296D01*
X62509Y310301D01*
X61438Y310672D01*
X61432Y310669D01*
X61429Y310674D01*
X60307Y310829D01*
X60302Y310826D01*
X60300Y310829D01*
X48300Y310829D01*
X48295Y310826D01*
X48292Y310829D01*
X47025Y310624D01*
X47019Y310618D01*
X47015Y310621D01*
X45825Y310139D01*
X45821Y310132D01*
X45815Y310134D01*
X44762Y309400D01*
X44760Y309392D01*
X44754Y309393D01*
X43891Y308443D01*
X43890Y308434D01*
X43885Y308434D01*
X43255Y307315D01*
X43256Y307307D01*
X43250Y307305D01*
X42885Y306075D01*
X42888Y306067D01*
X42883Y306064D01*
X42801Y304783D01*
X42804Y304779D01*
X42801Y304777D01*
X42883Y303496D01*
X42889Y303490D01*
X42885Y303485D01*
X43250Y302255D01*
X43257Y302250D01*
X43255Y302245D01*
X43885Y301126D01*
X43892Y301123D01*
X43891Y301117D01*
X44754Y300167D01*
X44762Y300166D01*
X44762Y300160D01*
X45815Y299426D01*
X45823Y299426D01*
X45825Y299421D01*
X47015Y298939D01*
X47022Y298941D01*
X47025Y298936D01*
X48292Y298731D01*
X48297Y298734D01*
X48300Y298731D01*
X60300Y298731D01*
X60304Y298734D01*
G37*
G36*
X535284Y298734D02*
X535284Y298734D01*
X535287Y298731D01*
X536409Y298886D01*
X536414Y298891D01*
X536418Y298888D01*
X537489Y299259D01*
X537493Y299265D01*
X537498Y299263D01*
X538475Y299836D01*
X538478Y299842D01*
X538483Y299841D01*
X539330Y300594D01*
X539332Y300601D01*
X539337Y300601D01*
X540021Y301504D01*
X540021Y301511D01*
X540026Y301512D01*
X540521Y302531D01*
X540519Y302538D01*
X540524Y302540D01*
X540811Y303637D01*
X540809Y303641D01*
X540811Y303642D01*
X540809Y303644D01*
X540812Y303646D01*
X540879Y304777D01*
X540877Y304781D01*
X540879Y304783D01*
X540812Y305914D01*
X540807Y305919D01*
X540811Y305923D01*
X540524Y307020D01*
X540518Y307024D01*
X540521Y307029D01*
X540026Y308048D01*
X540020Y308051D01*
X540021Y308056D01*
X539337Y308959D01*
X539330Y308961D01*
X539330Y308966D01*
X538483Y309719D01*
X538476Y309719D01*
X538475Y309724D01*
X537498Y310297D01*
X537491Y310296D01*
X537489Y310301D01*
X536418Y310672D01*
X536412Y310669D01*
X536409Y310674D01*
X535287Y310829D01*
X535282Y310826D01*
X535280Y310829D01*
X523280Y310829D01*
X523275Y310826D01*
X523272Y310829D01*
X522005Y310624D01*
X521999Y310618D01*
X521995Y310621D01*
X520805Y310139D01*
X520801Y310132D01*
X520795Y310134D01*
X519742Y309400D01*
X519740Y309392D01*
X519734Y309393D01*
X518871Y308443D01*
X518870Y308434D01*
X518865Y308434D01*
X518235Y307315D01*
X518236Y307307D01*
X518230Y307305D01*
X517865Y306075D01*
X517868Y306067D01*
X517863Y306064D01*
X517781Y304783D01*
X517784Y304779D01*
X517781Y304777D01*
X517863Y303496D01*
X517869Y303490D01*
X517865Y303485D01*
X518230Y302255D01*
X518237Y302250D01*
X518235Y302245D01*
X518865Y301126D01*
X518872Y301123D01*
X518871Y301117D01*
X519734Y300167D01*
X519742Y300166D01*
X519742Y300160D01*
X520795Y299426D01*
X520803Y299426D01*
X520805Y299421D01*
X521995Y298939D01*
X522002Y298941D01*
X522005Y298936D01*
X523272Y298731D01*
X523277Y298734D01*
X523280Y298731D01*
X535280Y298731D01*
X535284Y298734D01*
G37*
G36*
X1010264Y151454D02*
X1010264Y151454D01*
X1010267Y151451D01*
X1011389Y151606D01*
X1011394Y151611D01*
X1011398Y151608D01*
X1012469Y151979D01*
X1012473Y151985D01*
X1012478Y151983D01*
X1013455Y152556D01*
X1013458Y152562D01*
X1013463Y152561D01*
X1014310Y153314D01*
X1014312Y153321D01*
X1014317Y153321D01*
X1015001Y154224D01*
X1015001Y154231D01*
X1015006Y154232D01*
X1015501Y155251D01*
X1015499Y155258D01*
X1015504Y155260D01*
X1015791Y156357D01*
X1015789Y156361D01*
X1015791Y156362D01*
X1015789Y156364D01*
X1015792Y156366D01*
X1015859Y157497D01*
X1015857Y157501D01*
X1015859Y157503D01*
X1015792Y158634D01*
X1015787Y158639D01*
X1015791Y158643D01*
X1015504Y159740D01*
X1015498Y159744D01*
X1015501Y159749D01*
X1015006Y160768D01*
X1015000Y160771D01*
X1015001Y160776D01*
X1014317Y161679D01*
X1014310Y161681D01*
X1014310Y161686D01*
X1013463Y162439D01*
X1013456Y162439D01*
X1013455Y162444D01*
X1012478Y163017D01*
X1012471Y163016D01*
X1012469Y163021D01*
X1011398Y163392D01*
X1011392Y163389D01*
X1011389Y163394D01*
X1010267Y163549D01*
X1010262Y163546D01*
X1010260Y163549D01*
X998260Y163549D01*
X998255Y163546D01*
X998252Y163549D01*
X996985Y163344D01*
X996979Y163338D01*
X996975Y163341D01*
X995785Y162859D01*
X995781Y162852D01*
X995775Y162854D01*
X994722Y162120D01*
X994720Y162112D01*
X994714Y162113D01*
X993851Y161163D01*
X993850Y161154D01*
X993845Y161154D01*
X993215Y160035D01*
X993216Y160027D01*
X993210Y160025D01*
X992845Y158795D01*
X992848Y158787D01*
X992843Y158784D01*
X992761Y157503D01*
X992764Y157499D01*
X992761Y157497D01*
X992843Y156216D01*
X992849Y156210D01*
X992845Y156205D01*
X993210Y154975D01*
X993217Y154970D01*
X993215Y154965D01*
X993845Y153846D01*
X993852Y153843D01*
X993851Y153837D01*
X994714Y152887D01*
X994722Y152886D01*
X994722Y152880D01*
X995775Y152146D01*
X995783Y152146D01*
X995785Y152141D01*
X996975Y151659D01*
X996982Y151661D01*
X996985Y151656D01*
X998252Y151451D01*
X998257Y151454D01*
X998260Y151451D01*
X1010260Y151451D01*
X1010264Y151454D01*
G37*
G36*
X60304Y151454D02*
X60304Y151454D01*
X60307Y151451D01*
X61429Y151606D01*
X61434Y151611D01*
X61438Y151608D01*
X62509Y151979D01*
X62513Y151985D01*
X62518Y151983D01*
X63495Y152556D01*
X63498Y152562D01*
X63503Y152561D01*
X64350Y153314D01*
X64352Y153321D01*
X64357Y153321D01*
X65041Y154224D01*
X65041Y154231D01*
X65046Y154232D01*
X65541Y155251D01*
X65539Y155258D01*
X65544Y155260D01*
X65831Y156357D01*
X65829Y156361D01*
X65831Y156362D01*
X65829Y156364D01*
X65832Y156366D01*
X65899Y157497D01*
X65897Y157501D01*
X65899Y157503D01*
X65832Y158634D01*
X65827Y158639D01*
X65831Y158643D01*
X65544Y159740D01*
X65538Y159744D01*
X65541Y159749D01*
X65046Y160768D01*
X65040Y160771D01*
X65041Y160776D01*
X64357Y161679D01*
X64350Y161681D01*
X64350Y161686D01*
X63503Y162439D01*
X63496Y162439D01*
X63495Y162444D01*
X62518Y163017D01*
X62511Y163016D01*
X62509Y163021D01*
X61438Y163392D01*
X61432Y163389D01*
X61429Y163394D01*
X60307Y163549D01*
X60302Y163546D01*
X60300Y163549D01*
X48300Y163549D01*
X48295Y163546D01*
X48292Y163549D01*
X47025Y163344D01*
X47019Y163338D01*
X47015Y163341D01*
X45825Y162859D01*
X45821Y162852D01*
X45815Y162854D01*
X44762Y162120D01*
X44760Y162112D01*
X44754Y162113D01*
X43891Y161163D01*
X43890Y161154D01*
X43885Y161154D01*
X43255Y160035D01*
X43256Y160027D01*
X43250Y160025D01*
X42885Y158795D01*
X42888Y158787D01*
X42883Y158784D01*
X42801Y157503D01*
X42804Y157499D01*
X42801Y157497D01*
X42883Y156216D01*
X42889Y156210D01*
X42885Y156205D01*
X43250Y154975D01*
X43257Y154970D01*
X43255Y154965D01*
X43885Y153846D01*
X43892Y153843D01*
X43891Y153837D01*
X44754Y152887D01*
X44762Y152886D01*
X44762Y152880D01*
X45815Y152146D01*
X45823Y152146D01*
X45825Y152141D01*
X47015Y151659D01*
X47022Y151661D01*
X47025Y151656D01*
X48292Y151451D01*
X48297Y151454D01*
X48300Y151451D01*
X60300Y151451D01*
X60304Y151454D01*
G37*
G36*
X535284Y65054D02*
X535284Y65054D01*
X535287Y65051D01*
X536409Y65206D01*
X536414Y65211D01*
X536418Y65208D01*
X537489Y65579D01*
X537493Y65585D01*
X537498Y65583D01*
X538475Y66156D01*
X538478Y66162D01*
X538483Y66161D01*
X539330Y66914D01*
X539332Y66921D01*
X539337Y66921D01*
X540021Y67824D01*
X540021Y67831D01*
X540026Y67832D01*
X540521Y68851D01*
X540519Y68858D01*
X540524Y68860D01*
X540811Y69957D01*
X540809Y69961D01*
X540811Y69962D01*
X540809Y69964D01*
X540812Y69966D01*
X540879Y71097D01*
X540877Y71101D01*
X540879Y71103D01*
X540812Y72234D01*
X540807Y72239D01*
X540811Y72243D01*
X540524Y73340D01*
X540518Y73344D01*
X540521Y73349D01*
X540026Y74368D01*
X540020Y74371D01*
X540021Y74376D01*
X539337Y75279D01*
X539330Y75281D01*
X539330Y75286D01*
X538483Y76039D01*
X538476Y76039D01*
X538475Y76044D01*
X537498Y76617D01*
X537491Y76616D01*
X537489Y76621D01*
X536418Y76992D01*
X536412Y76989D01*
X536409Y76994D01*
X535287Y77149D01*
X535282Y77146D01*
X535280Y77149D01*
X523280Y77149D01*
X523275Y77146D01*
X523272Y77149D01*
X522005Y76944D01*
X521999Y76938D01*
X521995Y76941D01*
X520805Y76459D01*
X520801Y76452D01*
X520795Y76454D01*
X519742Y75720D01*
X519740Y75712D01*
X519734Y75713D01*
X518871Y74763D01*
X518870Y74754D01*
X518865Y74754D01*
X518235Y73635D01*
X518236Y73627D01*
X518230Y73625D01*
X517865Y72395D01*
X517868Y72387D01*
X517863Y72384D01*
X517781Y71103D01*
X517784Y71099D01*
X517781Y71097D01*
X517863Y69816D01*
X517869Y69810D01*
X517865Y69805D01*
X518230Y68575D01*
X518237Y68570D01*
X518235Y68565D01*
X518865Y67446D01*
X518872Y67443D01*
X518871Y67437D01*
X519734Y66487D01*
X519742Y66486D01*
X519742Y66480D01*
X520795Y65746D01*
X520803Y65746D01*
X520805Y65741D01*
X521995Y65259D01*
X522002Y65261D01*
X522005Y65256D01*
X523272Y65051D01*
X523277Y65054D01*
X523280Y65051D01*
X535280Y65051D01*
X535284Y65054D01*
G37*
G36*
X60304Y65054D02*
X60304Y65054D01*
X60307Y65051D01*
X61429Y65206D01*
X61434Y65211D01*
X61438Y65208D01*
X62509Y65579D01*
X62513Y65585D01*
X62518Y65583D01*
X63495Y66156D01*
X63498Y66162D01*
X63503Y66161D01*
X64350Y66914D01*
X64352Y66921D01*
X64357Y66921D01*
X65041Y67824D01*
X65041Y67831D01*
X65046Y67832D01*
X65541Y68851D01*
X65539Y68858D01*
X65544Y68860D01*
X65831Y69957D01*
X65829Y69961D01*
X65831Y69962D01*
X65829Y69964D01*
X65832Y69966D01*
X65899Y71097D01*
X65897Y71101D01*
X65899Y71103D01*
X65832Y72234D01*
X65827Y72239D01*
X65831Y72243D01*
X65544Y73340D01*
X65538Y73344D01*
X65541Y73349D01*
X65046Y74368D01*
X65040Y74371D01*
X65041Y74376D01*
X64357Y75279D01*
X64350Y75281D01*
X64350Y75286D01*
X63503Y76039D01*
X63496Y76039D01*
X63495Y76044D01*
X62518Y76617D01*
X62511Y76616D01*
X62509Y76621D01*
X61438Y76992D01*
X61432Y76989D01*
X61429Y76994D01*
X60307Y77149D01*
X60302Y77146D01*
X60300Y77149D01*
X48300Y77149D01*
X48295Y77146D01*
X48292Y77149D01*
X47025Y76944D01*
X47019Y76938D01*
X47015Y76941D01*
X45825Y76459D01*
X45821Y76452D01*
X45815Y76454D01*
X44762Y75720D01*
X44760Y75712D01*
X44754Y75713D01*
X43891Y74763D01*
X43890Y74754D01*
X43885Y74754D01*
X43255Y73635D01*
X43256Y73627D01*
X43250Y73625D01*
X42885Y72395D01*
X42888Y72387D01*
X42883Y72384D01*
X42801Y71103D01*
X42804Y71099D01*
X42801Y71097D01*
X42883Y69816D01*
X42889Y69810D01*
X42885Y69805D01*
X43250Y68575D01*
X43257Y68570D01*
X43255Y68565D01*
X43885Y67446D01*
X43892Y67443D01*
X43891Y67437D01*
X44754Y66487D01*
X44762Y66486D01*
X44762Y66480D01*
X45815Y65746D01*
X45823Y65746D01*
X45825Y65741D01*
X47015Y65259D01*
X47022Y65261D01*
X47025Y65256D01*
X48292Y65051D01*
X48297Y65054D01*
X48300Y65051D01*
X60300Y65051D01*
X60304Y65054D01*
G37*
G36*
X1010264Y65054D02*
X1010264Y65054D01*
X1010267Y65051D01*
X1011389Y65206D01*
X1011394Y65211D01*
X1011398Y65208D01*
X1012469Y65579D01*
X1012473Y65585D01*
X1012478Y65583D01*
X1013455Y66156D01*
X1013458Y66162D01*
X1013463Y66161D01*
X1014310Y66914D01*
X1014312Y66921D01*
X1014317Y66921D01*
X1015001Y67824D01*
X1015001Y67831D01*
X1015006Y67832D01*
X1015501Y68851D01*
X1015499Y68858D01*
X1015504Y68860D01*
X1015791Y69957D01*
X1015789Y69961D01*
X1015791Y69962D01*
X1015789Y69964D01*
X1015792Y69966D01*
X1015859Y71097D01*
X1015857Y71101D01*
X1015859Y71103D01*
X1015792Y72234D01*
X1015787Y72239D01*
X1015791Y72243D01*
X1015504Y73340D01*
X1015498Y73344D01*
X1015501Y73349D01*
X1015006Y74368D01*
X1015000Y74371D01*
X1015001Y74376D01*
X1014317Y75279D01*
X1014310Y75281D01*
X1014310Y75286D01*
X1013463Y76039D01*
X1013456Y76039D01*
X1013455Y76044D01*
X1012478Y76617D01*
X1012471Y76616D01*
X1012469Y76621D01*
X1011398Y76992D01*
X1011392Y76989D01*
X1011389Y76994D01*
X1010267Y77149D01*
X1010262Y77146D01*
X1010260Y77149D01*
X998260Y77149D01*
X998255Y77146D01*
X998252Y77149D01*
X996985Y76944D01*
X996979Y76938D01*
X996975Y76941D01*
X995785Y76459D01*
X995781Y76452D01*
X995775Y76454D01*
X994722Y75720D01*
X994720Y75712D01*
X994714Y75713D01*
X993851Y74763D01*
X993850Y74754D01*
X993845Y74754D01*
X993215Y73635D01*
X993216Y73627D01*
X993210Y73625D01*
X992845Y72395D01*
X992848Y72387D01*
X992843Y72384D01*
X992761Y71103D01*
X992764Y71099D01*
X992761Y71097D01*
X992843Y69816D01*
X992849Y69810D01*
X992845Y69805D01*
X993210Y68575D01*
X993217Y68570D01*
X993215Y68565D01*
X993845Y67446D01*
X993852Y67443D01*
X993851Y67437D01*
X994714Y66487D01*
X994722Y66486D01*
X994722Y66480D01*
X995775Y65746D01*
X995783Y65746D01*
X995785Y65741D01*
X996975Y65259D01*
X996982Y65261D01*
X996985Y65256D01*
X998252Y65051D01*
X998257Y65054D01*
X998260Y65051D01*
X1010260Y65051D01*
X1010264Y65054D01*
G37*
G36*
X490483Y1086173D02*
X490483Y1086173D01*
X490485Y1086171D01*
X491661Y1086282D01*
X491666Y1086287D01*
X491670Y1086284D01*
X492802Y1086622D01*
X492806Y1086628D01*
X492811Y1086626D01*
X493855Y1087178D01*
X493858Y1087185D01*
X493863Y1087183D01*
X494779Y1087929D01*
X494780Y1087936D01*
X494786Y1087936D01*
X495539Y1088846D01*
X495539Y1088853D01*
X495544Y1088854D01*
X496105Y1089893D01*
X496104Y1089898D01*
X496108Y1089900D01*
X496107Y1089901D01*
X496109Y1089902D01*
X496456Y1091031D01*
X496456Y1091032D01*
X496457Y1091033D01*
X496454Y1091037D01*
X496458Y1091040D01*
X496579Y1092215D01*
X496575Y1092222D01*
X496579Y1092226D01*
X496422Y1093566D01*
X496417Y1093572D01*
X496420Y1093577D01*
X495969Y1094848D01*
X495962Y1094853D01*
X495964Y1094858D01*
X495242Y1095997D01*
X495234Y1096000D01*
X495235Y1096006D01*
X494277Y1096956D01*
X494269Y1096957D01*
X494268Y1096963D01*
X493123Y1097676D01*
X493115Y1097675D01*
X493113Y1097681D01*
X491837Y1098121D01*
X491830Y1098119D01*
X491827Y1098123D01*
X490485Y1098269D01*
X490482Y1098267D01*
X490480Y1098269D01*
X484480Y1098269D01*
X484477Y1098267D01*
X484474Y1098269D01*
X483145Y1098114D01*
X483139Y1098108D01*
X483135Y1098111D01*
X481874Y1097664D01*
X481869Y1097657D01*
X481864Y1097659D01*
X480734Y1096942D01*
X480731Y1096935D01*
X480725Y1096936D01*
X479783Y1095986D01*
X479782Y1095977D01*
X479776Y1095977D01*
X479069Y1094841D01*
X479070Y1094833D01*
X479064Y1094831D01*
X478628Y1093566D01*
X478630Y1093558D01*
X478625Y1093556D01*
X478481Y1092225D01*
X478485Y1092219D01*
X478481Y1092215D01*
X478591Y1091049D01*
X478596Y1091044D01*
X478593Y1091040D01*
X478928Y1089917D01*
X478934Y1089913D01*
X478932Y1089909D01*
X479480Y1088873D01*
X479486Y1088870D01*
X479485Y1088865D01*
X480224Y1087957D01*
X480231Y1087955D01*
X480231Y1087950D01*
X481133Y1087203D01*
X481141Y1087203D01*
X481141Y1087198D01*
X482172Y1086641D01*
X482179Y1086642D01*
X482181Y1086637D01*
X483300Y1086293D01*
X483307Y1086295D01*
X483310Y1086291D01*
X484475Y1086171D01*
X484478Y1086173D01*
X484480Y1086171D01*
X490480Y1086171D01*
X490483Y1086173D01*
G37*
G36*
X15503Y1086173D02*
X15503Y1086173D01*
X15505Y1086171D01*
X16681Y1086282D01*
X16686Y1086287D01*
X16690Y1086284D01*
X17822Y1086622D01*
X17826Y1086628D01*
X17831Y1086626D01*
X18875Y1087178D01*
X18878Y1087185D01*
X18883Y1087183D01*
X19799Y1087929D01*
X19800Y1087936D01*
X19806Y1087936D01*
X20559Y1088846D01*
X20559Y1088853D01*
X20564Y1088854D01*
X21125Y1089893D01*
X21124Y1089898D01*
X21128Y1089900D01*
X21127Y1089901D01*
X21129Y1089902D01*
X21476Y1091031D01*
X21476Y1091032D01*
X21477Y1091033D01*
X21474Y1091037D01*
X21478Y1091040D01*
X21599Y1092215D01*
X21595Y1092222D01*
X21599Y1092226D01*
X21442Y1093566D01*
X21437Y1093572D01*
X21440Y1093577D01*
X20989Y1094848D01*
X20982Y1094853D01*
X20984Y1094858D01*
X20262Y1095997D01*
X20254Y1096000D01*
X20255Y1096006D01*
X19297Y1096956D01*
X19289Y1096957D01*
X19288Y1096963D01*
X18143Y1097676D01*
X18135Y1097675D01*
X18133Y1097681D01*
X16857Y1098121D01*
X16850Y1098119D01*
X16847Y1098123D01*
X15505Y1098269D01*
X15502Y1098267D01*
X15500Y1098269D01*
X9500Y1098269D01*
X9497Y1098267D01*
X9494Y1098269D01*
X8165Y1098114D01*
X8159Y1098108D01*
X8155Y1098111D01*
X6894Y1097664D01*
X6889Y1097657D01*
X6884Y1097659D01*
X5754Y1096942D01*
X5751Y1096935D01*
X5745Y1096936D01*
X4803Y1095986D01*
X4802Y1095977D01*
X4796Y1095977D01*
X4089Y1094841D01*
X4090Y1094833D01*
X4084Y1094831D01*
X3648Y1093566D01*
X3650Y1093558D01*
X3645Y1093556D01*
X3501Y1092225D01*
X3505Y1092219D01*
X3501Y1092215D01*
X3611Y1091049D01*
X3616Y1091044D01*
X3613Y1091040D01*
X3948Y1089917D01*
X3954Y1089913D01*
X3952Y1089909D01*
X4500Y1088873D01*
X4506Y1088870D01*
X4505Y1088865D01*
X5244Y1087957D01*
X5251Y1087955D01*
X5251Y1087950D01*
X6153Y1087203D01*
X6161Y1087203D01*
X6161Y1087198D01*
X7192Y1086641D01*
X7199Y1086642D01*
X7201Y1086637D01*
X8320Y1086293D01*
X8327Y1086295D01*
X8330Y1086291D01*
X9495Y1086171D01*
X9498Y1086173D01*
X9500Y1086171D01*
X15500Y1086171D01*
X15503Y1086173D01*
G37*
G36*
X965463Y1086173D02*
X965463Y1086173D01*
X965465Y1086171D01*
X966641Y1086282D01*
X966646Y1086287D01*
X966650Y1086284D01*
X967782Y1086622D01*
X967786Y1086628D01*
X967791Y1086626D01*
X968835Y1087178D01*
X968838Y1087185D01*
X968843Y1087183D01*
X969759Y1087929D01*
X969760Y1087936D01*
X969766Y1087936D01*
X970519Y1088846D01*
X970519Y1088853D01*
X970524Y1088854D01*
X971085Y1089893D01*
X971084Y1089898D01*
X971088Y1089900D01*
X971087Y1089901D01*
X971089Y1089902D01*
X971436Y1091031D01*
X971436Y1091032D01*
X971437Y1091033D01*
X971434Y1091037D01*
X971438Y1091040D01*
X971559Y1092215D01*
X971555Y1092222D01*
X971559Y1092226D01*
X971402Y1093566D01*
X971397Y1093572D01*
X971400Y1093577D01*
X970949Y1094848D01*
X970942Y1094853D01*
X970944Y1094858D01*
X970222Y1095997D01*
X970214Y1096000D01*
X970215Y1096006D01*
X969257Y1096956D01*
X969249Y1096957D01*
X969248Y1096963D01*
X968103Y1097676D01*
X968095Y1097675D01*
X968093Y1097681D01*
X966817Y1098121D01*
X966810Y1098119D01*
X966807Y1098123D01*
X965465Y1098269D01*
X965462Y1098267D01*
X965460Y1098269D01*
X959460Y1098269D01*
X959457Y1098267D01*
X959454Y1098269D01*
X958125Y1098114D01*
X958119Y1098108D01*
X958115Y1098111D01*
X956854Y1097664D01*
X956849Y1097657D01*
X956844Y1097659D01*
X955714Y1096942D01*
X955711Y1096935D01*
X955705Y1096936D01*
X954763Y1095986D01*
X954762Y1095977D01*
X954756Y1095977D01*
X954049Y1094841D01*
X954050Y1094833D01*
X954044Y1094831D01*
X953608Y1093566D01*
X953610Y1093558D01*
X953605Y1093556D01*
X953461Y1092225D01*
X953465Y1092219D01*
X953461Y1092215D01*
X953571Y1091049D01*
X953576Y1091044D01*
X953573Y1091040D01*
X953908Y1089917D01*
X953914Y1089913D01*
X953912Y1089909D01*
X954460Y1088873D01*
X954466Y1088870D01*
X954465Y1088865D01*
X955204Y1087957D01*
X955211Y1087955D01*
X955211Y1087950D01*
X956113Y1087203D01*
X956121Y1087203D01*
X956121Y1087198D01*
X957152Y1086641D01*
X957159Y1086642D01*
X957161Y1086637D01*
X958280Y1086293D01*
X958287Y1086295D01*
X958290Y1086291D01*
X959455Y1086171D01*
X959458Y1086173D01*
X959460Y1086171D01*
X965460Y1086171D01*
X965463Y1086173D01*
G37*
G36*
X965463Y532413D02*
X965463Y532413D01*
X965465Y532411D01*
X966641Y532522D01*
X966646Y532527D01*
X966650Y532524D01*
X967782Y532862D01*
X967786Y532868D01*
X967791Y532866D01*
X968835Y533418D01*
X968838Y533425D01*
X968843Y533423D01*
X969759Y534169D01*
X969760Y534176D01*
X969766Y534176D01*
X970519Y535086D01*
X970519Y535093D01*
X970524Y535094D01*
X971085Y536133D01*
X971084Y536138D01*
X971088Y536140D01*
X971087Y536141D01*
X971089Y536142D01*
X971436Y537271D01*
X971436Y537272D01*
X971437Y537273D01*
X971434Y537277D01*
X971438Y537280D01*
X971559Y538455D01*
X971555Y538462D01*
X971559Y538466D01*
X971402Y539806D01*
X971397Y539812D01*
X971400Y539817D01*
X970949Y541088D01*
X970942Y541093D01*
X970944Y541098D01*
X970222Y542237D01*
X970214Y542240D01*
X970215Y542246D01*
X969257Y543196D01*
X969249Y543197D01*
X969248Y543203D01*
X968103Y543916D01*
X968095Y543915D01*
X968093Y543921D01*
X966817Y544361D01*
X966810Y544359D01*
X966807Y544363D01*
X965465Y544509D01*
X965462Y544507D01*
X965460Y544509D01*
X959460Y544509D01*
X959457Y544507D01*
X959454Y544509D01*
X958125Y544354D01*
X958119Y544348D01*
X958115Y544351D01*
X956854Y543904D01*
X956849Y543897D01*
X956844Y543899D01*
X955714Y543182D01*
X955711Y543175D01*
X955705Y543176D01*
X954763Y542226D01*
X954762Y542217D01*
X954756Y542217D01*
X954049Y541081D01*
X954050Y541073D01*
X954044Y541071D01*
X953608Y539806D01*
X953610Y539798D01*
X953605Y539796D01*
X953461Y538465D01*
X953465Y538459D01*
X953461Y538455D01*
X953571Y537289D01*
X953576Y537284D01*
X953573Y537280D01*
X953908Y536157D01*
X953914Y536153D01*
X953912Y536149D01*
X954460Y535113D01*
X954466Y535110D01*
X954465Y535105D01*
X955204Y534197D01*
X955211Y534195D01*
X955211Y534190D01*
X956113Y533443D01*
X956121Y533443D01*
X956121Y533438D01*
X957152Y532881D01*
X957159Y532882D01*
X957161Y532877D01*
X958280Y532533D01*
X958287Y532535D01*
X958290Y532531D01*
X959455Y532411D01*
X959458Y532413D01*
X959460Y532411D01*
X965460Y532411D01*
X965463Y532413D01*
G37*
G36*
X15503Y999773D02*
X15503Y999773D01*
X15505Y999771D01*
X16681Y999882D01*
X16686Y999887D01*
X16690Y999884D01*
X17822Y1000222D01*
X17826Y1000228D01*
X17831Y1000226D01*
X18875Y1000778D01*
X18878Y1000785D01*
X18883Y1000783D01*
X19799Y1001529D01*
X19800Y1001536D01*
X19806Y1001536D01*
X20559Y1002446D01*
X20559Y1002453D01*
X20564Y1002454D01*
X21125Y1003493D01*
X21124Y1003498D01*
X21128Y1003500D01*
X21127Y1003501D01*
X21129Y1003502D01*
X21476Y1004631D01*
X21476Y1004632D01*
X21477Y1004633D01*
X21474Y1004637D01*
X21478Y1004640D01*
X21599Y1005815D01*
X21595Y1005822D01*
X21599Y1005826D01*
X21442Y1007166D01*
X21437Y1007172D01*
X21440Y1007177D01*
X20989Y1008448D01*
X20982Y1008453D01*
X20984Y1008458D01*
X20262Y1009597D01*
X20254Y1009600D01*
X20255Y1009606D01*
X19297Y1010556D01*
X19289Y1010557D01*
X19288Y1010563D01*
X18143Y1011276D01*
X18135Y1011275D01*
X18133Y1011281D01*
X16857Y1011721D01*
X16850Y1011719D01*
X16847Y1011723D01*
X15505Y1011869D01*
X15502Y1011867D01*
X15500Y1011869D01*
X9500Y1011869D01*
X9497Y1011867D01*
X9494Y1011869D01*
X8165Y1011714D01*
X8159Y1011708D01*
X8155Y1011711D01*
X6894Y1011264D01*
X6889Y1011257D01*
X6884Y1011259D01*
X5754Y1010542D01*
X5751Y1010535D01*
X5745Y1010536D01*
X4803Y1009586D01*
X4802Y1009577D01*
X4796Y1009577D01*
X4089Y1008441D01*
X4090Y1008433D01*
X4084Y1008431D01*
X3648Y1007166D01*
X3650Y1007158D01*
X3645Y1007156D01*
X3501Y1005825D01*
X3505Y1005819D01*
X3501Y1005815D01*
X3611Y1004649D01*
X3616Y1004644D01*
X3613Y1004640D01*
X3948Y1003517D01*
X3954Y1003513D01*
X3952Y1003509D01*
X4500Y1002473D01*
X4506Y1002470D01*
X4505Y1002465D01*
X5244Y1001557D01*
X5251Y1001555D01*
X5251Y1001550D01*
X6153Y1000803D01*
X6161Y1000803D01*
X6161Y1000798D01*
X7192Y1000241D01*
X7199Y1000242D01*
X7201Y1000237D01*
X8320Y999893D01*
X8327Y999895D01*
X8330Y999891D01*
X9495Y999771D01*
X9498Y999773D01*
X9500Y999771D01*
X15500Y999771D01*
X15503Y999773D01*
G37*
G36*
X15503Y532413D02*
X15503Y532413D01*
X15505Y532411D01*
X16681Y532522D01*
X16686Y532527D01*
X16690Y532524D01*
X17822Y532862D01*
X17826Y532868D01*
X17831Y532866D01*
X18875Y533418D01*
X18878Y533425D01*
X18883Y533423D01*
X19799Y534169D01*
X19800Y534176D01*
X19806Y534176D01*
X20559Y535086D01*
X20559Y535093D01*
X20564Y535094D01*
X21125Y536133D01*
X21124Y536138D01*
X21128Y536140D01*
X21127Y536141D01*
X21129Y536142D01*
X21476Y537271D01*
X21476Y537272D01*
X21477Y537273D01*
X21474Y537277D01*
X21478Y537280D01*
X21599Y538455D01*
X21595Y538462D01*
X21599Y538466D01*
X21442Y539806D01*
X21437Y539812D01*
X21440Y539817D01*
X20989Y541088D01*
X20982Y541093D01*
X20984Y541098D01*
X20262Y542237D01*
X20254Y542240D01*
X20255Y542246D01*
X19297Y543196D01*
X19289Y543197D01*
X19288Y543203D01*
X18143Y543916D01*
X18135Y543915D01*
X18133Y543921D01*
X16857Y544361D01*
X16850Y544359D01*
X16847Y544363D01*
X15505Y544509D01*
X15502Y544507D01*
X15500Y544509D01*
X9500Y544509D01*
X9497Y544507D01*
X9494Y544509D01*
X8165Y544354D01*
X8159Y544348D01*
X8155Y544351D01*
X6894Y543904D01*
X6889Y543897D01*
X6884Y543899D01*
X5754Y543182D01*
X5751Y543175D01*
X5745Y543176D01*
X4803Y542226D01*
X4802Y542217D01*
X4796Y542217D01*
X4089Y541081D01*
X4090Y541073D01*
X4084Y541071D01*
X3648Y539806D01*
X3650Y539798D01*
X3645Y539796D01*
X3501Y538465D01*
X3505Y538459D01*
X3501Y538455D01*
X3611Y537289D01*
X3616Y537284D01*
X3613Y537280D01*
X3948Y536157D01*
X3954Y536153D01*
X3952Y536149D01*
X4500Y535113D01*
X4506Y535110D01*
X4505Y535105D01*
X5244Y534197D01*
X5251Y534195D01*
X5251Y534190D01*
X6153Y533443D01*
X6161Y533443D01*
X6161Y533438D01*
X7192Y532881D01*
X7199Y532882D01*
X7201Y532877D01*
X8320Y532533D01*
X8327Y532535D01*
X8330Y532531D01*
X9495Y532411D01*
X9498Y532413D01*
X9500Y532411D01*
X15500Y532411D01*
X15503Y532413D01*
G37*
G36*
X490483Y999773D02*
X490483Y999773D01*
X490485Y999771D01*
X491661Y999882D01*
X491666Y999887D01*
X491670Y999884D01*
X492802Y1000222D01*
X492806Y1000228D01*
X492811Y1000226D01*
X493855Y1000778D01*
X493858Y1000785D01*
X493863Y1000783D01*
X494779Y1001529D01*
X494780Y1001536D01*
X494786Y1001536D01*
X495539Y1002446D01*
X495539Y1002453D01*
X495544Y1002454D01*
X496105Y1003493D01*
X496104Y1003498D01*
X496108Y1003500D01*
X496107Y1003501D01*
X496109Y1003502D01*
X496456Y1004631D01*
X496456Y1004632D01*
X496457Y1004633D01*
X496454Y1004637D01*
X496458Y1004640D01*
X496579Y1005815D01*
X496575Y1005822D01*
X496579Y1005826D01*
X496422Y1007166D01*
X496417Y1007172D01*
X496420Y1007177D01*
X495969Y1008448D01*
X495962Y1008453D01*
X495964Y1008458D01*
X495242Y1009597D01*
X495234Y1009600D01*
X495235Y1009606D01*
X494277Y1010556D01*
X494269Y1010557D01*
X494268Y1010563D01*
X493123Y1011276D01*
X493115Y1011275D01*
X493113Y1011281D01*
X491837Y1011721D01*
X491830Y1011719D01*
X491827Y1011723D01*
X490485Y1011869D01*
X490482Y1011867D01*
X490480Y1011869D01*
X484480Y1011869D01*
X484477Y1011867D01*
X484474Y1011869D01*
X483145Y1011714D01*
X483139Y1011708D01*
X483135Y1011711D01*
X481874Y1011264D01*
X481869Y1011257D01*
X481864Y1011259D01*
X480734Y1010542D01*
X480731Y1010535D01*
X480725Y1010536D01*
X479783Y1009586D01*
X479782Y1009577D01*
X479776Y1009577D01*
X479069Y1008441D01*
X479070Y1008433D01*
X479064Y1008431D01*
X478628Y1007166D01*
X478630Y1007158D01*
X478625Y1007156D01*
X478481Y1005825D01*
X478485Y1005819D01*
X478481Y1005815D01*
X478591Y1004649D01*
X478596Y1004644D01*
X478593Y1004640D01*
X478928Y1003517D01*
X478934Y1003513D01*
X478932Y1003509D01*
X479480Y1002473D01*
X479486Y1002470D01*
X479485Y1002465D01*
X480224Y1001557D01*
X480231Y1001555D01*
X480231Y1001550D01*
X481133Y1000803D01*
X481141Y1000803D01*
X481141Y1000798D01*
X482172Y1000241D01*
X482179Y1000242D01*
X482181Y1000237D01*
X483300Y999893D01*
X483307Y999895D01*
X483310Y999891D01*
X484475Y999771D01*
X484478Y999773D01*
X484480Y999771D01*
X490480Y999771D01*
X490483Y999773D01*
G37*
G36*
X965463Y385133D02*
X965463Y385133D01*
X965465Y385131D01*
X966641Y385242D01*
X966646Y385247D01*
X966650Y385244D01*
X967782Y385582D01*
X967786Y385588D01*
X967791Y385586D01*
X968835Y386138D01*
X968838Y386145D01*
X968843Y386143D01*
X969759Y386889D01*
X969760Y386896D01*
X969766Y386896D01*
X970519Y387806D01*
X970519Y387813D01*
X970524Y387814D01*
X971085Y388853D01*
X971084Y388858D01*
X971088Y388860D01*
X971087Y388861D01*
X971089Y388862D01*
X971436Y389991D01*
X971436Y389992D01*
X971437Y389993D01*
X971434Y389997D01*
X971438Y390000D01*
X971559Y391175D01*
X971555Y391182D01*
X971559Y391186D01*
X971402Y392526D01*
X971397Y392532D01*
X971400Y392537D01*
X970949Y393808D01*
X970942Y393813D01*
X970944Y393818D01*
X970222Y394957D01*
X970214Y394960D01*
X970215Y394966D01*
X969257Y395916D01*
X969249Y395917D01*
X969248Y395923D01*
X968103Y396636D01*
X968095Y396635D01*
X968093Y396641D01*
X966817Y397081D01*
X966810Y397079D01*
X966807Y397083D01*
X965465Y397229D01*
X965462Y397227D01*
X965460Y397229D01*
X959460Y397229D01*
X959457Y397227D01*
X959454Y397229D01*
X958125Y397074D01*
X958119Y397068D01*
X958115Y397071D01*
X956854Y396624D01*
X956849Y396617D01*
X956844Y396619D01*
X955714Y395902D01*
X955711Y395895D01*
X955705Y395896D01*
X954763Y394946D01*
X954762Y394937D01*
X954756Y394937D01*
X954049Y393801D01*
X954050Y393793D01*
X954044Y393791D01*
X953608Y392526D01*
X953610Y392518D01*
X953605Y392516D01*
X953461Y391185D01*
X953465Y391179D01*
X953461Y391175D01*
X953571Y390009D01*
X953576Y390004D01*
X953573Y390000D01*
X953908Y388877D01*
X953914Y388873D01*
X953912Y388869D01*
X954460Y387833D01*
X954466Y387830D01*
X954465Y387825D01*
X955204Y386917D01*
X955211Y386915D01*
X955211Y386910D01*
X956113Y386163D01*
X956121Y386163D01*
X956121Y386158D01*
X957152Y385601D01*
X957159Y385602D01*
X957161Y385597D01*
X958280Y385253D01*
X958287Y385255D01*
X958290Y385251D01*
X959455Y385131D01*
X959458Y385133D01*
X959460Y385131D01*
X965460Y385131D01*
X965463Y385133D01*
G37*
G36*
X965463Y999773D02*
X965463Y999773D01*
X965465Y999771D01*
X966641Y999882D01*
X966646Y999887D01*
X966650Y999884D01*
X967782Y1000222D01*
X967786Y1000228D01*
X967791Y1000226D01*
X968835Y1000778D01*
X968838Y1000785D01*
X968843Y1000783D01*
X969759Y1001529D01*
X969760Y1001536D01*
X969766Y1001536D01*
X970519Y1002446D01*
X970519Y1002453D01*
X970524Y1002454D01*
X971085Y1003493D01*
X971084Y1003498D01*
X971088Y1003500D01*
X971087Y1003501D01*
X971089Y1003502D01*
X971436Y1004631D01*
X971436Y1004632D01*
X971437Y1004633D01*
X971434Y1004637D01*
X971438Y1004640D01*
X971559Y1005815D01*
X971555Y1005822D01*
X971559Y1005826D01*
X971402Y1007166D01*
X971397Y1007172D01*
X971400Y1007177D01*
X970949Y1008448D01*
X970942Y1008453D01*
X970944Y1008458D01*
X970222Y1009597D01*
X970214Y1009600D01*
X970215Y1009606D01*
X969257Y1010556D01*
X969249Y1010557D01*
X969248Y1010563D01*
X968103Y1011276D01*
X968095Y1011275D01*
X968093Y1011281D01*
X966817Y1011721D01*
X966810Y1011719D01*
X966807Y1011723D01*
X965465Y1011869D01*
X965462Y1011867D01*
X965460Y1011869D01*
X959460Y1011869D01*
X959457Y1011867D01*
X959454Y1011869D01*
X958125Y1011714D01*
X958119Y1011708D01*
X958115Y1011711D01*
X956854Y1011264D01*
X956849Y1011257D01*
X956844Y1011259D01*
X955714Y1010542D01*
X955711Y1010535D01*
X955705Y1010536D01*
X954763Y1009586D01*
X954762Y1009577D01*
X954756Y1009577D01*
X954049Y1008441D01*
X954050Y1008433D01*
X954044Y1008431D01*
X953608Y1007166D01*
X953610Y1007158D01*
X953605Y1007156D01*
X953461Y1005825D01*
X953465Y1005819D01*
X953461Y1005815D01*
X953571Y1004649D01*
X953576Y1004644D01*
X953573Y1004640D01*
X953908Y1003517D01*
X953914Y1003513D01*
X953912Y1003509D01*
X954460Y1002473D01*
X954466Y1002470D01*
X954465Y1002465D01*
X955204Y1001557D01*
X955211Y1001555D01*
X955211Y1001550D01*
X956113Y1000803D01*
X956121Y1000803D01*
X956121Y1000798D01*
X957152Y1000241D01*
X957159Y1000242D01*
X957161Y1000237D01*
X958280Y999893D01*
X958287Y999895D01*
X958290Y999891D01*
X959455Y999771D01*
X959458Y999773D01*
X959460Y999771D01*
X965460Y999771D01*
X965463Y999773D01*
G37*
G36*
X965463Y852493D02*
X965463Y852493D01*
X965465Y852491D01*
X966641Y852602D01*
X966646Y852607D01*
X966650Y852604D01*
X967782Y852942D01*
X967786Y852948D01*
X967791Y852946D01*
X968835Y853498D01*
X968838Y853505D01*
X968843Y853503D01*
X969759Y854249D01*
X969760Y854256D01*
X969766Y854256D01*
X970519Y855166D01*
X970519Y855173D01*
X970524Y855174D01*
X971085Y856213D01*
X971084Y856218D01*
X971088Y856220D01*
X971087Y856221D01*
X971089Y856222D01*
X971436Y857351D01*
X971436Y857352D01*
X971437Y857353D01*
X971434Y857357D01*
X971438Y857360D01*
X971559Y858535D01*
X971555Y858542D01*
X971559Y858546D01*
X971402Y859886D01*
X971397Y859892D01*
X971400Y859897D01*
X970949Y861168D01*
X970942Y861173D01*
X970944Y861178D01*
X970222Y862317D01*
X970214Y862320D01*
X970215Y862326D01*
X969257Y863276D01*
X969249Y863277D01*
X969248Y863283D01*
X968103Y863996D01*
X968095Y863995D01*
X968093Y864001D01*
X966817Y864441D01*
X966810Y864439D01*
X966807Y864443D01*
X965465Y864589D01*
X965462Y864587D01*
X965460Y864589D01*
X959460Y864589D01*
X959457Y864587D01*
X959454Y864589D01*
X958125Y864434D01*
X958119Y864428D01*
X958115Y864431D01*
X956854Y863984D01*
X956849Y863977D01*
X956844Y863979D01*
X955714Y863262D01*
X955711Y863255D01*
X955705Y863256D01*
X954763Y862306D01*
X954762Y862297D01*
X954756Y862297D01*
X954049Y861161D01*
X954050Y861153D01*
X954044Y861151D01*
X953608Y859886D01*
X953610Y859878D01*
X953605Y859876D01*
X953461Y858545D01*
X953465Y858539D01*
X953461Y858535D01*
X953571Y857369D01*
X953576Y857364D01*
X953573Y857360D01*
X953908Y856237D01*
X953914Y856233D01*
X953912Y856229D01*
X954460Y855193D01*
X954466Y855190D01*
X954465Y855185D01*
X955204Y854277D01*
X955211Y854275D01*
X955211Y854270D01*
X956113Y853523D01*
X956121Y853523D01*
X956121Y853518D01*
X957152Y852961D01*
X957159Y852962D01*
X957161Y852957D01*
X958280Y852613D01*
X958287Y852615D01*
X958290Y852611D01*
X959455Y852491D01*
X959458Y852493D01*
X959460Y852491D01*
X965460Y852491D01*
X965463Y852493D01*
G37*
G36*
X490483Y385133D02*
X490483Y385133D01*
X490485Y385131D01*
X491661Y385242D01*
X491666Y385247D01*
X491670Y385244D01*
X492802Y385582D01*
X492806Y385588D01*
X492811Y385586D01*
X493855Y386138D01*
X493858Y386145D01*
X493863Y386143D01*
X494779Y386889D01*
X494780Y386896D01*
X494786Y386896D01*
X495539Y387806D01*
X495539Y387813D01*
X495544Y387814D01*
X496105Y388853D01*
X496104Y388858D01*
X496108Y388860D01*
X496107Y388861D01*
X496109Y388862D01*
X496456Y389991D01*
X496456Y389992D01*
X496457Y389993D01*
X496454Y389997D01*
X496458Y390000D01*
X496579Y391175D01*
X496575Y391182D01*
X496579Y391186D01*
X496422Y392526D01*
X496417Y392532D01*
X496420Y392537D01*
X495969Y393808D01*
X495962Y393813D01*
X495964Y393818D01*
X495242Y394957D01*
X495234Y394960D01*
X495235Y394966D01*
X494277Y395916D01*
X494269Y395917D01*
X494268Y395923D01*
X493123Y396636D01*
X493115Y396635D01*
X493113Y396641D01*
X491837Y397081D01*
X491830Y397079D01*
X491827Y397083D01*
X490485Y397229D01*
X490482Y397227D01*
X490480Y397229D01*
X484480Y397229D01*
X484477Y397227D01*
X484474Y397229D01*
X483145Y397074D01*
X483139Y397068D01*
X483135Y397071D01*
X481874Y396624D01*
X481869Y396617D01*
X481864Y396619D01*
X480734Y395902D01*
X480731Y395895D01*
X480725Y395896D01*
X479783Y394946D01*
X479782Y394937D01*
X479776Y394937D01*
X479069Y393801D01*
X479070Y393793D01*
X479064Y393791D01*
X478628Y392526D01*
X478630Y392518D01*
X478625Y392516D01*
X478481Y391185D01*
X478485Y391179D01*
X478481Y391175D01*
X478591Y390009D01*
X478596Y390004D01*
X478593Y390000D01*
X478928Y388877D01*
X478934Y388873D01*
X478932Y388869D01*
X479480Y387833D01*
X479486Y387830D01*
X479485Y387825D01*
X480224Y386917D01*
X480231Y386915D01*
X480231Y386910D01*
X481133Y386163D01*
X481141Y386163D01*
X481141Y386158D01*
X482172Y385601D01*
X482179Y385602D01*
X482181Y385597D01*
X483300Y385253D01*
X483307Y385255D01*
X483310Y385251D01*
X484475Y385131D01*
X484478Y385133D01*
X484480Y385131D01*
X490480Y385131D01*
X490483Y385133D01*
G37*
G36*
X15503Y385133D02*
X15503Y385133D01*
X15505Y385131D01*
X16681Y385242D01*
X16686Y385247D01*
X16690Y385244D01*
X17822Y385582D01*
X17826Y385588D01*
X17831Y385586D01*
X18875Y386138D01*
X18878Y386145D01*
X18883Y386143D01*
X19799Y386889D01*
X19800Y386896D01*
X19806Y386896D01*
X20559Y387806D01*
X20559Y387813D01*
X20564Y387814D01*
X21125Y388853D01*
X21124Y388858D01*
X21128Y388860D01*
X21127Y388861D01*
X21129Y388862D01*
X21476Y389991D01*
X21476Y389992D01*
X21477Y389993D01*
X21474Y389997D01*
X21478Y390000D01*
X21599Y391175D01*
X21595Y391182D01*
X21599Y391186D01*
X21442Y392526D01*
X21437Y392532D01*
X21440Y392537D01*
X20989Y393808D01*
X20982Y393813D01*
X20984Y393818D01*
X20262Y394957D01*
X20254Y394960D01*
X20255Y394966D01*
X19297Y395916D01*
X19289Y395917D01*
X19288Y395923D01*
X18143Y396636D01*
X18135Y396635D01*
X18133Y396641D01*
X16857Y397081D01*
X16850Y397079D01*
X16847Y397083D01*
X15505Y397229D01*
X15502Y397227D01*
X15500Y397229D01*
X9500Y397229D01*
X9497Y397227D01*
X9494Y397229D01*
X8165Y397074D01*
X8159Y397068D01*
X8155Y397071D01*
X6894Y396624D01*
X6889Y396617D01*
X6884Y396619D01*
X5754Y395902D01*
X5751Y395895D01*
X5745Y395896D01*
X4803Y394946D01*
X4802Y394937D01*
X4796Y394937D01*
X4089Y393801D01*
X4090Y393793D01*
X4084Y393791D01*
X3648Y392526D01*
X3650Y392518D01*
X3645Y392516D01*
X3501Y391185D01*
X3505Y391179D01*
X3501Y391175D01*
X3611Y390009D01*
X3616Y390004D01*
X3613Y390000D01*
X3948Y388877D01*
X3954Y388873D01*
X3952Y388869D01*
X4500Y387833D01*
X4506Y387830D01*
X4505Y387825D01*
X5244Y386917D01*
X5251Y386915D01*
X5251Y386910D01*
X6153Y386163D01*
X6161Y386163D01*
X6161Y386158D01*
X7192Y385601D01*
X7199Y385602D01*
X7201Y385597D01*
X8320Y385253D01*
X8327Y385255D01*
X8330Y385251D01*
X9495Y385131D01*
X9498Y385133D01*
X9500Y385131D01*
X15500Y385131D01*
X15503Y385133D01*
G37*
G36*
X965463Y298733D02*
X965463Y298733D01*
X965465Y298731D01*
X966641Y298842D01*
X966646Y298847D01*
X966650Y298844D01*
X967782Y299182D01*
X967786Y299188D01*
X967791Y299186D01*
X968835Y299738D01*
X968838Y299745D01*
X968843Y299743D01*
X969759Y300489D01*
X969760Y300496D01*
X969766Y300496D01*
X970519Y301406D01*
X970519Y301413D01*
X970524Y301414D01*
X971085Y302453D01*
X971084Y302458D01*
X971088Y302460D01*
X971087Y302461D01*
X971089Y302462D01*
X971436Y303591D01*
X971436Y303592D01*
X971437Y303593D01*
X971434Y303597D01*
X971438Y303600D01*
X971559Y304775D01*
X971555Y304782D01*
X971559Y304786D01*
X971402Y306126D01*
X971397Y306132D01*
X971400Y306137D01*
X970949Y307408D01*
X970942Y307413D01*
X970944Y307418D01*
X970222Y308557D01*
X970214Y308560D01*
X970215Y308566D01*
X969257Y309516D01*
X969249Y309517D01*
X969248Y309523D01*
X968103Y310236D01*
X968095Y310235D01*
X968093Y310241D01*
X966817Y310681D01*
X966810Y310679D01*
X966807Y310683D01*
X965465Y310829D01*
X965462Y310827D01*
X965460Y310829D01*
X959460Y310829D01*
X959457Y310827D01*
X959454Y310829D01*
X958125Y310674D01*
X958119Y310668D01*
X958115Y310671D01*
X956854Y310224D01*
X956849Y310217D01*
X956844Y310219D01*
X955714Y309502D01*
X955711Y309495D01*
X955705Y309496D01*
X954763Y308546D01*
X954762Y308537D01*
X954756Y308537D01*
X954049Y307401D01*
X954050Y307393D01*
X954044Y307391D01*
X953608Y306126D01*
X953610Y306118D01*
X953605Y306116D01*
X953461Y304785D01*
X953465Y304779D01*
X953461Y304775D01*
X953571Y303609D01*
X953576Y303604D01*
X953573Y303600D01*
X953908Y302477D01*
X953914Y302473D01*
X953912Y302469D01*
X954460Y301433D01*
X954466Y301430D01*
X954465Y301425D01*
X955204Y300517D01*
X955211Y300515D01*
X955211Y300510D01*
X956113Y299763D01*
X956121Y299763D01*
X956121Y299758D01*
X957152Y299201D01*
X957159Y299202D01*
X957161Y299197D01*
X958280Y298853D01*
X958287Y298855D01*
X958290Y298851D01*
X959455Y298731D01*
X959458Y298733D01*
X959460Y298731D01*
X965460Y298731D01*
X965463Y298733D01*
G37*
G36*
X15503Y298733D02*
X15503Y298733D01*
X15505Y298731D01*
X16681Y298842D01*
X16686Y298847D01*
X16690Y298844D01*
X17822Y299182D01*
X17826Y299188D01*
X17831Y299186D01*
X18875Y299738D01*
X18878Y299745D01*
X18883Y299743D01*
X19799Y300489D01*
X19800Y300496D01*
X19806Y300496D01*
X20559Y301406D01*
X20559Y301413D01*
X20564Y301414D01*
X21125Y302453D01*
X21124Y302458D01*
X21128Y302460D01*
X21127Y302461D01*
X21129Y302462D01*
X21476Y303591D01*
X21476Y303592D01*
X21477Y303593D01*
X21474Y303597D01*
X21478Y303600D01*
X21599Y304775D01*
X21595Y304782D01*
X21599Y304786D01*
X21442Y306126D01*
X21437Y306132D01*
X21440Y306137D01*
X20989Y307408D01*
X20982Y307413D01*
X20984Y307418D01*
X20262Y308557D01*
X20254Y308560D01*
X20255Y308566D01*
X19297Y309516D01*
X19289Y309517D01*
X19288Y309523D01*
X18143Y310236D01*
X18135Y310235D01*
X18133Y310241D01*
X16857Y310681D01*
X16850Y310679D01*
X16847Y310683D01*
X15505Y310829D01*
X15502Y310827D01*
X15500Y310829D01*
X9500Y310829D01*
X9497Y310827D01*
X9494Y310829D01*
X8165Y310674D01*
X8159Y310668D01*
X8155Y310671D01*
X6894Y310224D01*
X6889Y310217D01*
X6884Y310219D01*
X5754Y309502D01*
X5751Y309495D01*
X5745Y309496D01*
X4803Y308546D01*
X4802Y308537D01*
X4796Y308537D01*
X4089Y307401D01*
X4090Y307393D01*
X4084Y307391D01*
X3648Y306126D01*
X3650Y306118D01*
X3645Y306116D01*
X3501Y304785D01*
X3505Y304779D01*
X3501Y304775D01*
X3611Y303609D01*
X3616Y303604D01*
X3613Y303600D01*
X3948Y302477D01*
X3954Y302473D01*
X3952Y302469D01*
X4500Y301433D01*
X4506Y301430D01*
X4505Y301425D01*
X5244Y300517D01*
X5251Y300515D01*
X5251Y300510D01*
X6153Y299763D01*
X6161Y299763D01*
X6161Y299758D01*
X7192Y299201D01*
X7199Y299202D01*
X7201Y299197D01*
X8320Y298853D01*
X8327Y298855D01*
X8330Y298851D01*
X9495Y298731D01*
X9498Y298733D01*
X9500Y298731D01*
X15500Y298731D01*
X15503Y298733D01*
G37*
G36*
X15503Y852493D02*
X15503Y852493D01*
X15505Y852491D01*
X16681Y852602D01*
X16686Y852607D01*
X16690Y852604D01*
X17822Y852942D01*
X17826Y852948D01*
X17831Y852946D01*
X18875Y853498D01*
X18878Y853505D01*
X18883Y853503D01*
X19799Y854249D01*
X19800Y854256D01*
X19806Y854256D01*
X20559Y855166D01*
X20559Y855173D01*
X20564Y855174D01*
X21125Y856213D01*
X21124Y856218D01*
X21128Y856220D01*
X21127Y856221D01*
X21129Y856222D01*
X21476Y857351D01*
X21476Y857352D01*
X21477Y857353D01*
X21474Y857357D01*
X21478Y857360D01*
X21599Y858535D01*
X21595Y858542D01*
X21599Y858546D01*
X21442Y859886D01*
X21437Y859892D01*
X21440Y859897D01*
X20989Y861168D01*
X20982Y861173D01*
X20984Y861178D01*
X20262Y862317D01*
X20254Y862320D01*
X20255Y862326D01*
X19297Y863276D01*
X19289Y863277D01*
X19288Y863283D01*
X18143Y863996D01*
X18135Y863995D01*
X18133Y864001D01*
X16857Y864441D01*
X16850Y864439D01*
X16847Y864443D01*
X15505Y864589D01*
X15502Y864587D01*
X15500Y864589D01*
X9500Y864589D01*
X9497Y864587D01*
X9494Y864589D01*
X8165Y864434D01*
X8159Y864428D01*
X8155Y864431D01*
X6894Y863984D01*
X6889Y863977D01*
X6884Y863979D01*
X5754Y863262D01*
X5751Y863255D01*
X5745Y863256D01*
X4803Y862306D01*
X4802Y862297D01*
X4796Y862297D01*
X4089Y861161D01*
X4090Y861153D01*
X4084Y861151D01*
X3648Y859886D01*
X3650Y859878D01*
X3645Y859876D01*
X3501Y858545D01*
X3505Y858539D01*
X3501Y858535D01*
X3611Y857369D01*
X3616Y857364D01*
X3613Y857360D01*
X3948Y856237D01*
X3954Y856233D01*
X3952Y856229D01*
X4500Y855193D01*
X4506Y855190D01*
X4505Y855185D01*
X5244Y854277D01*
X5251Y854275D01*
X5251Y854270D01*
X6153Y853523D01*
X6161Y853523D01*
X6161Y853518D01*
X7192Y852961D01*
X7199Y852962D01*
X7201Y852957D01*
X8320Y852613D01*
X8327Y852615D01*
X8330Y852611D01*
X9495Y852491D01*
X9498Y852493D01*
X9500Y852491D01*
X15500Y852491D01*
X15503Y852493D01*
G37*
G36*
X490483Y852493D02*
X490483Y852493D01*
X490485Y852491D01*
X491661Y852602D01*
X491666Y852607D01*
X491670Y852604D01*
X492802Y852942D01*
X492806Y852948D01*
X492811Y852946D01*
X493855Y853498D01*
X493858Y853505D01*
X493863Y853503D01*
X494779Y854249D01*
X494780Y854256D01*
X494786Y854256D01*
X495539Y855166D01*
X495539Y855173D01*
X495544Y855174D01*
X496105Y856213D01*
X496104Y856218D01*
X496108Y856220D01*
X496107Y856221D01*
X496109Y856222D01*
X496456Y857351D01*
X496456Y857352D01*
X496457Y857353D01*
X496454Y857357D01*
X496458Y857360D01*
X496579Y858535D01*
X496575Y858542D01*
X496579Y858546D01*
X496422Y859886D01*
X496417Y859892D01*
X496420Y859897D01*
X495969Y861168D01*
X495962Y861173D01*
X495964Y861178D01*
X495242Y862317D01*
X495234Y862320D01*
X495235Y862326D01*
X494277Y863276D01*
X494269Y863277D01*
X494268Y863283D01*
X493123Y863996D01*
X493115Y863995D01*
X493113Y864001D01*
X491837Y864441D01*
X491830Y864439D01*
X491827Y864443D01*
X490485Y864589D01*
X490482Y864587D01*
X490480Y864589D01*
X484480Y864589D01*
X484477Y864587D01*
X484474Y864589D01*
X483145Y864434D01*
X483139Y864428D01*
X483135Y864431D01*
X481874Y863984D01*
X481869Y863977D01*
X481864Y863979D01*
X480734Y863262D01*
X480731Y863255D01*
X480725Y863256D01*
X479783Y862306D01*
X479782Y862297D01*
X479776Y862297D01*
X479069Y861161D01*
X479070Y861153D01*
X479064Y861151D01*
X478628Y859886D01*
X478630Y859878D01*
X478625Y859876D01*
X478481Y858545D01*
X478485Y858539D01*
X478481Y858535D01*
X478591Y857369D01*
X478596Y857364D01*
X478593Y857360D01*
X478928Y856237D01*
X478934Y856233D01*
X478932Y856229D01*
X479480Y855193D01*
X479486Y855190D01*
X479485Y855185D01*
X480224Y854277D01*
X480231Y854275D01*
X480231Y854270D01*
X481133Y853523D01*
X481141Y853523D01*
X481141Y853518D01*
X482172Y852961D01*
X482179Y852962D01*
X482181Y852957D01*
X483300Y852613D01*
X483307Y852615D01*
X483310Y852611D01*
X484475Y852491D01*
X484478Y852493D01*
X484480Y852491D01*
X490480Y852491D01*
X490483Y852493D01*
G37*
G36*
X490483Y298733D02*
X490483Y298733D01*
X490485Y298731D01*
X491661Y298842D01*
X491666Y298847D01*
X491670Y298844D01*
X492802Y299182D01*
X492806Y299188D01*
X492811Y299186D01*
X493855Y299738D01*
X493858Y299745D01*
X493863Y299743D01*
X494779Y300489D01*
X494780Y300496D01*
X494786Y300496D01*
X495539Y301406D01*
X495539Y301413D01*
X495544Y301414D01*
X496105Y302453D01*
X496104Y302458D01*
X496108Y302460D01*
X496107Y302461D01*
X496109Y302462D01*
X496456Y303591D01*
X496456Y303592D01*
X496457Y303593D01*
X496454Y303597D01*
X496458Y303600D01*
X496579Y304775D01*
X496575Y304782D01*
X496579Y304786D01*
X496422Y306126D01*
X496417Y306132D01*
X496420Y306137D01*
X495969Y307408D01*
X495962Y307413D01*
X495964Y307418D01*
X495242Y308557D01*
X495234Y308560D01*
X495235Y308566D01*
X494277Y309516D01*
X494269Y309517D01*
X494268Y309523D01*
X493123Y310236D01*
X493115Y310235D01*
X493113Y310241D01*
X491837Y310681D01*
X491830Y310679D01*
X491827Y310683D01*
X490485Y310829D01*
X490482Y310827D01*
X490480Y310829D01*
X484480Y310829D01*
X484477Y310827D01*
X484474Y310829D01*
X483145Y310674D01*
X483139Y310668D01*
X483135Y310671D01*
X481874Y310224D01*
X481869Y310217D01*
X481864Y310219D01*
X480734Y309502D01*
X480731Y309495D01*
X480725Y309496D01*
X479783Y308546D01*
X479782Y308537D01*
X479776Y308537D01*
X479069Y307401D01*
X479070Y307393D01*
X479064Y307391D01*
X478628Y306126D01*
X478630Y306118D01*
X478625Y306116D01*
X478481Y304785D01*
X478485Y304779D01*
X478481Y304775D01*
X478591Y303609D01*
X478596Y303604D01*
X478593Y303600D01*
X478928Y302477D01*
X478934Y302473D01*
X478932Y302469D01*
X479480Y301433D01*
X479486Y301430D01*
X479485Y301425D01*
X480224Y300517D01*
X480231Y300515D01*
X480231Y300510D01*
X481133Y299763D01*
X481141Y299763D01*
X481141Y299758D01*
X482172Y299201D01*
X482179Y299202D01*
X482181Y299197D01*
X483300Y298853D01*
X483307Y298855D01*
X483310Y298851D01*
X484475Y298731D01*
X484478Y298733D01*
X484480Y298731D01*
X490480Y298731D01*
X490483Y298733D01*
G37*
G36*
X15503Y766093D02*
X15503Y766093D01*
X15505Y766091D01*
X16681Y766202D01*
X16686Y766207D01*
X16690Y766204D01*
X17822Y766542D01*
X17826Y766548D01*
X17831Y766546D01*
X18875Y767098D01*
X18878Y767105D01*
X18883Y767103D01*
X19799Y767849D01*
X19800Y767856D01*
X19806Y767856D01*
X20559Y768766D01*
X20559Y768773D01*
X20564Y768774D01*
X21125Y769813D01*
X21124Y769818D01*
X21128Y769820D01*
X21127Y769821D01*
X21129Y769822D01*
X21476Y770951D01*
X21476Y770952D01*
X21477Y770953D01*
X21474Y770957D01*
X21478Y770960D01*
X21599Y772135D01*
X21595Y772142D01*
X21599Y772146D01*
X21442Y773486D01*
X21437Y773492D01*
X21440Y773497D01*
X20989Y774768D01*
X20982Y774773D01*
X20984Y774778D01*
X20262Y775917D01*
X20254Y775920D01*
X20255Y775926D01*
X19297Y776876D01*
X19289Y776877D01*
X19288Y776883D01*
X18143Y777596D01*
X18135Y777595D01*
X18133Y777601D01*
X16857Y778041D01*
X16850Y778039D01*
X16847Y778043D01*
X15505Y778189D01*
X15502Y778187D01*
X15500Y778189D01*
X9500Y778189D01*
X9497Y778187D01*
X9494Y778189D01*
X8165Y778034D01*
X8159Y778028D01*
X8155Y778031D01*
X6894Y777584D01*
X6889Y777577D01*
X6884Y777579D01*
X5754Y776862D01*
X5751Y776855D01*
X5745Y776856D01*
X4803Y775906D01*
X4802Y775897D01*
X4796Y775897D01*
X4089Y774761D01*
X4090Y774753D01*
X4084Y774751D01*
X3648Y773486D01*
X3650Y773478D01*
X3645Y773476D01*
X3501Y772145D01*
X3505Y772139D01*
X3501Y772135D01*
X3611Y770969D01*
X3616Y770964D01*
X3613Y770960D01*
X3948Y769837D01*
X3954Y769833D01*
X3952Y769829D01*
X4500Y768793D01*
X4506Y768790D01*
X4505Y768785D01*
X5244Y767877D01*
X5251Y767875D01*
X5251Y767870D01*
X6153Y767123D01*
X6161Y767123D01*
X6161Y767118D01*
X7192Y766561D01*
X7199Y766562D01*
X7201Y766557D01*
X8320Y766213D01*
X8327Y766215D01*
X8330Y766211D01*
X9495Y766091D01*
X9498Y766093D01*
X9500Y766091D01*
X15500Y766091D01*
X15503Y766093D01*
G37*
G36*
X490483Y766093D02*
X490483Y766093D01*
X490485Y766091D01*
X491661Y766202D01*
X491666Y766207D01*
X491670Y766204D01*
X492802Y766542D01*
X492806Y766548D01*
X492811Y766546D01*
X493855Y767098D01*
X493858Y767105D01*
X493863Y767103D01*
X494779Y767849D01*
X494780Y767856D01*
X494786Y767856D01*
X495539Y768766D01*
X495539Y768773D01*
X495544Y768774D01*
X496105Y769813D01*
X496104Y769818D01*
X496108Y769820D01*
X496107Y769821D01*
X496109Y769822D01*
X496456Y770951D01*
X496456Y770952D01*
X496457Y770953D01*
X496454Y770957D01*
X496458Y770960D01*
X496579Y772135D01*
X496575Y772142D01*
X496579Y772146D01*
X496422Y773486D01*
X496417Y773492D01*
X496420Y773497D01*
X495969Y774768D01*
X495962Y774773D01*
X495964Y774778D01*
X495242Y775917D01*
X495234Y775920D01*
X495235Y775926D01*
X494277Y776876D01*
X494269Y776877D01*
X494268Y776883D01*
X493123Y777596D01*
X493115Y777595D01*
X493113Y777601D01*
X491837Y778041D01*
X491830Y778039D01*
X491827Y778043D01*
X490485Y778189D01*
X490482Y778187D01*
X490480Y778189D01*
X484480Y778189D01*
X484477Y778187D01*
X484474Y778189D01*
X483145Y778034D01*
X483139Y778028D01*
X483135Y778031D01*
X481874Y777584D01*
X481869Y777577D01*
X481864Y777579D01*
X480734Y776862D01*
X480731Y776855D01*
X480725Y776856D01*
X479783Y775906D01*
X479782Y775897D01*
X479776Y775897D01*
X479069Y774761D01*
X479070Y774753D01*
X479064Y774751D01*
X478628Y773486D01*
X478630Y773478D01*
X478625Y773476D01*
X478481Y772145D01*
X478485Y772139D01*
X478481Y772135D01*
X478591Y770969D01*
X478596Y770964D01*
X478593Y770960D01*
X478928Y769837D01*
X478934Y769833D01*
X478932Y769829D01*
X479480Y768793D01*
X479486Y768790D01*
X479485Y768785D01*
X480224Y767877D01*
X480231Y767875D01*
X480231Y767870D01*
X481133Y767123D01*
X481141Y767123D01*
X481141Y767118D01*
X482172Y766561D01*
X482179Y766562D01*
X482181Y766557D01*
X483300Y766213D01*
X483307Y766215D01*
X483310Y766211D01*
X484475Y766091D01*
X484478Y766093D01*
X484480Y766091D01*
X490480Y766091D01*
X490483Y766093D01*
G37*
G36*
X965463Y766093D02*
X965463Y766093D01*
X965465Y766091D01*
X966641Y766202D01*
X966646Y766207D01*
X966650Y766204D01*
X967782Y766542D01*
X967786Y766548D01*
X967791Y766546D01*
X968835Y767098D01*
X968838Y767105D01*
X968843Y767103D01*
X969759Y767849D01*
X969760Y767856D01*
X969766Y767856D01*
X970519Y768766D01*
X970519Y768773D01*
X970524Y768774D01*
X971085Y769813D01*
X971084Y769818D01*
X971088Y769820D01*
X971087Y769821D01*
X971089Y769822D01*
X971436Y770951D01*
X971436Y770952D01*
X971437Y770953D01*
X971434Y770957D01*
X971438Y770960D01*
X971559Y772135D01*
X971555Y772142D01*
X971559Y772146D01*
X971402Y773486D01*
X971397Y773492D01*
X971400Y773497D01*
X970949Y774768D01*
X970942Y774773D01*
X970944Y774778D01*
X970222Y775917D01*
X970214Y775920D01*
X970215Y775926D01*
X969257Y776876D01*
X969249Y776877D01*
X969248Y776883D01*
X968103Y777596D01*
X968095Y777595D01*
X968093Y777601D01*
X966817Y778041D01*
X966810Y778039D01*
X966807Y778043D01*
X965465Y778189D01*
X965462Y778187D01*
X965460Y778189D01*
X959460Y778189D01*
X959457Y778187D01*
X959454Y778189D01*
X958125Y778034D01*
X958119Y778028D01*
X958115Y778031D01*
X956854Y777584D01*
X956849Y777577D01*
X956844Y777579D01*
X955714Y776862D01*
X955711Y776855D01*
X955705Y776856D01*
X954763Y775906D01*
X954762Y775897D01*
X954756Y775897D01*
X954049Y774761D01*
X954050Y774753D01*
X954044Y774751D01*
X953608Y773486D01*
X953610Y773478D01*
X953605Y773476D01*
X953461Y772145D01*
X953465Y772139D01*
X953461Y772135D01*
X953571Y770969D01*
X953576Y770964D01*
X953573Y770960D01*
X953908Y769837D01*
X953914Y769833D01*
X953912Y769829D01*
X954460Y768793D01*
X954466Y768790D01*
X954465Y768785D01*
X955204Y767877D01*
X955211Y767875D01*
X955211Y767870D01*
X956113Y767123D01*
X956121Y767123D01*
X956121Y767118D01*
X957152Y766561D01*
X957159Y766562D01*
X957161Y766557D01*
X958280Y766213D01*
X958287Y766215D01*
X958290Y766211D01*
X959455Y766091D01*
X959458Y766093D01*
X959460Y766091D01*
X965460Y766091D01*
X965463Y766093D01*
G37*
G36*
X965463Y151453D02*
X965463Y151453D01*
X965465Y151451D01*
X966641Y151562D01*
X966646Y151567D01*
X966650Y151564D01*
X967782Y151902D01*
X967786Y151908D01*
X967791Y151906D01*
X968835Y152458D01*
X968838Y152465D01*
X968843Y152463D01*
X969759Y153209D01*
X969760Y153216D01*
X969766Y153216D01*
X970519Y154126D01*
X970519Y154133D01*
X970524Y154134D01*
X971085Y155173D01*
X971084Y155178D01*
X971088Y155180D01*
X971087Y155181D01*
X971089Y155182D01*
X971436Y156311D01*
X971436Y156312D01*
X971437Y156313D01*
X971434Y156317D01*
X971438Y156320D01*
X971559Y157495D01*
X971555Y157502D01*
X971559Y157506D01*
X971402Y158846D01*
X971397Y158852D01*
X971400Y158857D01*
X970949Y160128D01*
X970942Y160133D01*
X970944Y160138D01*
X970222Y161277D01*
X970214Y161280D01*
X970215Y161286D01*
X969257Y162236D01*
X969249Y162237D01*
X969248Y162243D01*
X968103Y162956D01*
X968095Y162955D01*
X968093Y162961D01*
X966817Y163401D01*
X966810Y163399D01*
X966807Y163403D01*
X965465Y163549D01*
X965462Y163547D01*
X965460Y163549D01*
X959460Y163549D01*
X959457Y163547D01*
X959454Y163549D01*
X958125Y163394D01*
X958119Y163388D01*
X958115Y163391D01*
X956854Y162944D01*
X956849Y162937D01*
X956844Y162939D01*
X955714Y162222D01*
X955711Y162215D01*
X955705Y162216D01*
X954763Y161266D01*
X954762Y161257D01*
X954756Y161257D01*
X954049Y160121D01*
X954050Y160113D01*
X954044Y160111D01*
X953608Y158846D01*
X953610Y158838D01*
X953605Y158836D01*
X953461Y157505D01*
X953465Y157499D01*
X953461Y157495D01*
X953571Y156329D01*
X953576Y156324D01*
X953573Y156320D01*
X953908Y155197D01*
X953914Y155193D01*
X953912Y155189D01*
X954460Y154153D01*
X954466Y154150D01*
X954465Y154145D01*
X955204Y153237D01*
X955211Y153235D01*
X955211Y153230D01*
X956113Y152483D01*
X956121Y152483D01*
X956121Y152478D01*
X957152Y151921D01*
X957159Y151922D01*
X957161Y151917D01*
X958280Y151573D01*
X958287Y151575D01*
X958290Y151571D01*
X959455Y151451D01*
X959458Y151453D01*
X959460Y151451D01*
X965460Y151451D01*
X965463Y151453D01*
G37*
G36*
X490483Y151453D02*
X490483Y151453D01*
X490485Y151451D01*
X491661Y151562D01*
X491666Y151567D01*
X491670Y151564D01*
X492802Y151902D01*
X492806Y151908D01*
X492811Y151906D01*
X493855Y152458D01*
X493858Y152465D01*
X493863Y152463D01*
X494779Y153209D01*
X494780Y153216D01*
X494786Y153216D01*
X495539Y154126D01*
X495539Y154133D01*
X495544Y154134D01*
X496105Y155173D01*
X496104Y155178D01*
X496108Y155180D01*
X496107Y155181D01*
X496109Y155182D01*
X496456Y156311D01*
X496456Y156312D01*
X496457Y156313D01*
X496454Y156317D01*
X496458Y156320D01*
X496579Y157495D01*
X496575Y157502D01*
X496579Y157506D01*
X496422Y158846D01*
X496417Y158852D01*
X496420Y158857D01*
X495969Y160128D01*
X495962Y160133D01*
X495964Y160138D01*
X495242Y161277D01*
X495234Y161280D01*
X495235Y161286D01*
X494277Y162236D01*
X494269Y162237D01*
X494268Y162243D01*
X493123Y162956D01*
X493115Y162955D01*
X493113Y162961D01*
X491837Y163401D01*
X491830Y163399D01*
X491827Y163403D01*
X490485Y163549D01*
X490482Y163547D01*
X490480Y163549D01*
X484480Y163549D01*
X484477Y163547D01*
X484474Y163549D01*
X483145Y163394D01*
X483139Y163388D01*
X483135Y163391D01*
X481874Y162944D01*
X481869Y162937D01*
X481864Y162939D01*
X480734Y162222D01*
X480731Y162215D01*
X480725Y162216D01*
X479783Y161266D01*
X479782Y161257D01*
X479776Y161257D01*
X479069Y160121D01*
X479070Y160113D01*
X479064Y160111D01*
X478628Y158846D01*
X478630Y158838D01*
X478625Y158836D01*
X478481Y157505D01*
X478485Y157499D01*
X478481Y157495D01*
X478591Y156329D01*
X478596Y156324D01*
X478593Y156320D01*
X478928Y155197D01*
X478934Y155193D01*
X478932Y155189D01*
X479480Y154153D01*
X479486Y154150D01*
X479485Y154145D01*
X480224Y153237D01*
X480231Y153235D01*
X480231Y153230D01*
X481133Y152483D01*
X481141Y152483D01*
X481141Y152478D01*
X482172Y151921D01*
X482179Y151922D01*
X482181Y151917D01*
X483300Y151573D01*
X483307Y151575D01*
X483310Y151571D01*
X484475Y151451D01*
X484478Y151453D01*
X484480Y151451D01*
X490480Y151451D01*
X490483Y151453D01*
G37*
G36*
X490483Y532413D02*
X490483Y532413D01*
X490485Y532411D01*
X491661Y532522D01*
X491666Y532527D01*
X491670Y532524D01*
X492802Y532862D01*
X492806Y532868D01*
X492811Y532866D01*
X493855Y533418D01*
X493858Y533425D01*
X493863Y533423D01*
X494779Y534169D01*
X494780Y534176D01*
X494786Y534176D01*
X495539Y535086D01*
X495539Y535093D01*
X495544Y535094D01*
X496105Y536133D01*
X496104Y536138D01*
X496108Y536140D01*
X496107Y536141D01*
X496109Y536142D01*
X496456Y537271D01*
X496456Y537272D01*
X496457Y537273D01*
X496454Y537277D01*
X496458Y537280D01*
X496579Y538455D01*
X496575Y538462D01*
X496579Y538466D01*
X496422Y539806D01*
X496417Y539812D01*
X496420Y539817D01*
X495969Y541088D01*
X495962Y541093D01*
X495964Y541098D01*
X495242Y542237D01*
X495234Y542240D01*
X495235Y542246D01*
X494277Y543196D01*
X494269Y543197D01*
X494268Y543203D01*
X493123Y543916D01*
X493115Y543915D01*
X493113Y543921D01*
X491837Y544361D01*
X491830Y544359D01*
X491827Y544363D01*
X490485Y544509D01*
X490482Y544507D01*
X490480Y544509D01*
X484480Y544509D01*
X484477Y544507D01*
X484474Y544509D01*
X483145Y544354D01*
X483139Y544348D01*
X483135Y544351D01*
X481874Y543904D01*
X481869Y543897D01*
X481864Y543899D01*
X480734Y543182D01*
X480731Y543175D01*
X480725Y543176D01*
X479783Y542226D01*
X479782Y542217D01*
X479776Y542217D01*
X479069Y541081D01*
X479070Y541073D01*
X479064Y541071D01*
X478628Y539806D01*
X478630Y539798D01*
X478625Y539796D01*
X478481Y538465D01*
X478485Y538459D01*
X478481Y538455D01*
X478591Y537289D01*
X478596Y537284D01*
X478593Y537280D01*
X478928Y536157D01*
X478934Y536153D01*
X478932Y536149D01*
X479480Y535113D01*
X479486Y535110D01*
X479485Y535105D01*
X480224Y534197D01*
X480231Y534195D01*
X480231Y534190D01*
X481133Y533443D01*
X481141Y533443D01*
X481141Y533438D01*
X482172Y532881D01*
X482179Y532882D01*
X482181Y532877D01*
X483300Y532533D01*
X483307Y532535D01*
X483310Y532531D01*
X484475Y532411D01*
X484478Y532413D01*
X484480Y532411D01*
X490480Y532411D01*
X490483Y532413D01*
G37*
G36*
X15503Y151453D02*
X15503Y151453D01*
X15505Y151451D01*
X16681Y151562D01*
X16686Y151567D01*
X16690Y151564D01*
X17822Y151902D01*
X17826Y151908D01*
X17831Y151906D01*
X18875Y152458D01*
X18878Y152465D01*
X18883Y152463D01*
X19799Y153209D01*
X19800Y153216D01*
X19806Y153216D01*
X20559Y154126D01*
X20559Y154133D01*
X20564Y154134D01*
X21125Y155173D01*
X21124Y155178D01*
X21128Y155180D01*
X21127Y155181D01*
X21129Y155182D01*
X21476Y156311D01*
X21476Y156312D01*
X21477Y156313D01*
X21474Y156317D01*
X21478Y156320D01*
X21599Y157495D01*
X21595Y157502D01*
X21599Y157506D01*
X21442Y158846D01*
X21437Y158852D01*
X21440Y158857D01*
X20989Y160128D01*
X20982Y160133D01*
X20984Y160138D01*
X20262Y161277D01*
X20254Y161280D01*
X20255Y161286D01*
X19297Y162236D01*
X19289Y162237D01*
X19288Y162243D01*
X18143Y162956D01*
X18135Y162955D01*
X18133Y162961D01*
X16857Y163401D01*
X16850Y163399D01*
X16847Y163403D01*
X15505Y163549D01*
X15502Y163547D01*
X15500Y163549D01*
X9500Y163549D01*
X9497Y163547D01*
X9494Y163549D01*
X8165Y163394D01*
X8159Y163388D01*
X8155Y163391D01*
X6894Y162944D01*
X6889Y162937D01*
X6884Y162939D01*
X5754Y162222D01*
X5751Y162215D01*
X5745Y162216D01*
X4803Y161266D01*
X4802Y161257D01*
X4796Y161257D01*
X4089Y160121D01*
X4090Y160113D01*
X4084Y160111D01*
X3648Y158846D01*
X3650Y158838D01*
X3645Y158836D01*
X3501Y157505D01*
X3505Y157499D01*
X3501Y157495D01*
X3611Y156329D01*
X3616Y156324D01*
X3613Y156320D01*
X3948Y155197D01*
X3954Y155193D01*
X3952Y155189D01*
X4500Y154153D01*
X4506Y154150D01*
X4505Y154145D01*
X5244Y153237D01*
X5251Y153235D01*
X5251Y153230D01*
X6153Y152483D01*
X6161Y152483D01*
X6161Y152478D01*
X7192Y151921D01*
X7199Y151922D01*
X7201Y151917D01*
X8320Y151573D01*
X8327Y151575D01*
X8330Y151571D01*
X9495Y151451D01*
X9498Y151453D01*
X9500Y151451D01*
X15500Y151451D01*
X15503Y151453D01*
G37*
G36*
X965463Y618813D02*
X965463Y618813D01*
X965465Y618811D01*
X966641Y618922D01*
X966646Y618927D01*
X966650Y618924D01*
X967782Y619262D01*
X967786Y619268D01*
X967791Y619266D01*
X968835Y619818D01*
X968838Y619825D01*
X968843Y619823D01*
X969759Y620569D01*
X969760Y620576D01*
X969766Y620576D01*
X970519Y621486D01*
X970519Y621493D01*
X970524Y621494D01*
X971085Y622533D01*
X971084Y622538D01*
X971088Y622540D01*
X971087Y622541D01*
X971089Y622542D01*
X971436Y623671D01*
X971436Y623672D01*
X971437Y623673D01*
X971434Y623677D01*
X971438Y623680D01*
X971559Y624855D01*
X971555Y624862D01*
X971559Y624866D01*
X971402Y626206D01*
X971397Y626212D01*
X971400Y626217D01*
X970949Y627488D01*
X970942Y627493D01*
X970944Y627498D01*
X970222Y628637D01*
X970214Y628640D01*
X970215Y628646D01*
X969257Y629596D01*
X969249Y629597D01*
X969248Y629603D01*
X968103Y630316D01*
X968095Y630315D01*
X968093Y630321D01*
X966817Y630761D01*
X966810Y630759D01*
X966807Y630763D01*
X965465Y630909D01*
X965462Y630907D01*
X965460Y630909D01*
X959460Y630909D01*
X959457Y630907D01*
X959454Y630909D01*
X958125Y630754D01*
X958119Y630748D01*
X958115Y630751D01*
X956854Y630304D01*
X956849Y630297D01*
X956844Y630299D01*
X955714Y629582D01*
X955711Y629575D01*
X955705Y629576D01*
X954763Y628626D01*
X954762Y628617D01*
X954756Y628617D01*
X954049Y627481D01*
X954050Y627473D01*
X954044Y627471D01*
X953608Y626206D01*
X953610Y626198D01*
X953605Y626196D01*
X953461Y624865D01*
X953465Y624859D01*
X953461Y624855D01*
X953571Y623689D01*
X953576Y623684D01*
X953573Y623680D01*
X953908Y622557D01*
X953914Y622553D01*
X953912Y622549D01*
X954460Y621513D01*
X954466Y621510D01*
X954465Y621505D01*
X955204Y620597D01*
X955211Y620595D01*
X955211Y620590D01*
X956113Y619843D01*
X956121Y619843D01*
X956121Y619838D01*
X957152Y619281D01*
X957159Y619282D01*
X957161Y619277D01*
X958280Y618933D01*
X958287Y618935D01*
X958290Y618931D01*
X959455Y618811D01*
X959458Y618813D01*
X959460Y618811D01*
X965460Y618811D01*
X965463Y618813D01*
G37*
G36*
X490483Y618813D02*
X490483Y618813D01*
X490485Y618811D01*
X491661Y618922D01*
X491666Y618927D01*
X491670Y618924D01*
X492802Y619262D01*
X492806Y619268D01*
X492811Y619266D01*
X493855Y619818D01*
X493858Y619825D01*
X493863Y619823D01*
X494779Y620569D01*
X494780Y620576D01*
X494786Y620576D01*
X495539Y621486D01*
X495539Y621493D01*
X495544Y621494D01*
X496105Y622533D01*
X496104Y622538D01*
X496108Y622540D01*
X496107Y622541D01*
X496109Y622542D01*
X496456Y623671D01*
X496456Y623672D01*
X496457Y623673D01*
X496454Y623677D01*
X496458Y623680D01*
X496579Y624855D01*
X496575Y624862D01*
X496579Y624866D01*
X496422Y626206D01*
X496417Y626212D01*
X496420Y626217D01*
X495969Y627488D01*
X495962Y627493D01*
X495964Y627498D01*
X495242Y628637D01*
X495234Y628640D01*
X495235Y628646D01*
X494277Y629596D01*
X494269Y629597D01*
X494268Y629603D01*
X493123Y630316D01*
X493115Y630315D01*
X493113Y630321D01*
X491837Y630761D01*
X491830Y630759D01*
X491827Y630763D01*
X490485Y630909D01*
X490482Y630907D01*
X490480Y630909D01*
X484480Y630909D01*
X484477Y630907D01*
X484474Y630909D01*
X483145Y630754D01*
X483139Y630748D01*
X483135Y630751D01*
X481874Y630304D01*
X481869Y630297D01*
X481864Y630299D01*
X480734Y629582D01*
X480731Y629575D01*
X480725Y629576D01*
X479783Y628626D01*
X479782Y628617D01*
X479776Y628617D01*
X479069Y627481D01*
X479070Y627473D01*
X479064Y627471D01*
X478628Y626206D01*
X478630Y626198D01*
X478625Y626196D01*
X478481Y624865D01*
X478485Y624859D01*
X478481Y624855D01*
X478591Y623689D01*
X478596Y623684D01*
X478593Y623680D01*
X478928Y622557D01*
X478934Y622553D01*
X478932Y622549D01*
X479480Y621513D01*
X479486Y621510D01*
X479485Y621505D01*
X480224Y620597D01*
X480231Y620595D01*
X480231Y620590D01*
X481133Y619843D01*
X481141Y619843D01*
X481141Y619838D01*
X482172Y619281D01*
X482179Y619282D01*
X482181Y619277D01*
X483300Y618933D01*
X483307Y618935D01*
X483310Y618931D01*
X484475Y618811D01*
X484478Y618813D01*
X484480Y618811D01*
X490480Y618811D01*
X490483Y618813D01*
G37*
G36*
X490483Y65053D02*
X490483Y65053D01*
X490485Y65051D01*
X491661Y65162D01*
X491666Y65167D01*
X491670Y65164D01*
X492802Y65502D01*
X492806Y65508D01*
X492811Y65506D01*
X493855Y66058D01*
X493858Y66065D01*
X493863Y66063D01*
X494779Y66809D01*
X494780Y66816D01*
X494786Y66816D01*
X495539Y67726D01*
X495539Y67733D01*
X495544Y67734D01*
X496105Y68773D01*
X496104Y68778D01*
X496108Y68780D01*
X496107Y68781D01*
X496109Y68782D01*
X496456Y69911D01*
X496456Y69912D01*
X496457Y69913D01*
X496454Y69917D01*
X496458Y69920D01*
X496579Y71095D01*
X496575Y71102D01*
X496579Y71106D01*
X496422Y72446D01*
X496417Y72452D01*
X496420Y72457D01*
X495969Y73728D01*
X495962Y73733D01*
X495964Y73738D01*
X495242Y74877D01*
X495234Y74880D01*
X495235Y74886D01*
X494277Y75836D01*
X494269Y75837D01*
X494268Y75843D01*
X493123Y76556D01*
X493115Y76555D01*
X493113Y76561D01*
X491837Y77001D01*
X491830Y76999D01*
X491827Y77003D01*
X490485Y77149D01*
X490482Y77147D01*
X490480Y77149D01*
X484480Y77149D01*
X484477Y77147D01*
X484474Y77149D01*
X483145Y76994D01*
X483139Y76988D01*
X483135Y76991D01*
X481874Y76544D01*
X481869Y76537D01*
X481864Y76539D01*
X480734Y75822D01*
X480731Y75815D01*
X480725Y75816D01*
X479783Y74866D01*
X479782Y74857D01*
X479776Y74857D01*
X479069Y73721D01*
X479070Y73713D01*
X479064Y73711D01*
X478628Y72446D01*
X478630Y72438D01*
X478625Y72436D01*
X478481Y71105D01*
X478485Y71099D01*
X478481Y71095D01*
X478591Y69929D01*
X478596Y69924D01*
X478593Y69920D01*
X478928Y68797D01*
X478934Y68793D01*
X478932Y68789D01*
X479480Y67753D01*
X479486Y67750D01*
X479485Y67745D01*
X480224Y66837D01*
X480231Y66835D01*
X480231Y66830D01*
X481133Y66083D01*
X481141Y66083D01*
X481141Y66078D01*
X482172Y65521D01*
X482179Y65522D01*
X482181Y65517D01*
X483300Y65173D01*
X483307Y65175D01*
X483310Y65171D01*
X484475Y65051D01*
X484478Y65053D01*
X484480Y65051D01*
X490480Y65051D01*
X490483Y65053D01*
G37*
G36*
X965463Y65053D02*
X965463Y65053D01*
X965465Y65051D01*
X966641Y65162D01*
X966646Y65167D01*
X966650Y65164D01*
X967782Y65502D01*
X967786Y65508D01*
X967791Y65506D01*
X968835Y66058D01*
X968838Y66065D01*
X968843Y66063D01*
X969759Y66809D01*
X969760Y66816D01*
X969766Y66816D01*
X970519Y67726D01*
X970519Y67733D01*
X970524Y67734D01*
X971085Y68773D01*
X971084Y68778D01*
X971088Y68780D01*
X971087Y68781D01*
X971089Y68782D01*
X971436Y69911D01*
X971436Y69912D01*
X971437Y69913D01*
X971434Y69917D01*
X971438Y69920D01*
X971559Y71095D01*
X971555Y71102D01*
X971559Y71106D01*
X971402Y72446D01*
X971397Y72452D01*
X971400Y72457D01*
X970949Y73728D01*
X970942Y73733D01*
X970944Y73738D01*
X970222Y74877D01*
X970214Y74880D01*
X970215Y74886D01*
X969257Y75836D01*
X969249Y75837D01*
X969248Y75843D01*
X968103Y76556D01*
X968095Y76555D01*
X968093Y76561D01*
X966817Y77001D01*
X966810Y76999D01*
X966807Y77003D01*
X965465Y77149D01*
X965462Y77147D01*
X965460Y77149D01*
X959460Y77149D01*
X959457Y77147D01*
X959454Y77149D01*
X958125Y76994D01*
X958119Y76988D01*
X958115Y76991D01*
X956854Y76544D01*
X956849Y76537D01*
X956844Y76539D01*
X955714Y75822D01*
X955711Y75815D01*
X955705Y75816D01*
X954763Y74866D01*
X954762Y74857D01*
X954756Y74857D01*
X954049Y73721D01*
X954050Y73713D01*
X954044Y73711D01*
X953608Y72446D01*
X953610Y72438D01*
X953605Y72436D01*
X953461Y71105D01*
X953465Y71099D01*
X953461Y71095D01*
X953571Y69929D01*
X953576Y69924D01*
X953573Y69920D01*
X953908Y68797D01*
X953914Y68793D01*
X953912Y68789D01*
X954460Y67753D01*
X954466Y67750D01*
X954465Y67745D01*
X955204Y66837D01*
X955211Y66835D01*
X955211Y66830D01*
X956113Y66083D01*
X956121Y66083D01*
X956121Y66078D01*
X957152Y65521D01*
X957159Y65522D01*
X957161Y65517D01*
X958280Y65173D01*
X958287Y65175D01*
X958290Y65171D01*
X959455Y65051D01*
X959458Y65053D01*
X959460Y65051D01*
X965460Y65051D01*
X965463Y65053D01*
G37*
G36*
X15503Y618813D02*
X15503Y618813D01*
X15505Y618811D01*
X16681Y618922D01*
X16686Y618927D01*
X16690Y618924D01*
X17822Y619262D01*
X17826Y619268D01*
X17831Y619266D01*
X18875Y619818D01*
X18878Y619825D01*
X18883Y619823D01*
X19799Y620569D01*
X19800Y620576D01*
X19806Y620576D01*
X20559Y621486D01*
X20559Y621493D01*
X20564Y621494D01*
X21125Y622533D01*
X21124Y622538D01*
X21128Y622540D01*
X21127Y622541D01*
X21129Y622542D01*
X21476Y623671D01*
X21476Y623672D01*
X21477Y623673D01*
X21474Y623677D01*
X21478Y623680D01*
X21599Y624855D01*
X21595Y624862D01*
X21599Y624866D01*
X21442Y626206D01*
X21437Y626212D01*
X21440Y626217D01*
X20989Y627488D01*
X20982Y627493D01*
X20984Y627498D01*
X20262Y628637D01*
X20254Y628640D01*
X20255Y628646D01*
X19297Y629596D01*
X19289Y629597D01*
X19288Y629603D01*
X18143Y630316D01*
X18135Y630315D01*
X18133Y630321D01*
X16857Y630761D01*
X16850Y630759D01*
X16847Y630763D01*
X15505Y630909D01*
X15502Y630907D01*
X15500Y630909D01*
X9500Y630909D01*
X9497Y630907D01*
X9494Y630909D01*
X8165Y630754D01*
X8159Y630748D01*
X8155Y630751D01*
X6894Y630304D01*
X6889Y630297D01*
X6884Y630299D01*
X5754Y629582D01*
X5751Y629575D01*
X5745Y629576D01*
X4803Y628626D01*
X4802Y628617D01*
X4796Y628617D01*
X4089Y627481D01*
X4090Y627473D01*
X4084Y627471D01*
X3648Y626206D01*
X3650Y626198D01*
X3645Y626196D01*
X3501Y624865D01*
X3505Y624859D01*
X3501Y624855D01*
X3611Y623689D01*
X3616Y623684D01*
X3613Y623680D01*
X3948Y622557D01*
X3954Y622553D01*
X3952Y622549D01*
X4500Y621513D01*
X4506Y621510D01*
X4505Y621505D01*
X5244Y620597D01*
X5251Y620595D01*
X5251Y620590D01*
X6153Y619843D01*
X6161Y619843D01*
X6161Y619838D01*
X7192Y619281D01*
X7199Y619282D01*
X7201Y619277D01*
X8320Y618933D01*
X8327Y618935D01*
X8330Y618931D01*
X9495Y618811D01*
X9498Y618813D01*
X9500Y618811D01*
X15500Y618811D01*
X15503Y618813D01*
G37*
G36*
X15503Y65053D02*
X15503Y65053D01*
X15505Y65051D01*
X16681Y65162D01*
X16686Y65167D01*
X16690Y65164D01*
X17822Y65502D01*
X17826Y65508D01*
X17831Y65506D01*
X18875Y66058D01*
X18878Y66065D01*
X18883Y66063D01*
X19799Y66809D01*
X19800Y66816D01*
X19806Y66816D01*
X20559Y67726D01*
X20559Y67733D01*
X20564Y67734D01*
X21125Y68773D01*
X21124Y68778D01*
X21128Y68780D01*
X21127Y68781D01*
X21129Y68782D01*
X21476Y69911D01*
X21476Y69912D01*
X21477Y69913D01*
X21474Y69917D01*
X21478Y69920D01*
X21599Y71095D01*
X21595Y71102D01*
X21599Y71106D01*
X21442Y72446D01*
X21437Y72452D01*
X21440Y72457D01*
X20989Y73728D01*
X20982Y73733D01*
X20984Y73738D01*
X20262Y74877D01*
X20254Y74880D01*
X20255Y74886D01*
X19297Y75836D01*
X19289Y75837D01*
X19288Y75843D01*
X18143Y76556D01*
X18135Y76555D01*
X18133Y76561D01*
X16857Y77001D01*
X16850Y76999D01*
X16847Y77003D01*
X15505Y77149D01*
X15502Y77147D01*
X15500Y77149D01*
X9500Y77149D01*
X9497Y77147D01*
X9494Y77149D01*
X8165Y76994D01*
X8159Y76988D01*
X8155Y76991D01*
X6894Y76544D01*
X6889Y76537D01*
X6884Y76539D01*
X5754Y75822D01*
X5751Y75815D01*
X5745Y75816D01*
X4803Y74866D01*
X4802Y74857D01*
X4796Y74857D01*
X4089Y73721D01*
X4090Y73713D01*
X4084Y73711D01*
X3648Y72446D01*
X3650Y72438D01*
X3645Y72436D01*
X3501Y71105D01*
X3505Y71099D01*
X3501Y71095D01*
X3611Y69929D01*
X3616Y69924D01*
X3613Y69920D01*
X3948Y68797D01*
X3954Y68793D01*
X3952Y68789D01*
X4500Y67753D01*
X4506Y67750D01*
X4505Y67745D01*
X5244Y66837D01*
X5251Y66835D01*
X5251Y66830D01*
X6153Y66083D01*
X6161Y66083D01*
X6161Y66078D01*
X7192Y65521D01*
X7199Y65522D01*
X7201Y65517D01*
X8320Y65173D01*
X8327Y65175D01*
X8330Y65171D01*
X9495Y65051D01*
X9498Y65053D01*
X9500Y65051D01*
X15500Y65051D01*
X15503Y65053D01*
G37*
D10*
X160900Y208280D03*
X143900Y208280D03*
X160900Y149860D03*
X143900Y149860D03*
D11*
X232410Y192600D03*
X232410Y187600D03*
X232410Y182600D03*
X232410Y177600D03*
X232410Y172600D03*
X232410Y167600D03*
X232410Y162600D03*
X232410Y157600D03*
X232410Y152600D03*
X232410Y147600D03*
X232410Y142600D03*
X232410Y137600D03*
D12*
X205410Y215600D03*
X205410Y114600D03*
D11*
X60100Y106800D03*
X60100Y111800D03*
D13*
X60100Y82050D03*
X60100Y89800D03*
D11*
X60100Y96800D03*
X60100Y101800D03*
X60100Y121800D03*
X60100Y116800D03*
D13*
X60100Y146550D03*
X60100Y138800D03*
D11*
X60100Y131800D03*
X60100Y126800D03*
D14*
X49050Y143200D03*
X49050Y85400D03*
D15*
X301600Y29300D03*
X409600Y199300D03*
D16*
X161900Y192071D03*
X152400Y192071D03*
X142900Y192071D03*
X142900Y166069D03*
X161900Y166069D03*
D17*
X93980Y80400D03*
X93980Y97400D03*
X93980Y148200D03*
X93980Y131200D03*
D18*
X355760Y200000D03*
X355760Y181000D03*
X376760Y190500D03*
D19*
X418460Y63500D03*
X338460Y63500D03*
D20*
X417460Y86000D03*
X355960Y24500D03*
D17*
X337820Y147710D03*
X337820Y164710D03*
X337820Y182000D03*
X337820Y199000D03*
D10*
X338210Y214630D03*
X355210Y214630D03*
X296790Y214630D03*
X279790Y214630D03*
D17*
X279400Y182000D03*
X279400Y199000D03*
D18*
X294800Y200000D03*
X294800Y181000D03*
X315800Y190500D03*
D21*
X220780Y33970D02*
X220780Y26990D01*
X213800Y26990D01*
X213800Y33970D01*
X220780Y33970D01*
X220780Y31790D02*
X213800Y31790D01*
X238320Y33970D02*
X238320Y26990D01*
X231340Y26990D01*
X231340Y33970D01*
X238320Y33970D01*
X238320Y31790D02*
X231340Y31790D01*
D10*
X258690Y205740D03*
X241690Y205740D03*
D22*
X25400Y25400D03*
X25400Y203200D03*
D23*
X297180Y140970D03*
X297180Y85090D03*
X259080Y140970D03*
X259080Y85090D03*
D10*
X217560Y12700D03*
X234560Y12700D03*
D24*
X190500Y12700D03*
X165100Y12700D03*
X139700Y12700D03*
X114300Y12700D03*
X88900Y12700D03*
X63500Y12700D03*
D10*
X635880Y208280D03*
X618880Y208280D03*
X635880Y149860D03*
X618880Y149860D03*
D11*
X707390Y192600D03*
X707390Y187600D03*
X707390Y182600D03*
X707390Y177600D03*
X707390Y172600D03*
X707390Y167600D03*
X707390Y162600D03*
X707390Y157600D03*
X707390Y152600D03*
X707390Y147600D03*
X707390Y142600D03*
X707390Y137600D03*
D12*
X680390Y215600D03*
X680390Y114600D03*
D11*
X535080Y106800D03*
X535080Y111800D03*
D13*
X535080Y82050D03*
X535080Y89800D03*
D11*
X535080Y96800D03*
X535080Y101800D03*
X535080Y121800D03*
X535080Y116800D03*
D13*
X535080Y146550D03*
X535080Y138800D03*
D11*
X535080Y131800D03*
X535080Y126800D03*
D14*
X524030Y143200D03*
X524030Y85400D03*
D15*
X776580Y29300D03*
X884580Y199300D03*
D16*
X636880Y192071D03*
X627380Y192071D03*
X617880Y192071D03*
X617880Y166069D03*
X636880Y166069D03*
D17*
X568960Y80400D03*
X568960Y97400D03*
X568960Y148200D03*
X568960Y131200D03*
D18*
X830740Y200000D03*
X830740Y181000D03*
X851740Y190500D03*
D19*
X893440Y63500D03*
X813440Y63500D03*
D20*
X892440Y86000D03*
X830940Y24500D03*
D17*
X812800Y147710D03*
X812800Y164710D03*
X812800Y182000D03*
X812800Y199000D03*
D10*
X813190Y214630D03*
X830190Y214630D03*
X771770Y214630D03*
X754770Y214630D03*
D17*
X754380Y182000D03*
X754380Y199000D03*
D18*
X769780Y200000D03*
X769780Y181000D03*
X790780Y190500D03*
D21*
X695760Y33970D02*
X695760Y26990D01*
X688780Y26990D01*
X688780Y33970D01*
X695760Y33970D01*
X695760Y31790D02*
X688780Y31790D01*
X713300Y33970D02*
X713300Y26990D01*
X706320Y26990D01*
X706320Y33970D01*
X713300Y33970D01*
X713300Y31790D02*
X706320Y31790D01*
D10*
X733670Y205740D03*
X716670Y205740D03*
D22*
X500380Y25400D03*
X500380Y203200D03*
D23*
X772160Y140970D03*
X772160Y85090D03*
X734060Y140970D03*
X734060Y85090D03*
D10*
X692540Y12700D03*
X709540Y12700D03*
D24*
X665480Y12700D03*
X640080Y12700D03*
X614680Y12700D03*
X589280Y12700D03*
X563880Y12700D03*
X538480Y12700D03*
D10*
X1110860Y208280D03*
X1093860Y208280D03*
X1110860Y149860D03*
X1093860Y149860D03*
D11*
X1182370Y192600D03*
X1182370Y187600D03*
X1182370Y182600D03*
X1182370Y177600D03*
X1182370Y172600D03*
X1182370Y167600D03*
X1182370Y162600D03*
X1182370Y157600D03*
X1182370Y152600D03*
X1182370Y147600D03*
X1182370Y142600D03*
X1182370Y137600D03*
D12*
X1155370Y215600D03*
X1155370Y114600D03*
D11*
X1010060Y106800D03*
X1010060Y111800D03*
D13*
X1010060Y82050D03*
X1010060Y89800D03*
D11*
X1010060Y96800D03*
X1010060Y101800D03*
X1010060Y121800D03*
X1010060Y116800D03*
D13*
X1010060Y146550D03*
X1010060Y138800D03*
D11*
X1010060Y131800D03*
X1010060Y126800D03*
D14*
X999010Y143200D03*
X999010Y85400D03*
D15*
X1251560Y29300D03*
X1359560Y199300D03*
D16*
X1111860Y192071D03*
X1102360Y192071D03*
X1092860Y192071D03*
X1092860Y166069D03*
X1111860Y166069D03*
D17*
X1043940Y80400D03*
X1043940Y97400D03*
X1043940Y148200D03*
X1043940Y131200D03*
D18*
X1305720Y200000D03*
X1305720Y181000D03*
X1326720Y190500D03*
D19*
X1368420Y63500D03*
X1288420Y63500D03*
D20*
X1367420Y86000D03*
X1305920Y24500D03*
D17*
X1287780Y147710D03*
X1287780Y164710D03*
X1287780Y182000D03*
X1287780Y199000D03*
D10*
X1288170Y214630D03*
X1305170Y214630D03*
X1246750Y214630D03*
X1229750Y214630D03*
D17*
X1229360Y182000D03*
X1229360Y199000D03*
D18*
X1244760Y200000D03*
X1244760Y181000D03*
X1265760Y190500D03*
D21*
X1170740Y33970D02*
X1170740Y26990D01*
X1163760Y26990D01*
X1163760Y33970D01*
X1170740Y33970D01*
X1170740Y31790D02*
X1163760Y31790D01*
X1188280Y33970D02*
X1188280Y26990D01*
X1181300Y26990D01*
X1181300Y33970D01*
X1188280Y33970D01*
X1188280Y31790D02*
X1181300Y31790D01*
D10*
X1208650Y205740D03*
X1191650Y205740D03*
D22*
X975360Y25400D03*
X975360Y203200D03*
D23*
X1247140Y140970D03*
X1247140Y85090D03*
X1209040Y140970D03*
X1209040Y85090D03*
D10*
X1167520Y12700D03*
X1184520Y12700D03*
D24*
X1140460Y12700D03*
X1115060Y12700D03*
X1089660Y12700D03*
X1064260Y12700D03*
X1038860Y12700D03*
X1013460Y12700D03*
D10*
X160900Y441960D03*
X143900Y441960D03*
X160900Y383540D03*
X143900Y383540D03*
D11*
X232410Y426280D03*
X232410Y421280D03*
X232410Y416280D03*
X232410Y411280D03*
X232410Y406280D03*
X232410Y401280D03*
X232410Y396280D03*
X232410Y391280D03*
X232410Y386280D03*
X232410Y381280D03*
X232410Y376280D03*
X232410Y371280D03*
D12*
X205410Y449280D03*
X205410Y348280D03*
D11*
X60100Y340480D03*
X60100Y345480D03*
D13*
X60100Y315730D03*
X60100Y323480D03*
D11*
X60100Y330480D03*
X60100Y335480D03*
X60100Y355480D03*
X60100Y350480D03*
D13*
X60100Y380230D03*
X60100Y372480D03*
D11*
X60100Y365480D03*
X60100Y360480D03*
D14*
X49050Y376880D03*
X49050Y319080D03*
D15*
X301600Y262980D03*
X409600Y432980D03*
D16*
X161900Y425751D03*
X152400Y425751D03*
X142900Y425751D03*
X142900Y399749D03*
X161900Y399749D03*
D17*
X93980Y314080D03*
X93980Y331080D03*
X93980Y381880D03*
X93980Y364880D03*
D18*
X355760Y433680D03*
X355760Y414680D03*
X376760Y424180D03*
D19*
X418460Y297180D03*
X338460Y297180D03*
D20*
X417460Y319680D03*
X355960Y258180D03*
D17*
X337820Y381390D03*
X337820Y398390D03*
X337820Y415680D03*
X337820Y432680D03*
D10*
X338210Y448310D03*
X355210Y448310D03*
X296790Y448310D03*
X279790Y448310D03*
D17*
X279400Y415680D03*
X279400Y432680D03*
D18*
X294800Y433680D03*
X294800Y414680D03*
X315800Y424180D03*
D21*
X220780Y267650D02*
X220780Y260670D01*
X213800Y260670D01*
X213800Y267650D01*
X220780Y267650D01*
X220780Y265470D02*
X213800Y265470D01*
X238320Y267650D02*
X238320Y260670D01*
X231340Y260670D01*
X231340Y267650D01*
X238320Y267650D01*
X238320Y265470D02*
X231340Y265470D01*
D10*
X258690Y439420D03*
X241690Y439420D03*
D22*
X25400Y259080D03*
X25400Y436880D03*
D23*
X297180Y374650D03*
X297180Y318770D03*
X259080Y374650D03*
X259080Y318770D03*
D10*
X217560Y246380D03*
X234560Y246380D03*
D24*
X190500Y246380D03*
X165100Y246380D03*
X139700Y246380D03*
X114300Y246380D03*
X88900Y246380D03*
X63500Y246380D03*
D10*
X635880Y441960D03*
X618880Y441960D03*
X635880Y383540D03*
X618880Y383540D03*
D11*
X707390Y426280D03*
X707390Y421280D03*
X707390Y416280D03*
X707390Y411280D03*
X707390Y406280D03*
X707390Y401280D03*
X707390Y396280D03*
X707390Y391280D03*
X707390Y386280D03*
X707390Y381280D03*
X707390Y376280D03*
X707390Y371280D03*
D12*
X680390Y449280D03*
X680390Y348280D03*
D11*
X535080Y340480D03*
X535080Y345480D03*
D13*
X535080Y315730D03*
X535080Y323480D03*
D11*
X535080Y330480D03*
X535080Y335480D03*
X535080Y355480D03*
X535080Y350480D03*
D13*
X535080Y380230D03*
X535080Y372480D03*
D11*
X535080Y365480D03*
X535080Y360480D03*
D14*
X524030Y376880D03*
X524030Y319080D03*
D15*
X776580Y262980D03*
X884580Y432980D03*
D16*
X636880Y425751D03*
X627380Y425751D03*
X617880Y425751D03*
X617880Y399749D03*
X636880Y399749D03*
D17*
X568960Y314080D03*
X568960Y331080D03*
X568960Y381880D03*
X568960Y364880D03*
D18*
X830740Y433680D03*
X830740Y414680D03*
X851740Y424180D03*
D19*
X893440Y297180D03*
X813440Y297180D03*
D20*
X892440Y319680D03*
X830940Y258180D03*
D17*
X812800Y381390D03*
X812800Y398390D03*
X812800Y415680D03*
X812800Y432680D03*
D10*
X813190Y448310D03*
X830190Y448310D03*
X771770Y448310D03*
X754770Y448310D03*
D17*
X754380Y415680D03*
X754380Y432680D03*
D18*
X769780Y433680D03*
X769780Y414680D03*
X790780Y424180D03*
D21*
X695760Y267650D02*
X695760Y260670D01*
X688780Y260670D01*
X688780Y267650D01*
X695760Y267650D01*
X695760Y265470D02*
X688780Y265470D01*
X713300Y267650D02*
X713300Y260670D01*
X706320Y260670D01*
X706320Y267650D01*
X713300Y267650D01*
X713300Y265470D02*
X706320Y265470D01*
D10*
X733670Y439420D03*
X716670Y439420D03*
D22*
X500380Y259080D03*
X500380Y436880D03*
D23*
X772160Y374650D03*
X772160Y318770D03*
X734060Y374650D03*
X734060Y318770D03*
D10*
X692540Y246380D03*
X709540Y246380D03*
D24*
X665480Y246380D03*
X640080Y246380D03*
X614680Y246380D03*
X589280Y246380D03*
X563880Y246380D03*
X538480Y246380D03*
D10*
X1110860Y441960D03*
X1093860Y441960D03*
X1110860Y383540D03*
X1093860Y383540D03*
D11*
X1182370Y426280D03*
X1182370Y421280D03*
X1182370Y416280D03*
X1182370Y411280D03*
X1182370Y406280D03*
X1182370Y401280D03*
X1182370Y396280D03*
X1182370Y391280D03*
X1182370Y386280D03*
X1182370Y381280D03*
X1182370Y376280D03*
X1182370Y371280D03*
D12*
X1155370Y449280D03*
X1155370Y348280D03*
D11*
X1010060Y340480D03*
X1010060Y345480D03*
D13*
X1010060Y315730D03*
X1010060Y323480D03*
D11*
X1010060Y330480D03*
X1010060Y335480D03*
X1010060Y355480D03*
X1010060Y350480D03*
D13*
X1010060Y380230D03*
X1010060Y372480D03*
D11*
X1010060Y365480D03*
X1010060Y360480D03*
D14*
X999010Y376880D03*
X999010Y319080D03*
D15*
X1251560Y262980D03*
X1359560Y432980D03*
D16*
X1111860Y425751D03*
X1102360Y425751D03*
X1092860Y425751D03*
X1092860Y399749D03*
X1111860Y399749D03*
D17*
X1043940Y314080D03*
X1043940Y331080D03*
X1043940Y381880D03*
X1043940Y364880D03*
D18*
X1305720Y433680D03*
X1305720Y414680D03*
X1326720Y424180D03*
D19*
X1368420Y297180D03*
X1288420Y297180D03*
D20*
X1367420Y319680D03*
X1305920Y258180D03*
D17*
X1287780Y381390D03*
X1287780Y398390D03*
X1287780Y415680D03*
X1287780Y432680D03*
D10*
X1288170Y448310D03*
X1305170Y448310D03*
X1246750Y448310D03*
X1229750Y448310D03*
D17*
X1229360Y415680D03*
X1229360Y432680D03*
D18*
X1244760Y433680D03*
X1244760Y414680D03*
X1265760Y424180D03*
D21*
X1170740Y267650D02*
X1170740Y260670D01*
X1163760Y260670D01*
X1163760Y267650D01*
X1170740Y267650D01*
X1170740Y265470D02*
X1163760Y265470D01*
X1188280Y267650D02*
X1188280Y260670D01*
X1181300Y260670D01*
X1181300Y267650D01*
X1188280Y267650D01*
X1188280Y265470D02*
X1181300Y265470D01*
D10*
X1208650Y439420D03*
X1191650Y439420D03*
D22*
X975360Y259080D03*
X975360Y436880D03*
D23*
X1247140Y374650D03*
X1247140Y318770D03*
X1209040Y374650D03*
X1209040Y318770D03*
D10*
X1167520Y246380D03*
X1184520Y246380D03*
D24*
X1140460Y246380D03*
X1115060Y246380D03*
X1089660Y246380D03*
X1064260Y246380D03*
X1038860Y246380D03*
X1013460Y246380D03*
D10*
X160900Y675640D03*
X143900Y675640D03*
X160900Y617220D03*
X143900Y617220D03*
D11*
X232410Y659960D03*
X232410Y654960D03*
X232410Y649960D03*
X232410Y644960D03*
X232410Y639960D03*
X232410Y634960D03*
X232410Y629960D03*
X232410Y624960D03*
X232410Y619960D03*
X232410Y614960D03*
X232410Y609960D03*
X232410Y604960D03*
D12*
X205410Y682960D03*
X205410Y581960D03*
D11*
X60100Y574160D03*
X60100Y579160D03*
D13*
X60100Y549410D03*
X60100Y557160D03*
D11*
X60100Y564160D03*
X60100Y569160D03*
X60100Y589160D03*
X60100Y584160D03*
D13*
X60100Y613910D03*
X60100Y606160D03*
D11*
X60100Y599160D03*
X60100Y594160D03*
D14*
X49050Y610560D03*
X49050Y552760D03*
D15*
X301600Y496660D03*
X409600Y666660D03*
D16*
X161900Y659431D03*
X152400Y659431D03*
X142900Y659431D03*
X142900Y633429D03*
X161900Y633429D03*
D17*
X93980Y547760D03*
X93980Y564760D03*
X93980Y615560D03*
X93980Y598560D03*
D18*
X355760Y667360D03*
X355760Y648360D03*
X376760Y657860D03*
D19*
X418460Y530860D03*
X338460Y530860D03*
D20*
X417460Y553360D03*
X355960Y491860D03*
D17*
X337820Y615070D03*
X337820Y632070D03*
X337820Y649360D03*
X337820Y666360D03*
D10*
X338210Y681990D03*
X355210Y681990D03*
X296790Y681990D03*
X279790Y681990D03*
D17*
X279400Y649360D03*
X279400Y666360D03*
D18*
X294800Y667360D03*
X294800Y648360D03*
X315800Y657860D03*
D21*
X220780Y501330D02*
X220780Y494350D01*
X213800Y494350D01*
X213800Y501330D01*
X220780Y501330D01*
X220780Y499150D02*
X213800Y499150D01*
X238320Y501330D02*
X238320Y494350D01*
X231340Y494350D01*
X231340Y501330D01*
X238320Y501330D01*
X238320Y499150D02*
X231340Y499150D01*
D10*
X258690Y673100D03*
X241690Y673100D03*
D22*
X25400Y492760D03*
X25400Y670560D03*
D23*
X297180Y608330D03*
X297180Y552450D03*
X259080Y608330D03*
X259080Y552450D03*
D10*
X217560Y480060D03*
X234560Y480060D03*
D24*
X190500Y480060D03*
X165100Y480060D03*
X139700Y480060D03*
X114300Y480060D03*
X88900Y480060D03*
X63500Y480060D03*
D10*
X635880Y675640D03*
X618880Y675640D03*
X635880Y617220D03*
X618880Y617220D03*
D11*
X707390Y659960D03*
X707390Y654960D03*
X707390Y649960D03*
X707390Y644960D03*
X707390Y639960D03*
X707390Y634960D03*
X707390Y629960D03*
X707390Y624960D03*
X707390Y619960D03*
X707390Y614960D03*
X707390Y609960D03*
X707390Y604960D03*
D12*
X680390Y682960D03*
X680390Y581960D03*
D11*
X535080Y574160D03*
X535080Y579160D03*
D13*
X535080Y549410D03*
X535080Y557160D03*
D11*
X535080Y564160D03*
X535080Y569160D03*
X535080Y589160D03*
X535080Y584160D03*
D13*
X535080Y613910D03*
X535080Y606160D03*
D11*
X535080Y599160D03*
X535080Y594160D03*
D14*
X524030Y610560D03*
X524030Y552760D03*
D15*
X776580Y496660D03*
X884580Y666660D03*
D16*
X636880Y659431D03*
X627380Y659431D03*
X617880Y659431D03*
X617880Y633429D03*
X636880Y633429D03*
D17*
X568960Y547760D03*
X568960Y564760D03*
X568960Y615560D03*
X568960Y598560D03*
D18*
X830740Y667360D03*
X830740Y648360D03*
X851740Y657860D03*
D19*
X893440Y530860D03*
X813440Y530860D03*
D20*
X892440Y553360D03*
X830940Y491860D03*
D17*
X812800Y615070D03*
X812800Y632070D03*
X812800Y649360D03*
X812800Y666360D03*
D10*
X813190Y681990D03*
X830190Y681990D03*
X771770Y681990D03*
X754770Y681990D03*
D17*
X754380Y649360D03*
X754380Y666360D03*
D18*
X769780Y667360D03*
X769780Y648360D03*
X790780Y657860D03*
D21*
X695760Y501330D02*
X695760Y494350D01*
X688780Y494350D01*
X688780Y501330D01*
X695760Y501330D01*
X695760Y499150D02*
X688780Y499150D01*
X713300Y501330D02*
X713300Y494350D01*
X706320Y494350D01*
X706320Y501330D01*
X713300Y501330D01*
X713300Y499150D02*
X706320Y499150D01*
D10*
X733670Y673100D03*
X716670Y673100D03*
D22*
X500380Y492760D03*
X500380Y670560D03*
D23*
X772160Y608330D03*
X772160Y552450D03*
X734060Y608330D03*
X734060Y552450D03*
D10*
X692540Y480060D03*
X709540Y480060D03*
D24*
X665480Y480060D03*
X640080Y480060D03*
X614680Y480060D03*
X589280Y480060D03*
X563880Y480060D03*
X538480Y480060D03*
D10*
X1110860Y675640D03*
X1093860Y675640D03*
X1110860Y617220D03*
X1093860Y617220D03*
D11*
X1182370Y659960D03*
X1182370Y654960D03*
X1182370Y649960D03*
X1182370Y644960D03*
X1182370Y639960D03*
X1182370Y634960D03*
X1182370Y629960D03*
X1182370Y624960D03*
X1182370Y619960D03*
X1182370Y614960D03*
X1182370Y609960D03*
X1182370Y604960D03*
D12*
X1155370Y682960D03*
X1155370Y581960D03*
D11*
X1010060Y574160D03*
X1010060Y579160D03*
D13*
X1010060Y549410D03*
X1010060Y557160D03*
D11*
X1010060Y564160D03*
X1010060Y569160D03*
X1010060Y589160D03*
X1010060Y584160D03*
D13*
X1010060Y613910D03*
X1010060Y606160D03*
D11*
X1010060Y599160D03*
X1010060Y594160D03*
D14*
X999010Y610560D03*
X999010Y552760D03*
D15*
X1251560Y496660D03*
X1359560Y666660D03*
D16*
X1111860Y659431D03*
X1102360Y659431D03*
X1092860Y659431D03*
X1092860Y633429D03*
X1111860Y633429D03*
D17*
X1043940Y547760D03*
X1043940Y564760D03*
X1043940Y615560D03*
X1043940Y598560D03*
D18*
X1305720Y667360D03*
X1305720Y648360D03*
X1326720Y657860D03*
D19*
X1368420Y530860D03*
X1288420Y530860D03*
D20*
X1367420Y553360D03*
X1305920Y491860D03*
D17*
X1287780Y615070D03*
X1287780Y632070D03*
X1287780Y649360D03*
X1287780Y666360D03*
D10*
X1288170Y681990D03*
X1305170Y681990D03*
X1246750Y681990D03*
X1229750Y681990D03*
D17*
X1229360Y649360D03*
X1229360Y666360D03*
D18*
X1244760Y667360D03*
X1244760Y648360D03*
X1265760Y657860D03*
D21*
X1170740Y501330D02*
X1170740Y494350D01*
X1163760Y494350D01*
X1163760Y501330D01*
X1170740Y501330D01*
X1170740Y499150D02*
X1163760Y499150D01*
X1188280Y501330D02*
X1188280Y494350D01*
X1181300Y494350D01*
X1181300Y501330D01*
X1188280Y501330D01*
X1188280Y499150D02*
X1181300Y499150D01*
D10*
X1208650Y673100D03*
X1191650Y673100D03*
D22*
X975360Y492760D03*
X975360Y670560D03*
D23*
X1247140Y608330D03*
X1247140Y552450D03*
X1209040Y608330D03*
X1209040Y552450D03*
D10*
X1167520Y480060D03*
X1184520Y480060D03*
D24*
X1140460Y480060D03*
X1115060Y480060D03*
X1089660Y480060D03*
X1064260Y480060D03*
X1038860Y480060D03*
X1013460Y480060D03*
D10*
X160900Y909320D03*
X143900Y909320D03*
X160900Y850900D03*
X143900Y850900D03*
D11*
X232410Y893640D03*
X232410Y888640D03*
X232410Y883640D03*
X232410Y878640D03*
X232410Y873640D03*
X232410Y868640D03*
X232410Y863640D03*
X232410Y858640D03*
X232410Y853640D03*
X232410Y848640D03*
X232410Y843640D03*
X232410Y838640D03*
D12*
X205410Y916640D03*
X205410Y815640D03*
D11*
X60100Y807840D03*
X60100Y812840D03*
D13*
X60100Y783090D03*
X60100Y790840D03*
D11*
X60100Y797840D03*
X60100Y802840D03*
X60100Y822840D03*
X60100Y817840D03*
D13*
X60100Y847590D03*
X60100Y839840D03*
D11*
X60100Y832840D03*
X60100Y827840D03*
D14*
X49050Y844240D03*
X49050Y786440D03*
D15*
X301600Y730340D03*
X409600Y900340D03*
D16*
X161900Y893111D03*
X152400Y893111D03*
X142900Y893111D03*
X142900Y867109D03*
X161900Y867109D03*
D17*
X93980Y781440D03*
X93980Y798440D03*
X93980Y849240D03*
X93980Y832240D03*
D18*
X355760Y901040D03*
X355760Y882040D03*
X376760Y891540D03*
D19*
X418460Y764540D03*
X338460Y764540D03*
D20*
X417460Y787040D03*
X355960Y725540D03*
D17*
X337820Y848750D03*
X337820Y865750D03*
X337820Y883040D03*
X337820Y900040D03*
D10*
X338210Y915670D03*
X355210Y915670D03*
X296790Y915670D03*
X279790Y915670D03*
D17*
X279400Y883040D03*
X279400Y900040D03*
D18*
X294800Y901040D03*
X294800Y882040D03*
X315800Y891540D03*
D21*
X220780Y735010D02*
X220780Y728030D01*
X213800Y728030D01*
X213800Y735010D01*
X220780Y735010D01*
X220780Y732830D02*
X213800Y732830D01*
X238320Y735010D02*
X238320Y728030D01*
X231340Y728030D01*
X231340Y735010D01*
X238320Y735010D01*
X238320Y732830D02*
X231340Y732830D01*
D10*
X258690Y906780D03*
X241690Y906780D03*
D22*
X25400Y726440D03*
X25400Y904240D03*
D23*
X297180Y842010D03*
X297180Y786130D03*
X259080Y842010D03*
X259080Y786130D03*
D10*
X217560Y713740D03*
X234560Y713740D03*
D24*
X190500Y713740D03*
X165100Y713740D03*
X139700Y713740D03*
X114300Y713740D03*
X88900Y713740D03*
X63500Y713740D03*
D10*
X635880Y909320D03*
X618880Y909320D03*
X635880Y850900D03*
X618880Y850900D03*
D11*
X707390Y893640D03*
X707390Y888640D03*
X707390Y883640D03*
X707390Y878640D03*
X707390Y873640D03*
X707390Y868640D03*
X707390Y863640D03*
X707390Y858640D03*
X707390Y853640D03*
X707390Y848640D03*
X707390Y843640D03*
X707390Y838640D03*
D12*
X680390Y916640D03*
X680390Y815640D03*
D11*
X535080Y807840D03*
X535080Y812840D03*
D13*
X535080Y783090D03*
X535080Y790840D03*
D11*
X535080Y797840D03*
X535080Y802840D03*
X535080Y822840D03*
X535080Y817840D03*
D13*
X535080Y847590D03*
X535080Y839840D03*
D11*
X535080Y832840D03*
X535080Y827840D03*
D14*
X524030Y844240D03*
X524030Y786440D03*
D15*
X776580Y730340D03*
X884580Y900340D03*
D16*
X636880Y893111D03*
X627380Y893111D03*
X617880Y893111D03*
X617880Y867109D03*
X636880Y867109D03*
D17*
X568960Y781440D03*
X568960Y798440D03*
X568960Y849240D03*
X568960Y832240D03*
D18*
X830740Y901040D03*
X830740Y882040D03*
X851740Y891540D03*
D19*
X893440Y764540D03*
X813440Y764540D03*
D20*
X892440Y787040D03*
X830940Y725540D03*
D17*
X812800Y848750D03*
X812800Y865750D03*
X812800Y883040D03*
X812800Y900040D03*
D10*
X813190Y915670D03*
X830190Y915670D03*
X771770Y915670D03*
X754770Y915670D03*
D17*
X754380Y883040D03*
X754380Y900040D03*
D18*
X769780Y901040D03*
X769780Y882040D03*
X790780Y891540D03*
D21*
X695760Y735010D02*
X695760Y728030D01*
X688780Y728030D01*
X688780Y735010D01*
X695760Y735010D01*
X695760Y732830D02*
X688780Y732830D01*
X713300Y735010D02*
X713300Y728030D01*
X706320Y728030D01*
X706320Y735010D01*
X713300Y735010D01*
X713300Y732830D02*
X706320Y732830D01*
D10*
X733670Y906780D03*
X716670Y906780D03*
D22*
X500380Y726440D03*
X500380Y904240D03*
D23*
X772160Y842010D03*
X772160Y786130D03*
X734060Y842010D03*
X734060Y786130D03*
D10*
X692540Y713740D03*
X709540Y713740D03*
D24*
X665480Y713740D03*
X640080Y713740D03*
X614680Y713740D03*
X589280Y713740D03*
X563880Y713740D03*
X538480Y713740D03*
D10*
X1110860Y909320D03*
X1093860Y909320D03*
X1110860Y850900D03*
X1093860Y850900D03*
D11*
X1182370Y893640D03*
X1182370Y888640D03*
X1182370Y883640D03*
X1182370Y878640D03*
X1182370Y873640D03*
X1182370Y868640D03*
X1182370Y863640D03*
X1182370Y858640D03*
X1182370Y853640D03*
X1182370Y848640D03*
X1182370Y843640D03*
X1182370Y838640D03*
D12*
X1155370Y916640D03*
X1155370Y815640D03*
D11*
X1010060Y807840D03*
X1010060Y812840D03*
D13*
X1010060Y783090D03*
X1010060Y790840D03*
D11*
X1010060Y797840D03*
X1010060Y802840D03*
X1010060Y822840D03*
X1010060Y817840D03*
D13*
X1010060Y847590D03*
X1010060Y839840D03*
D11*
X1010060Y832840D03*
X1010060Y827840D03*
D14*
X999010Y844240D03*
X999010Y786440D03*
D15*
X1251560Y730340D03*
X1359560Y900340D03*
D16*
X1111860Y893111D03*
X1102360Y893111D03*
X1092860Y893111D03*
X1092860Y867109D03*
X1111860Y867109D03*
D17*
X1043940Y781440D03*
X1043940Y798440D03*
X1043940Y849240D03*
X1043940Y832240D03*
D18*
X1305720Y901040D03*
X1305720Y882040D03*
X1326720Y891540D03*
D19*
X1368420Y764540D03*
X1288420Y764540D03*
D20*
X1367420Y787040D03*
X1305920Y725540D03*
D17*
X1287780Y848750D03*
X1287780Y865750D03*
X1287780Y883040D03*
X1287780Y900040D03*
D10*
X1288170Y915670D03*
X1305170Y915670D03*
X1246750Y915670D03*
X1229750Y915670D03*
D17*
X1229360Y883040D03*
X1229360Y900040D03*
D18*
X1244760Y901040D03*
X1244760Y882040D03*
X1265760Y891540D03*
D21*
X1170740Y735010D02*
X1170740Y728030D01*
X1163760Y728030D01*
X1163760Y735010D01*
X1170740Y735010D01*
X1170740Y732830D02*
X1163760Y732830D01*
X1188280Y735010D02*
X1188280Y728030D01*
X1181300Y728030D01*
X1181300Y735010D01*
X1188280Y735010D01*
X1188280Y732830D02*
X1181300Y732830D01*
D10*
X1208650Y906780D03*
X1191650Y906780D03*
D22*
X975360Y726440D03*
X975360Y904240D03*
D23*
X1247140Y842010D03*
X1247140Y786130D03*
X1209040Y842010D03*
X1209040Y786130D03*
D10*
X1167520Y713740D03*
X1184520Y713740D03*
D24*
X1140460Y713740D03*
X1115060Y713740D03*
X1089660Y713740D03*
X1064260Y713740D03*
X1038860Y713740D03*
X1013460Y713740D03*
D10*
X160900Y1143000D03*
X143900Y1143000D03*
X160900Y1084580D03*
X143900Y1084580D03*
D11*
X232410Y1127320D03*
X232410Y1122320D03*
X232410Y1117320D03*
X232410Y1112320D03*
X232410Y1107320D03*
X232410Y1102320D03*
X232410Y1097320D03*
X232410Y1092320D03*
X232410Y1087320D03*
X232410Y1082320D03*
X232410Y1077320D03*
X232410Y1072320D03*
D12*
X205410Y1150320D03*
X205410Y1049320D03*
D11*
X60100Y1041520D03*
X60100Y1046520D03*
D13*
X60100Y1016770D03*
X60100Y1024520D03*
D11*
X60100Y1031520D03*
X60100Y1036520D03*
X60100Y1056520D03*
X60100Y1051520D03*
D13*
X60100Y1081270D03*
X60100Y1073520D03*
D11*
X60100Y1066520D03*
X60100Y1061520D03*
D14*
X49050Y1077920D03*
X49050Y1020120D03*
D15*
X301600Y964020D03*
X409600Y1134020D03*
D16*
X161900Y1126791D03*
X152400Y1126791D03*
X142900Y1126791D03*
X142900Y1100789D03*
X161900Y1100789D03*
D17*
X93980Y1015120D03*
X93980Y1032120D03*
X93980Y1082920D03*
X93980Y1065920D03*
D18*
X355760Y1134720D03*
X355760Y1115720D03*
X376760Y1125220D03*
D19*
X418460Y998220D03*
X338460Y998220D03*
D20*
X417460Y1020720D03*
X355960Y959220D03*
D17*
X337820Y1082430D03*
X337820Y1099430D03*
X337820Y1116720D03*
X337820Y1133720D03*
D10*
X338210Y1149350D03*
X355210Y1149350D03*
X296790Y1149350D03*
X279790Y1149350D03*
D17*
X279400Y1116720D03*
X279400Y1133720D03*
D18*
X294800Y1134720D03*
X294800Y1115720D03*
X315800Y1125220D03*
D21*
X220780Y968690D02*
X220780Y961710D01*
X213800Y961710D01*
X213800Y968690D01*
X220780Y968690D01*
X220780Y966510D02*
X213800Y966510D01*
X238320Y968690D02*
X238320Y961710D01*
X231340Y961710D01*
X231340Y968690D01*
X238320Y968690D01*
X238320Y966510D02*
X231340Y966510D01*
D10*
X258690Y1140460D03*
X241690Y1140460D03*
D22*
X25400Y960120D03*
X25400Y1137920D03*
D23*
X297180Y1075690D03*
X297180Y1019810D03*
X259080Y1075690D03*
X259080Y1019810D03*
D10*
X217560Y947420D03*
X234560Y947420D03*
D24*
X190500Y947420D03*
X165100Y947420D03*
X139700Y947420D03*
X114300Y947420D03*
X88900Y947420D03*
X63500Y947420D03*
D10*
X635880Y1143000D03*
X618880Y1143000D03*
X635880Y1084580D03*
X618880Y1084580D03*
D11*
X707390Y1127320D03*
X707390Y1122320D03*
X707390Y1117320D03*
X707390Y1112320D03*
X707390Y1107320D03*
X707390Y1102320D03*
X707390Y1097320D03*
X707390Y1092320D03*
X707390Y1087320D03*
X707390Y1082320D03*
X707390Y1077320D03*
X707390Y1072320D03*
D12*
X680390Y1150320D03*
X680390Y1049320D03*
D11*
X535080Y1041520D03*
X535080Y1046520D03*
D13*
X535080Y1016770D03*
X535080Y1024520D03*
D11*
X535080Y1031520D03*
X535080Y1036520D03*
X535080Y1056520D03*
X535080Y1051520D03*
D13*
X535080Y1081270D03*
X535080Y1073520D03*
D11*
X535080Y1066520D03*
X535080Y1061520D03*
D14*
X524030Y1077920D03*
X524030Y1020120D03*
D15*
X776580Y964020D03*
X884580Y1134020D03*
D16*
X636880Y1126791D03*
X627380Y1126791D03*
X617880Y1126791D03*
X617880Y1100789D03*
X636880Y1100789D03*
D17*
X568960Y1015120D03*
X568960Y1032120D03*
X568960Y1082920D03*
X568960Y1065920D03*
D18*
X830740Y1134720D03*
X830740Y1115720D03*
X851740Y1125220D03*
D19*
X893440Y998220D03*
X813440Y998220D03*
D20*
X892440Y1020720D03*
X830940Y959220D03*
D17*
X812800Y1082430D03*
X812800Y1099430D03*
X812800Y1116720D03*
X812800Y1133720D03*
D10*
X813190Y1149350D03*
X830190Y1149350D03*
X771770Y1149350D03*
X754770Y1149350D03*
D17*
X754380Y1116720D03*
X754380Y1133720D03*
D18*
X769780Y1134720D03*
X769780Y1115720D03*
X790780Y1125220D03*
D21*
X695760Y968690D02*
X695760Y961710D01*
X688780Y961710D01*
X688780Y968690D01*
X695760Y968690D01*
X695760Y966510D02*
X688780Y966510D01*
X713300Y968690D02*
X713300Y961710D01*
X706320Y961710D01*
X706320Y968690D01*
X713300Y968690D01*
X713300Y966510D02*
X706320Y966510D01*
D10*
X733670Y1140460D03*
X716670Y1140460D03*
D22*
X500380Y960120D03*
X500380Y1137920D03*
D23*
X772160Y1075690D03*
X772160Y1019810D03*
X734060Y1075690D03*
X734060Y1019810D03*
D10*
X692540Y947420D03*
X709540Y947420D03*
D24*
X665480Y947420D03*
X640080Y947420D03*
X614680Y947420D03*
X589280Y947420D03*
X563880Y947420D03*
X538480Y947420D03*
D10*
X1110860Y1143000D03*
X1093860Y1143000D03*
X1110860Y1084580D03*
X1093860Y1084580D03*
D11*
X1182370Y1127320D03*
X1182370Y1122320D03*
X1182370Y1117320D03*
X1182370Y1112320D03*
X1182370Y1107320D03*
X1182370Y1102320D03*
X1182370Y1097320D03*
X1182370Y1092320D03*
X1182370Y1087320D03*
X1182370Y1082320D03*
X1182370Y1077320D03*
X1182370Y1072320D03*
D12*
X1155370Y1150320D03*
X1155370Y1049320D03*
D11*
X1010060Y1041520D03*
X1010060Y1046520D03*
D13*
X1010060Y1016770D03*
X1010060Y1024520D03*
D11*
X1010060Y1031520D03*
X1010060Y1036520D03*
X1010060Y1056520D03*
X1010060Y1051520D03*
D13*
X1010060Y1081270D03*
X1010060Y1073520D03*
D11*
X1010060Y1066520D03*
X1010060Y1061520D03*
D14*
X999010Y1077920D03*
X999010Y1020120D03*
D15*
X1251560Y964020D03*
X1359560Y1134020D03*
D16*
X1111860Y1126791D03*
X1102360Y1126791D03*
X1092860Y1126791D03*
X1092860Y1100789D03*
X1111860Y1100789D03*
D17*
X1043940Y1015120D03*
X1043940Y1032120D03*
X1043940Y1082920D03*
X1043940Y1065920D03*
D18*
X1305720Y1134720D03*
X1305720Y1115720D03*
X1326720Y1125220D03*
D19*
X1368420Y998220D03*
X1288420Y998220D03*
D20*
X1367420Y1020720D03*
X1305920Y959220D03*
D17*
X1287780Y1082430D03*
X1287780Y1099430D03*
X1287780Y1116720D03*
X1287780Y1133720D03*
D10*
X1288170Y1149350D03*
X1305170Y1149350D03*
X1246750Y1149350D03*
X1229750Y1149350D03*
D17*
X1229360Y1116720D03*
X1229360Y1133720D03*
D18*
X1244760Y1134720D03*
X1244760Y1115720D03*
X1265760Y1125220D03*
D21*
X1170740Y968690D02*
X1170740Y961710D01*
X1163760Y961710D01*
X1163760Y968690D01*
X1170740Y968690D01*
X1170740Y966510D02*
X1163760Y966510D01*
X1188280Y968690D02*
X1188280Y961710D01*
X1181300Y961710D01*
X1181300Y968690D01*
X1188280Y968690D01*
X1188280Y966510D02*
X1181300Y966510D01*
D10*
X1208650Y1140460D03*
X1191650Y1140460D03*
D22*
X975360Y960120D03*
X975360Y1137920D03*
D23*
X1247140Y1075690D03*
X1247140Y1019810D03*
X1209040Y1075690D03*
X1209040Y1019810D03*
D10*
X1167520Y947420D03*
X1184520Y947420D03*
D24*
X1140460Y947420D03*
X1115060Y947420D03*
X1089660Y947420D03*
X1064260Y947420D03*
X1038860Y947420D03*
X1013460Y947420D03*
D25*
X93980Y1184275D03*
X1376045Y1184275D03*
D26*
X84925Y-20955D02*
X84928Y-20733D01*
X84936Y-20511D01*
X84950Y-20289D01*
X84969Y-20067D01*
X84993Y-19847D01*
X85023Y-19626D01*
X85058Y-19407D01*
X85099Y-19188D01*
X85145Y-18971D01*
X85196Y-18755D01*
X85253Y-18540D01*
X85315Y-18326D01*
X85382Y-18115D01*
X85454Y-17904D01*
X85532Y-17696D01*
X85614Y-17490D01*
X85702Y-17286D01*
X85794Y-17083D01*
X85892Y-16884D01*
X85994Y-16687D01*
X86101Y-16492D01*
X86213Y-16300D01*
X86330Y-16111D01*
X86451Y-15924D01*
X86577Y-15741D01*
X86707Y-15561D01*
X86842Y-15384D01*
X86980Y-15211D01*
X87123Y-15041D01*
X87271Y-14874D01*
X87422Y-14711D01*
X87577Y-14552D01*
X87736Y-14397D01*
X87899Y-14246D01*
X88066Y-14098D01*
X88236Y-13955D01*
X88409Y-13817D01*
X88586Y-13682D01*
X88766Y-13552D01*
X88949Y-13426D01*
X89136Y-13305D01*
X89325Y-13188D01*
X89517Y-13076D01*
X89712Y-12969D01*
X89909Y-12867D01*
X90108Y-12769D01*
X90311Y-12677D01*
X90515Y-12589D01*
X90721Y-12507D01*
X90929Y-12429D01*
X91140Y-12357D01*
X91351Y-12290D01*
X91565Y-12228D01*
X91780Y-12171D01*
X91996Y-12120D01*
X92213Y-12074D01*
X92432Y-12033D01*
X92651Y-11998D01*
X92872Y-11968D01*
X93092Y-11944D01*
X93314Y-11925D01*
X93536Y-11911D01*
X93758Y-11903D01*
X93980Y-11900D01*
X94202Y-11903D01*
X94424Y-11911D01*
X94646Y-11925D01*
X94868Y-11944D01*
X95088Y-11968D01*
X95309Y-11998D01*
X95528Y-12033D01*
X95747Y-12074D01*
X95964Y-12120D01*
X96180Y-12171D01*
X96395Y-12228D01*
X96609Y-12290D01*
X96820Y-12357D01*
X97031Y-12429D01*
X97239Y-12507D01*
X97445Y-12589D01*
X97649Y-12677D01*
X97852Y-12769D01*
X98051Y-12867D01*
X98248Y-12969D01*
X98443Y-13076D01*
X98635Y-13188D01*
X98824Y-13305D01*
X99011Y-13426D01*
X99194Y-13552D01*
X99374Y-13682D01*
X99551Y-13817D01*
X99724Y-13955D01*
X99894Y-14098D01*
X100061Y-14246D01*
X100224Y-14397D01*
X100383Y-14552D01*
X100538Y-14711D01*
X100689Y-14874D01*
X100837Y-15041D01*
X100980Y-15211D01*
X101118Y-15384D01*
X101253Y-15561D01*
X101383Y-15741D01*
X101509Y-15924D01*
X101630Y-16111D01*
X101747Y-16300D01*
X101859Y-16492D01*
X101966Y-16687D01*
X102068Y-16884D01*
X102166Y-17083D01*
X102258Y-17286D01*
X102346Y-17490D01*
X102428Y-17696D01*
X102506Y-17904D01*
X102578Y-18115D01*
X102645Y-18326D01*
X102707Y-18540D01*
X102764Y-18755D01*
X102815Y-18971D01*
X102861Y-19188D01*
X102902Y-19407D01*
X102937Y-19626D01*
X102967Y-19847D01*
X102991Y-20067D01*
X103010Y-20289D01*
X103024Y-20511D01*
X103032Y-20733D01*
X103035Y-20955D01*
X103032Y-21177D01*
X103024Y-21399D01*
X103010Y-21621D01*
X102991Y-21843D01*
X102967Y-22063D01*
X102937Y-22284D01*
X102902Y-22503D01*
X102861Y-22722D01*
X102815Y-22939D01*
X102764Y-23155D01*
X102707Y-23370D01*
X102645Y-23584D01*
X102578Y-23795D01*
X102506Y-24006D01*
X102428Y-24214D01*
X102346Y-24420D01*
X102258Y-24624D01*
X102166Y-24827D01*
X102068Y-25026D01*
X101966Y-25223D01*
X101859Y-25418D01*
X101747Y-25610D01*
X101630Y-25799D01*
X101509Y-25986D01*
X101383Y-26169D01*
X101253Y-26349D01*
X101118Y-26526D01*
X100980Y-26699D01*
X100837Y-26869D01*
X100689Y-27036D01*
X100538Y-27199D01*
X100383Y-27358D01*
X100224Y-27513D01*
X100061Y-27664D01*
X99894Y-27812D01*
X99724Y-27955D01*
X99551Y-28093D01*
X99374Y-28228D01*
X99194Y-28358D01*
X99011Y-28484D01*
X98824Y-28605D01*
X98635Y-28722D01*
X98443Y-28834D01*
X98248Y-28941D01*
X98051Y-29043D01*
X97852Y-29141D01*
X97649Y-29233D01*
X97445Y-29321D01*
X97239Y-29403D01*
X97031Y-29481D01*
X96820Y-29553D01*
X96609Y-29620D01*
X96395Y-29682D01*
X96180Y-29739D01*
X95964Y-29790D01*
X95747Y-29836D01*
X95528Y-29877D01*
X95309Y-29912D01*
X95088Y-29942D01*
X94868Y-29966D01*
X94646Y-29985D01*
X94424Y-29999D01*
X94202Y-30007D01*
X93980Y-30010D01*
X93758Y-30007D01*
X93536Y-29999D01*
X93314Y-29985D01*
X93092Y-29966D01*
X92872Y-29942D01*
X92651Y-29912D01*
X92432Y-29877D01*
X92213Y-29836D01*
X91996Y-29790D01*
X91780Y-29739D01*
X91565Y-29682D01*
X91351Y-29620D01*
X91140Y-29553D01*
X90929Y-29481D01*
X90721Y-29403D01*
X90515Y-29321D01*
X90311Y-29233D01*
X90108Y-29141D01*
X89909Y-29043D01*
X89712Y-28941D01*
X89517Y-28834D01*
X89325Y-28722D01*
X89136Y-28605D01*
X88949Y-28484D01*
X88766Y-28358D01*
X88586Y-28228D01*
X88409Y-28093D01*
X88236Y-27955D01*
X88066Y-27812D01*
X87899Y-27664D01*
X87736Y-27513D01*
X87577Y-27358D01*
X87422Y-27199D01*
X87271Y-27036D01*
X87123Y-26869D01*
X86980Y-26699D01*
X86842Y-26526D01*
X86707Y-26349D01*
X86577Y-26169D01*
X86451Y-25986D01*
X86330Y-25799D01*
X86213Y-25610D01*
X86101Y-25418D01*
X85994Y-25223D01*
X85892Y-25026D01*
X85794Y-24827D01*
X85702Y-24624D01*
X85614Y-24420D01*
X85532Y-24214D01*
X85454Y-24006D01*
X85382Y-23795D01*
X85315Y-23584D01*
X85253Y-23370D01*
X85196Y-23155D01*
X85145Y-22939D01*
X85099Y-22722D01*
X85058Y-22503D01*
X85023Y-22284D01*
X84993Y-22063D01*
X84969Y-21843D01*
X84950Y-21621D01*
X84936Y-21399D01*
X84928Y-21177D01*
X84925Y-20955D01*
D27*
X93980Y-20955D03*
M02*
