G04 EAGLE Gerber RS-274X export*
G75*
%MOMM*%
%FSLAX34Y34*%
%LPD*%
%INSolderpaste Top*%
%IPPOS*%
%AMOC8*
5,1,8,0,0,1.08239X$1,22.5*%
G01*
%ADD10R,1.100000X1.000000*%
%ADD11R,1.000000X0.300000*%
%ADD12R,1.300000X2.000000*%
%ADD13R,1.000000X0.600000*%
%ADD14R,0.550000X1.200000*%
%ADD15R,1.000000X1.100000*%
%ADD16R,0.900000X0.800000*%
%ADD17R,3.200000X2.500000*%
%ADD18C,0.300000*%
%ADD19R,0.762000X1.524000*%

G36*
X535285Y1000774D02*
X535285Y1000774D01*
X535288Y1000771D01*
X536383Y1000951D01*
X536389Y1000957D01*
X536394Y1000954D01*
X537422Y1001373D01*
X537426Y1001380D01*
X537431Y1001378D01*
X538340Y1002016D01*
X538343Y1002023D01*
X538348Y1002023D01*
X539092Y1002846D01*
X539093Y1002854D01*
X539099Y1002855D01*
X539641Y1003823D01*
X539640Y1003832D01*
X539646Y1003834D01*
X539959Y1004898D01*
X539956Y1004906D01*
X539961Y1004909D01*
X540029Y1006017D01*
X540025Y1006024D01*
X540029Y1006027D01*
X539859Y1007135D01*
X539853Y1007141D01*
X539856Y1007146D01*
X539444Y1008188D01*
X539437Y1008192D01*
X539439Y1008197D01*
X538805Y1009122D01*
X538797Y1009124D01*
X538798Y1009130D01*
X537975Y1009890D01*
X537966Y1009891D01*
X537966Y1009897D01*
X536994Y1010454D01*
X536986Y1010453D01*
X536984Y1010459D01*
X535912Y1010786D01*
X535904Y1010783D01*
X535901Y1010788D01*
X534784Y1010869D01*
X534781Y1010868D01*
X534780Y1010869D01*
X522780Y1010869D01*
X522777Y1010867D01*
X522770Y1010867D01*
X522769Y1010868D01*
X521825Y1010649D01*
X521819Y1010643D01*
X521814Y1010645D01*
X520942Y1010222D01*
X520939Y1010214D01*
X520933Y1010216D01*
X520177Y1009609D01*
X520175Y1009601D01*
X520169Y1009601D01*
X519568Y1008841D01*
X519568Y1008832D01*
X519562Y1008831D01*
X519144Y1007956D01*
X519146Y1007948D01*
X519141Y1007946D01*
X518929Y1007000D01*
X518932Y1006993D01*
X518927Y1006989D01*
X518931Y1006020D01*
X518931Y1006019D01*
X518950Y1004951D01*
X518955Y1004944D01*
X518951Y1004940D01*
X519207Y1003903D01*
X519214Y1003898D01*
X519211Y1003892D01*
X519692Y1002938D01*
X519699Y1002935D01*
X519698Y1002929D01*
X520379Y1002106D01*
X520387Y1002104D01*
X520387Y1002098D01*
X521234Y1001447D01*
X521242Y1001447D01*
X521243Y1001441D01*
X522214Y1000994D01*
X522222Y1000996D01*
X522224Y1000991D01*
X523270Y1000772D01*
X523277Y1000775D01*
X523280Y1000771D01*
X535280Y1000771D01*
X535285Y1000774D01*
G37*
G36*
X60305Y299734D02*
X60305Y299734D01*
X60308Y299731D01*
X61403Y299911D01*
X61409Y299917D01*
X61414Y299914D01*
X62442Y300333D01*
X62446Y300340D01*
X62451Y300338D01*
X63360Y300976D01*
X63363Y300983D01*
X63368Y300983D01*
X64112Y301806D01*
X64113Y301814D01*
X64119Y301815D01*
X64661Y302783D01*
X64660Y302792D01*
X64666Y302794D01*
X64979Y303858D01*
X64976Y303866D01*
X64981Y303869D01*
X65049Y304977D01*
X65045Y304984D01*
X65049Y304987D01*
X64879Y306095D01*
X64873Y306101D01*
X64876Y306106D01*
X64464Y307148D01*
X64457Y307152D01*
X64459Y307157D01*
X63825Y308082D01*
X63817Y308084D01*
X63818Y308090D01*
X62995Y308850D01*
X62986Y308851D01*
X62986Y308857D01*
X62014Y309414D01*
X62006Y309413D01*
X62004Y309419D01*
X60932Y309746D01*
X60924Y309743D01*
X60921Y309748D01*
X59804Y309829D01*
X59801Y309828D01*
X59800Y309829D01*
X47800Y309829D01*
X47797Y309827D01*
X47790Y309827D01*
X47789Y309828D01*
X46845Y309609D01*
X46839Y309603D01*
X46834Y309605D01*
X45962Y309182D01*
X45959Y309174D01*
X45953Y309176D01*
X45197Y308569D01*
X45195Y308561D01*
X45189Y308561D01*
X44588Y307801D01*
X44588Y307792D01*
X44582Y307791D01*
X44164Y306916D01*
X44166Y306908D01*
X44161Y306906D01*
X43949Y305960D01*
X43952Y305953D01*
X43947Y305949D01*
X43951Y304980D01*
X43951Y304979D01*
X43970Y303911D01*
X43975Y303904D01*
X43971Y303900D01*
X44227Y302863D01*
X44234Y302858D01*
X44231Y302852D01*
X44712Y301898D01*
X44719Y301895D01*
X44718Y301889D01*
X45399Y301066D01*
X45407Y301064D01*
X45407Y301058D01*
X46254Y300407D01*
X46262Y300407D01*
X46263Y300401D01*
X47234Y299954D01*
X47242Y299956D01*
X47244Y299951D01*
X48290Y299732D01*
X48297Y299735D01*
X48300Y299731D01*
X60300Y299731D01*
X60305Y299734D01*
G37*
G36*
X1010265Y299734D02*
X1010265Y299734D01*
X1010268Y299731D01*
X1011363Y299911D01*
X1011369Y299917D01*
X1011374Y299914D01*
X1012402Y300333D01*
X1012406Y300340D01*
X1012411Y300338D01*
X1013320Y300976D01*
X1013323Y300983D01*
X1013328Y300983D01*
X1014072Y301806D01*
X1014073Y301814D01*
X1014079Y301815D01*
X1014621Y302783D01*
X1014620Y302792D01*
X1014626Y302794D01*
X1014939Y303858D01*
X1014936Y303866D01*
X1014941Y303869D01*
X1015009Y304977D01*
X1015005Y304984D01*
X1015009Y304987D01*
X1014839Y306095D01*
X1014833Y306101D01*
X1014836Y306106D01*
X1014424Y307148D01*
X1014417Y307152D01*
X1014419Y307157D01*
X1013785Y308082D01*
X1013777Y308084D01*
X1013778Y308090D01*
X1012955Y308850D01*
X1012946Y308851D01*
X1012946Y308857D01*
X1011974Y309414D01*
X1011966Y309413D01*
X1011964Y309419D01*
X1010892Y309746D01*
X1010884Y309743D01*
X1010881Y309748D01*
X1009764Y309829D01*
X1009761Y309828D01*
X1009760Y309829D01*
X997760Y309829D01*
X997757Y309827D01*
X997750Y309827D01*
X997749Y309828D01*
X996805Y309609D01*
X996799Y309603D01*
X996794Y309605D01*
X995922Y309182D01*
X995919Y309174D01*
X995913Y309176D01*
X995157Y308569D01*
X995155Y308561D01*
X995149Y308561D01*
X994548Y307801D01*
X994548Y307792D01*
X994542Y307791D01*
X994124Y306916D01*
X994126Y306908D01*
X994121Y306906D01*
X993909Y305960D01*
X993912Y305953D01*
X993907Y305949D01*
X993911Y304980D01*
X993911Y304979D01*
X993930Y303911D01*
X993935Y303904D01*
X993931Y303900D01*
X994187Y302863D01*
X994194Y302858D01*
X994191Y302852D01*
X994672Y301898D01*
X994679Y301895D01*
X994678Y301889D01*
X995359Y301066D01*
X995367Y301064D01*
X995367Y301058D01*
X996214Y300407D01*
X996222Y300407D01*
X996223Y300401D01*
X997194Y299954D01*
X997202Y299956D01*
X997204Y299951D01*
X998250Y299732D01*
X998257Y299735D01*
X998260Y299731D01*
X1010260Y299731D01*
X1010265Y299734D01*
G37*
G36*
X535285Y66054D02*
X535285Y66054D01*
X535288Y66051D01*
X536383Y66231D01*
X536389Y66237D01*
X536394Y66234D01*
X537422Y66653D01*
X537426Y66660D01*
X537431Y66658D01*
X538340Y67296D01*
X538343Y67303D01*
X538348Y67303D01*
X539092Y68126D01*
X539093Y68134D01*
X539099Y68135D01*
X539641Y69103D01*
X539640Y69112D01*
X539646Y69114D01*
X539959Y70178D01*
X539956Y70186D01*
X539961Y70189D01*
X540029Y71297D01*
X540025Y71304D01*
X540029Y71307D01*
X539859Y72415D01*
X539853Y72421D01*
X539856Y72426D01*
X539444Y73468D01*
X539437Y73472D01*
X539439Y73477D01*
X538805Y74402D01*
X538797Y74404D01*
X538798Y74410D01*
X537975Y75170D01*
X537966Y75171D01*
X537966Y75177D01*
X536994Y75734D01*
X536986Y75733D01*
X536984Y75739D01*
X535912Y76066D01*
X535904Y76063D01*
X535901Y76068D01*
X534784Y76149D01*
X534781Y76148D01*
X534780Y76149D01*
X522780Y76149D01*
X522777Y76147D01*
X522770Y76147D01*
X522769Y76148D01*
X521825Y75929D01*
X521819Y75923D01*
X521814Y75925D01*
X520942Y75502D01*
X520939Y75494D01*
X520933Y75496D01*
X520177Y74889D01*
X520175Y74881D01*
X520169Y74881D01*
X519568Y74121D01*
X519568Y74112D01*
X519562Y74111D01*
X519144Y73236D01*
X519146Y73228D01*
X519141Y73226D01*
X518929Y72280D01*
X518932Y72273D01*
X518927Y72269D01*
X518931Y71300D01*
X518931Y71299D01*
X518950Y70231D01*
X518955Y70224D01*
X518951Y70220D01*
X519207Y69183D01*
X519214Y69178D01*
X519211Y69172D01*
X519692Y68218D01*
X519699Y68215D01*
X519698Y68209D01*
X520379Y67386D01*
X520387Y67384D01*
X520387Y67378D01*
X521234Y66727D01*
X521242Y66727D01*
X521243Y66721D01*
X522214Y66274D01*
X522222Y66276D01*
X522224Y66271D01*
X523270Y66052D01*
X523277Y66055D01*
X523280Y66051D01*
X535280Y66051D01*
X535285Y66054D01*
G37*
G36*
X1010265Y66054D02*
X1010265Y66054D01*
X1010268Y66051D01*
X1011363Y66231D01*
X1011369Y66237D01*
X1011374Y66234D01*
X1012402Y66653D01*
X1012406Y66660D01*
X1012411Y66658D01*
X1013320Y67296D01*
X1013323Y67303D01*
X1013328Y67303D01*
X1014072Y68126D01*
X1014073Y68134D01*
X1014079Y68135D01*
X1014621Y69103D01*
X1014620Y69112D01*
X1014626Y69114D01*
X1014939Y70178D01*
X1014936Y70186D01*
X1014941Y70189D01*
X1015009Y71297D01*
X1015005Y71304D01*
X1015009Y71307D01*
X1014839Y72415D01*
X1014833Y72421D01*
X1014836Y72426D01*
X1014424Y73468D01*
X1014417Y73472D01*
X1014419Y73477D01*
X1013785Y74402D01*
X1013777Y74404D01*
X1013778Y74410D01*
X1012955Y75170D01*
X1012946Y75171D01*
X1012946Y75177D01*
X1011974Y75734D01*
X1011966Y75733D01*
X1011964Y75739D01*
X1010892Y76066D01*
X1010884Y76063D01*
X1010881Y76068D01*
X1009764Y76149D01*
X1009761Y76148D01*
X1009760Y76149D01*
X997760Y76149D01*
X997757Y76147D01*
X997750Y76147D01*
X997749Y76148D01*
X996805Y75929D01*
X996799Y75923D01*
X996794Y75925D01*
X995922Y75502D01*
X995919Y75494D01*
X995913Y75496D01*
X995157Y74889D01*
X995155Y74881D01*
X995149Y74881D01*
X994548Y74121D01*
X994548Y74112D01*
X994542Y74111D01*
X994124Y73236D01*
X994126Y73228D01*
X994121Y73226D01*
X993909Y72280D01*
X993912Y72273D01*
X993907Y72269D01*
X993911Y71300D01*
X993911Y71299D01*
X993930Y70231D01*
X993935Y70224D01*
X993931Y70220D01*
X994187Y69183D01*
X994194Y69178D01*
X994191Y69172D01*
X994672Y68218D01*
X994679Y68215D01*
X994678Y68209D01*
X995359Y67386D01*
X995367Y67384D01*
X995367Y67378D01*
X996214Y66727D01*
X996222Y66727D01*
X996223Y66721D01*
X997194Y66274D01*
X997202Y66276D01*
X997204Y66271D01*
X998250Y66052D01*
X998257Y66055D01*
X998260Y66051D01*
X1010260Y66051D01*
X1010265Y66054D01*
G37*
G36*
X535285Y767094D02*
X535285Y767094D01*
X535288Y767091D01*
X536383Y767271D01*
X536389Y767277D01*
X536394Y767274D01*
X537422Y767693D01*
X537426Y767700D01*
X537431Y767698D01*
X538340Y768336D01*
X538343Y768343D01*
X538348Y768343D01*
X539092Y769166D01*
X539093Y769174D01*
X539099Y769175D01*
X539641Y770143D01*
X539640Y770152D01*
X539646Y770154D01*
X539959Y771218D01*
X539956Y771226D01*
X539961Y771229D01*
X540029Y772337D01*
X540025Y772344D01*
X540029Y772347D01*
X539859Y773455D01*
X539853Y773461D01*
X539856Y773466D01*
X539444Y774508D01*
X539437Y774512D01*
X539439Y774517D01*
X538805Y775442D01*
X538797Y775444D01*
X538798Y775450D01*
X537975Y776210D01*
X537966Y776211D01*
X537966Y776217D01*
X536994Y776774D01*
X536986Y776773D01*
X536984Y776779D01*
X535912Y777106D01*
X535904Y777103D01*
X535901Y777108D01*
X534784Y777189D01*
X534781Y777188D01*
X534780Y777189D01*
X522780Y777189D01*
X522777Y777187D01*
X522770Y777187D01*
X522769Y777188D01*
X521825Y776969D01*
X521819Y776963D01*
X521814Y776965D01*
X520942Y776542D01*
X520939Y776534D01*
X520933Y776536D01*
X520177Y775929D01*
X520175Y775921D01*
X520169Y775921D01*
X519568Y775161D01*
X519568Y775152D01*
X519562Y775151D01*
X519144Y774276D01*
X519146Y774268D01*
X519141Y774266D01*
X518929Y773320D01*
X518932Y773313D01*
X518927Y773309D01*
X518931Y772340D01*
X518931Y772339D01*
X518950Y771271D01*
X518955Y771264D01*
X518951Y771260D01*
X519207Y770223D01*
X519214Y770218D01*
X519211Y770212D01*
X519692Y769258D01*
X519699Y769255D01*
X519698Y769249D01*
X520379Y768426D01*
X520387Y768424D01*
X520387Y768418D01*
X521234Y767767D01*
X521242Y767767D01*
X521243Y767761D01*
X522214Y767314D01*
X522222Y767316D01*
X522224Y767311D01*
X523270Y767092D01*
X523277Y767095D01*
X523280Y767091D01*
X535280Y767091D01*
X535285Y767094D01*
G37*
G36*
X1010265Y1000774D02*
X1010265Y1000774D01*
X1010268Y1000771D01*
X1011363Y1000951D01*
X1011369Y1000957D01*
X1011374Y1000954D01*
X1012402Y1001373D01*
X1012406Y1001380D01*
X1012411Y1001378D01*
X1013320Y1002016D01*
X1013323Y1002023D01*
X1013328Y1002023D01*
X1014072Y1002846D01*
X1014073Y1002854D01*
X1014079Y1002855D01*
X1014621Y1003823D01*
X1014620Y1003832D01*
X1014626Y1003834D01*
X1014939Y1004898D01*
X1014936Y1004906D01*
X1014941Y1004909D01*
X1015009Y1006017D01*
X1015005Y1006024D01*
X1015009Y1006027D01*
X1014839Y1007135D01*
X1014833Y1007141D01*
X1014836Y1007146D01*
X1014424Y1008188D01*
X1014417Y1008192D01*
X1014419Y1008197D01*
X1013785Y1009122D01*
X1013777Y1009124D01*
X1013778Y1009130D01*
X1012955Y1009890D01*
X1012946Y1009891D01*
X1012946Y1009897D01*
X1011974Y1010454D01*
X1011966Y1010453D01*
X1011964Y1010459D01*
X1010892Y1010786D01*
X1010884Y1010783D01*
X1010881Y1010788D01*
X1009764Y1010869D01*
X1009761Y1010868D01*
X1009760Y1010869D01*
X997760Y1010869D01*
X997757Y1010867D01*
X997750Y1010867D01*
X997749Y1010868D01*
X996805Y1010649D01*
X996799Y1010643D01*
X996794Y1010645D01*
X995922Y1010222D01*
X995919Y1010214D01*
X995913Y1010216D01*
X995157Y1009609D01*
X995155Y1009601D01*
X995149Y1009601D01*
X994548Y1008841D01*
X994548Y1008832D01*
X994542Y1008831D01*
X994124Y1007956D01*
X994126Y1007948D01*
X994121Y1007946D01*
X993909Y1007000D01*
X993912Y1006993D01*
X993907Y1006989D01*
X993911Y1006020D01*
X993911Y1006019D01*
X993930Y1004951D01*
X993935Y1004944D01*
X993931Y1004940D01*
X994187Y1003903D01*
X994194Y1003898D01*
X994191Y1003892D01*
X994672Y1002938D01*
X994679Y1002935D01*
X994678Y1002929D01*
X995359Y1002106D01*
X995367Y1002104D01*
X995367Y1002098D01*
X996214Y1001447D01*
X996222Y1001447D01*
X996223Y1001441D01*
X997194Y1000994D01*
X997202Y1000996D01*
X997204Y1000991D01*
X998250Y1000772D01*
X998257Y1000775D01*
X998260Y1000771D01*
X1010260Y1000771D01*
X1010265Y1000774D01*
G37*
G36*
X1010265Y533414D02*
X1010265Y533414D01*
X1010268Y533411D01*
X1011363Y533591D01*
X1011369Y533597D01*
X1011374Y533594D01*
X1012402Y534013D01*
X1012406Y534020D01*
X1012411Y534018D01*
X1013320Y534656D01*
X1013323Y534663D01*
X1013328Y534663D01*
X1014072Y535486D01*
X1014073Y535494D01*
X1014079Y535495D01*
X1014621Y536463D01*
X1014620Y536472D01*
X1014626Y536474D01*
X1014939Y537538D01*
X1014936Y537546D01*
X1014941Y537549D01*
X1015009Y538657D01*
X1015005Y538664D01*
X1015009Y538667D01*
X1014839Y539775D01*
X1014833Y539781D01*
X1014836Y539786D01*
X1014424Y540828D01*
X1014417Y540832D01*
X1014419Y540837D01*
X1013785Y541762D01*
X1013777Y541764D01*
X1013778Y541770D01*
X1012955Y542530D01*
X1012946Y542531D01*
X1012946Y542537D01*
X1011974Y543094D01*
X1011966Y543093D01*
X1011964Y543099D01*
X1010892Y543426D01*
X1010884Y543423D01*
X1010881Y543428D01*
X1009764Y543509D01*
X1009761Y543508D01*
X1009760Y543509D01*
X997760Y543509D01*
X997757Y543507D01*
X997750Y543507D01*
X997749Y543508D01*
X996805Y543289D01*
X996799Y543283D01*
X996794Y543285D01*
X995922Y542862D01*
X995919Y542854D01*
X995913Y542856D01*
X995157Y542249D01*
X995155Y542241D01*
X995149Y542241D01*
X994548Y541481D01*
X994548Y541472D01*
X994542Y541471D01*
X994124Y540596D01*
X994126Y540588D01*
X994121Y540586D01*
X993909Y539640D01*
X993912Y539633D01*
X993907Y539629D01*
X993911Y538660D01*
X993911Y538659D01*
X993930Y537591D01*
X993935Y537584D01*
X993931Y537580D01*
X994187Y536543D01*
X994194Y536538D01*
X994191Y536532D01*
X994672Y535578D01*
X994679Y535575D01*
X994678Y535569D01*
X995359Y534746D01*
X995367Y534744D01*
X995367Y534738D01*
X996214Y534087D01*
X996222Y534087D01*
X996223Y534081D01*
X997194Y533634D01*
X997202Y533636D01*
X997204Y533631D01*
X998250Y533412D01*
X998257Y533415D01*
X998260Y533411D01*
X1010260Y533411D01*
X1010265Y533414D01*
G37*
G36*
X60305Y66054D02*
X60305Y66054D01*
X60308Y66051D01*
X61403Y66231D01*
X61409Y66237D01*
X61414Y66234D01*
X62442Y66653D01*
X62446Y66660D01*
X62451Y66658D01*
X63360Y67296D01*
X63363Y67303D01*
X63368Y67303D01*
X64112Y68126D01*
X64113Y68134D01*
X64119Y68135D01*
X64661Y69103D01*
X64660Y69112D01*
X64666Y69114D01*
X64979Y70178D01*
X64976Y70186D01*
X64981Y70189D01*
X65049Y71297D01*
X65045Y71304D01*
X65049Y71307D01*
X64879Y72415D01*
X64873Y72421D01*
X64876Y72426D01*
X64464Y73468D01*
X64457Y73472D01*
X64459Y73477D01*
X63825Y74402D01*
X63817Y74404D01*
X63818Y74410D01*
X62995Y75170D01*
X62986Y75171D01*
X62986Y75177D01*
X62014Y75734D01*
X62006Y75733D01*
X62004Y75739D01*
X60932Y76066D01*
X60924Y76063D01*
X60921Y76068D01*
X59804Y76149D01*
X59801Y76148D01*
X59800Y76149D01*
X47800Y76149D01*
X47797Y76147D01*
X47790Y76147D01*
X47789Y76148D01*
X46845Y75929D01*
X46839Y75923D01*
X46834Y75925D01*
X45962Y75502D01*
X45959Y75494D01*
X45953Y75496D01*
X45197Y74889D01*
X45195Y74881D01*
X45189Y74881D01*
X44588Y74121D01*
X44588Y74112D01*
X44582Y74111D01*
X44164Y73236D01*
X44166Y73228D01*
X44161Y73226D01*
X43949Y72280D01*
X43952Y72273D01*
X43947Y72269D01*
X43951Y71300D01*
X43951Y71299D01*
X43970Y70231D01*
X43975Y70224D01*
X43971Y70220D01*
X44227Y69183D01*
X44234Y69178D01*
X44231Y69172D01*
X44712Y68218D01*
X44719Y68215D01*
X44718Y68209D01*
X45399Y67386D01*
X45407Y67384D01*
X45407Y67378D01*
X46254Y66727D01*
X46262Y66727D01*
X46263Y66721D01*
X47234Y66274D01*
X47242Y66276D01*
X47244Y66271D01*
X48290Y66052D01*
X48297Y66055D01*
X48300Y66051D01*
X60300Y66051D01*
X60305Y66054D01*
G37*
G36*
X535285Y533414D02*
X535285Y533414D01*
X535288Y533411D01*
X536383Y533591D01*
X536389Y533597D01*
X536394Y533594D01*
X537422Y534013D01*
X537426Y534020D01*
X537431Y534018D01*
X538340Y534656D01*
X538343Y534663D01*
X538348Y534663D01*
X539092Y535486D01*
X539093Y535494D01*
X539099Y535495D01*
X539641Y536463D01*
X539640Y536472D01*
X539646Y536474D01*
X539959Y537538D01*
X539956Y537546D01*
X539961Y537549D01*
X540029Y538657D01*
X540025Y538664D01*
X540029Y538667D01*
X539859Y539775D01*
X539853Y539781D01*
X539856Y539786D01*
X539444Y540828D01*
X539437Y540832D01*
X539439Y540837D01*
X538805Y541762D01*
X538797Y541764D01*
X538798Y541770D01*
X537975Y542530D01*
X537966Y542531D01*
X537966Y542537D01*
X536994Y543094D01*
X536986Y543093D01*
X536984Y543099D01*
X535912Y543426D01*
X535904Y543423D01*
X535901Y543428D01*
X534784Y543509D01*
X534781Y543508D01*
X534780Y543509D01*
X522780Y543509D01*
X522777Y543507D01*
X522770Y543507D01*
X522769Y543508D01*
X521825Y543289D01*
X521819Y543283D01*
X521814Y543285D01*
X520942Y542862D01*
X520939Y542854D01*
X520933Y542856D01*
X520177Y542249D01*
X520175Y542241D01*
X520169Y542241D01*
X519568Y541481D01*
X519568Y541472D01*
X519562Y541471D01*
X519144Y540596D01*
X519146Y540588D01*
X519141Y540586D01*
X518929Y539640D01*
X518932Y539633D01*
X518927Y539629D01*
X518931Y538660D01*
X518931Y538659D01*
X518950Y537591D01*
X518955Y537584D01*
X518951Y537580D01*
X519207Y536543D01*
X519214Y536538D01*
X519211Y536532D01*
X519692Y535578D01*
X519699Y535575D01*
X519698Y535569D01*
X520379Y534746D01*
X520387Y534744D01*
X520387Y534738D01*
X521234Y534087D01*
X521242Y534087D01*
X521243Y534081D01*
X522214Y533634D01*
X522222Y533636D01*
X522224Y533631D01*
X523270Y533412D01*
X523277Y533415D01*
X523280Y533411D01*
X535280Y533411D01*
X535285Y533414D01*
G37*
G36*
X1010265Y767094D02*
X1010265Y767094D01*
X1010268Y767091D01*
X1011363Y767271D01*
X1011369Y767277D01*
X1011374Y767274D01*
X1012402Y767693D01*
X1012406Y767700D01*
X1012411Y767698D01*
X1013320Y768336D01*
X1013323Y768343D01*
X1013328Y768343D01*
X1014072Y769166D01*
X1014073Y769174D01*
X1014079Y769175D01*
X1014621Y770143D01*
X1014620Y770152D01*
X1014626Y770154D01*
X1014939Y771218D01*
X1014936Y771226D01*
X1014941Y771229D01*
X1015009Y772337D01*
X1015005Y772344D01*
X1015009Y772347D01*
X1014839Y773455D01*
X1014833Y773461D01*
X1014836Y773466D01*
X1014424Y774508D01*
X1014417Y774512D01*
X1014419Y774517D01*
X1013785Y775442D01*
X1013777Y775444D01*
X1013778Y775450D01*
X1012955Y776210D01*
X1012946Y776211D01*
X1012946Y776217D01*
X1011974Y776774D01*
X1011966Y776773D01*
X1011964Y776779D01*
X1010892Y777106D01*
X1010884Y777103D01*
X1010881Y777108D01*
X1009764Y777189D01*
X1009761Y777188D01*
X1009760Y777189D01*
X997760Y777189D01*
X997757Y777187D01*
X997750Y777187D01*
X997749Y777188D01*
X996805Y776969D01*
X996799Y776963D01*
X996794Y776965D01*
X995922Y776542D01*
X995919Y776534D01*
X995913Y776536D01*
X995157Y775929D01*
X995155Y775921D01*
X995149Y775921D01*
X994548Y775161D01*
X994548Y775152D01*
X994542Y775151D01*
X994124Y774276D01*
X994126Y774268D01*
X994121Y774266D01*
X993909Y773320D01*
X993912Y773313D01*
X993907Y773309D01*
X993911Y772340D01*
X993911Y772339D01*
X993930Y771271D01*
X993935Y771264D01*
X993931Y771260D01*
X994187Y770223D01*
X994194Y770218D01*
X994191Y770212D01*
X994672Y769258D01*
X994679Y769255D01*
X994678Y769249D01*
X995359Y768426D01*
X995367Y768424D01*
X995367Y768418D01*
X996214Y767767D01*
X996222Y767767D01*
X996223Y767761D01*
X997194Y767314D01*
X997202Y767316D01*
X997204Y767311D01*
X998250Y767092D01*
X998257Y767095D01*
X998260Y767091D01*
X1010260Y767091D01*
X1010265Y767094D01*
G37*
G36*
X60305Y1000774D02*
X60305Y1000774D01*
X60308Y1000771D01*
X61403Y1000951D01*
X61409Y1000957D01*
X61414Y1000954D01*
X62442Y1001373D01*
X62446Y1001380D01*
X62451Y1001378D01*
X63360Y1002016D01*
X63363Y1002023D01*
X63368Y1002023D01*
X64112Y1002846D01*
X64113Y1002854D01*
X64119Y1002855D01*
X64661Y1003823D01*
X64660Y1003832D01*
X64666Y1003834D01*
X64979Y1004898D01*
X64976Y1004906D01*
X64981Y1004909D01*
X65049Y1006017D01*
X65045Y1006024D01*
X65049Y1006027D01*
X64879Y1007135D01*
X64873Y1007141D01*
X64876Y1007146D01*
X64464Y1008188D01*
X64457Y1008192D01*
X64459Y1008197D01*
X63825Y1009122D01*
X63817Y1009124D01*
X63818Y1009130D01*
X62995Y1009890D01*
X62986Y1009891D01*
X62986Y1009897D01*
X62014Y1010454D01*
X62006Y1010453D01*
X62004Y1010459D01*
X60932Y1010786D01*
X60924Y1010783D01*
X60921Y1010788D01*
X59804Y1010869D01*
X59801Y1010868D01*
X59800Y1010869D01*
X47800Y1010869D01*
X47797Y1010867D01*
X47790Y1010867D01*
X47789Y1010868D01*
X46845Y1010649D01*
X46839Y1010643D01*
X46834Y1010645D01*
X45962Y1010222D01*
X45959Y1010214D01*
X45953Y1010216D01*
X45197Y1009609D01*
X45195Y1009601D01*
X45189Y1009601D01*
X44588Y1008841D01*
X44588Y1008832D01*
X44582Y1008831D01*
X44164Y1007956D01*
X44166Y1007948D01*
X44161Y1007946D01*
X43949Y1007000D01*
X43952Y1006993D01*
X43947Y1006989D01*
X43951Y1006020D01*
X43951Y1006019D01*
X43970Y1004951D01*
X43975Y1004944D01*
X43971Y1004940D01*
X44227Y1003903D01*
X44234Y1003898D01*
X44231Y1003892D01*
X44712Y1002938D01*
X44719Y1002935D01*
X44718Y1002929D01*
X45399Y1002106D01*
X45407Y1002104D01*
X45407Y1002098D01*
X46254Y1001447D01*
X46262Y1001447D01*
X46263Y1001441D01*
X47234Y1000994D01*
X47242Y1000996D01*
X47244Y1000991D01*
X48290Y1000772D01*
X48297Y1000775D01*
X48300Y1000771D01*
X60300Y1000771D01*
X60305Y1000774D01*
G37*
G36*
X60305Y767094D02*
X60305Y767094D01*
X60308Y767091D01*
X61403Y767271D01*
X61409Y767277D01*
X61414Y767274D01*
X62442Y767693D01*
X62446Y767700D01*
X62451Y767698D01*
X63360Y768336D01*
X63363Y768343D01*
X63368Y768343D01*
X64112Y769166D01*
X64113Y769174D01*
X64119Y769175D01*
X64661Y770143D01*
X64660Y770152D01*
X64666Y770154D01*
X64979Y771218D01*
X64976Y771226D01*
X64981Y771229D01*
X65049Y772337D01*
X65045Y772344D01*
X65049Y772347D01*
X64879Y773455D01*
X64873Y773461D01*
X64876Y773466D01*
X64464Y774508D01*
X64457Y774512D01*
X64459Y774517D01*
X63825Y775442D01*
X63817Y775444D01*
X63818Y775450D01*
X62995Y776210D01*
X62986Y776211D01*
X62986Y776217D01*
X62014Y776774D01*
X62006Y776773D01*
X62004Y776779D01*
X60932Y777106D01*
X60924Y777103D01*
X60921Y777108D01*
X59804Y777189D01*
X59801Y777188D01*
X59800Y777189D01*
X47800Y777189D01*
X47797Y777187D01*
X47790Y777187D01*
X47789Y777188D01*
X46845Y776969D01*
X46839Y776963D01*
X46834Y776965D01*
X45962Y776542D01*
X45959Y776534D01*
X45953Y776536D01*
X45197Y775929D01*
X45195Y775921D01*
X45189Y775921D01*
X44588Y775161D01*
X44588Y775152D01*
X44582Y775151D01*
X44164Y774276D01*
X44166Y774268D01*
X44161Y774266D01*
X43949Y773320D01*
X43952Y773313D01*
X43947Y773309D01*
X43951Y772340D01*
X43951Y772339D01*
X43970Y771271D01*
X43975Y771264D01*
X43971Y771260D01*
X44227Y770223D01*
X44234Y770218D01*
X44231Y770212D01*
X44712Y769258D01*
X44719Y769255D01*
X44718Y769249D01*
X45399Y768426D01*
X45407Y768424D01*
X45407Y768418D01*
X46254Y767767D01*
X46262Y767767D01*
X46263Y767761D01*
X47234Y767314D01*
X47242Y767316D01*
X47244Y767311D01*
X48290Y767092D01*
X48297Y767095D01*
X48300Y767091D01*
X60300Y767091D01*
X60305Y767094D01*
G37*
G36*
X60305Y533414D02*
X60305Y533414D01*
X60308Y533411D01*
X61403Y533591D01*
X61409Y533597D01*
X61414Y533594D01*
X62442Y534013D01*
X62446Y534020D01*
X62451Y534018D01*
X63360Y534656D01*
X63363Y534663D01*
X63368Y534663D01*
X64112Y535486D01*
X64113Y535494D01*
X64119Y535495D01*
X64661Y536463D01*
X64660Y536472D01*
X64666Y536474D01*
X64979Y537538D01*
X64976Y537546D01*
X64981Y537549D01*
X65049Y538657D01*
X65045Y538664D01*
X65049Y538667D01*
X64879Y539775D01*
X64873Y539781D01*
X64876Y539786D01*
X64464Y540828D01*
X64457Y540832D01*
X64459Y540837D01*
X63825Y541762D01*
X63817Y541764D01*
X63818Y541770D01*
X62995Y542530D01*
X62986Y542531D01*
X62986Y542537D01*
X62014Y543094D01*
X62006Y543093D01*
X62004Y543099D01*
X60932Y543426D01*
X60924Y543423D01*
X60921Y543428D01*
X59804Y543509D01*
X59801Y543508D01*
X59800Y543509D01*
X47800Y543509D01*
X47797Y543507D01*
X47790Y543507D01*
X47789Y543508D01*
X46845Y543289D01*
X46839Y543283D01*
X46834Y543285D01*
X45962Y542862D01*
X45959Y542854D01*
X45953Y542856D01*
X45197Y542249D01*
X45195Y542241D01*
X45189Y542241D01*
X44588Y541481D01*
X44588Y541472D01*
X44582Y541471D01*
X44164Y540596D01*
X44166Y540588D01*
X44161Y540586D01*
X43949Y539640D01*
X43952Y539633D01*
X43947Y539629D01*
X43951Y538660D01*
X43951Y538659D01*
X43970Y537591D01*
X43975Y537584D01*
X43971Y537580D01*
X44227Y536543D01*
X44234Y536538D01*
X44231Y536532D01*
X44712Y535578D01*
X44719Y535575D01*
X44718Y535569D01*
X45399Y534746D01*
X45407Y534744D01*
X45407Y534738D01*
X46254Y534087D01*
X46262Y534087D01*
X46263Y534081D01*
X47234Y533634D01*
X47242Y533636D01*
X47244Y533631D01*
X48290Y533412D01*
X48297Y533415D01*
X48300Y533411D01*
X60300Y533411D01*
X60305Y533414D01*
G37*
G36*
X535285Y299734D02*
X535285Y299734D01*
X535288Y299731D01*
X536383Y299911D01*
X536389Y299917D01*
X536394Y299914D01*
X537422Y300333D01*
X537426Y300340D01*
X537431Y300338D01*
X538340Y300976D01*
X538343Y300983D01*
X538348Y300983D01*
X539092Y301806D01*
X539093Y301814D01*
X539099Y301815D01*
X539641Y302783D01*
X539640Y302792D01*
X539646Y302794D01*
X539959Y303858D01*
X539956Y303866D01*
X539961Y303869D01*
X540029Y304977D01*
X540025Y304984D01*
X540029Y304987D01*
X539859Y306095D01*
X539853Y306101D01*
X539856Y306106D01*
X539444Y307148D01*
X539437Y307152D01*
X539439Y307157D01*
X538805Y308082D01*
X538797Y308084D01*
X538798Y308090D01*
X537975Y308850D01*
X537966Y308851D01*
X537966Y308857D01*
X536994Y309414D01*
X536986Y309413D01*
X536984Y309419D01*
X535912Y309746D01*
X535904Y309743D01*
X535901Y309748D01*
X534784Y309829D01*
X534781Y309828D01*
X534780Y309829D01*
X522780Y309829D01*
X522777Y309827D01*
X522770Y309827D01*
X522769Y309828D01*
X521825Y309609D01*
X521819Y309603D01*
X521814Y309605D01*
X520942Y309182D01*
X520939Y309174D01*
X520933Y309176D01*
X520177Y308569D01*
X520175Y308561D01*
X520169Y308561D01*
X519568Y307801D01*
X519568Y307792D01*
X519562Y307791D01*
X519144Y306916D01*
X519146Y306908D01*
X519141Y306906D01*
X518929Y305960D01*
X518932Y305953D01*
X518927Y305949D01*
X518931Y304980D01*
X518931Y304979D01*
X518950Y303911D01*
X518955Y303904D01*
X518951Y303900D01*
X519207Y302863D01*
X519214Y302858D01*
X519211Y302852D01*
X519692Y301898D01*
X519699Y301895D01*
X519698Y301889D01*
X520379Y301066D01*
X520387Y301064D01*
X520387Y301058D01*
X521234Y300407D01*
X521242Y300407D01*
X521243Y300401D01*
X522214Y299954D01*
X522222Y299956D01*
X522224Y299951D01*
X523270Y299732D01*
X523277Y299735D01*
X523280Y299731D01*
X535280Y299731D01*
X535285Y299734D01*
G37*
G36*
X535285Y386135D02*
X535285Y386135D01*
X535288Y386131D01*
X536394Y386324D01*
X536399Y386329D01*
X536399Y386330D01*
X536404Y386327D01*
X537439Y386760D01*
X537443Y386767D01*
X537448Y386765D01*
X538361Y387418D01*
X538363Y387426D01*
X538369Y387425D01*
X539113Y388264D01*
X539114Y388273D01*
X539119Y388273D01*
X539658Y389257D01*
X539657Y389265D01*
X539658Y389266D01*
X539662Y389267D01*
X539663Y389269D01*
X539845Y389910D01*
X539969Y390346D01*
X539967Y390351D01*
X539969Y390353D01*
X539967Y390355D01*
X539971Y390357D01*
X540029Y391477D01*
X540026Y391482D01*
X540029Y391486D01*
X539911Y392531D01*
X539905Y392537D01*
X539909Y392542D01*
X539561Y393536D01*
X539554Y393540D01*
X539556Y393545D01*
X538996Y394437D01*
X538989Y394440D01*
X538989Y394445D01*
X538245Y395189D01*
X538237Y395191D01*
X538237Y395196D01*
X537345Y395756D01*
X537337Y395756D01*
X537336Y395761D01*
X536342Y396109D01*
X536334Y396106D01*
X536331Y396111D01*
X535286Y396229D01*
X535282Y396227D01*
X535280Y396229D01*
X523280Y396229D01*
X523277Y396227D01*
X523274Y396227D01*
X523272Y396229D01*
X522276Y396071D01*
X522270Y396065D01*
X522265Y396068D01*
X521329Y395693D01*
X521325Y395686D01*
X521319Y395688D01*
X520490Y395114D01*
X520487Y395106D01*
X520482Y395107D01*
X519801Y394363D01*
X519800Y394354D01*
X519794Y394354D01*
X519296Y393477D01*
X519297Y393469D01*
X519292Y393466D01*
X519104Y392842D01*
X519001Y392501D01*
X519002Y392498D01*
X519001Y392497D01*
X519004Y392493D01*
X518999Y392490D01*
X518931Y391483D01*
X518932Y391481D01*
X518931Y391480D01*
X518940Y390399D01*
X518945Y390392D01*
X518941Y390388D01*
X519191Y389336D01*
X519197Y389331D01*
X519194Y389326D01*
X519671Y388356D01*
X519679Y388353D01*
X519677Y388347D01*
X520358Y387508D01*
X520366Y387506D01*
X520366Y387500D01*
X521217Y386834D01*
X521225Y386833D01*
X521226Y386828D01*
X522203Y386367D01*
X522211Y386369D01*
X522214Y386364D01*
X523269Y386132D01*
X523277Y386135D01*
X523280Y386131D01*
X535280Y386131D01*
X535285Y386135D01*
G37*
G36*
X1010265Y1087175D02*
X1010265Y1087175D01*
X1010268Y1087171D01*
X1011374Y1087364D01*
X1011379Y1087369D01*
X1011379Y1087370D01*
X1011384Y1087367D01*
X1012419Y1087800D01*
X1012423Y1087807D01*
X1012428Y1087805D01*
X1013341Y1088458D01*
X1013343Y1088466D01*
X1013349Y1088465D01*
X1014093Y1089304D01*
X1014094Y1089313D01*
X1014099Y1089313D01*
X1014638Y1090297D01*
X1014637Y1090305D01*
X1014638Y1090306D01*
X1014642Y1090307D01*
X1014643Y1090309D01*
X1014825Y1090950D01*
X1014949Y1091386D01*
X1014947Y1091391D01*
X1014949Y1091393D01*
X1014947Y1091395D01*
X1014951Y1091397D01*
X1015009Y1092517D01*
X1015006Y1092522D01*
X1015009Y1092526D01*
X1014891Y1093571D01*
X1014885Y1093577D01*
X1014889Y1093582D01*
X1014541Y1094576D01*
X1014534Y1094580D01*
X1014536Y1094585D01*
X1013976Y1095477D01*
X1013969Y1095480D01*
X1013969Y1095485D01*
X1013225Y1096229D01*
X1013217Y1096231D01*
X1013217Y1096236D01*
X1012325Y1096796D01*
X1012317Y1096796D01*
X1012316Y1096801D01*
X1011322Y1097149D01*
X1011314Y1097146D01*
X1011311Y1097151D01*
X1010266Y1097269D01*
X1010262Y1097267D01*
X1010260Y1097269D01*
X998260Y1097269D01*
X998257Y1097267D01*
X998254Y1097267D01*
X998252Y1097269D01*
X997256Y1097111D01*
X997250Y1097105D01*
X997245Y1097108D01*
X996309Y1096733D01*
X996305Y1096726D01*
X996299Y1096728D01*
X995470Y1096154D01*
X995467Y1096146D01*
X995462Y1096147D01*
X994781Y1095403D01*
X994780Y1095394D01*
X994774Y1095394D01*
X994276Y1094517D01*
X994277Y1094509D01*
X994272Y1094506D01*
X994084Y1093882D01*
X993981Y1093541D01*
X993982Y1093538D01*
X993981Y1093537D01*
X993984Y1093533D01*
X993979Y1093530D01*
X993911Y1092523D01*
X993912Y1092521D01*
X993911Y1092520D01*
X993920Y1091439D01*
X993925Y1091432D01*
X993921Y1091428D01*
X994171Y1090376D01*
X994177Y1090371D01*
X994174Y1090366D01*
X994651Y1089396D01*
X994659Y1089393D01*
X994657Y1089387D01*
X995338Y1088548D01*
X995346Y1088546D01*
X995346Y1088540D01*
X996197Y1087874D01*
X996205Y1087873D01*
X996206Y1087868D01*
X997183Y1087407D01*
X997191Y1087409D01*
X997194Y1087404D01*
X998249Y1087172D01*
X998257Y1087175D01*
X998260Y1087171D01*
X1010260Y1087171D01*
X1010265Y1087175D01*
G37*
G36*
X535285Y1087175D02*
X535285Y1087175D01*
X535288Y1087171D01*
X536394Y1087364D01*
X536399Y1087369D01*
X536399Y1087370D01*
X536404Y1087367D01*
X537439Y1087800D01*
X537443Y1087807D01*
X537448Y1087805D01*
X538361Y1088458D01*
X538363Y1088466D01*
X538369Y1088465D01*
X539113Y1089304D01*
X539114Y1089313D01*
X539119Y1089313D01*
X539658Y1090297D01*
X539657Y1090305D01*
X539658Y1090306D01*
X539662Y1090307D01*
X539663Y1090309D01*
X539845Y1090950D01*
X539969Y1091386D01*
X539967Y1091391D01*
X539969Y1091393D01*
X539967Y1091395D01*
X539971Y1091397D01*
X540029Y1092517D01*
X540026Y1092522D01*
X540029Y1092526D01*
X539911Y1093571D01*
X539905Y1093577D01*
X539909Y1093582D01*
X539561Y1094576D01*
X539554Y1094580D01*
X539556Y1094585D01*
X538996Y1095477D01*
X538989Y1095480D01*
X538989Y1095485D01*
X538245Y1096229D01*
X538237Y1096231D01*
X538237Y1096236D01*
X537345Y1096796D01*
X537337Y1096796D01*
X537336Y1096801D01*
X536342Y1097149D01*
X536334Y1097146D01*
X536331Y1097151D01*
X535286Y1097269D01*
X535282Y1097267D01*
X535280Y1097269D01*
X523280Y1097269D01*
X523277Y1097267D01*
X523274Y1097267D01*
X523272Y1097269D01*
X522276Y1097111D01*
X522270Y1097105D01*
X522265Y1097108D01*
X521329Y1096733D01*
X521325Y1096726D01*
X521319Y1096728D01*
X520490Y1096154D01*
X520487Y1096146D01*
X520482Y1096147D01*
X519801Y1095403D01*
X519800Y1095394D01*
X519794Y1095394D01*
X519296Y1094517D01*
X519297Y1094509D01*
X519292Y1094506D01*
X519104Y1093882D01*
X519001Y1093541D01*
X519002Y1093538D01*
X519001Y1093537D01*
X519004Y1093533D01*
X518999Y1093530D01*
X518931Y1092523D01*
X518932Y1092521D01*
X518931Y1092520D01*
X518940Y1091439D01*
X518945Y1091432D01*
X518941Y1091428D01*
X519191Y1090376D01*
X519197Y1090371D01*
X519194Y1090366D01*
X519671Y1089396D01*
X519679Y1089393D01*
X519677Y1089387D01*
X520358Y1088548D01*
X520366Y1088546D01*
X520366Y1088540D01*
X521217Y1087874D01*
X521225Y1087873D01*
X521226Y1087868D01*
X522203Y1087407D01*
X522211Y1087409D01*
X522214Y1087404D01*
X523269Y1087172D01*
X523277Y1087175D01*
X523280Y1087171D01*
X535280Y1087171D01*
X535285Y1087175D01*
G37*
G36*
X60305Y1087175D02*
X60305Y1087175D01*
X60308Y1087171D01*
X61414Y1087364D01*
X61419Y1087369D01*
X61419Y1087370D01*
X61424Y1087367D01*
X62459Y1087800D01*
X62463Y1087807D01*
X62468Y1087805D01*
X63381Y1088458D01*
X63383Y1088466D01*
X63389Y1088465D01*
X64133Y1089304D01*
X64134Y1089313D01*
X64139Y1089313D01*
X64678Y1090297D01*
X64677Y1090305D01*
X64678Y1090306D01*
X64682Y1090307D01*
X64683Y1090309D01*
X64865Y1090950D01*
X64989Y1091386D01*
X64987Y1091391D01*
X64989Y1091393D01*
X64987Y1091395D01*
X64991Y1091397D01*
X65049Y1092517D01*
X65046Y1092522D01*
X65049Y1092526D01*
X64931Y1093571D01*
X64925Y1093577D01*
X64929Y1093582D01*
X64581Y1094576D01*
X64574Y1094580D01*
X64576Y1094585D01*
X64016Y1095477D01*
X64009Y1095480D01*
X64009Y1095485D01*
X63265Y1096229D01*
X63257Y1096231D01*
X63257Y1096236D01*
X62365Y1096796D01*
X62357Y1096796D01*
X62356Y1096801D01*
X61362Y1097149D01*
X61354Y1097146D01*
X61351Y1097151D01*
X60306Y1097269D01*
X60302Y1097267D01*
X60300Y1097269D01*
X48300Y1097269D01*
X48297Y1097267D01*
X48294Y1097267D01*
X48292Y1097269D01*
X47296Y1097111D01*
X47290Y1097105D01*
X47285Y1097108D01*
X46349Y1096733D01*
X46345Y1096726D01*
X46339Y1096728D01*
X45510Y1096154D01*
X45507Y1096146D01*
X45502Y1096147D01*
X44821Y1095403D01*
X44820Y1095394D01*
X44814Y1095394D01*
X44316Y1094517D01*
X44317Y1094509D01*
X44312Y1094506D01*
X44124Y1093882D01*
X44021Y1093541D01*
X44022Y1093538D01*
X44021Y1093537D01*
X44024Y1093533D01*
X44019Y1093530D01*
X43951Y1092523D01*
X43952Y1092521D01*
X43951Y1092520D01*
X43960Y1091439D01*
X43965Y1091432D01*
X43961Y1091428D01*
X44211Y1090376D01*
X44217Y1090371D01*
X44214Y1090366D01*
X44691Y1089396D01*
X44699Y1089393D01*
X44697Y1089387D01*
X45378Y1088548D01*
X45386Y1088546D01*
X45386Y1088540D01*
X46237Y1087874D01*
X46245Y1087873D01*
X46246Y1087868D01*
X47223Y1087407D01*
X47231Y1087409D01*
X47234Y1087404D01*
X48289Y1087172D01*
X48297Y1087175D01*
X48300Y1087171D01*
X60300Y1087171D01*
X60305Y1087175D01*
G37*
G36*
X535285Y152455D02*
X535285Y152455D01*
X535288Y152451D01*
X536394Y152644D01*
X536399Y152649D01*
X536399Y152650D01*
X536404Y152647D01*
X537439Y153080D01*
X537443Y153087D01*
X537448Y153085D01*
X538361Y153738D01*
X538363Y153746D01*
X538369Y153745D01*
X539113Y154584D01*
X539114Y154593D01*
X539119Y154593D01*
X539658Y155577D01*
X539657Y155585D01*
X539658Y155586D01*
X539662Y155587D01*
X539663Y155589D01*
X539845Y156230D01*
X539969Y156666D01*
X539967Y156671D01*
X539969Y156673D01*
X539967Y156675D01*
X539971Y156677D01*
X540029Y157797D01*
X540026Y157802D01*
X540029Y157806D01*
X539911Y158851D01*
X539905Y158857D01*
X539909Y158862D01*
X539561Y159856D01*
X539554Y159860D01*
X539556Y159865D01*
X538996Y160757D01*
X538989Y160760D01*
X538989Y160765D01*
X538245Y161509D01*
X538237Y161511D01*
X538237Y161516D01*
X537345Y162076D01*
X537337Y162076D01*
X537336Y162081D01*
X536342Y162429D01*
X536334Y162426D01*
X536331Y162431D01*
X535286Y162549D01*
X535282Y162547D01*
X535280Y162549D01*
X523280Y162549D01*
X523277Y162547D01*
X523274Y162547D01*
X523272Y162549D01*
X522276Y162391D01*
X522270Y162385D01*
X522265Y162388D01*
X521329Y162013D01*
X521325Y162006D01*
X521319Y162008D01*
X520490Y161434D01*
X520487Y161426D01*
X520482Y161427D01*
X519801Y160683D01*
X519800Y160674D01*
X519794Y160674D01*
X519296Y159797D01*
X519297Y159789D01*
X519292Y159786D01*
X519104Y159162D01*
X519001Y158821D01*
X519002Y158818D01*
X519001Y158817D01*
X519004Y158813D01*
X518999Y158810D01*
X518931Y157803D01*
X518932Y157801D01*
X518931Y157800D01*
X518940Y156719D01*
X518945Y156712D01*
X518941Y156708D01*
X519191Y155656D01*
X519197Y155651D01*
X519194Y155646D01*
X519671Y154676D01*
X519679Y154673D01*
X519677Y154667D01*
X520358Y153828D01*
X520366Y153826D01*
X520366Y153820D01*
X521217Y153154D01*
X521225Y153153D01*
X521226Y153148D01*
X522203Y152687D01*
X522211Y152689D01*
X522214Y152684D01*
X523269Y152452D01*
X523277Y152455D01*
X523280Y152451D01*
X535280Y152451D01*
X535285Y152455D01*
G37*
G36*
X60305Y619815D02*
X60305Y619815D01*
X60308Y619811D01*
X61414Y620004D01*
X61419Y620009D01*
X61419Y620010D01*
X61424Y620007D01*
X62459Y620440D01*
X62463Y620447D01*
X62468Y620445D01*
X63381Y621098D01*
X63383Y621106D01*
X63389Y621105D01*
X64133Y621944D01*
X64134Y621953D01*
X64139Y621953D01*
X64678Y622937D01*
X64677Y622945D01*
X64678Y622946D01*
X64682Y622947D01*
X64683Y622949D01*
X64865Y623590D01*
X64989Y624026D01*
X64987Y624031D01*
X64989Y624033D01*
X64987Y624035D01*
X64991Y624037D01*
X65049Y625157D01*
X65046Y625162D01*
X65049Y625166D01*
X64931Y626211D01*
X64925Y626217D01*
X64929Y626222D01*
X64581Y627216D01*
X64574Y627220D01*
X64576Y627225D01*
X64016Y628117D01*
X64009Y628120D01*
X64009Y628125D01*
X63265Y628869D01*
X63257Y628871D01*
X63257Y628876D01*
X62365Y629436D01*
X62357Y629436D01*
X62356Y629441D01*
X61362Y629789D01*
X61354Y629786D01*
X61351Y629791D01*
X60306Y629909D01*
X60302Y629907D01*
X60300Y629909D01*
X48300Y629909D01*
X48297Y629907D01*
X48294Y629907D01*
X48292Y629909D01*
X47296Y629751D01*
X47290Y629745D01*
X47285Y629748D01*
X46349Y629373D01*
X46345Y629366D01*
X46339Y629368D01*
X45510Y628794D01*
X45507Y628786D01*
X45502Y628787D01*
X44821Y628043D01*
X44820Y628034D01*
X44814Y628034D01*
X44316Y627157D01*
X44317Y627149D01*
X44312Y627146D01*
X44124Y626522D01*
X44021Y626181D01*
X44022Y626178D01*
X44021Y626177D01*
X44024Y626173D01*
X44019Y626170D01*
X43951Y625163D01*
X43952Y625161D01*
X43951Y625160D01*
X43960Y624079D01*
X43965Y624072D01*
X43961Y624068D01*
X44211Y623016D01*
X44217Y623011D01*
X44214Y623006D01*
X44691Y622036D01*
X44699Y622033D01*
X44697Y622027D01*
X45378Y621188D01*
X45386Y621186D01*
X45386Y621180D01*
X46237Y620514D01*
X46245Y620513D01*
X46246Y620508D01*
X47223Y620047D01*
X47231Y620049D01*
X47234Y620044D01*
X48289Y619812D01*
X48297Y619815D01*
X48300Y619811D01*
X60300Y619811D01*
X60305Y619815D01*
G37*
G36*
X535285Y619815D02*
X535285Y619815D01*
X535288Y619811D01*
X536394Y620004D01*
X536399Y620009D01*
X536399Y620010D01*
X536404Y620007D01*
X537439Y620440D01*
X537443Y620447D01*
X537448Y620445D01*
X538361Y621098D01*
X538363Y621106D01*
X538369Y621105D01*
X539113Y621944D01*
X539114Y621953D01*
X539119Y621953D01*
X539658Y622937D01*
X539657Y622945D01*
X539658Y622946D01*
X539662Y622947D01*
X539663Y622949D01*
X539845Y623590D01*
X539969Y624026D01*
X539967Y624031D01*
X539969Y624033D01*
X539967Y624035D01*
X539971Y624037D01*
X540029Y625157D01*
X540026Y625162D01*
X540029Y625166D01*
X539911Y626211D01*
X539905Y626217D01*
X539909Y626222D01*
X539561Y627216D01*
X539554Y627220D01*
X539556Y627225D01*
X538996Y628117D01*
X538989Y628120D01*
X538989Y628125D01*
X538245Y628869D01*
X538237Y628871D01*
X538237Y628876D01*
X537345Y629436D01*
X537337Y629436D01*
X537336Y629441D01*
X536342Y629789D01*
X536334Y629786D01*
X536331Y629791D01*
X535286Y629909D01*
X535282Y629907D01*
X535280Y629909D01*
X523280Y629909D01*
X523277Y629907D01*
X523274Y629907D01*
X523272Y629909D01*
X522276Y629751D01*
X522270Y629745D01*
X522265Y629748D01*
X521329Y629373D01*
X521325Y629366D01*
X521319Y629368D01*
X520490Y628794D01*
X520487Y628786D01*
X520482Y628787D01*
X519801Y628043D01*
X519800Y628034D01*
X519794Y628034D01*
X519296Y627157D01*
X519297Y627149D01*
X519292Y627146D01*
X519104Y626522D01*
X519001Y626181D01*
X519002Y626178D01*
X519001Y626177D01*
X519004Y626173D01*
X518999Y626170D01*
X518931Y625163D01*
X518932Y625161D01*
X518931Y625160D01*
X518940Y624079D01*
X518945Y624072D01*
X518941Y624068D01*
X519191Y623016D01*
X519197Y623011D01*
X519194Y623006D01*
X519671Y622036D01*
X519679Y622033D01*
X519677Y622027D01*
X520358Y621188D01*
X520366Y621186D01*
X520366Y621180D01*
X521217Y620514D01*
X521225Y620513D01*
X521226Y620508D01*
X522203Y620047D01*
X522211Y620049D01*
X522214Y620044D01*
X523269Y619812D01*
X523277Y619815D01*
X523280Y619811D01*
X535280Y619811D01*
X535285Y619815D01*
G37*
G36*
X1010265Y386135D02*
X1010265Y386135D01*
X1010268Y386131D01*
X1011374Y386324D01*
X1011379Y386329D01*
X1011379Y386330D01*
X1011384Y386327D01*
X1012419Y386760D01*
X1012423Y386767D01*
X1012428Y386765D01*
X1013341Y387418D01*
X1013343Y387426D01*
X1013349Y387425D01*
X1014093Y388264D01*
X1014094Y388273D01*
X1014099Y388273D01*
X1014638Y389257D01*
X1014637Y389265D01*
X1014638Y389266D01*
X1014642Y389267D01*
X1014643Y389269D01*
X1014825Y389910D01*
X1014949Y390346D01*
X1014947Y390351D01*
X1014949Y390353D01*
X1014947Y390355D01*
X1014951Y390357D01*
X1015009Y391477D01*
X1015006Y391482D01*
X1015009Y391486D01*
X1014891Y392531D01*
X1014885Y392537D01*
X1014889Y392542D01*
X1014541Y393536D01*
X1014534Y393540D01*
X1014536Y393545D01*
X1013976Y394437D01*
X1013969Y394440D01*
X1013969Y394445D01*
X1013225Y395189D01*
X1013217Y395191D01*
X1013217Y395196D01*
X1012325Y395756D01*
X1012317Y395756D01*
X1012316Y395761D01*
X1011322Y396109D01*
X1011314Y396106D01*
X1011311Y396111D01*
X1010266Y396229D01*
X1010262Y396227D01*
X1010260Y396229D01*
X998260Y396229D01*
X998257Y396227D01*
X998254Y396227D01*
X998252Y396229D01*
X997256Y396071D01*
X997250Y396065D01*
X997245Y396068D01*
X996309Y395693D01*
X996305Y395686D01*
X996299Y395688D01*
X995470Y395114D01*
X995467Y395106D01*
X995462Y395107D01*
X994781Y394363D01*
X994780Y394354D01*
X994774Y394354D01*
X994276Y393477D01*
X994277Y393469D01*
X994272Y393466D01*
X994084Y392842D01*
X993981Y392501D01*
X993982Y392498D01*
X993981Y392497D01*
X993984Y392493D01*
X993979Y392490D01*
X993911Y391483D01*
X993912Y391481D01*
X993911Y391480D01*
X993920Y390399D01*
X993925Y390392D01*
X993921Y390388D01*
X994171Y389336D01*
X994177Y389331D01*
X994174Y389326D01*
X994651Y388356D01*
X994659Y388353D01*
X994657Y388347D01*
X995338Y387508D01*
X995346Y387506D01*
X995346Y387500D01*
X996197Y386834D01*
X996205Y386833D01*
X996206Y386828D01*
X997183Y386367D01*
X997191Y386369D01*
X997194Y386364D01*
X998249Y386132D01*
X998257Y386135D01*
X998260Y386131D01*
X1010260Y386131D01*
X1010265Y386135D01*
G37*
G36*
X1010265Y152455D02*
X1010265Y152455D01*
X1010268Y152451D01*
X1011374Y152644D01*
X1011379Y152649D01*
X1011379Y152650D01*
X1011384Y152647D01*
X1012419Y153080D01*
X1012423Y153087D01*
X1012428Y153085D01*
X1013341Y153738D01*
X1013343Y153746D01*
X1013349Y153745D01*
X1014093Y154584D01*
X1014094Y154593D01*
X1014099Y154593D01*
X1014638Y155577D01*
X1014637Y155585D01*
X1014638Y155586D01*
X1014642Y155587D01*
X1014643Y155589D01*
X1014825Y156230D01*
X1014949Y156666D01*
X1014947Y156671D01*
X1014949Y156673D01*
X1014947Y156675D01*
X1014951Y156677D01*
X1015009Y157797D01*
X1015006Y157802D01*
X1015009Y157806D01*
X1014891Y158851D01*
X1014885Y158857D01*
X1014889Y158862D01*
X1014541Y159856D01*
X1014534Y159860D01*
X1014536Y159865D01*
X1013976Y160757D01*
X1013969Y160760D01*
X1013969Y160765D01*
X1013225Y161509D01*
X1013217Y161511D01*
X1013217Y161516D01*
X1012325Y162076D01*
X1012317Y162076D01*
X1012316Y162081D01*
X1011322Y162429D01*
X1011314Y162426D01*
X1011311Y162431D01*
X1010266Y162549D01*
X1010262Y162547D01*
X1010260Y162549D01*
X998260Y162549D01*
X998257Y162547D01*
X998254Y162547D01*
X998252Y162549D01*
X997256Y162391D01*
X997250Y162385D01*
X997245Y162388D01*
X996309Y162013D01*
X996305Y162006D01*
X996299Y162008D01*
X995470Y161434D01*
X995467Y161426D01*
X995462Y161427D01*
X994781Y160683D01*
X994780Y160674D01*
X994774Y160674D01*
X994276Y159797D01*
X994277Y159789D01*
X994272Y159786D01*
X994084Y159162D01*
X993981Y158821D01*
X993982Y158818D01*
X993981Y158817D01*
X993984Y158813D01*
X993979Y158810D01*
X993911Y157803D01*
X993912Y157801D01*
X993911Y157800D01*
X993920Y156719D01*
X993925Y156712D01*
X993921Y156708D01*
X994171Y155656D01*
X994177Y155651D01*
X994174Y155646D01*
X994651Y154676D01*
X994659Y154673D01*
X994657Y154667D01*
X995338Y153828D01*
X995346Y153826D01*
X995346Y153820D01*
X996197Y153154D01*
X996205Y153153D01*
X996206Y153148D01*
X997183Y152687D01*
X997191Y152689D01*
X997194Y152684D01*
X998249Y152452D01*
X998257Y152455D01*
X998260Y152451D01*
X1010260Y152451D01*
X1010265Y152455D01*
G37*
G36*
X1010265Y853495D02*
X1010265Y853495D01*
X1010268Y853491D01*
X1011374Y853684D01*
X1011379Y853689D01*
X1011379Y853690D01*
X1011384Y853687D01*
X1012419Y854120D01*
X1012423Y854127D01*
X1012428Y854125D01*
X1013341Y854778D01*
X1013343Y854786D01*
X1013349Y854785D01*
X1014093Y855624D01*
X1014094Y855633D01*
X1014099Y855633D01*
X1014638Y856617D01*
X1014637Y856625D01*
X1014638Y856626D01*
X1014642Y856627D01*
X1014643Y856629D01*
X1014825Y857270D01*
X1014949Y857706D01*
X1014947Y857711D01*
X1014949Y857713D01*
X1014947Y857715D01*
X1014951Y857717D01*
X1015009Y858837D01*
X1015006Y858842D01*
X1015009Y858846D01*
X1014891Y859891D01*
X1014885Y859897D01*
X1014889Y859902D01*
X1014541Y860896D01*
X1014534Y860900D01*
X1014536Y860905D01*
X1013976Y861797D01*
X1013969Y861800D01*
X1013969Y861805D01*
X1013225Y862549D01*
X1013217Y862551D01*
X1013217Y862556D01*
X1012325Y863116D01*
X1012317Y863116D01*
X1012316Y863121D01*
X1011322Y863469D01*
X1011314Y863466D01*
X1011311Y863471D01*
X1010266Y863589D01*
X1010262Y863587D01*
X1010260Y863589D01*
X998260Y863589D01*
X998257Y863587D01*
X998254Y863587D01*
X998252Y863589D01*
X997256Y863431D01*
X997250Y863425D01*
X997245Y863428D01*
X996309Y863053D01*
X996305Y863046D01*
X996299Y863048D01*
X995470Y862474D01*
X995467Y862466D01*
X995462Y862467D01*
X994781Y861723D01*
X994780Y861714D01*
X994774Y861714D01*
X994276Y860837D01*
X994277Y860829D01*
X994272Y860826D01*
X994084Y860202D01*
X993981Y859861D01*
X993982Y859858D01*
X993981Y859857D01*
X993984Y859853D01*
X993979Y859850D01*
X993911Y858843D01*
X993912Y858841D01*
X993911Y858840D01*
X993920Y857759D01*
X993925Y857752D01*
X993921Y857748D01*
X994171Y856696D01*
X994177Y856691D01*
X994174Y856686D01*
X994651Y855716D01*
X994659Y855713D01*
X994657Y855707D01*
X995338Y854868D01*
X995346Y854866D01*
X995346Y854860D01*
X996197Y854194D01*
X996205Y854193D01*
X996206Y854188D01*
X997183Y853727D01*
X997191Y853729D01*
X997194Y853724D01*
X998249Y853492D01*
X998257Y853495D01*
X998260Y853491D01*
X1010260Y853491D01*
X1010265Y853495D01*
G37*
G36*
X60305Y152455D02*
X60305Y152455D01*
X60308Y152451D01*
X61414Y152644D01*
X61419Y152649D01*
X61419Y152650D01*
X61424Y152647D01*
X62459Y153080D01*
X62463Y153087D01*
X62468Y153085D01*
X63381Y153738D01*
X63383Y153746D01*
X63389Y153745D01*
X64133Y154584D01*
X64134Y154593D01*
X64139Y154593D01*
X64678Y155577D01*
X64677Y155585D01*
X64678Y155586D01*
X64682Y155587D01*
X64683Y155589D01*
X64865Y156230D01*
X64989Y156666D01*
X64987Y156671D01*
X64989Y156673D01*
X64987Y156675D01*
X64991Y156677D01*
X65049Y157797D01*
X65046Y157802D01*
X65049Y157806D01*
X64931Y158851D01*
X64925Y158857D01*
X64929Y158862D01*
X64581Y159856D01*
X64574Y159860D01*
X64576Y159865D01*
X64016Y160757D01*
X64009Y160760D01*
X64009Y160765D01*
X63265Y161509D01*
X63257Y161511D01*
X63257Y161516D01*
X62365Y162076D01*
X62357Y162076D01*
X62356Y162081D01*
X61362Y162429D01*
X61354Y162426D01*
X61351Y162431D01*
X60306Y162549D01*
X60302Y162547D01*
X60300Y162549D01*
X48300Y162549D01*
X48297Y162547D01*
X48294Y162547D01*
X48292Y162549D01*
X47296Y162391D01*
X47290Y162385D01*
X47285Y162388D01*
X46349Y162013D01*
X46345Y162006D01*
X46339Y162008D01*
X45510Y161434D01*
X45507Y161426D01*
X45502Y161427D01*
X44821Y160683D01*
X44820Y160674D01*
X44814Y160674D01*
X44316Y159797D01*
X44317Y159789D01*
X44312Y159786D01*
X44124Y159162D01*
X44021Y158821D01*
X44022Y158818D01*
X44021Y158817D01*
X44024Y158813D01*
X44019Y158810D01*
X43951Y157803D01*
X43952Y157801D01*
X43951Y157800D01*
X43960Y156719D01*
X43965Y156712D01*
X43961Y156708D01*
X44211Y155656D01*
X44217Y155651D01*
X44214Y155646D01*
X44691Y154676D01*
X44699Y154673D01*
X44697Y154667D01*
X45378Y153828D01*
X45386Y153826D01*
X45386Y153820D01*
X46237Y153154D01*
X46245Y153153D01*
X46246Y153148D01*
X47223Y152687D01*
X47231Y152689D01*
X47234Y152684D01*
X48289Y152452D01*
X48297Y152455D01*
X48300Y152451D01*
X60300Y152451D01*
X60305Y152455D01*
G37*
G36*
X60305Y386135D02*
X60305Y386135D01*
X60308Y386131D01*
X61414Y386324D01*
X61419Y386329D01*
X61419Y386330D01*
X61424Y386327D01*
X62459Y386760D01*
X62463Y386767D01*
X62468Y386765D01*
X63381Y387418D01*
X63383Y387426D01*
X63389Y387425D01*
X64133Y388264D01*
X64134Y388273D01*
X64139Y388273D01*
X64678Y389257D01*
X64677Y389265D01*
X64678Y389266D01*
X64682Y389267D01*
X64683Y389269D01*
X64865Y389910D01*
X64989Y390346D01*
X64987Y390351D01*
X64989Y390353D01*
X64987Y390355D01*
X64991Y390357D01*
X65049Y391477D01*
X65046Y391482D01*
X65049Y391486D01*
X64931Y392531D01*
X64925Y392537D01*
X64929Y392542D01*
X64581Y393536D01*
X64574Y393540D01*
X64576Y393545D01*
X64016Y394437D01*
X64009Y394440D01*
X64009Y394445D01*
X63265Y395189D01*
X63257Y395191D01*
X63257Y395196D01*
X62365Y395756D01*
X62357Y395756D01*
X62356Y395761D01*
X61362Y396109D01*
X61354Y396106D01*
X61351Y396111D01*
X60306Y396229D01*
X60302Y396227D01*
X60300Y396229D01*
X48300Y396229D01*
X48297Y396227D01*
X48294Y396227D01*
X48292Y396229D01*
X47296Y396071D01*
X47290Y396065D01*
X47285Y396068D01*
X46349Y395693D01*
X46345Y395686D01*
X46339Y395688D01*
X45510Y395114D01*
X45507Y395106D01*
X45502Y395107D01*
X44821Y394363D01*
X44820Y394354D01*
X44814Y394354D01*
X44316Y393477D01*
X44317Y393469D01*
X44312Y393466D01*
X44124Y392842D01*
X44021Y392501D01*
X44022Y392498D01*
X44021Y392497D01*
X44024Y392493D01*
X44019Y392490D01*
X43951Y391483D01*
X43952Y391481D01*
X43951Y391480D01*
X43960Y390399D01*
X43965Y390392D01*
X43961Y390388D01*
X44211Y389336D01*
X44217Y389331D01*
X44214Y389326D01*
X44691Y388356D01*
X44699Y388353D01*
X44697Y388347D01*
X45378Y387508D01*
X45386Y387506D01*
X45386Y387500D01*
X46237Y386834D01*
X46245Y386833D01*
X46246Y386828D01*
X47223Y386367D01*
X47231Y386369D01*
X47234Y386364D01*
X48289Y386132D01*
X48297Y386135D01*
X48300Y386131D01*
X60300Y386131D01*
X60305Y386135D01*
G37*
G36*
X60305Y853495D02*
X60305Y853495D01*
X60308Y853491D01*
X61414Y853684D01*
X61419Y853689D01*
X61419Y853690D01*
X61424Y853687D01*
X62459Y854120D01*
X62463Y854127D01*
X62468Y854125D01*
X63381Y854778D01*
X63383Y854786D01*
X63389Y854785D01*
X64133Y855624D01*
X64134Y855633D01*
X64139Y855633D01*
X64678Y856617D01*
X64677Y856625D01*
X64678Y856626D01*
X64682Y856627D01*
X64683Y856629D01*
X64865Y857270D01*
X64989Y857706D01*
X64987Y857711D01*
X64989Y857713D01*
X64987Y857715D01*
X64991Y857717D01*
X65049Y858837D01*
X65046Y858842D01*
X65049Y858846D01*
X64931Y859891D01*
X64925Y859897D01*
X64929Y859902D01*
X64581Y860896D01*
X64574Y860900D01*
X64576Y860905D01*
X64016Y861797D01*
X64009Y861800D01*
X64009Y861805D01*
X63265Y862549D01*
X63257Y862551D01*
X63257Y862556D01*
X62365Y863116D01*
X62357Y863116D01*
X62356Y863121D01*
X61362Y863469D01*
X61354Y863466D01*
X61351Y863471D01*
X60306Y863589D01*
X60302Y863587D01*
X60300Y863589D01*
X48300Y863589D01*
X48297Y863587D01*
X48294Y863587D01*
X48292Y863589D01*
X47296Y863431D01*
X47290Y863425D01*
X47285Y863428D01*
X46349Y863053D01*
X46345Y863046D01*
X46339Y863048D01*
X45510Y862474D01*
X45507Y862466D01*
X45502Y862467D01*
X44821Y861723D01*
X44820Y861714D01*
X44814Y861714D01*
X44316Y860837D01*
X44317Y860829D01*
X44312Y860826D01*
X44124Y860202D01*
X44021Y859861D01*
X44022Y859858D01*
X44021Y859857D01*
X44024Y859853D01*
X44019Y859850D01*
X43951Y858843D01*
X43952Y858841D01*
X43951Y858840D01*
X43960Y857759D01*
X43965Y857752D01*
X43961Y857748D01*
X44211Y856696D01*
X44217Y856691D01*
X44214Y856686D01*
X44691Y855716D01*
X44699Y855713D01*
X44697Y855707D01*
X45378Y854868D01*
X45386Y854866D01*
X45386Y854860D01*
X46237Y854194D01*
X46245Y854193D01*
X46246Y854188D01*
X47223Y853727D01*
X47231Y853729D01*
X47234Y853724D01*
X48289Y853492D01*
X48297Y853495D01*
X48300Y853491D01*
X60300Y853491D01*
X60305Y853495D01*
G37*
G36*
X535285Y853495D02*
X535285Y853495D01*
X535288Y853491D01*
X536394Y853684D01*
X536399Y853689D01*
X536399Y853690D01*
X536404Y853687D01*
X537439Y854120D01*
X537443Y854127D01*
X537448Y854125D01*
X538361Y854778D01*
X538363Y854786D01*
X538369Y854785D01*
X539113Y855624D01*
X539114Y855633D01*
X539119Y855633D01*
X539658Y856617D01*
X539657Y856625D01*
X539658Y856626D01*
X539662Y856627D01*
X539663Y856629D01*
X539845Y857270D01*
X539969Y857706D01*
X539967Y857711D01*
X539969Y857713D01*
X539967Y857715D01*
X539971Y857717D01*
X540029Y858837D01*
X540026Y858842D01*
X540029Y858846D01*
X539911Y859891D01*
X539905Y859897D01*
X539909Y859902D01*
X539561Y860896D01*
X539554Y860900D01*
X539556Y860905D01*
X538996Y861797D01*
X538989Y861800D01*
X538989Y861805D01*
X538245Y862549D01*
X538237Y862551D01*
X538237Y862556D01*
X537345Y863116D01*
X537337Y863116D01*
X537336Y863121D01*
X536342Y863469D01*
X536334Y863466D01*
X536331Y863471D01*
X535286Y863589D01*
X535282Y863587D01*
X535280Y863589D01*
X523280Y863589D01*
X523277Y863587D01*
X523274Y863587D01*
X523272Y863589D01*
X522276Y863431D01*
X522270Y863425D01*
X522265Y863428D01*
X521329Y863053D01*
X521325Y863046D01*
X521319Y863048D01*
X520490Y862474D01*
X520487Y862466D01*
X520482Y862467D01*
X519801Y861723D01*
X519800Y861714D01*
X519794Y861714D01*
X519296Y860837D01*
X519297Y860829D01*
X519292Y860826D01*
X519104Y860202D01*
X519001Y859861D01*
X519002Y859858D01*
X519001Y859857D01*
X519004Y859853D01*
X518999Y859850D01*
X518931Y858843D01*
X518932Y858841D01*
X518931Y858840D01*
X518940Y857759D01*
X518945Y857752D01*
X518941Y857748D01*
X519191Y856696D01*
X519197Y856691D01*
X519194Y856686D01*
X519671Y855716D01*
X519679Y855713D01*
X519677Y855707D01*
X520358Y854868D01*
X520366Y854866D01*
X520366Y854860D01*
X521217Y854194D01*
X521225Y854193D01*
X521226Y854188D01*
X522203Y853727D01*
X522211Y853729D01*
X522214Y853724D01*
X523269Y853492D01*
X523277Y853495D01*
X523280Y853491D01*
X535280Y853491D01*
X535285Y853495D01*
G37*
G36*
X1010265Y619815D02*
X1010265Y619815D01*
X1010268Y619811D01*
X1011374Y620004D01*
X1011379Y620009D01*
X1011379Y620010D01*
X1011384Y620007D01*
X1012419Y620440D01*
X1012423Y620447D01*
X1012428Y620445D01*
X1013341Y621098D01*
X1013343Y621106D01*
X1013349Y621105D01*
X1014093Y621944D01*
X1014094Y621953D01*
X1014099Y621953D01*
X1014638Y622937D01*
X1014637Y622945D01*
X1014638Y622946D01*
X1014642Y622947D01*
X1014643Y622949D01*
X1014825Y623590D01*
X1014949Y624026D01*
X1014947Y624031D01*
X1014949Y624033D01*
X1014947Y624035D01*
X1014951Y624037D01*
X1015009Y625157D01*
X1015006Y625162D01*
X1015009Y625166D01*
X1014891Y626211D01*
X1014885Y626217D01*
X1014889Y626222D01*
X1014541Y627216D01*
X1014534Y627220D01*
X1014536Y627225D01*
X1013976Y628117D01*
X1013969Y628120D01*
X1013969Y628125D01*
X1013225Y628869D01*
X1013217Y628871D01*
X1013217Y628876D01*
X1012325Y629436D01*
X1012317Y629436D01*
X1012316Y629441D01*
X1011322Y629789D01*
X1011314Y629786D01*
X1011311Y629791D01*
X1010266Y629909D01*
X1010262Y629907D01*
X1010260Y629909D01*
X998260Y629909D01*
X998257Y629907D01*
X998254Y629907D01*
X998252Y629909D01*
X997256Y629751D01*
X997250Y629745D01*
X997245Y629748D01*
X996309Y629373D01*
X996305Y629366D01*
X996299Y629368D01*
X995470Y628794D01*
X995467Y628786D01*
X995462Y628787D01*
X994781Y628043D01*
X994780Y628034D01*
X994774Y628034D01*
X994276Y627157D01*
X994277Y627149D01*
X994272Y627146D01*
X994084Y626522D01*
X993981Y626181D01*
X993982Y626178D01*
X993981Y626177D01*
X993984Y626173D01*
X993979Y626170D01*
X993911Y625163D01*
X993912Y625161D01*
X993911Y625160D01*
X993920Y624079D01*
X993925Y624072D01*
X993921Y624068D01*
X994171Y623016D01*
X994177Y623011D01*
X994174Y623006D01*
X994651Y622036D01*
X994659Y622033D01*
X994657Y622027D01*
X995338Y621188D01*
X995346Y621186D01*
X995346Y621180D01*
X996197Y620514D01*
X996205Y620513D01*
X996206Y620508D01*
X997183Y620047D01*
X997191Y620049D01*
X997194Y620044D01*
X998249Y619812D01*
X998257Y619815D01*
X998260Y619811D01*
X1010260Y619811D01*
X1010265Y619815D01*
G37*
G36*
X965464Y1000774D02*
X965464Y1000774D01*
X965466Y1000771D01*
X966599Y1000921D01*
X966605Y1000927D01*
X966610Y1000924D01*
X967680Y1001322D01*
X967684Y1001329D01*
X967690Y1001327D01*
X968645Y1001954D01*
X968648Y1001962D01*
X968653Y1001961D01*
X969445Y1002784D01*
X969446Y1002792D01*
X969452Y1002793D01*
X970041Y1003772D01*
X970040Y1003780D01*
X970045Y1003782D01*
X970401Y1004867D01*
X970399Y1004875D01*
X970403Y1004878D01*
X970509Y1006015D01*
X970504Y1006024D01*
X970508Y1006029D01*
X970301Y1007166D01*
X970295Y1007172D01*
X970298Y1007177D01*
X969843Y1008239D01*
X969836Y1008243D01*
X969838Y1008249D01*
X969158Y1009184D01*
X969150Y1009186D01*
X969151Y1009192D01*
X968280Y1009952D01*
X968272Y1009952D01*
X968271Y1009958D01*
X967252Y1010505D01*
X967244Y1010504D01*
X967242Y1010509D01*
X966128Y1010816D01*
X966120Y1010813D01*
X966117Y1010818D01*
X964962Y1010869D01*
X964961Y1010868D01*
X964960Y1010869D01*
X958960Y1010869D01*
X958957Y1010867D01*
X958952Y1010867D01*
X958951Y1010868D01*
X957870Y1010656D01*
X957865Y1010650D01*
X957860Y1010653D01*
X956854Y1010206D01*
X956850Y1010199D01*
X956844Y1010201D01*
X955963Y1009541D01*
X955960Y1009533D01*
X955955Y1009533D01*
X955242Y1008694D01*
X955242Y1008686D01*
X955236Y1008685D01*
X954728Y1007708D01*
X954729Y1007700D01*
X954724Y1007698D01*
X954446Y1006633D01*
X954449Y1006625D01*
X954445Y1006622D01*
X954411Y1005522D01*
X954415Y1005516D01*
X954411Y1005513D01*
X954566Y1004438D01*
X954572Y1004432D01*
X954569Y1004427D01*
X954959Y1003413D01*
X954966Y1003409D01*
X954965Y1003403D01*
X955571Y1002501D01*
X955579Y1002499D01*
X955578Y1002493D01*
X956370Y1001749D01*
X956378Y1001748D01*
X956378Y1001742D01*
X957316Y1001193D01*
X957324Y1001194D01*
X957326Y1001188D01*
X958362Y1000861D01*
X958370Y1000864D01*
X958373Y1000859D01*
X959456Y1000771D01*
X959459Y1000773D01*
X959460Y1000771D01*
X965460Y1000771D01*
X965464Y1000774D01*
G37*
G36*
X965464Y299734D02*
X965464Y299734D01*
X965466Y299731D01*
X966599Y299881D01*
X966605Y299887D01*
X966610Y299884D01*
X967680Y300282D01*
X967684Y300289D01*
X967690Y300287D01*
X968645Y300914D01*
X968648Y300922D01*
X968653Y300921D01*
X969445Y301744D01*
X969446Y301752D01*
X969452Y301753D01*
X970041Y302732D01*
X970040Y302740D01*
X970045Y302742D01*
X970401Y303827D01*
X970399Y303835D01*
X970403Y303838D01*
X970509Y304975D01*
X970504Y304984D01*
X970508Y304989D01*
X970301Y306126D01*
X970295Y306132D01*
X970298Y306137D01*
X969843Y307199D01*
X969836Y307203D01*
X969838Y307209D01*
X969158Y308144D01*
X969150Y308146D01*
X969151Y308152D01*
X968280Y308912D01*
X968272Y308912D01*
X968271Y308918D01*
X967252Y309465D01*
X967244Y309464D01*
X967242Y309469D01*
X966128Y309776D01*
X966120Y309773D01*
X966117Y309778D01*
X964962Y309829D01*
X964961Y309828D01*
X964960Y309829D01*
X958960Y309829D01*
X958957Y309827D01*
X958952Y309827D01*
X958951Y309828D01*
X957870Y309616D01*
X957865Y309610D01*
X957860Y309613D01*
X956854Y309166D01*
X956850Y309159D01*
X956844Y309161D01*
X955963Y308501D01*
X955960Y308493D01*
X955955Y308493D01*
X955242Y307654D01*
X955242Y307646D01*
X955236Y307645D01*
X954728Y306668D01*
X954729Y306660D01*
X954724Y306658D01*
X954446Y305593D01*
X954449Y305585D01*
X954445Y305582D01*
X954411Y304482D01*
X954415Y304476D01*
X954411Y304473D01*
X954566Y303398D01*
X954572Y303392D01*
X954569Y303387D01*
X954959Y302373D01*
X954966Y302369D01*
X954965Y302363D01*
X955571Y301461D01*
X955579Y301459D01*
X955578Y301453D01*
X956370Y300709D01*
X956378Y300708D01*
X956378Y300702D01*
X957316Y300153D01*
X957324Y300154D01*
X957326Y300148D01*
X958362Y299821D01*
X958370Y299824D01*
X958373Y299819D01*
X959456Y299731D01*
X959459Y299733D01*
X959460Y299731D01*
X965460Y299731D01*
X965464Y299734D01*
G37*
G36*
X15504Y1000774D02*
X15504Y1000774D01*
X15506Y1000771D01*
X16639Y1000921D01*
X16645Y1000927D01*
X16650Y1000924D01*
X17720Y1001322D01*
X17724Y1001329D01*
X17730Y1001327D01*
X18685Y1001954D01*
X18688Y1001962D01*
X18693Y1001961D01*
X19485Y1002784D01*
X19486Y1002792D01*
X19492Y1002793D01*
X20081Y1003772D01*
X20080Y1003780D01*
X20085Y1003782D01*
X20441Y1004867D01*
X20439Y1004875D01*
X20443Y1004878D01*
X20549Y1006015D01*
X20544Y1006024D01*
X20548Y1006029D01*
X20341Y1007166D01*
X20335Y1007172D01*
X20338Y1007177D01*
X19883Y1008239D01*
X19876Y1008243D01*
X19878Y1008249D01*
X19198Y1009184D01*
X19190Y1009186D01*
X19191Y1009192D01*
X18320Y1009952D01*
X18312Y1009952D01*
X18311Y1009958D01*
X17292Y1010505D01*
X17284Y1010504D01*
X17282Y1010509D01*
X16168Y1010816D01*
X16160Y1010813D01*
X16157Y1010818D01*
X15002Y1010869D01*
X15001Y1010868D01*
X15000Y1010869D01*
X9000Y1010869D01*
X8997Y1010867D01*
X8992Y1010867D01*
X8991Y1010868D01*
X7910Y1010656D01*
X7905Y1010650D01*
X7900Y1010653D01*
X6894Y1010206D01*
X6890Y1010199D01*
X6884Y1010201D01*
X6003Y1009541D01*
X6000Y1009533D01*
X5995Y1009533D01*
X5282Y1008694D01*
X5282Y1008686D01*
X5276Y1008685D01*
X4768Y1007708D01*
X4769Y1007700D01*
X4764Y1007698D01*
X4486Y1006633D01*
X4489Y1006625D01*
X4485Y1006622D01*
X4451Y1005522D01*
X4455Y1005516D01*
X4451Y1005513D01*
X4606Y1004438D01*
X4612Y1004432D01*
X4609Y1004427D01*
X4999Y1003413D01*
X5006Y1003409D01*
X5005Y1003403D01*
X5611Y1002501D01*
X5619Y1002499D01*
X5618Y1002493D01*
X6410Y1001749D01*
X6418Y1001748D01*
X6418Y1001742D01*
X7356Y1001193D01*
X7364Y1001194D01*
X7366Y1001188D01*
X8402Y1000861D01*
X8410Y1000864D01*
X8413Y1000859D01*
X9496Y1000771D01*
X9499Y1000773D01*
X9500Y1000771D01*
X15500Y1000771D01*
X15504Y1000774D01*
G37*
G36*
X490484Y1000774D02*
X490484Y1000774D01*
X490486Y1000771D01*
X491619Y1000921D01*
X491625Y1000927D01*
X491630Y1000924D01*
X492700Y1001322D01*
X492704Y1001329D01*
X492710Y1001327D01*
X493665Y1001954D01*
X493668Y1001962D01*
X493673Y1001961D01*
X494465Y1002784D01*
X494466Y1002792D01*
X494472Y1002793D01*
X495061Y1003772D01*
X495060Y1003780D01*
X495065Y1003782D01*
X495421Y1004867D01*
X495419Y1004875D01*
X495423Y1004878D01*
X495529Y1006015D01*
X495524Y1006024D01*
X495528Y1006029D01*
X495321Y1007166D01*
X495315Y1007172D01*
X495318Y1007177D01*
X494863Y1008239D01*
X494856Y1008243D01*
X494858Y1008249D01*
X494178Y1009184D01*
X494170Y1009186D01*
X494171Y1009192D01*
X493300Y1009952D01*
X493292Y1009952D01*
X493291Y1009958D01*
X492272Y1010505D01*
X492264Y1010504D01*
X492262Y1010509D01*
X491148Y1010816D01*
X491140Y1010813D01*
X491137Y1010818D01*
X489982Y1010869D01*
X489981Y1010868D01*
X489980Y1010869D01*
X483980Y1010869D01*
X483977Y1010867D01*
X483972Y1010867D01*
X483971Y1010868D01*
X482890Y1010656D01*
X482885Y1010650D01*
X482880Y1010653D01*
X481874Y1010206D01*
X481870Y1010199D01*
X481864Y1010201D01*
X480983Y1009541D01*
X480980Y1009533D01*
X480975Y1009533D01*
X480262Y1008694D01*
X480262Y1008686D01*
X480256Y1008685D01*
X479748Y1007708D01*
X479749Y1007700D01*
X479744Y1007698D01*
X479466Y1006633D01*
X479469Y1006625D01*
X479465Y1006622D01*
X479431Y1005522D01*
X479435Y1005516D01*
X479431Y1005513D01*
X479586Y1004438D01*
X479592Y1004432D01*
X479589Y1004427D01*
X479979Y1003413D01*
X479986Y1003409D01*
X479985Y1003403D01*
X480591Y1002501D01*
X480599Y1002499D01*
X480598Y1002493D01*
X481390Y1001749D01*
X481398Y1001748D01*
X481398Y1001742D01*
X482336Y1001193D01*
X482344Y1001194D01*
X482346Y1001188D01*
X483382Y1000861D01*
X483390Y1000864D01*
X483393Y1000859D01*
X484476Y1000771D01*
X484479Y1000773D01*
X484480Y1000771D01*
X490480Y1000771D01*
X490484Y1000774D01*
G37*
G36*
X490484Y767094D02*
X490484Y767094D01*
X490486Y767091D01*
X491619Y767241D01*
X491625Y767247D01*
X491630Y767244D01*
X492700Y767642D01*
X492704Y767649D01*
X492710Y767647D01*
X493665Y768274D01*
X493668Y768282D01*
X493673Y768281D01*
X494465Y769104D01*
X494466Y769112D01*
X494472Y769113D01*
X495061Y770092D01*
X495060Y770100D01*
X495065Y770102D01*
X495421Y771187D01*
X495419Y771195D01*
X495423Y771198D01*
X495529Y772335D01*
X495524Y772344D01*
X495528Y772349D01*
X495321Y773486D01*
X495315Y773492D01*
X495318Y773497D01*
X494863Y774559D01*
X494856Y774563D01*
X494858Y774569D01*
X494178Y775504D01*
X494170Y775506D01*
X494171Y775512D01*
X493300Y776272D01*
X493292Y776272D01*
X493291Y776278D01*
X492272Y776825D01*
X492264Y776824D01*
X492262Y776829D01*
X491148Y777136D01*
X491140Y777133D01*
X491137Y777138D01*
X489982Y777189D01*
X489981Y777188D01*
X489980Y777189D01*
X483980Y777189D01*
X483977Y777187D01*
X483972Y777187D01*
X483971Y777188D01*
X482890Y776976D01*
X482885Y776970D01*
X482880Y776973D01*
X481874Y776526D01*
X481870Y776519D01*
X481864Y776521D01*
X480983Y775861D01*
X480980Y775853D01*
X480975Y775853D01*
X480262Y775014D01*
X480262Y775006D01*
X480256Y775005D01*
X479748Y774028D01*
X479749Y774020D01*
X479744Y774018D01*
X479466Y772953D01*
X479469Y772945D01*
X479465Y772942D01*
X479431Y771842D01*
X479435Y771836D01*
X479431Y771833D01*
X479586Y770758D01*
X479592Y770752D01*
X479589Y770747D01*
X479979Y769733D01*
X479986Y769729D01*
X479985Y769723D01*
X480591Y768821D01*
X480599Y768819D01*
X480598Y768813D01*
X481390Y768069D01*
X481398Y768068D01*
X481398Y768062D01*
X482336Y767513D01*
X482344Y767514D01*
X482346Y767508D01*
X483382Y767181D01*
X483390Y767184D01*
X483393Y767179D01*
X484476Y767091D01*
X484479Y767093D01*
X484480Y767091D01*
X490480Y767091D01*
X490484Y767094D01*
G37*
G36*
X15504Y767094D02*
X15504Y767094D01*
X15506Y767091D01*
X16639Y767241D01*
X16645Y767247D01*
X16650Y767244D01*
X17720Y767642D01*
X17724Y767649D01*
X17730Y767647D01*
X18685Y768274D01*
X18688Y768282D01*
X18693Y768281D01*
X19485Y769104D01*
X19486Y769112D01*
X19492Y769113D01*
X20081Y770092D01*
X20080Y770100D01*
X20085Y770102D01*
X20441Y771187D01*
X20439Y771195D01*
X20443Y771198D01*
X20549Y772335D01*
X20544Y772344D01*
X20548Y772349D01*
X20341Y773486D01*
X20335Y773492D01*
X20338Y773497D01*
X19883Y774559D01*
X19876Y774563D01*
X19878Y774569D01*
X19198Y775504D01*
X19190Y775506D01*
X19191Y775512D01*
X18320Y776272D01*
X18312Y776272D01*
X18311Y776278D01*
X17292Y776825D01*
X17284Y776824D01*
X17282Y776829D01*
X16168Y777136D01*
X16160Y777133D01*
X16157Y777138D01*
X15002Y777189D01*
X15001Y777188D01*
X15000Y777189D01*
X9000Y777189D01*
X8997Y777187D01*
X8992Y777187D01*
X8991Y777188D01*
X7910Y776976D01*
X7905Y776970D01*
X7900Y776973D01*
X6894Y776526D01*
X6890Y776519D01*
X6884Y776521D01*
X6003Y775861D01*
X6000Y775853D01*
X5995Y775853D01*
X5282Y775014D01*
X5282Y775006D01*
X5276Y775005D01*
X4768Y774028D01*
X4769Y774020D01*
X4764Y774018D01*
X4486Y772953D01*
X4489Y772945D01*
X4485Y772942D01*
X4451Y771842D01*
X4455Y771836D01*
X4451Y771833D01*
X4606Y770758D01*
X4612Y770752D01*
X4609Y770747D01*
X4999Y769733D01*
X5006Y769729D01*
X5005Y769723D01*
X5611Y768821D01*
X5619Y768819D01*
X5618Y768813D01*
X6410Y768069D01*
X6418Y768068D01*
X6418Y768062D01*
X7356Y767513D01*
X7364Y767514D01*
X7366Y767508D01*
X8402Y767181D01*
X8410Y767184D01*
X8413Y767179D01*
X9496Y767091D01*
X9499Y767093D01*
X9500Y767091D01*
X15500Y767091D01*
X15504Y767094D01*
G37*
G36*
X965464Y767094D02*
X965464Y767094D01*
X965466Y767091D01*
X966599Y767241D01*
X966605Y767247D01*
X966610Y767244D01*
X967680Y767642D01*
X967684Y767649D01*
X967690Y767647D01*
X968645Y768274D01*
X968648Y768282D01*
X968653Y768281D01*
X969445Y769104D01*
X969446Y769112D01*
X969452Y769113D01*
X970041Y770092D01*
X970040Y770100D01*
X970045Y770102D01*
X970401Y771187D01*
X970399Y771195D01*
X970403Y771198D01*
X970509Y772335D01*
X970504Y772344D01*
X970508Y772349D01*
X970301Y773486D01*
X970295Y773492D01*
X970298Y773497D01*
X969843Y774559D01*
X969836Y774563D01*
X969838Y774569D01*
X969158Y775504D01*
X969150Y775506D01*
X969151Y775512D01*
X968280Y776272D01*
X968272Y776272D01*
X968271Y776278D01*
X967252Y776825D01*
X967244Y776824D01*
X967242Y776829D01*
X966128Y777136D01*
X966120Y777133D01*
X966117Y777138D01*
X964962Y777189D01*
X964961Y777188D01*
X964960Y777189D01*
X958960Y777189D01*
X958957Y777187D01*
X958952Y777187D01*
X958951Y777188D01*
X957870Y776976D01*
X957865Y776970D01*
X957860Y776973D01*
X956854Y776526D01*
X956850Y776519D01*
X956844Y776521D01*
X955963Y775861D01*
X955960Y775853D01*
X955955Y775853D01*
X955242Y775014D01*
X955242Y775006D01*
X955236Y775005D01*
X954728Y774028D01*
X954729Y774020D01*
X954724Y774018D01*
X954446Y772953D01*
X954449Y772945D01*
X954445Y772942D01*
X954411Y771842D01*
X954415Y771836D01*
X954411Y771833D01*
X954566Y770758D01*
X954572Y770752D01*
X954569Y770747D01*
X954959Y769733D01*
X954966Y769729D01*
X954965Y769723D01*
X955571Y768821D01*
X955579Y768819D01*
X955578Y768813D01*
X956370Y768069D01*
X956378Y768068D01*
X956378Y768062D01*
X957316Y767513D01*
X957324Y767514D01*
X957326Y767508D01*
X958362Y767181D01*
X958370Y767184D01*
X958373Y767179D01*
X959456Y767091D01*
X959459Y767093D01*
X959460Y767091D01*
X965460Y767091D01*
X965464Y767094D01*
G37*
G36*
X15504Y66054D02*
X15504Y66054D01*
X15506Y66051D01*
X16639Y66201D01*
X16645Y66207D01*
X16650Y66204D01*
X17720Y66602D01*
X17724Y66609D01*
X17730Y66607D01*
X18685Y67234D01*
X18688Y67242D01*
X18693Y67241D01*
X19485Y68064D01*
X19486Y68072D01*
X19492Y68073D01*
X20081Y69052D01*
X20080Y69060D01*
X20085Y69062D01*
X20441Y70147D01*
X20439Y70155D01*
X20443Y70158D01*
X20549Y71295D01*
X20544Y71304D01*
X20548Y71309D01*
X20341Y72446D01*
X20335Y72452D01*
X20338Y72457D01*
X19883Y73519D01*
X19876Y73523D01*
X19878Y73529D01*
X19198Y74464D01*
X19190Y74466D01*
X19191Y74472D01*
X18320Y75232D01*
X18312Y75232D01*
X18311Y75238D01*
X17292Y75785D01*
X17284Y75784D01*
X17282Y75789D01*
X16168Y76096D01*
X16160Y76093D01*
X16157Y76098D01*
X15002Y76149D01*
X15001Y76148D01*
X15000Y76149D01*
X9000Y76149D01*
X8997Y76147D01*
X8992Y76147D01*
X8991Y76148D01*
X7910Y75936D01*
X7905Y75930D01*
X7900Y75933D01*
X6894Y75486D01*
X6890Y75479D01*
X6884Y75481D01*
X6003Y74821D01*
X6000Y74813D01*
X5995Y74813D01*
X5282Y73974D01*
X5282Y73966D01*
X5276Y73965D01*
X4768Y72988D01*
X4769Y72980D01*
X4764Y72978D01*
X4486Y71913D01*
X4489Y71905D01*
X4485Y71902D01*
X4451Y70802D01*
X4455Y70796D01*
X4451Y70793D01*
X4606Y69718D01*
X4612Y69712D01*
X4609Y69707D01*
X4999Y68693D01*
X5006Y68689D01*
X5005Y68683D01*
X5611Y67781D01*
X5619Y67779D01*
X5618Y67773D01*
X6410Y67029D01*
X6418Y67028D01*
X6418Y67022D01*
X7356Y66473D01*
X7364Y66474D01*
X7366Y66468D01*
X8402Y66141D01*
X8410Y66144D01*
X8413Y66139D01*
X9496Y66051D01*
X9499Y66053D01*
X9500Y66051D01*
X15500Y66051D01*
X15504Y66054D01*
G37*
G36*
X15504Y299734D02*
X15504Y299734D01*
X15506Y299731D01*
X16639Y299881D01*
X16645Y299887D01*
X16650Y299884D01*
X17720Y300282D01*
X17724Y300289D01*
X17730Y300287D01*
X18685Y300914D01*
X18688Y300922D01*
X18693Y300921D01*
X19485Y301744D01*
X19486Y301752D01*
X19492Y301753D01*
X20081Y302732D01*
X20080Y302740D01*
X20085Y302742D01*
X20441Y303827D01*
X20439Y303835D01*
X20443Y303838D01*
X20549Y304975D01*
X20544Y304984D01*
X20548Y304989D01*
X20341Y306126D01*
X20335Y306132D01*
X20338Y306137D01*
X19883Y307199D01*
X19876Y307203D01*
X19878Y307209D01*
X19198Y308144D01*
X19190Y308146D01*
X19191Y308152D01*
X18320Y308912D01*
X18312Y308912D01*
X18311Y308918D01*
X17292Y309465D01*
X17284Y309464D01*
X17282Y309469D01*
X16168Y309776D01*
X16160Y309773D01*
X16157Y309778D01*
X15002Y309829D01*
X15001Y309828D01*
X15000Y309829D01*
X9000Y309829D01*
X8997Y309827D01*
X8992Y309827D01*
X8991Y309828D01*
X7910Y309616D01*
X7905Y309610D01*
X7900Y309613D01*
X6894Y309166D01*
X6890Y309159D01*
X6884Y309161D01*
X6003Y308501D01*
X6000Y308493D01*
X5995Y308493D01*
X5282Y307654D01*
X5282Y307646D01*
X5276Y307645D01*
X4768Y306668D01*
X4769Y306660D01*
X4764Y306658D01*
X4486Y305593D01*
X4489Y305585D01*
X4485Y305582D01*
X4451Y304482D01*
X4455Y304476D01*
X4451Y304473D01*
X4606Y303398D01*
X4612Y303392D01*
X4609Y303387D01*
X4999Y302373D01*
X5006Y302369D01*
X5005Y302363D01*
X5611Y301461D01*
X5619Y301459D01*
X5618Y301453D01*
X6410Y300709D01*
X6418Y300708D01*
X6418Y300702D01*
X7356Y300153D01*
X7364Y300154D01*
X7366Y300148D01*
X8402Y299821D01*
X8410Y299824D01*
X8413Y299819D01*
X9496Y299731D01*
X9499Y299733D01*
X9500Y299731D01*
X15500Y299731D01*
X15504Y299734D01*
G37*
G36*
X490484Y299734D02*
X490484Y299734D01*
X490486Y299731D01*
X491619Y299881D01*
X491625Y299887D01*
X491630Y299884D01*
X492700Y300282D01*
X492704Y300289D01*
X492710Y300287D01*
X493665Y300914D01*
X493668Y300922D01*
X493673Y300921D01*
X494465Y301744D01*
X494466Y301752D01*
X494472Y301753D01*
X495061Y302732D01*
X495060Y302740D01*
X495065Y302742D01*
X495421Y303827D01*
X495419Y303835D01*
X495423Y303838D01*
X495529Y304975D01*
X495524Y304984D01*
X495528Y304989D01*
X495321Y306126D01*
X495315Y306132D01*
X495318Y306137D01*
X494863Y307199D01*
X494856Y307203D01*
X494858Y307209D01*
X494178Y308144D01*
X494170Y308146D01*
X494171Y308152D01*
X493300Y308912D01*
X493292Y308912D01*
X493291Y308918D01*
X492272Y309465D01*
X492264Y309464D01*
X492262Y309469D01*
X491148Y309776D01*
X491140Y309773D01*
X491137Y309778D01*
X489982Y309829D01*
X489981Y309828D01*
X489980Y309829D01*
X483980Y309829D01*
X483977Y309827D01*
X483972Y309827D01*
X483971Y309828D01*
X482890Y309616D01*
X482885Y309610D01*
X482880Y309613D01*
X481874Y309166D01*
X481870Y309159D01*
X481864Y309161D01*
X480983Y308501D01*
X480980Y308493D01*
X480975Y308493D01*
X480262Y307654D01*
X480262Y307646D01*
X480256Y307645D01*
X479748Y306668D01*
X479749Y306660D01*
X479744Y306658D01*
X479466Y305593D01*
X479469Y305585D01*
X479465Y305582D01*
X479431Y304482D01*
X479435Y304476D01*
X479431Y304473D01*
X479586Y303398D01*
X479592Y303392D01*
X479589Y303387D01*
X479979Y302373D01*
X479986Y302369D01*
X479985Y302363D01*
X480591Y301461D01*
X480599Y301459D01*
X480598Y301453D01*
X481390Y300709D01*
X481398Y300708D01*
X481398Y300702D01*
X482336Y300153D01*
X482344Y300154D01*
X482346Y300148D01*
X483382Y299821D01*
X483390Y299824D01*
X483393Y299819D01*
X484476Y299731D01*
X484479Y299733D01*
X484480Y299731D01*
X490480Y299731D01*
X490484Y299734D01*
G37*
G36*
X15504Y533414D02*
X15504Y533414D01*
X15506Y533411D01*
X16639Y533561D01*
X16645Y533567D01*
X16650Y533564D01*
X17720Y533962D01*
X17724Y533969D01*
X17730Y533967D01*
X18685Y534594D01*
X18688Y534602D01*
X18693Y534601D01*
X19485Y535424D01*
X19486Y535432D01*
X19492Y535433D01*
X20081Y536412D01*
X20080Y536420D01*
X20085Y536422D01*
X20441Y537507D01*
X20439Y537515D01*
X20443Y537518D01*
X20549Y538655D01*
X20544Y538664D01*
X20548Y538669D01*
X20341Y539806D01*
X20335Y539812D01*
X20338Y539817D01*
X19883Y540879D01*
X19876Y540883D01*
X19878Y540889D01*
X19198Y541824D01*
X19190Y541826D01*
X19191Y541832D01*
X18320Y542592D01*
X18312Y542592D01*
X18311Y542598D01*
X17292Y543145D01*
X17284Y543144D01*
X17282Y543149D01*
X16168Y543456D01*
X16160Y543453D01*
X16157Y543458D01*
X15002Y543509D01*
X15001Y543508D01*
X15000Y543509D01*
X9000Y543509D01*
X8997Y543507D01*
X8992Y543507D01*
X8991Y543508D01*
X7910Y543296D01*
X7905Y543290D01*
X7900Y543293D01*
X6894Y542846D01*
X6890Y542839D01*
X6884Y542841D01*
X6003Y542181D01*
X6000Y542173D01*
X5995Y542173D01*
X5282Y541334D01*
X5282Y541326D01*
X5276Y541325D01*
X4768Y540348D01*
X4769Y540340D01*
X4764Y540338D01*
X4486Y539273D01*
X4489Y539265D01*
X4485Y539262D01*
X4451Y538162D01*
X4455Y538156D01*
X4451Y538153D01*
X4606Y537078D01*
X4612Y537072D01*
X4609Y537067D01*
X4999Y536053D01*
X5006Y536049D01*
X5005Y536043D01*
X5611Y535141D01*
X5619Y535139D01*
X5618Y535133D01*
X6410Y534389D01*
X6418Y534388D01*
X6418Y534382D01*
X7356Y533833D01*
X7364Y533834D01*
X7366Y533828D01*
X8402Y533501D01*
X8410Y533504D01*
X8413Y533499D01*
X9496Y533411D01*
X9499Y533413D01*
X9500Y533411D01*
X15500Y533411D01*
X15504Y533414D01*
G37*
G36*
X490484Y533414D02*
X490484Y533414D01*
X490486Y533411D01*
X491619Y533561D01*
X491625Y533567D01*
X491630Y533564D01*
X492700Y533962D01*
X492704Y533969D01*
X492710Y533967D01*
X493665Y534594D01*
X493668Y534602D01*
X493673Y534601D01*
X494465Y535424D01*
X494466Y535432D01*
X494472Y535433D01*
X495061Y536412D01*
X495060Y536420D01*
X495065Y536422D01*
X495421Y537507D01*
X495419Y537515D01*
X495423Y537518D01*
X495529Y538655D01*
X495524Y538664D01*
X495528Y538669D01*
X495321Y539806D01*
X495315Y539812D01*
X495318Y539817D01*
X494863Y540879D01*
X494856Y540883D01*
X494858Y540889D01*
X494178Y541824D01*
X494170Y541826D01*
X494171Y541832D01*
X493300Y542592D01*
X493292Y542592D01*
X493291Y542598D01*
X492272Y543145D01*
X492264Y543144D01*
X492262Y543149D01*
X491148Y543456D01*
X491140Y543453D01*
X491137Y543458D01*
X489982Y543509D01*
X489981Y543508D01*
X489980Y543509D01*
X483980Y543509D01*
X483977Y543507D01*
X483972Y543507D01*
X483971Y543508D01*
X482890Y543296D01*
X482885Y543290D01*
X482880Y543293D01*
X481874Y542846D01*
X481870Y542839D01*
X481864Y542841D01*
X480983Y542181D01*
X480980Y542173D01*
X480975Y542173D01*
X480262Y541334D01*
X480262Y541326D01*
X480256Y541325D01*
X479748Y540348D01*
X479749Y540340D01*
X479744Y540338D01*
X479466Y539273D01*
X479469Y539265D01*
X479465Y539262D01*
X479431Y538162D01*
X479435Y538156D01*
X479431Y538153D01*
X479586Y537078D01*
X479592Y537072D01*
X479589Y537067D01*
X479979Y536053D01*
X479986Y536049D01*
X479985Y536043D01*
X480591Y535141D01*
X480599Y535139D01*
X480598Y535133D01*
X481390Y534389D01*
X481398Y534388D01*
X481398Y534382D01*
X482336Y533833D01*
X482344Y533834D01*
X482346Y533828D01*
X483382Y533501D01*
X483390Y533504D01*
X483393Y533499D01*
X484476Y533411D01*
X484479Y533413D01*
X484480Y533411D01*
X490480Y533411D01*
X490484Y533414D01*
G37*
G36*
X965464Y533414D02*
X965464Y533414D01*
X965466Y533411D01*
X966599Y533561D01*
X966605Y533567D01*
X966610Y533564D01*
X967680Y533962D01*
X967684Y533969D01*
X967690Y533967D01*
X968645Y534594D01*
X968648Y534602D01*
X968653Y534601D01*
X969445Y535424D01*
X969446Y535432D01*
X969452Y535433D01*
X970041Y536412D01*
X970040Y536420D01*
X970045Y536422D01*
X970401Y537507D01*
X970399Y537515D01*
X970403Y537518D01*
X970509Y538655D01*
X970504Y538664D01*
X970508Y538669D01*
X970301Y539806D01*
X970295Y539812D01*
X970298Y539817D01*
X969843Y540879D01*
X969836Y540883D01*
X969838Y540889D01*
X969158Y541824D01*
X969150Y541826D01*
X969151Y541832D01*
X968280Y542592D01*
X968272Y542592D01*
X968271Y542598D01*
X967252Y543145D01*
X967244Y543144D01*
X967242Y543149D01*
X966128Y543456D01*
X966120Y543453D01*
X966117Y543458D01*
X964962Y543509D01*
X964961Y543508D01*
X964960Y543509D01*
X958960Y543509D01*
X958957Y543507D01*
X958952Y543507D01*
X958951Y543508D01*
X957870Y543296D01*
X957865Y543290D01*
X957860Y543293D01*
X956854Y542846D01*
X956850Y542839D01*
X956844Y542841D01*
X955963Y542181D01*
X955960Y542173D01*
X955955Y542173D01*
X955242Y541334D01*
X955242Y541326D01*
X955236Y541325D01*
X954728Y540348D01*
X954729Y540340D01*
X954724Y540338D01*
X954446Y539273D01*
X954449Y539265D01*
X954445Y539262D01*
X954411Y538162D01*
X954415Y538156D01*
X954411Y538153D01*
X954566Y537078D01*
X954572Y537072D01*
X954569Y537067D01*
X954959Y536053D01*
X954966Y536049D01*
X954965Y536043D01*
X955571Y535141D01*
X955579Y535139D01*
X955578Y535133D01*
X956370Y534389D01*
X956378Y534388D01*
X956378Y534382D01*
X957316Y533833D01*
X957324Y533834D01*
X957326Y533828D01*
X958362Y533501D01*
X958370Y533504D01*
X958373Y533499D01*
X959456Y533411D01*
X959459Y533413D01*
X959460Y533411D01*
X965460Y533411D01*
X965464Y533414D01*
G37*
G36*
X490484Y66054D02*
X490484Y66054D01*
X490486Y66051D01*
X491619Y66201D01*
X491625Y66207D01*
X491630Y66204D01*
X492700Y66602D01*
X492704Y66609D01*
X492710Y66607D01*
X493665Y67234D01*
X493668Y67242D01*
X493673Y67241D01*
X494465Y68064D01*
X494466Y68072D01*
X494472Y68073D01*
X495061Y69052D01*
X495060Y69060D01*
X495065Y69062D01*
X495421Y70147D01*
X495419Y70155D01*
X495423Y70158D01*
X495529Y71295D01*
X495524Y71304D01*
X495528Y71309D01*
X495321Y72446D01*
X495315Y72452D01*
X495318Y72457D01*
X494863Y73519D01*
X494856Y73523D01*
X494858Y73529D01*
X494178Y74464D01*
X494170Y74466D01*
X494171Y74472D01*
X493300Y75232D01*
X493292Y75232D01*
X493291Y75238D01*
X492272Y75785D01*
X492264Y75784D01*
X492262Y75789D01*
X491148Y76096D01*
X491140Y76093D01*
X491137Y76098D01*
X489982Y76149D01*
X489981Y76148D01*
X489980Y76149D01*
X483980Y76149D01*
X483977Y76147D01*
X483972Y76147D01*
X483971Y76148D01*
X482890Y75936D01*
X482885Y75930D01*
X482880Y75933D01*
X481874Y75486D01*
X481870Y75479D01*
X481864Y75481D01*
X480983Y74821D01*
X480980Y74813D01*
X480975Y74813D01*
X480262Y73974D01*
X480262Y73966D01*
X480256Y73965D01*
X479748Y72988D01*
X479749Y72980D01*
X479744Y72978D01*
X479466Y71913D01*
X479469Y71905D01*
X479465Y71902D01*
X479431Y70802D01*
X479435Y70796D01*
X479431Y70793D01*
X479586Y69718D01*
X479592Y69712D01*
X479589Y69707D01*
X479979Y68693D01*
X479986Y68689D01*
X479985Y68683D01*
X480591Y67781D01*
X480599Y67779D01*
X480598Y67773D01*
X481390Y67029D01*
X481398Y67028D01*
X481398Y67022D01*
X482336Y66473D01*
X482344Y66474D01*
X482346Y66468D01*
X483382Y66141D01*
X483390Y66144D01*
X483393Y66139D01*
X484476Y66051D01*
X484479Y66053D01*
X484480Y66051D01*
X490480Y66051D01*
X490484Y66054D01*
G37*
G36*
X965464Y66054D02*
X965464Y66054D01*
X965466Y66051D01*
X966599Y66201D01*
X966605Y66207D01*
X966610Y66204D01*
X967680Y66602D01*
X967684Y66609D01*
X967690Y66607D01*
X968645Y67234D01*
X968648Y67242D01*
X968653Y67241D01*
X969445Y68064D01*
X969446Y68072D01*
X969452Y68073D01*
X970041Y69052D01*
X970040Y69060D01*
X970045Y69062D01*
X970401Y70147D01*
X970399Y70155D01*
X970403Y70158D01*
X970509Y71295D01*
X970504Y71304D01*
X970508Y71309D01*
X970301Y72446D01*
X970295Y72452D01*
X970298Y72457D01*
X969843Y73519D01*
X969836Y73523D01*
X969838Y73529D01*
X969158Y74464D01*
X969150Y74466D01*
X969151Y74472D01*
X968280Y75232D01*
X968272Y75232D01*
X968271Y75238D01*
X967252Y75785D01*
X967244Y75784D01*
X967242Y75789D01*
X966128Y76096D01*
X966120Y76093D01*
X966117Y76098D01*
X964962Y76149D01*
X964961Y76148D01*
X964960Y76149D01*
X958960Y76149D01*
X958957Y76147D01*
X958952Y76147D01*
X958951Y76148D01*
X957870Y75936D01*
X957865Y75930D01*
X957860Y75933D01*
X956854Y75486D01*
X956850Y75479D01*
X956844Y75481D01*
X955963Y74821D01*
X955960Y74813D01*
X955955Y74813D01*
X955242Y73974D01*
X955242Y73966D01*
X955236Y73965D01*
X954728Y72988D01*
X954729Y72980D01*
X954724Y72978D01*
X954446Y71913D01*
X954449Y71905D01*
X954445Y71902D01*
X954411Y70802D01*
X954415Y70796D01*
X954411Y70793D01*
X954566Y69718D01*
X954572Y69712D01*
X954569Y69707D01*
X954959Y68693D01*
X954966Y68689D01*
X954965Y68683D01*
X955571Y67781D01*
X955579Y67779D01*
X955578Y67773D01*
X956370Y67029D01*
X956378Y67028D01*
X956378Y67022D01*
X957316Y66473D01*
X957324Y66474D01*
X957326Y66468D01*
X958362Y66141D01*
X958370Y66144D01*
X958373Y66139D01*
X959456Y66051D01*
X959459Y66053D01*
X959460Y66051D01*
X965460Y66051D01*
X965464Y66054D01*
G37*
G36*
X490483Y853493D02*
X490483Y853493D01*
X490485Y853491D01*
X491577Y853592D01*
X491583Y853597D01*
X491588Y853594D01*
X492631Y853935D01*
X492636Y853942D01*
X492641Y853940D01*
X493582Y854504D01*
X493585Y854512D01*
X493591Y854511D01*
X494383Y855271D01*
X494384Y855279D01*
X494390Y855280D01*
X494993Y856197D01*
X494992Y856205D01*
X494998Y856207D01*
X495381Y857235D01*
X495379Y857243D01*
X495384Y857246D01*
X495529Y858334D01*
X495525Y858341D01*
X495529Y858345D01*
X495423Y859482D01*
X495418Y859488D01*
X495421Y859493D01*
X495065Y860578D01*
X495058Y860583D01*
X495061Y860588D01*
X494472Y861567D01*
X494464Y861570D01*
X494465Y861576D01*
X493673Y862399D01*
X493665Y862400D01*
X493665Y862406D01*
X492710Y863033D01*
X492702Y863032D01*
X492700Y863038D01*
X491630Y863436D01*
X491622Y863434D01*
X491619Y863439D01*
X490486Y863589D01*
X490483Y863587D01*
X490482Y863587D01*
X490480Y863589D01*
X484480Y863589D01*
X484477Y863587D01*
X484475Y863587D01*
X484474Y863589D01*
X483341Y863439D01*
X483335Y863433D01*
X483330Y863436D01*
X482260Y863038D01*
X482256Y863031D01*
X482250Y863033D01*
X481295Y862406D01*
X481292Y862398D01*
X481287Y862399D01*
X480495Y861576D01*
X480494Y861568D01*
X480488Y861567D01*
X479899Y860588D01*
X479900Y860580D01*
X479895Y860578D01*
X479539Y859493D01*
X479542Y859485D01*
X479537Y859482D01*
X479431Y858345D01*
X479435Y858338D01*
X479431Y858334D01*
X479576Y857246D01*
X479582Y857240D01*
X479579Y857235D01*
X479963Y856207D01*
X479969Y856202D01*
X479968Y856197D01*
X480570Y855280D01*
X480578Y855277D01*
X480577Y855271D01*
X481369Y854511D01*
X481377Y854510D01*
X481378Y854504D01*
X482319Y853940D01*
X482327Y853941D01*
X482329Y853935D01*
X483372Y853594D01*
X483380Y853596D01*
X483383Y853592D01*
X484476Y853491D01*
X484478Y853493D01*
X484480Y853491D01*
X490480Y853491D01*
X490483Y853493D01*
G37*
G36*
X490483Y386133D02*
X490483Y386133D01*
X490485Y386131D01*
X491577Y386232D01*
X491583Y386237D01*
X491588Y386234D01*
X492631Y386575D01*
X492636Y386582D01*
X492641Y386580D01*
X493582Y387144D01*
X493585Y387152D01*
X493591Y387151D01*
X494383Y387911D01*
X494384Y387919D01*
X494390Y387920D01*
X494993Y388837D01*
X494992Y388845D01*
X494998Y388847D01*
X495381Y389875D01*
X495379Y389883D01*
X495384Y389886D01*
X495529Y390974D01*
X495525Y390981D01*
X495529Y390985D01*
X495423Y392122D01*
X495418Y392128D01*
X495421Y392133D01*
X495065Y393218D01*
X495058Y393223D01*
X495061Y393228D01*
X494472Y394207D01*
X494464Y394210D01*
X494465Y394216D01*
X493673Y395039D01*
X493665Y395040D01*
X493665Y395046D01*
X492710Y395673D01*
X492702Y395672D01*
X492700Y395678D01*
X491630Y396076D01*
X491622Y396074D01*
X491619Y396079D01*
X490486Y396229D01*
X490483Y396227D01*
X490482Y396227D01*
X490480Y396229D01*
X484480Y396229D01*
X484477Y396227D01*
X484475Y396227D01*
X484474Y396229D01*
X483341Y396079D01*
X483335Y396073D01*
X483330Y396076D01*
X482260Y395678D01*
X482256Y395671D01*
X482250Y395673D01*
X481295Y395046D01*
X481292Y395038D01*
X481287Y395039D01*
X480495Y394216D01*
X480494Y394208D01*
X480488Y394207D01*
X479899Y393228D01*
X479900Y393220D01*
X479895Y393218D01*
X479539Y392133D01*
X479542Y392125D01*
X479537Y392122D01*
X479431Y390985D01*
X479435Y390978D01*
X479431Y390974D01*
X479576Y389886D01*
X479582Y389880D01*
X479579Y389875D01*
X479963Y388847D01*
X479969Y388842D01*
X479968Y388837D01*
X480570Y387920D01*
X480578Y387917D01*
X480577Y387911D01*
X481369Y387151D01*
X481377Y387150D01*
X481378Y387144D01*
X482319Y386580D01*
X482327Y386581D01*
X482329Y386575D01*
X483372Y386234D01*
X483380Y386236D01*
X483383Y386232D01*
X484476Y386131D01*
X484478Y386133D01*
X484480Y386131D01*
X490480Y386131D01*
X490483Y386133D01*
G37*
G36*
X15503Y619813D02*
X15503Y619813D01*
X15505Y619811D01*
X16597Y619912D01*
X16603Y619917D01*
X16608Y619914D01*
X17651Y620255D01*
X17656Y620262D01*
X17661Y620260D01*
X18602Y620824D01*
X18605Y620832D01*
X18611Y620831D01*
X19403Y621591D01*
X19404Y621599D01*
X19410Y621600D01*
X20013Y622517D01*
X20012Y622525D01*
X20018Y622527D01*
X20401Y623555D01*
X20399Y623563D01*
X20404Y623566D01*
X20549Y624654D01*
X20545Y624661D01*
X20549Y624665D01*
X20443Y625802D01*
X20438Y625808D01*
X20441Y625813D01*
X20085Y626898D01*
X20078Y626903D01*
X20081Y626908D01*
X19492Y627887D01*
X19484Y627890D01*
X19485Y627896D01*
X18693Y628719D01*
X18685Y628720D01*
X18685Y628726D01*
X17730Y629353D01*
X17722Y629352D01*
X17720Y629358D01*
X16650Y629756D01*
X16642Y629754D01*
X16639Y629759D01*
X15506Y629909D01*
X15503Y629907D01*
X15502Y629907D01*
X15500Y629909D01*
X9500Y629909D01*
X9497Y629907D01*
X9495Y629907D01*
X9494Y629909D01*
X8361Y629759D01*
X8355Y629753D01*
X8350Y629756D01*
X7280Y629358D01*
X7276Y629351D01*
X7270Y629353D01*
X6315Y628726D01*
X6312Y628718D01*
X6307Y628719D01*
X5515Y627896D01*
X5514Y627888D01*
X5508Y627887D01*
X4919Y626908D01*
X4920Y626900D01*
X4915Y626898D01*
X4559Y625813D01*
X4562Y625805D01*
X4557Y625802D01*
X4451Y624665D01*
X4455Y624658D01*
X4451Y624654D01*
X4596Y623566D01*
X4602Y623560D01*
X4599Y623555D01*
X4983Y622527D01*
X4989Y622522D01*
X4988Y622517D01*
X5590Y621600D01*
X5598Y621597D01*
X5597Y621591D01*
X6389Y620831D01*
X6397Y620830D01*
X6398Y620824D01*
X7339Y620260D01*
X7347Y620261D01*
X7349Y620255D01*
X8392Y619914D01*
X8400Y619916D01*
X8403Y619912D01*
X9496Y619811D01*
X9498Y619813D01*
X9500Y619811D01*
X15500Y619811D01*
X15503Y619813D01*
G37*
G36*
X15503Y853493D02*
X15503Y853493D01*
X15505Y853491D01*
X16597Y853592D01*
X16603Y853597D01*
X16608Y853594D01*
X17651Y853935D01*
X17656Y853942D01*
X17661Y853940D01*
X18602Y854504D01*
X18605Y854512D01*
X18611Y854511D01*
X19403Y855271D01*
X19404Y855279D01*
X19410Y855280D01*
X20013Y856197D01*
X20012Y856205D01*
X20018Y856207D01*
X20401Y857235D01*
X20399Y857243D01*
X20404Y857246D01*
X20549Y858334D01*
X20545Y858341D01*
X20549Y858345D01*
X20443Y859482D01*
X20438Y859488D01*
X20441Y859493D01*
X20085Y860578D01*
X20078Y860583D01*
X20081Y860588D01*
X19492Y861567D01*
X19484Y861570D01*
X19485Y861576D01*
X18693Y862399D01*
X18685Y862400D01*
X18685Y862406D01*
X17730Y863033D01*
X17722Y863032D01*
X17720Y863038D01*
X16650Y863436D01*
X16642Y863434D01*
X16639Y863439D01*
X15506Y863589D01*
X15503Y863587D01*
X15502Y863587D01*
X15500Y863589D01*
X9500Y863589D01*
X9497Y863587D01*
X9495Y863587D01*
X9494Y863589D01*
X8361Y863439D01*
X8355Y863433D01*
X8350Y863436D01*
X7280Y863038D01*
X7276Y863031D01*
X7270Y863033D01*
X6315Y862406D01*
X6312Y862398D01*
X6307Y862399D01*
X5515Y861576D01*
X5514Y861568D01*
X5508Y861567D01*
X4919Y860588D01*
X4920Y860580D01*
X4915Y860578D01*
X4559Y859493D01*
X4562Y859485D01*
X4557Y859482D01*
X4451Y858345D01*
X4455Y858338D01*
X4451Y858334D01*
X4596Y857246D01*
X4602Y857240D01*
X4599Y857235D01*
X4983Y856207D01*
X4989Y856202D01*
X4988Y856197D01*
X5590Y855280D01*
X5598Y855277D01*
X5597Y855271D01*
X6389Y854511D01*
X6397Y854510D01*
X6398Y854504D01*
X7339Y853940D01*
X7347Y853941D01*
X7349Y853935D01*
X8392Y853594D01*
X8400Y853596D01*
X8403Y853592D01*
X9496Y853491D01*
X9498Y853493D01*
X9500Y853491D01*
X15500Y853491D01*
X15503Y853493D01*
G37*
G36*
X965463Y853493D02*
X965463Y853493D01*
X965465Y853491D01*
X966557Y853592D01*
X966563Y853597D01*
X966568Y853594D01*
X967611Y853935D01*
X967616Y853942D01*
X967621Y853940D01*
X968562Y854504D01*
X968565Y854512D01*
X968571Y854511D01*
X969363Y855271D01*
X969364Y855279D01*
X969370Y855280D01*
X969973Y856197D01*
X969972Y856205D01*
X969978Y856207D01*
X970361Y857235D01*
X970359Y857243D01*
X970364Y857246D01*
X970509Y858334D01*
X970505Y858341D01*
X970509Y858345D01*
X970403Y859482D01*
X970398Y859488D01*
X970401Y859493D01*
X970045Y860578D01*
X970038Y860583D01*
X970041Y860588D01*
X969452Y861567D01*
X969444Y861570D01*
X969445Y861576D01*
X968653Y862399D01*
X968645Y862400D01*
X968645Y862406D01*
X967690Y863033D01*
X967682Y863032D01*
X967680Y863038D01*
X966610Y863436D01*
X966602Y863434D01*
X966599Y863439D01*
X965466Y863589D01*
X965463Y863587D01*
X965462Y863587D01*
X965460Y863589D01*
X959460Y863589D01*
X959457Y863587D01*
X959455Y863587D01*
X959454Y863589D01*
X958321Y863439D01*
X958315Y863433D01*
X958310Y863436D01*
X957240Y863038D01*
X957236Y863031D01*
X957230Y863033D01*
X956275Y862406D01*
X956272Y862398D01*
X956267Y862399D01*
X955475Y861576D01*
X955474Y861568D01*
X955468Y861567D01*
X954879Y860588D01*
X954880Y860580D01*
X954875Y860578D01*
X954519Y859493D01*
X954522Y859485D01*
X954517Y859482D01*
X954411Y858345D01*
X954415Y858338D01*
X954411Y858334D01*
X954556Y857246D01*
X954562Y857240D01*
X954559Y857235D01*
X954943Y856207D01*
X954949Y856202D01*
X954948Y856197D01*
X955550Y855280D01*
X955558Y855277D01*
X955557Y855271D01*
X956349Y854511D01*
X956357Y854510D01*
X956358Y854504D01*
X957299Y853940D01*
X957307Y853941D01*
X957309Y853935D01*
X958352Y853594D01*
X958360Y853596D01*
X958363Y853592D01*
X959456Y853491D01*
X959458Y853493D01*
X959460Y853491D01*
X965460Y853491D01*
X965463Y853493D01*
G37*
G36*
X15503Y152453D02*
X15503Y152453D01*
X15505Y152451D01*
X16597Y152552D01*
X16603Y152557D01*
X16608Y152554D01*
X17651Y152895D01*
X17656Y152902D01*
X17661Y152900D01*
X18602Y153464D01*
X18605Y153472D01*
X18611Y153471D01*
X19403Y154231D01*
X19404Y154239D01*
X19410Y154240D01*
X20013Y155157D01*
X20012Y155165D01*
X20018Y155167D01*
X20401Y156195D01*
X20399Y156203D01*
X20404Y156206D01*
X20549Y157294D01*
X20545Y157301D01*
X20549Y157305D01*
X20443Y158442D01*
X20438Y158448D01*
X20441Y158453D01*
X20085Y159538D01*
X20078Y159543D01*
X20081Y159548D01*
X19492Y160527D01*
X19484Y160530D01*
X19485Y160536D01*
X18693Y161359D01*
X18685Y161360D01*
X18685Y161366D01*
X17730Y161993D01*
X17722Y161992D01*
X17720Y161998D01*
X16650Y162396D01*
X16642Y162394D01*
X16639Y162399D01*
X15506Y162549D01*
X15503Y162547D01*
X15502Y162547D01*
X15500Y162549D01*
X9500Y162549D01*
X9497Y162547D01*
X9495Y162547D01*
X9494Y162549D01*
X8361Y162399D01*
X8355Y162393D01*
X8350Y162396D01*
X7280Y161998D01*
X7276Y161991D01*
X7270Y161993D01*
X6315Y161366D01*
X6312Y161358D01*
X6307Y161359D01*
X5515Y160536D01*
X5514Y160528D01*
X5508Y160527D01*
X4919Y159548D01*
X4920Y159540D01*
X4915Y159538D01*
X4559Y158453D01*
X4562Y158445D01*
X4557Y158442D01*
X4451Y157305D01*
X4455Y157298D01*
X4451Y157294D01*
X4596Y156206D01*
X4602Y156200D01*
X4599Y156195D01*
X4983Y155167D01*
X4989Y155162D01*
X4988Y155157D01*
X5590Y154240D01*
X5598Y154237D01*
X5597Y154231D01*
X6389Y153471D01*
X6397Y153470D01*
X6398Y153464D01*
X7339Y152900D01*
X7347Y152901D01*
X7349Y152895D01*
X8392Y152554D01*
X8400Y152556D01*
X8403Y152552D01*
X9496Y152451D01*
X9498Y152453D01*
X9500Y152451D01*
X15500Y152451D01*
X15503Y152453D01*
G37*
G36*
X490483Y1087173D02*
X490483Y1087173D01*
X490485Y1087171D01*
X491577Y1087272D01*
X491583Y1087277D01*
X491588Y1087274D01*
X492631Y1087615D01*
X492636Y1087622D01*
X492641Y1087620D01*
X493582Y1088184D01*
X493585Y1088192D01*
X493591Y1088191D01*
X494383Y1088951D01*
X494384Y1088959D01*
X494390Y1088960D01*
X494993Y1089877D01*
X494992Y1089885D01*
X494998Y1089887D01*
X495381Y1090915D01*
X495379Y1090923D01*
X495384Y1090926D01*
X495529Y1092014D01*
X495525Y1092021D01*
X495529Y1092025D01*
X495423Y1093162D01*
X495418Y1093168D01*
X495421Y1093173D01*
X495065Y1094258D01*
X495058Y1094263D01*
X495061Y1094268D01*
X494472Y1095247D01*
X494464Y1095250D01*
X494465Y1095256D01*
X493673Y1096079D01*
X493665Y1096080D01*
X493665Y1096086D01*
X492710Y1096713D01*
X492702Y1096712D01*
X492700Y1096718D01*
X491630Y1097116D01*
X491622Y1097114D01*
X491619Y1097119D01*
X490486Y1097269D01*
X490483Y1097267D01*
X490482Y1097267D01*
X490480Y1097269D01*
X484480Y1097269D01*
X484477Y1097267D01*
X484475Y1097267D01*
X484474Y1097269D01*
X483341Y1097119D01*
X483335Y1097113D01*
X483330Y1097116D01*
X482260Y1096718D01*
X482256Y1096711D01*
X482250Y1096713D01*
X481295Y1096086D01*
X481292Y1096078D01*
X481287Y1096079D01*
X480495Y1095256D01*
X480494Y1095248D01*
X480488Y1095247D01*
X479899Y1094268D01*
X479900Y1094260D01*
X479895Y1094258D01*
X479539Y1093173D01*
X479542Y1093165D01*
X479537Y1093162D01*
X479431Y1092025D01*
X479435Y1092018D01*
X479431Y1092014D01*
X479576Y1090926D01*
X479582Y1090920D01*
X479579Y1090915D01*
X479963Y1089887D01*
X479969Y1089882D01*
X479968Y1089877D01*
X480570Y1088960D01*
X480578Y1088957D01*
X480577Y1088951D01*
X481369Y1088191D01*
X481377Y1088190D01*
X481378Y1088184D01*
X482319Y1087620D01*
X482327Y1087621D01*
X482329Y1087615D01*
X483372Y1087274D01*
X483380Y1087276D01*
X483383Y1087272D01*
X484476Y1087171D01*
X484478Y1087173D01*
X484480Y1087171D01*
X490480Y1087171D01*
X490483Y1087173D01*
G37*
G36*
X15503Y1087173D02*
X15503Y1087173D01*
X15505Y1087171D01*
X16597Y1087272D01*
X16603Y1087277D01*
X16608Y1087274D01*
X17651Y1087615D01*
X17656Y1087622D01*
X17661Y1087620D01*
X18602Y1088184D01*
X18605Y1088192D01*
X18611Y1088191D01*
X19403Y1088951D01*
X19404Y1088959D01*
X19410Y1088960D01*
X20013Y1089877D01*
X20012Y1089885D01*
X20018Y1089887D01*
X20401Y1090915D01*
X20399Y1090923D01*
X20404Y1090926D01*
X20549Y1092014D01*
X20545Y1092021D01*
X20549Y1092025D01*
X20443Y1093162D01*
X20438Y1093168D01*
X20441Y1093173D01*
X20085Y1094258D01*
X20078Y1094263D01*
X20081Y1094268D01*
X19492Y1095247D01*
X19484Y1095250D01*
X19485Y1095256D01*
X18693Y1096079D01*
X18685Y1096080D01*
X18685Y1096086D01*
X17730Y1096713D01*
X17722Y1096712D01*
X17720Y1096718D01*
X16650Y1097116D01*
X16642Y1097114D01*
X16639Y1097119D01*
X15506Y1097269D01*
X15503Y1097267D01*
X15502Y1097267D01*
X15500Y1097269D01*
X9500Y1097269D01*
X9497Y1097267D01*
X9495Y1097267D01*
X9494Y1097269D01*
X8361Y1097119D01*
X8355Y1097113D01*
X8350Y1097116D01*
X7280Y1096718D01*
X7276Y1096711D01*
X7270Y1096713D01*
X6315Y1096086D01*
X6312Y1096078D01*
X6307Y1096079D01*
X5515Y1095256D01*
X5514Y1095248D01*
X5508Y1095247D01*
X4919Y1094268D01*
X4920Y1094260D01*
X4915Y1094258D01*
X4559Y1093173D01*
X4562Y1093165D01*
X4557Y1093162D01*
X4451Y1092025D01*
X4455Y1092018D01*
X4451Y1092014D01*
X4596Y1090926D01*
X4602Y1090920D01*
X4599Y1090915D01*
X4983Y1089887D01*
X4989Y1089882D01*
X4988Y1089877D01*
X5590Y1088960D01*
X5598Y1088957D01*
X5597Y1088951D01*
X6389Y1088191D01*
X6397Y1088190D01*
X6398Y1088184D01*
X7339Y1087620D01*
X7347Y1087621D01*
X7349Y1087615D01*
X8392Y1087274D01*
X8400Y1087276D01*
X8403Y1087272D01*
X9496Y1087171D01*
X9498Y1087173D01*
X9500Y1087171D01*
X15500Y1087171D01*
X15503Y1087173D01*
G37*
G36*
X965463Y152453D02*
X965463Y152453D01*
X965465Y152451D01*
X966557Y152552D01*
X966563Y152557D01*
X966568Y152554D01*
X967611Y152895D01*
X967616Y152902D01*
X967621Y152900D01*
X968562Y153464D01*
X968565Y153472D01*
X968571Y153471D01*
X969363Y154231D01*
X969364Y154239D01*
X969370Y154240D01*
X969973Y155157D01*
X969972Y155165D01*
X969978Y155167D01*
X970361Y156195D01*
X970359Y156203D01*
X970364Y156206D01*
X970509Y157294D01*
X970505Y157301D01*
X970509Y157305D01*
X970403Y158442D01*
X970398Y158448D01*
X970401Y158453D01*
X970045Y159538D01*
X970038Y159543D01*
X970041Y159548D01*
X969452Y160527D01*
X969444Y160530D01*
X969445Y160536D01*
X968653Y161359D01*
X968645Y161360D01*
X968645Y161366D01*
X967690Y161993D01*
X967682Y161992D01*
X967680Y161998D01*
X966610Y162396D01*
X966602Y162394D01*
X966599Y162399D01*
X965466Y162549D01*
X965463Y162547D01*
X965462Y162547D01*
X965460Y162549D01*
X959460Y162549D01*
X959457Y162547D01*
X959455Y162547D01*
X959454Y162549D01*
X958321Y162399D01*
X958315Y162393D01*
X958310Y162396D01*
X957240Y161998D01*
X957236Y161991D01*
X957230Y161993D01*
X956275Y161366D01*
X956272Y161358D01*
X956267Y161359D01*
X955475Y160536D01*
X955474Y160528D01*
X955468Y160527D01*
X954879Y159548D01*
X954880Y159540D01*
X954875Y159538D01*
X954519Y158453D01*
X954522Y158445D01*
X954517Y158442D01*
X954411Y157305D01*
X954415Y157298D01*
X954411Y157294D01*
X954556Y156206D01*
X954562Y156200D01*
X954559Y156195D01*
X954943Y155167D01*
X954949Y155162D01*
X954948Y155157D01*
X955550Y154240D01*
X955558Y154237D01*
X955557Y154231D01*
X956349Y153471D01*
X956357Y153470D01*
X956358Y153464D01*
X957299Y152900D01*
X957307Y152901D01*
X957309Y152895D01*
X958352Y152554D01*
X958360Y152556D01*
X958363Y152552D01*
X959456Y152451D01*
X959458Y152453D01*
X959460Y152451D01*
X965460Y152451D01*
X965463Y152453D01*
G37*
G36*
X965463Y1087173D02*
X965463Y1087173D01*
X965465Y1087171D01*
X966557Y1087272D01*
X966563Y1087277D01*
X966568Y1087274D01*
X967611Y1087615D01*
X967616Y1087622D01*
X967621Y1087620D01*
X968562Y1088184D01*
X968565Y1088192D01*
X968571Y1088191D01*
X969363Y1088951D01*
X969364Y1088959D01*
X969370Y1088960D01*
X969973Y1089877D01*
X969972Y1089885D01*
X969978Y1089887D01*
X970361Y1090915D01*
X970359Y1090923D01*
X970364Y1090926D01*
X970509Y1092014D01*
X970505Y1092021D01*
X970509Y1092025D01*
X970403Y1093162D01*
X970398Y1093168D01*
X970401Y1093173D01*
X970045Y1094258D01*
X970038Y1094263D01*
X970041Y1094268D01*
X969452Y1095247D01*
X969444Y1095250D01*
X969445Y1095256D01*
X968653Y1096079D01*
X968645Y1096080D01*
X968645Y1096086D01*
X967690Y1096713D01*
X967682Y1096712D01*
X967680Y1096718D01*
X966610Y1097116D01*
X966602Y1097114D01*
X966599Y1097119D01*
X965466Y1097269D01*
X965463Y1097267D01*
X965462Y1097267D01*
X965460Y1097269D01*
X959460Y1097269D01*
X959457Y1097267D01*
X959455Y1097267D01*
X959454Y1097269D01*
X958321Y1097119D01*
X958315Y1097113D01*
X958310Y1097116D01*
X957240Y1096718D01*
X957236Y1096711D01*
X957230Y1096713D01*
X956275Y1096086D01*
X956272Y1096078D01*
X956267Y1096079D01*
X955475Y1095256D01*
X955474Y1095248D01*
X955468Y1095247D01*
X954879Y1094268D01*
X954880Y1094260D01*
X954875Y1094258D01*
X954519Y1093173D01*
X954522Y1093165D01*
X954517Y1093162D01*
X954411Y1092025D01*
X954415Y1092018D01*
X954411Y1092014D01*
X954556Y1090926D01*
X954562Y1090920D01*
X954559Y1090915D01*
X954943Y1089887D01*
X954949Y1089882D01*
X954948Y1089877D01*
X955550Y1088960D01*
X955558Y1088957D01*
X955557Y1088951D01*
X956349Y1088191D01*
X956357Y1088190D01*
X956358Y1088184D01*
X957299Y1087620D01*
X957307Y1087621D01*
X957309Y1087615D01*
X958352Y1087274D01*
X958360Y1087276D01*
X958363Y1087272D01*
X959456Y1087171D01*
X959458Y1087173D01*
X959460Y1087171D01*
X965460Y1087171D01*
X965463Y1087173D01*
G37*
G36*
X965463Y619813D02*
X965463Y619813D01*
X965465Y619811D01*
X966557Y619912D01*
X966563Y619917D01*
X966568Y619914D01*
X967611Y620255D01*
X967616Y620262D01*
X967621Y620260D01*
X968562Y620824D01*
X968565Y620832D01*
X968571Y620831D01*
X969363Y621591D01*
X969364Y621599D01*
X969370Y621600D01*
X969973Y622517D01*
X969972Y622525D01*
X969978Y622527D01*
X970361Y623555D01*
X970359Y623563D01*
X970364Y623566D01*
X970509Y624654D01*
X970505Y624661D01*
X970509Y624665D01*
X970403Y625802D01*
X970398Y625808D01*
X970401Y625813D01*
X970045Y626898D01*
X970038Y626903D01*
X970041Y626908D01*
X969452Y627887D01*
X969444Y627890D01*
X969445Y627896D01*
X968653Y628719D01*
X968645Y628720D01*
X968645Y628726D01*
X967690Y629353D01*
X967682Y629352D01*
X967680Y629358D01*
X966610Y629756D01*
X966602Y629754D01*
X966599Y629759D01*
X965466Y629909D01*
X965463Y629907D01*
X965462Y629907D01*
X965460Y629909D01*
X959460Y629909D01*
X959457Y629907D01*
X959455Y629907D01*
X959454Y629909D01*
X958321Y629759D01*
X958315Y629753D01*
X958310Y629756D01*
X957240Y629358D01*
X957236Y629351D01*
X957230Y629353D01*
X956275Y628726D01*
X956272Y628718D01*
X956267Y628719D01*
X955475Y627896D01*
X955474Y627888D01*
X955468Y627887D01*
X954879Y626908D01*
X954880Y626900D01*
X954875Y626898D01*
X954519Y625813D01*
X954522Y625805D01*
X954517Y625802D01*
X954411Y624665D01*
X954415Y624658D01*
X954411Y624654D01*
X954556Y623566D01*
X954562Y623560D01*
X954559Y623555D01*
X954943Y622527D01*
X954949Y622522D01*
X954948Y622517D01*
X955550Y621600D01*
X955558Y621597D01*
X955557Y621591D01*
X956349Y620831D01*
X956357Y620830D01*
X956358Y620824D01*
X957299Y620260D01*
X957307Y620261D01*
X957309Y620255D01*
X958352Y619914D01*
X958360Y619916D01*
X958363Y619912D01*
X959456Y619811D01*
X959458Y619813D01*
X959460Y619811D01*
X965460Y619811D01*
X965463Y619813D01*
G37*
G36*
X15503Y386133D02*
X15503Y386133D01*
X15505Y386131D01*
X16597Y386232D01*
X16603Y386237D01*
X16608Y386234D01*
X17651Y386575D01*
X17656Y386582D01*
X17661Y386580D01*
X18602Y387144D01*
X18605Y387152D01*
X18611Y387151D01*
X19403Y387911D01*
X19404Y387919D01*
X19410Y387920D01*
X20013Y388837D01*
X20012Y388845D01*
X20018Y388847D01*
X20401Y389875D01*
X20399Y389883D01*
X20404Y389886D01*
X20549Y390974D01*
X20545Y390981D01*
X20549Y390985D01*
X20443Y392122D01*
X20438Y392128D01*
X20441Y392133D01*
X20085Y393218D01*
X20078Y393223D01*
X20081Y393228D01*
X19492Y394207D01*
X19484Y394210D01*
X19485Y394216D01*
X18693Y395039D01*
X18685Y395040D01*
X18685Y395046D01*
X17730Y395673D01*
X17722Y395672D01*
X17720Y395678D01*
X16650Y396076D01*
X16642Y396074D01*
X16639Y396079D01*
X15506Y396229D01*
X15503Y396227D01*
X15502Y396227D01*
X15500Y396229D01*
X9500Y396229D01*
X9497Y396227D01*
X9495Y396227D01*
X9494Y396229D01*
X8361Y396079D01*
X8355Y396073D01*
X8350Y396076D01*
X7280Y395678D01*
X7276Y395671D01*
X7270Y395673D01*
X6315Y395046D01*
X6312Y395038D01*
X6307Y395039D01*
X5515Y394216D01*
X5514Y394208D01*
X5508Y394207D01*
X4919Y393228D01*
X4920Y393220D01*
X4915Y393218D01*
X4559Y392133D01*
X4562Y392125D01*
X4557Y392122D01*
X4451Y390985D01*
X4455Y390978D01*
X4451Y390974D01*
X4596Y389886D01*
X4602Y389880D01*
X4599Y389875D01*
X4983Y388847D01*
X4989Y388842D01*
X4988Y388837D01*
X5590Y387920D01*
X5598Y387917D01*
X5597Y387911D01*
X6389Y387151D01*
X6397Y387150D01*
X6398Y387144D01*
X7339Y386580D01*
X7347Y386581D01*
X7349Y386575D01*
X8392Y386234D01*
X8400Y386236D01*
X8403Y386232D01*
X9496Y386131D01*
X9498Y386133D01*
X9500Y386131D01*
X15500Y386131D01*
X15503Y386133D01*
G37*
G36*
X490483Y619813D02*
X490483Y619813D01*
X490485Y619811D01*
X491577Y619912D01*
X491583Y619917D01*
X491588Y619914D01*
X492631Y620255D01*
X492636Y620262D01*
X492641Y620260D01*
X493582Y620824D01*
X493585Y620832D01*
X493591Y620831D01*
X494383Y621591D01*
X494384Y621599D01*
X494390Y621600D01*
X494993Y622517D01*
X494992Y622525D01*
X494998Y622527D01*
X495381Y623555D01*
X495379Y623563D01*
X495384Y623566D01*
X495529Y624654D01*
X495525Y624661D01*
X495529Y624665D01*
X495423Y625802D01*
X495418Y625808D01*
X495421Y625813D01*
X495065Y626898D01*
X495058Y626903D01*
X495061Y626908D01*
X494472Y627887D01*
X494464Y627890D01*
X494465Y627896D01*
X493673Y628719D01*
X493665Y628720D01*
X493665Y628726D01*
X492710Y629353D01*
X492702Y629352D01*
X492700Y629358D01*
X491630Y629756D01*
X491622Y629754D01*
X491619Y629759D01*
X490486Y629909D01*
X490483Y629907D01*
X490482Y629907D01*
X490480Y629909D01*
X484480Y629909D01*
X484477Y629907D01*
X484475Y629907D01*
X484474Y629909D01*
X483341Y629759D01*
X483335Y629753D01*
X483330Y629756D01*
X482260Y629358D01*
X482256Y629351D01*
X482250Y629353D01*
X481295Y628726D01*
X481292Y628718D01*
X481287Y628719D01*
X480495Y627896D01*
X480494Y627888D01*
X480488Y627887D01*
X479899Y626908D01*
X479900Y626900D01*
X479895Y626898D01*
X479539Y625813D01*
X479542Y625805D01*
X479537Y625802D01*
X479431Y624665D01*
X479435Y624658D01*
X479431Y624654D01*
X479576Y623566D01*
X479582Y623560D01*
X479579Y623555D01*
X479963Y622527D01*
X479969Y622522D01*
X479968Y622517D01*
X480570Y621600D01*
X480578Y621597D01*
X480577Y621591D01*
X481369Y620831D01*
X481377Y620830D01*
X481378Y620824D01*
X482319Y620260D01*
X482327Y620261D01*
X482329Y620255D01*
X483372Y619914D01*
X483380Y619916D01*
X483383Y619912D01*
X484476Y619811D01*
X484478Y619813D01*
X484480Y619811D01*
X490480Y619811D01*
X490483Y619813D01*
G37*
G36*
X965463Y386133D02*
X965463Y386133D01*
X965465Y386131D01*
X966557Y386232D01*
X966563Y386237D01*
X966568Y386234D01*
X967611Y386575D01*
X967616Y386582D01*
X967621Y386580D01*
X968562Y387144D01*
X968565Y387152D01*
X968571Y387151D01*
X969363Y387911D01*
X969364Y387919D01*
X969370Y387920D01*
X969973Y388837D01*
X969972Y388845D01*
X969978Y388847D01*
X970361Y389875D01*
X970359Y389883D01*
X970364Y389886D01*
X970509Y390974D01*
X970505Y390981D01*
X970509Y390985D01*
X970403Y392122D01*
X970398Y392128D01*
X970401Y392133D01*
X970045Y393218D01*
X970038Y393223D01*
X970041Y393228D01*
X969452Y394207D01*
X969444Y394210D01*
X969445Y394216D01*
X968653Y395039D01*
X968645Y395040D01*
X968645Y395046D01*
X967690Y395673D01*
X967682Y395672D01*
X967680Y395678D01*
X966610Y396076D01*
X966602Y396074D01*
X966599Y396079D01*
X965466Y396229D01*
X965463Y396227D01*
X965462Y396227D01*
X965460Y396229D01*
X959460Y396229D01*
X959457Y396227D01*
X959455Y396227D01*
X959454Y396229D01*
X958321Y396079D01*
X958315Y396073D01*
X958310Y396076D01*
X957240Y395678D01*
X957236Y395671D01*
X957230Y395673D01*
X956275Y395046D01*
X956272Y395038D01*
X956267Y395039D01*
X955475Y394216D01*
X955474Y394208D01*
X955468Y394207D01*
X954879Y393228D01*
X954880Y393220D01*
X954875Y393218D01*
X954519Y392133D01*
X954522Y392125D01*
X954517Y392122D01*
X954411Y390985D01*
X954415Y390978D01*
X954411Y390974D01*
X954556Y389886D01*
X954562Y389880D01*
X954559Y389875D01*
X954943Y388847D01*
X954949Y388842D01*
X954948Y388837D01*
X955550Y387920D01*
X955558Y387917D01*
X955557Y387911D01*
X956349Y387151D01*
X956357Y387150D01*
X956358Y387144D01*
X957299Y386580D01*
X957307Y386581D01*
X957309Y386575D01*
X958352Y386234D01*
X958360Y386236D01*
X958363Y386232D01*
X959456Y386131D01*
X959458Y386133D01*
X959460Y386131D01*
X965460Y386131D01*
X965463Y386133D01*
G37*
G36*
X490483Y152453D02*
X490483Y152453D01*
X490485Y152451D01*
X491577Y152552D01*
X491583Y152557D01*
X491588Y152554D01*
X492631Y152895D01*
X492636Y152902D01*
X492641Y152900D01*
X493582Y153464D01*
X493585Y153472D01*
X493591Y153471D01*
X494383Y154231D01*
X494384Y154239D01*
X494390Y154240D01*
X494993Y155157D01*
X494992Y155165D01*
X494998Y155167D01*
X495381Y156195D01*
X495379Y156203D01*
X495384Y156206D01*
X495529Y157294D01*
X495525Y157301D01*
X495529Y157305D01*
X495423Y158442D01*
X495418Y158448D01*
X495421Y158453D01*
X495065Y159538D01*
X495058Y159543D01*
X495061Y159548D01*
X494472Y160527D01*
X494464Y160530D01*
X494465Y160536D01*
X493673Y161359D01*
X493665Y161360D01*
X493665Y161366D01*
X492710Y161993D01*
X492702Y161992D01*
X492700Y161998D01*
X491630Y162396D01*
X491622Y162394D01*
X491619Y162399D01*
X490486Y162549D01*
X490483Y162547D01*
X490482Y162547D01*
X490480Y162549D01*
X484480Y162549D01*
X484477Y162547D01*
X484475Y162547D01*
X484474Y162549D01*
X483341Y162399D01*
X483335Y162393D01*
X483330Y162396D01*
X482260Y161998D01*
X482256Y161991D01*
X482250Y161993D01*
X481295Y161366D01*
X481292Y161358D01*
X481287Y161359D01*
X480495Y160536D01*
X480494Y160528D01*
X480488Y160527D01*
X479899Y159548D01*
X479900Y159540D01*
X479895Y159538D01*
X479539Y158453D01*
X479542Y158445D01*
X479537Y158442D01*
X479431Y157305D01*
X479435Y157298D01*
X479431Y157294D01*
X479576Y156206D01*
X479582Y156200D01*
X479579Y156195D01*
X479963Y155167D01*
X479969Y155162D01*
X479968Y155157D01*
X480570Y154240D01*
X480578Y154237D01*
X480577Y154231D01*
X481369Y153471D01*
X481377Y153470D01*
X481378Y153464D01*
X482319Y152900D01*
X482327Y152901D01*
X482329Y152895D01*
X483372Y152554D01*
X483380Y152556D01*
X483383Y152552D01*
X484476Y152451D01*
X484478Y152453D01*
X484480Y152451D01*
X490480Y152451D01*
X490483Y152453D01*
G37*
D10*
X160900Y208280D03*
X143900Y208280D03*
X160900Y149860D03*
X143900Y149860D03*
D11*
X232410Y192600D03*
X232410Y187600D03*
X232410Y182600D03*
X232410Y177600D03*
X232410Y172600D03*
X232410Y167600D03*
X232410Y162600D03*
X232410Y157600D03*
X232410Y152600D03*
X232410Y147600D03*
X232410Y142600D03*
X232410Y137600D03*
D12*
X205410Y215600D03*
X205410Y114600D03*
D11*
X60100Y106800D03*
X60100Y111800D03*
D13*
X60100Y82050D03*
X60100Y89800D03*
D11*
X60100Y96800D03*
X60100Y101800D03*
X60100Y121800D03*
X60100Y116800D03*
D13*
X60100Y146550D03*
X60100Y138800D03*
D11*
X60100Y131800D03*
X60100Y126800D03*
D14*
X161900Y192071D03*
X152400Y192071D03*
X142900Y192071D03*
X142900Y166069D03*
X161900Y166069D03*
D15*
X93980Y80400D03*
X93980Y97400D03*
X93980Y148200D03*
X93980Y131200D03*
D16*
X355760Y200000D03*
X355760Y181000D03*
X376760Y190500D03*
D17*
X418460Y63500D03*
X338460Y63500D03*
D15*
X337820Y147710D03*
X337820Y164710D03*
X337820Y182000D03*
X337820Y199000D03*
D10*
X338210Y214630D03*
X355210Y214630D03*
X296790Y214630D03*
X279790Y214630D03*
D15*
X279400Y182000D03*
X279400Y199000D03*
D16*
X294800Y200000D03*
X294800Y181000D03*
X315800Y190500D03*
D18*
X220790Y33980D02*
X220790Y26980D01*
X213790Y26980D01*
X213790Y33980D01*
X220790Y33980D01*
X220790Y29830D02*
X213790Y29830D01*
X213790Y32680D02*
X220790Y32680D01*
X238330Y33980D02*
X238330Y26980D01*
X231330Y26980D01*
X231330Y33980D01*
X238330Y33980D01*
X238330Y29830D02*
X231330Y29830D01*
X231330Y32680D02*
X238330Y32680D01*
D10*
X258690Y205740D03*
X241690Y205740D03*
D19*
X297180Y140970D03*
X297180Y85090D03*
X259080Y140970D03*
X259080Y85090D03*
D10*
X217560Y12700D03*
X234560Y12700D03*
X635880Y208280D03*
X618880Y208280D03*
X635880Y149860D03*
X618880Y149860D03*
D11*
X707390Y192600D03*
X707390Y187600D03*
X707390Y182600D03*
X707390Y177600D03*
X707390Y172600D03*
X707390Y167600D03*
X707390Y162600D03*
X707390Y157600D03*
X707390Y152600D03*
X707390Y147600D03*
X707390Y142600D03*
X707390Y137600D03*
D12*
X680390Y215600D03*
X680390Y114600D03*
D11*
X535080Y106800D03*
X535080Y111800D03*
D13*
X535080Y82050D03*
X535080Y89800D03*
D11*
X535080Y96800D03*
X535080Y101800D03*
X535080Y121800D03*
X535080Y116800D03*
D13*
X535080Y146550D03*
X535080Y138800D03*
D11*
X535080Y131800D03*
X535080Y126800D03*
D14*
X636880Y192071D03*
X627380Y192071D03*
X617880Y192071D03*
X617880Y166069D03*
X636880Y166069D03*
D15*
X568960Y80400D03*
X568960Y97400D03*
X568960Y148200D03*
X568960Y131200D03*
D16*
X830740Y200000D03*
X830740Y181000D03*
X851740Y190500D03*
D17*
X893440Y63500D03*
X813440Y63500D03*
D15*
X812800Y147710D03*
X812800Y164710D03*
X812800Y182000D03*
X812800Y199000D03*
D10*
X813190Y214630D03*
X830190Y214630D03*
X771770Y214630D03*
X754770Y214630D03*
D15*
X754380Y182000D03*
X754380Y199000D03*
D16*
X769780Y200000D03*
X769780Y181000D03*
X790780Y190500D03*
D18*
X695770Y33980D02*
X695770Y26980D01*
X688770Y26980D01*
X688770Y33980D01*
X695770Y33980D01*
X695770Y29830D02*
X688770Y29830D01*
X688770Y32680D02*
X695770Y32680D01*
X713310Y33980D02*
X713310Y26980D01*
X706310Y26980D01*
X706310Y33980D01*
X713310Y33980D01*
X713310Y29830D02*
X706310Y29830D01*
X706310Y32680D02*
X713310Y32680D01*
D10*
X733670Y205740D03*
X716670Y205740D03*
D19*
X772160Y140970D03*
X772160Y85090D03*
X734060Y140970D03*
X734060Y85090D03*
D10*
X692540Y12700D03*
X709540Y12700D03*
X1110860Y208280D03*
X1093860Y208280D03*
X1110860Y149860D03*
X1093860Y149860D03*
D11*
X1182370Y192600D03*
X1182370Y187600D03*
X1182370Y182600D03*
X1182370Y177600D03*
X1182370Y172600D03*
X1182370Y167600D03*
X1182370Y162600D03*
X1182370Y157600D03*
X1182370Y152600D03*
X1182370Y147600D03*
X1182370Y142600D03*
X1182370Y137600D03*
D12*
X1155370Y215600D03*
X1155370Y114600D03*
D11*
X1010060Y106800D03*
X1010060Y111800D03*
D13*
X1010060Y82050D03*
X1010060Y89800D03*
D11*
X1010060Y96800D03*
X1010060Y101800D03*
X1010060Y121800D03*
X1010060Y116800D03*
D13*
X1010060Y146550D03*
X1010060Y138800D03*
D11*
X1010060Y131800D03*
X1010060Y126800D03*
D14*
X1111860Y192071D03*
X1102360Y192071D03*
X1092860Y192071D03*
X1092860Y166069D03*
X1111860Y166069D03*
D15*
X1043940Y80400D03*
X1043940Y97400D03*
X1043940Y148200D03*
X1043940Y131200D03*
D16*
X1305720Y200000D03*
X1305720Y181000D03*
X1326720Y190500D03*
D17*
X1368420Y63500D03*
X1288420Y63500D03*
D15*
X1287780Y147710D03*
X1287780Y164710D03*
X1287780Y182000D03*
X1287780Y199000D03*
D10*
X1288170Y214630D03*
X1305170Y214630D03*
X1246750Y214630D03*
X1229750Y214630D03*
D15*
X1229360Y182000D03*
X1229360Y199000D03*
D16*
X1244760Y200000D03*
X1244760Y181000D03*
X1265760Y190500D03*
D18*
X1170750Y33980D02*
X1170750Y26980D01*
X1163750Y26980D01*
X1163750Y33980D01*
X1170750Y33980D01*
X1170750Y29830D02*
X1163750Y29830D01*
X1163750Y32680D02*
X1170750Y32680D01*
X1188290Y33980D02*
X1188290Y26980D01*
X1181290Y26980D01*
X1181290Y33980D01*
X1188290Y33980D01*
X1188290Y29830D02*
X1181290Y29830D01*
X1181290Y32680D02*
X1188290Y32680D01*
D10*
X1208650Y205740D03*
X1191650Y205740D03*
D19*
X1247140Y140970D03*
X1247140Y85090D03*
X1209040Y140970D03*
X1209040Y85090D03*
D10*
X1167520Y12700D03*
X1184520Y12700D03*
X160900Y441960D03*
X143900Y441960D03*
X160900Y383540D03*
X143900Y383540D03*
D11*
X232410Y426280D03*
X232410Y421280D03*
X232410Y416280D03*
X232410Y411280D03*
X232410Y406280D03*
X232410Y401280D03*
X232410Y396280D03*
X232410Y391280D03*
X232410Y386280D03*
X232410Y381280D03*
X232410Y376280D03*
X232410Y371280D03*
D12*
X205410Y449280D03*
X205410Y348280D03*
D11*
X60100Y340480D03*
X60100Y345480D03*
D13*
X60100Y315730D03*
X60100Y323480D03*
D11*
X60100Y330480D03*
X60100Y335480D03*
X60100Y355480D03*
X60100Y350480D03*
D13*
X60100Y380230D03*
X60100Y372480D03*
D11*
X60100Y365480D03*
X60100Y360480D03*
D14*
X161900Y425751D03*
X152400Y425751D03*
X142900Y425751D03*
X142900Y399749D03*
X161900Y399749D03*
D15*
X93980Y314080D03*
X93980Y331080D03*
X93980Y381880D03*
X93980Y364880D03*
D16*
X355760Y433680D03*
X355760Y414680D03*
X376760Y424180D03*
D17*
X418460Y297180D03*
X338460Y297180D03*
D15*
X337820Y381390D03*
X337820Y398390D03*
X337820Y415680D03*
X337820Y432680D03*
D10*
X338210Y448310D03*
X355210Y448310D03*
X296790Y448310D03*
X279790Y448310D03*
D15*
X279400Y415680D03*
X279400Y432680D03*
D16*
X294800Y433680D03*
X294800Y414680D03*
X315800Y424180D03*
D18*
X220790Y267660D02*
X220790Y260660D01*
X213790Y260660D01*
X213790Y267660D01*
X220790Y267660D01*
X220790Y263510D02*
X213790Y263510D01*
X213790Y266360D02*
X220790Y266360D01*
X238330Y267660D02*
X238330Y260660D01*
X231330Y260660D01*
X231330Y267660D01*
X238330Y267660D01*
X238330Y263510D02*
X231330Y263510D01*
X231330Y266360D02*
X238330Y266360D01*
D10*
X258690Y439420D03*
X241690Y439420D03*
D19*
X297180Y374650D03*
X297180Y318770D03*
X259080Y374650D03*
X259080Y318770D03*
D10*
X217560Y246380D03*
X234560Y246380D03*
X635880Y441960D03*
X618880Y441960D03*
X635880Y383540D03*
X618880Y383540D03*
D11*
X707390Y426280D03*
X707390Y421280D03*
X707390Y416280D03*
X707390Y411280D03*
X707390Y406280D03*
X707390Y401280D03*
X707390Y396280D03*
X707390Y391280D03*
X707390Y386280D03*
X707390Y381280D03*
X707390Y376280D03*
X707390Y371280D03*
D12*
X680390Y449280D03*
X680390Y348280D03*
D11*
X535080Y340480D03*
X535080Y345480D03*
D13*
X535080Y315730D03*
X535080Y323480D03*
D11*
X535080Y330480D03*
X535080Y335480D03*
X535080Y355480D03*
X535080Y350480D03*
D13*
X535080Y380230D03*
X535080Y372480D03*
D11*
X535080Y365480D03*
X535080Y360480D03*
D14*
X636880Y425751D03*
X627380Y425751D03*
X617880Y425751D03*
X617880Y399749D03*
X636880Y399749D03*
D15*
X568960Y314080D03*
X568960Y331080D03*
X568960Y381880D03*
X568960Y364880D03*
D16*
X830740Y433680D03*
X830740Y414680D03*
X851740Y424180D03*
D17*
X893440Y297180D03*
X813440Y297180D03*
D15*
X812800Y381390D03*
X812800Y398390D03*
X812800Y415680D03*
X812800Y432680D03*
D10*
X813190Y448310D03*
X830190Y448310D03*
X771770Y448310D03*
X754770Y448310D03*
D15*
X754380Y415680D03*
X754380Y432680D03*
D16*
X769780Y433680D03*
X769780Y414680D03*
X790780Y424180D03*
D18*
X695770Y267660D02*
X695770Y260660D01*
X688770Y260660D01*
X688770Y267660D01*
X695770Y267660D01*
X695770Y263510D02*
X688770Y263510D01*
X688770Y266360D02*
X695770Y266360D01*
X713310Y267660D02*
X713310Y260660D01*
X706310Y260660D01*
X706310Y267660D01*
X713310Y267660D01*
X713310Y263510D02*
X706310Y263510D01*
X706310Y266360D02*
X713310Y266360D01*
D10*
X733670Y439420D03*
X716670Y439420D03*
D19*
X772160Y374650D03*
X772160Y318770D03*
X734060Y374650D03*
X734060Y318770D03*
D10*
X692540Y246380D03*
X709540Y246380D03*
X1110860Y441960D03*
X1093860Y441960D03*
X1110860Y383540D03*
X1093860Y383540D03*
D11*
X1182370Y426280D03*
X1182370Y421280D03*
X1182370Y416280D03*
X1182370Y411280D03*
X1182370Y406280D03*
X1182370Y401280D03*
X1182370Y396280D03*
X1182370Y391280D03*
X1182370Y386280D03*
X1182370Y381280D03*
X1182370Y376280D03*
X1182370Y371280D03*
D12*
X1155370Y449280D03*
X1155370Y348280D03*
D11*
X1010060Y340480D03*
X1010060Y345480D03*
D13*
X1010060Y315730D03*
X1010060Y323480D03*
D11*
X1010060Y330480D03*
X1010060Y335480D03*
X1010060Y355480D03*
X1010060Y350480D03*
D13*
X1010060Y380230D03*
X1010060Y372480D03*
D11*
X1010060Y365480D03*
X1010060Y360480D03*
D14*
X1111860Y425751D03*
X1102360Y425751D03*
X1092860Y425751D03*
X1092860Y399749D03*
X1111860Y399749D03*
D15*
X1043940Y314080D03*
X1043940Y331080D03*
X1043940Y381880D03*
X1043940Y364880D03*
D16*
X1305720Y433680D03*
X1305720Y414680D03*
X1326720Y424180D03*
D17*
X1368420Y297180D03*
X1288420Y297180D03*
D15*
X1287780Y381390D03*
X1287780Y398390D03*
X1287780Y415680D03*
X1287780Y432680D03*
D10*
X1288170Y448310D03*
X1305170Y448310D03*
X1246750Y448310D03*
X1229750Y448310D03*
D15*
X1229360Y415680D03*
X1229360Y432680D03*
D16*
X1244760Y433680D03*
X1244760Y414680D03*
X1265760Y424180D03*
D18*
X1170750Y267660D02*
X1170750Y260660D01*
X1163750Y260660D01*
X1163750Y267660D01*
X1170750Y267660D01*
X1170750Y263510D02*
X1163750Y263510D01*
X1163750Y266360D02*
X1170750Y266360D01*
X1188290Y267660D02*
X1188290Y260660D01*
X1181290Y260660D01*
X1181290Y267660D01*
X1188290Y267660D01*
X1188290Y263510D02*
X1181290Y263510D01*
X1181290Y266360D02*
X1188290Y266360D01*
D10*
X1208650Y439420D03*
X1191650Y439420D03*
D19*
X1247140Y374650D03*
X1247140Y318770D03*
X1209040Y374650D03*
X1209040Y318770D03*
D10*
X1167520Y246380D03*
X1184520Y246380D03*
X160900Y675640D03*
X143900Y675640D03*
X160900Y617220D03*
X143900Y617220D03*
D11*
X232410Y659960D03*
X232410Y654960D03*
X232410Y649960D03*
X232410Y644960D03*
X232410Y639960D03*
X232410Y634960D03*
X232410Y629960D03*
X232410Y624960D03*
X232410Y619960D03*
X232410Y614960D03*
X232410Y609960D03*
X232410Y604960D03*
D12*
X205410Y682960D03*
X205410Y581960D03*
D11*
X60100Y574160D03*
X60100Y579160D03*
D13*
X60100Y549410D03*
X60100Y557160D03*
D11*
X60100Y564160D03*
X60100Y569160D03*
X60100Y589160D03*
X60100Y584160D03*
D13*
X60100Y613910D03*
X60100Y606160D03*
D11*
X60100Y599160D03*
X60100Y594160D03*
D14*
X161900Y659431D03*
X152400Y659431D03*
X142900Y659431D03*
X142900Y633429D03*
X161900Y633429D03*
D15*
X93980Y547760D03*
X93980Y564760D03*
X93980Y615560D03*
X93980Y598560D03*
D16*
X355760Y667360D03*
X355760Y648360D03*
X376760Y657860D03*
D17*
X418460Y530860D03*
X338460Y530860D03*
D15*
X337820Y615070D03*
X337820Y632070D03*
X337820Y649360D03*
X337820Y666360D03*
D10*
X338210Y681990D03*
X355210Y681990D03*
X296790Y681990D03*
X279790Y681990D03*
D15*
X279400Y649360D03*
X279400Y666360D03*
D16*
X294800Y667360D03*
X294800Y648360D03*
X315800Y657860D03*
D18*
X220790Y501340D02*
X220790Y494340D01*
X213790Y494340D01*
X213790Y501340D01*
X220790Y501340D01*
X220790Y497190D02*
X213790Y497190D01*
X213790Y500040D02*
X220790Y500040D01*
X238330Y501340D02*
X238330Y494340D01*
X231330Y494340D01*
X231330Y501340D01*
X238330Y501340D01*
X238330Y497190D02*
X231330Y497190D01*
X231330Y500040D02*
X238330Y500040D01*
D10*
X258690Y673100D03*
X241690Y673100D03*
D19*
X297180Y608330D03*
X297180Y552450D03*
X259080Y608330D03*
X259080Y552450D03*
D10*
X217560Y480060D03*
X234560Y480060D03*
X635880Y675640D03*
X618880Y675640D03*
X635880Y617220D03*
X618880Y617220D03*
D11*
X707390Y659960D03*
X707390Y654960D03*
X707390Y649960D03*
X707390Y644960D03*
X707390Y639960D03*
X707390Y634960D03*
X707390Y629960D03*
X707390Y624960D03*
X707390Y619960D03*
X707390Y614960D03*
X707390Y609960D03*
X707390Y604960D03*
D12*
X680390Y682960D03*
X680390Y581960D03*
D11*
X535080Y574160D03*
X535080Y579160D03*
D13*
X535080Y549410D03*
X535080Y557160D03*
D11*
X535080Y564160D03*
X535080Y569160D03*
X535080Y589160D03*
X535080Y584160D03*
D13*
X535080Y613910D03*
X535080Y606160D03*
D11*
X535080Y599160D03*
X535080Y594160D03*
D14*
X636880Y659431D03*
X627380Y659431D03*
X617880Y659431D03*
X617880Y633429D03*
X636880Y633429D03*
D15*
X568960Y547760D03*
X568960Y564760D03*
X568960Y615560D03*
X568960Y598560D03*
D16*
X830740Y667360D03*
X830740Y648360D03*
X851740Y657860D03*
D17*
X893440Y530860D03*
X813440Y530860D03*
D15*
X812800Y615070D03*
X812800Y632070D03*
X812800Y649360D03*
X812800Y666360D03*
D10*
X813190Y681990D03*
X830190Y681990D03*
X771770Y681990D03*
X754770Y681990D03*
D15*
X754380Y649360D03*
X754380Y666360D03*
D16*
X769780Y667360D03*
X769780Y648360D03*
X790780Y657860D03*
D18*
X695770Y501340D02*
X695770Y494340D01*
X688770Y494340D01*
X688770Y501340D01*
X695770Y501340D01*
X695770Y497190D02*
X688770Y497190D01*
X688770Y500040D02*
X695770Y500040D01*
X713310Y501340D02*
X713310Y494340D01*
X706310Y494340D01*
X706310Y501340D01*
X713310Y501340D01*
X713310Y497190D02*
X706310Y497190D01*
X706310Y500040D02*
X713310Y500040D01*
D10*
X733670Y673100D03*
X716670Y673100D03*
D19*
X772160Y608330D03*
X772160Y552450D03*
X734060Y608330D03*
X734060Y552450D03*
D10*
X692540Y480060D03*
X709540Y480060D03*
X1110860Y675640D03*
X1093860Y675640D03*
X1110860Y617220D03*
X1093860Y617220D03*
D11*
X1182370Y659960D03*
X1182370Y654960D03*
X1182370Y649960D03*
X1182370Y644960D03*
X1182370Y639960D03*
X1182370Y634960D03*
X1182370Y629960D03*
X1182370Y624960D03*
X1182370Y619960D03*
X1182370Y614960D03*
X1182370Y609960D03*
X1182370Y604960D03*
D12*
X1155370Y682960D03*
X1155370Y581960D03*
D11*
X1010060Y574160D03*
X1010060Y579160D03*
D13*
X1010060Y549410D03*
X1010060Y557160D03*
D11*
X1010060Y564160D03*
X1010060Y569160D03*
X1010060Y589160D03*
X1010060Y584160D03*
D13*
X1010060Y613910D03*
X1010060Y606160D03*
D11*
X1010060Y599160D03*
X1010060Y594160D03*
D14*
X1111860Y659431D03*
X1102360Y659431D03*
X1092860Y659431D03*
X1092860Y633429D03*
X1111860Y633429D03*
D15*
X1043940Y547760D03*
X1043940Y564760D03*
X1043940Y615560D03*
X1043940Y598560D03*
D16*
X1305720Y667360D03*
X1305720Y648360D03*
X1326720Y657860D03*
D17*
X1368420Y530860D03*
X1288420Y530860D03*
D15*
X1287780Y615070D03*
X1287780Y632070D03*
X1287780Y649360D03*
X1287780Y666360D03*
D10*
X1288170Y681990D03*
X1305170Y681990D03*
X1246750Y681990D03*
X1229750Y681990D03*
D15*
X1229360Y649360D03*
X1229360Y666360D03*
D16*
X1244760Y667360D03*
X1244760Y648360D03*
X1265760Y657860D03*
D18*
X1170750Y501340D02*
X1170750Y494340D01*
X1163750Y494340D01*
X1163750Y501340D01*
X1170750Y501340D01*
X1170750Y497190D02*
X1163750Y497190D01*
X1163750Y500040D02*
X1170750Y500040D01*
X1188290Y501340D02*
X1188290Y494340D01*
X1181290Y494340D01*
X1181290Y501340D01*
X1188290Y501340D01*
X1188290Y497190D02*
X1181290Y497190D01*
X1181290Y500040D02*
X1188290Y500040D01*
D10*
X1208650Y673100D03*
X1191650Y673100D03*
D19*
X1247140Y608330D03*
X1247140Y552450D03*
X1209040Y608330D03*
X1209040Y552450D03*
D10*
X1167520Y480060D03*
X1184520Y480060D03*
X160900Y909320D03*
X143900Y909320D03*
X160900Y850900D03*
X143900Y850900D03*
D11*
X232410Y893640D03*
X232410Y888640D03*
X232410Y883640D03*
X232410Y878640D03*
X232410Y873640D03*
X232410Y868640D03*
X232410Y863640D03*
X232410Y858640D03*
X232410Y853640D03*
X232410Y848640D03*
X232410Y843640D03*
X232410Y838640D03*
D12*
X205410Y916640D03*
X205410Y815640D03*
D11*
X60100Y807840D03*
X60100Y812840D03*
D13*
X60100Y783090D03*
X60100Y790840D03*
D11*
X60100Y797840D03*
X60100Y802840D03*
X60100Y822840D03*
X60100Y817840D03*
D13*
X60100Y847590D03*
X60100Y839840D03*
D11*
X60100Y832840D03*
X60100Y827840D03*
D14*
X161900Y893111D03*
X152400Y893111D03*
X142900Y893111D03*
X142900Y867109D03*
X161900Y867109D03*
D15*
X93980Y781440D03*
X93980Y798440D03*
X93980Y849240D03*
X93980Y832240D03*
D16*
X355760Y901040D03*
X355760Y882040D03*
X376760Y891540D03*
D17*
X418460Y764540D03*
X338460Y764540D03*
D15*
X337820Y848750D03*
X337820Y865750D03*
X337820Y883040D03*
X337820Y900040D03*
D10*
X338210Y915670D03*
X355210Y915670D03*
X296790Y915670D03*
X279790Y915670D03*
D15*
X279400Y883040D03*
X279400Y900040D03*
D16*
X294800Y901040D03*
X294800Y882040D03*
X315800Y891540D03*
D18*
X220790Y735020D02*
X220790Y728020D01*
X213790Y728020D01*
X213790Y735020D01*
X220790Y735020D01*
X220790Y730870D02*
X213790Y730870D01*
X213790Y733720D02*
X220790Y733720D01*
X238330Y735020D02*
X238330Y728020D01*
X231330Y728020D01*
X231330Y735020D01*
X238330Y735020D01*
X238330Y730870D02*
X231330Y730870D01*
X231330Y733720D02*
X238330Y733720D01*
D10*
X258690Y906780D03*
X241690Y906780D03*
D19*
X297180Y842010D03*
X297180Y786130D03*
X259080Y842010D03*
X259080Y786130D03*
D10*
X217560Y713740D03*
X234560Y713740D03*
X635880Y909320D03*
X618880Y909320D03*
X635880Y850900D03*
X618880Y850900D03*
D11*
X707390Y893640D03*
X707390Y888640D03*
X707390Y883640D03*
X707390Y878640D03*
X707390Y873640D03*
X707390Y868640D03*
X707390Y863640D03*
X707390Y858640D03*
X707390Y853640D03*
X707390Y848640D03*
X707390Y843640D03*
X707390Y838640D03*
D12*
X680390Y916640D03*
X680390Y815640D03*
D11*
X535080Y807840D03*
X535080Y812840D03*
D13*
X535080Y783090D03*
X535080Y790840D03*
D11*
X535080Y797840D03*
X535080Y802840D03*
X535080Y822840D03*
X535080Y817840D03*
D13*
X535080Y847590D03*
X535080Y839840D03*
D11*
X535080Y832840D03*
X535080Y827840D03*
D14*
X636880Y893111D03*
X627380Y893111D03*
X617880Y893111D03*
X617880Y867109D03*
X636880Y867109D03*
D15*
X568960Y781440D03*
X568960Y798440D03*
X568960Y849240D03*
X568960Y832240D03*
D16*
X830740Y901040D03*
X830740Y882040D03*
X851740Y891540D03*
D17*
X893440Y764540D03*
X813440Y764540D03*
D15*
X812800Y848750D03*
X812800Y865750D03*
X812800Y883040D03*
X812800Y900040D03*
D10*
X813190Y915670D03*
X830190Y915670D03*
X771770Y915670D03*
X754770Y915670D03*
D15*
X754380Y883040D03*
X754380Y900040D03*
D16*
X769780Y901040D03*
X769780Y882040D03*
X790780Y891540D03*
D18*
X695770Y735020D02*
X695770Y728020D01*
X688770Y728020D01*
X688770Y735020D01*
X695770Y735020D01*
X695770Y730870D02*
X688770Y730870D01*
X688770Y733720D02*
X695770Y733720D01*
X713310Y735020D02*
X713310Y728020D01*
X706310Y728020D01*
X706310Y735020D01*
X713310Y735020D01*
X713310Y730870D02*
X706310Y730870D01*
X706310Y733720D02*
X713310Y733720D01*
D10*
X733670Y906780D03*
X716670Y906780D03*
D19*
X772160Y842010D03*
X772160Y786130D03*
X734060Y842010D03*
X734060Y786130D03*
D10*
X692540Y713740D03*
X709540Y713740D03*
X1110860Y909320D03*
X1093860Y909320D03*
X1110860Y850900D03*
X1093860Y850900D03*
D11*
X1182370Y893640D03*
X1182370Y888640D03*
X1182370Y883640D03*
X1182370Y878640D03*
X1182370Y873640D03*
X1182370Y868640D03*
X1182370Y863640D03*
X1182370Y858640D03*
X1182370Y853640D03*
X1182370Y848640D03*
X1182370Y843640D03*
X1182370Y838640D03*
D12*
X1155370Y916640D03*
X1155370Y815640D03*
D11*
X1010060Y807840D03*
X1010060Y812840D03*
D13*
X1010060Y783090D03*
X1010060Y790840D03*
D11*
X1010060Y797840D03*
X1010060Y802840D03*
X1010060Y822840D03*
X1010060Y817840D03*
D13*
X1010060Y847590D03*
X1010060Y839840D03*
D11*
X1010060Y832840D03*
X1010060Y827840D03*
D14*
X1111860Y893111D03*
X1102360Y893111D03*
X1092860Y893111D03*
X1092860Y867109D03*
X1111860Y867109D03*
D15*
X1043940Y781440D03*
X1043940Y798440D03*
X1043940Y849240D03*
X1043940Y832240D03*
D16*
X1305720Y901040D03*
X1305720Y882040D03*
X1326720Y891540D03*
D17*
X1368420Y764540D03*
X1288420Y764540D03*
D15*
X1287780Y848750D03*
X1287780Y865750D03*
X1287780Y883040D03*
X1287780Y900040D03*
D10*
X1288170Y915670D03*
X1305170Y915670D03*
X1246750Y915670D03*
X1229750Y915670D03*
D15*
X1229360Y883040D03*
X1229360Y900040D03*
D16*
X1244760Y901040D03*
X1244760Y882040D03*
X1265760Y891540D03*
D18*
X1170750Y735020D02*
X1170750Y728020D01*
X1163750Y728020D01*
X1163750Y735020D01*
X1170750Y735020D01*
X1170750Y730870D02*
X1163750Y730870D01*
X1163750Y733720D02*
X1170750Y733720D01*
X1188290Y735020D02*
X1188290Y728020D01*
X1181290Y728020D01*
X1181290Y735020D01*
X1188290Y735020D01*
X1188290Y730870D02*
X1181290Y730870D01*
X1181290Y733720D02*
X1188290Y733720D01*
D10*
X1208650Y906780D03*
X1191650Y906780D03*
D19*
X1247140Y842010D03*
X1247140Y786130D03*
X1209040Y842010D03*
X1209040Y786130D03*
D10*
X1167520Y713740D03*
X1184520Y713740D03*
X160900Y1143000D03*
X143900Y1143000D03*
X160900Y1084580D03*
X143900Y1084580D03*
D11*
X232410Y1127320D03*
X232410Y1122320D03*
X232410Y1117320D03*
X232410Y1112320D03*
X232410Y1107320D03*
X232410Y1102320D03*
X232410Y1097320D03*
X232410Y1092320D03*
X232410Y1087320D03*
X232410Y1082320D03*
X232410Y1077320D03*
X232410Y1072320D03*
D12*
X205410Y1150320D03*
X205410Y1049320D03*
D11*
X60100Y1041520D03*
X60100Y1046520D03*
D13*
X60100Y1016770D03*
X60100Y1024520D03*
D11*
X60100Y1031520D03*
X60100Y1036520D03*
X60100Y1056520D03*
X60100Y1051520D03*
D13*
X60100Y1081270D03*
X60100Y1073520D03*
D11*
X60100Y1066520D03*
X60100Y1061520D03*
D14*
X161900Y1126791D03*
X152400Y1126791D03*
X142900Y1126791D03*
X142900Y1100789D03*
X161900Y1100789D03*
D15*
X93980Y1015120D03*
X93980Y1032120D03*
X93980Y1082920D03*
X93980Y1065920D03*
D16*
X355760Y1134720D03*
X355760Y1115720D03*
X376760Y1125220D03*
D17*
X418460Y998220D03*
X338460Y998220D03*
D15*
X337820Y1082430D03*
X337820Y1099430D03*
X337820Y1116720D03*
X337820Y1133720D03*
D10*
X338210Y1149350D03*
X355210Y1149350D03*
X296790Y1149350D03*
X279790Y1149350D03*
D15*
X279400Y1116720D03*
X279400Y1133720D03*
D16*
X294800Y1134720D03*
X294800Y1115720D03*
X315800Y1125220D03*
D18*
X220790Y968700D02*
X220790Y961700D01*
X213790Y961700D01*
X213790Y968700D01*
X220790Y968700D01*
X220790Y964550D02*
X213790Y964550D01*
X213790Y967400D02*
X220790Y967400D01*
X238330Y968700D02*
X238330Y961700D01*
X231330Y961700D01*
X231330Y968700D01*
X238330Y968700D01*
X238330Y964550D02*
X231330Y964550D01*
X231330Y967400D02*
X238330Y967400D01*
D10*
X258690Y1140460D03*
X241690Y1140460D03*
D19*
X297180Y1075690D03*
X297180Y1019810D03*
X259080Y1075690D03*
X259080Y1019810D03*
D10*
X217560Y947420D03*
X234560Y947420D03*
X635880Y1143000D03*
X618880Y1143000D03*
X635880Y1084580D03*
X618880Y1084580D03*
D11*
X707390Y1127320D03*
X707390Y1122320D03*
X707390Y1117320D03*
X707390Y1112320D03*
X707390Y1107320D03*
X707390Y1102320D03*
X707390Y1097320D03*
X707390Y1092320D03*
X707390Y1087320D03*
X707390Y1082320D03*
X707390Y1077320D03*
X707390Y1072320D03*
D12*
X680390Y1150320D03*
X680390Y1049320D03*
D11*
X535080Y1041520D03*
X535080Y1046520D03*
D13*
X535080Y1016770D03*
X535080Y1024520D03*
D11*
X535080Y1031520D03*
X535080Y1036520D03*
X535080Y1056520D03*
X535080Y1051520D03*
D13*
X535080Y1081270D03*
X535080Y1073520D03*
D11*
X535080Y1066520D03*
X535080Y1061520D03*
D14*
X636880Y1126791D03*
X627380Y1126791D03*
X617880Y1126791D03*
X617880Y1100789D03*
X636880Y1100789D03*
D15*
X568960Y1015120D03*
X568960Y1032120D03*
X568960Y1082920D03*
X568960Y1065920D03*
D16*
X830740Y1134720D03*
X830740Y1115720D03*
X851740Y1125220D03*
D17*
X893440Y998220D03*
X813440Y998220D03*
D15*
X812800Y1082430D03*
X812800Y1099430D03*
X812800Y1116720D03*
X812800Y1133720D03*
D10*
X813190Y1149350D03*
X830190Y1149350D03*
X771770Y1149350D03*
X754770Y1149350D03*
D15*
X754380Y1116720D03*
X754380Y1133720D03*
D16*
X769780Y1134720D03*
X769780Y1115720D03*
X790780Y1125220D03*
D18*
X695770Y968700D02*
X695770Y961700D01*
X688770Y961700D01*
X688770Y968700D01*
X695770Y968700D01*
X695770Y964550D02*
X688770Y964550D01*
X688770Y967400D02*
X695770Y967400D01*
X713310Y968700D02*
X713310Y961700D01*
X706310Y961700D01*
X706310Y968700D01*
X713310Y968700D01*
X713310Y964550D02*
X706310Y964550D01*
X706310Y967400D02*
X713310Y967400D01*
D10*
X733670Y1140460D03*
X716670Y1140460D03*
D19*
X772160Y1075690D03*
X772160Y1019810D03*
X734060Y1075690D03*
X734060Y1019810D03*
D10*
X692540Y947420D03*
X709540Y947420D03*
X1110860Y1143000D03*
X1093860Y1143000D03*
X1110860Y1084580D03*
X1093860Y1084580D03*
D11*
X1182370Y1127320D03*
X1182370Y1122320D03*
X1182370Y1117320D03*
X1182370Y1112320D03*
X1182370Y1107320D03*
X1182370Y1102320D03*
X1182370Y1097320D03*
X1182370Y1092320D03*
X1182370Y1087320D03*
X1182370Y1082320D03*
X1182370Y1077320D03*
X1182370Y1072320D03*
D12*
X1155370Y1150320D03*
X1155370Y1049320D03*
D11*
X1010060Y1041520D03*
X1010060Y1046520D03*
D13*
X1010060Y1016770D03*
X1010060Y1024520D03*
D11*
X1010060Y1031520D03*
X1010060Y1036520D03*
X1010060Y1056520D03*
X1010060Y1051520D03*
D13*
X1010060Y1081270D03*
X1010060Y1073520D03*
D11*
X1010060Y1066520D03*
X1010060Y1061520D03*
D14*
X1111860Y1126791D03*
X1102360Y1126791D03*
X1092860Y1126791D03*
X1092860Y1100789D03*
X1111860Y1100789D03*
D15*
X1043940Y1015120D03*
X1043940Y1032120D03*
X1043940Y1082920D03*
X1043940Y1065920D03*
D16*
X1305720Y1134720D03*
X1305720Y1115720D03*
X1326720Y1125220D03*
D17*
X1368420Y998220D03*
X1288420Y998220D03*
D15*
X1287780Y1082430D03*
X1287780Y1099430D03*
X1287780Y1116720D03*
X1287780Y1133720D03*
D10*
X1288170Y1149350D03*
X1305170Y1149350D03*
X1246750Y1149350D03*
X1229750Y1149350D03*
D15*
X1229360Y1116720D03*
X1229360Y1133720D03*
D16*
X1244760Y1134720D03*
X1244760Y1115720D03*
X1265760Y1125220D03*
D18*
X1170750Y968700D02*
X1170750Y961700D01*
X1163750Y961700D01*
X1163750Y968700D01*
X1170750Y968700D01*
X1170750Y964550D02*
X1163750Y964550D01*
X1163750Y967400D02*
X1170750Y967400D01*
X1188290Y968700D02*
X1188290Y961700D01*
X1181290Y961700D01*
X1181290Y968700D01*
X1188290Y968700D01*
X1188290Y964550D02*
X1181290Y964550D01*
X1181290Y967400D02*
X1188290Y967400D01*
D10*
X1208650Y1140460D03*
X1191650Y1140460D03*
D19*
X1247140Y1075690D03*
X1247140Y1019810D03*
X1209040Y1075690D03*
X1209040Y1019810D03*
D10*
X1167520Y947420D03*
X1184520Y947420D03*
M02*
