G04 EAGLE Gerber RS-274X export*
G75*
%MOMM*%
%FSLAX34Y34*%
%LPD*%
%INSoldermask Bottom*%
%IPPOS*%
%AMOC8*
5,1,8,0,0,1.08239X$1,22.5*%
G01*
%ADD10C,0.853200*%
%ADD11C,2.203200*%
%ADD12C,1.003200*%
%ADD13C,3.505200*%
%ADD14C,2.082800*%
%ADD15R,0.838200X1.473200*%
%ADD16C,1.203200*%

G36*
X703010Y517537D02*
X703010Y517537D01*
X703076Y517539D01*
X703119Y517557D01*
X703166Y517565D01*
X703223Y517599D01*
X703283Y517624D01*
X703318Y517655D01*
X703359Y517680D01*
X703401Y517731D01*
X703449Y517775D01*
X703471Y517817D01*
X703500Y517854D01*
X703521Y517916D01*
X703552Y517975D01*
X703560Y518029D01*
X703572Y518066D01*
X703571Y518106D01*
X703579Y518160D01*
X703579Y520700D01*
X703568Y520765D01*
X703566Y520831D01*
X703548Y520874D01*
X703540Y520921D01*
X703506Y520978D01*
X703481Y521038D01*
X703450Y521073D01*
X703425Y521114D01*
X703374Y521156D01*
X703330Y521204D01*
X703288Y521226D01*
X703251Y521255D01*
X703189Y521276D01*
X703130Y521307D01*
X703076Y521315D01*
X703039Y521327D01*
X702999Y521326D01*
X702945Y521334D01*
X699135Y521334D01*
X699070Y521323D01*
X699004Y521321D01*
X698961Y521303D01*
X698914Y521295D01*
X698857Y521261D01*
X698797Y521236D01*
X698762Y521205D01*
X698721Y521180D01*
X698680Y521129D01*
X698631Y521085D01*
X698609Y521043D01*
X698580Y521006D01*
X698559Y520944D01*
X698528Y520885D01*
X698520Y520831D01*
X698508Y520794D01*
X698508Y520791D01*
X698509Y520754D01*
X698501Y520700D01*
X698501Y518160D01*
X698512Y518095D01*
X698514Y518029D01*
X698532Y517986D01*
X698540Y517939D01*
X698574Y517882D01*
X698599Y517822D01*
X698630Y517787D01*
X698655Y517746D01*
X698706Y517705D01*
X698750Y517656D01*
X698792Y517634D01*
X698829Y517605D01*
X698891Y517584D01*
X698950Y517553D01*
X699004Y517545D01*
X699041Y517533D01*
X699081Y517534D01*
X699135Y517526D01*
X702945Y517526D01*
X703010Y517537D01*
G37*
G36*
X1177990Y517537D02*
X1177990Y517537D01*
X1178056Y517539D01*
X1178099Y517557D01*
X1178146Y517565D01*
X1178203Y517599D01*
X1178263Y517624D01*
X1178298Y517655D01*
X1178339Y517680D01*
X1178381Y517731D01*
X1178429Y517775D01*
X1178451Y517817D01*
X1178480Y517854D01*
X1178501Y517916D01*
X1178532Y517975D01*
X1178540Y518029D01*
X1178552Y518066D01*
X1178551Y518106D01*
X1178559Y518160D01*
X1178559Y520700D01*
X1178548Y520765D01*
X1178546Y520831D01*
X1178528Y520874D01*
X1178520Y520921D01*
X1178486Y520978D01*
X1178461Y521038D01*
X1178430Y521073D01*
X1178405Y521114D01*
X1178354Y521156D01*
X1178310Y521204D01*
X1178268Y521226D01*
X1178231Y521255D01*
X1178169Y521276D01*
X1178110Y521307D01*
X1178056Y521315D01*
X1178019Y521327D01*
X1177979Y521326D01*
X1177925Y521334D01*
X1174115Y521334D01*
X1174050Y521323D01*
X1173984Y521321D01*
X1173941Y521303D01*
X1173894Y521295D01*
X1173837Y521261D01*
X1173777Y521236D01*
X1173742Y521205D01*
X1173701Y521180D01*
X1173660Y521129D01*
X1173611Y521085D01*
X1173589Y521043D01*
X1173560Y521006D01*
X1173539Y520944D01*
X1173508Y520885D01*
X1173500Y520831D01*
X1173488Y520794D01*
X1173488Y520791D01*
X1173489Y520754D01*
X1173481Y520700D01*
X1173481Y518160D01*
X1173492Y518095D01*
X1173494Y518029D01*
X1173512Y517986D01*
X1173520Y517939D01*
X1173554Y517882D01*
X1173579Y517822D01*
X1173610Y517787D01*
X1173635Y517746D01*
X1173686Y517705D01*
X1173730Y517656D01*
X1173772Y517634D01*
X1173809Y517605D01*
X1173871Y517584D01*
X1173930Y517553D01*
X1173984Y517545D01*
X1174021Y517533D01*
X1174061Y517534D01*
X1174115Y517526D01*
X1177925Y517526D01*
X1177990Y517537D01*
G37*
G36*
X228030Y517537D02*
X228030Y517537D01*
X228096Y517539D01*
X228139Y517557D01*
X228186Y517565D01*
X228243Y517599D01*
X228303Y517624D01*
X228338Y517655D01*
X228379Y517680D01*
X228421Y517731D01*
X228469Y517775D01*
X228491Y517817D01*
X228520Y517854D01*
X228541Y517916D01*
X228572Y517975D01*
X228580Y518029D01*
X228592Y518066D01*
X228591Y518106D01*
X228599Y518160D01*
X228599Y520700D01*
X228588Y520765D01*
X228586Y520831D01*
X228568Y520874D01*
X228560Y520921D01*
X228526Y520978D01*
X228501Y521038D01*
X228470Y521073D01*
X228445Y521114D01*
X228394Y521156D01*
X228350Y521204D01*
X228308Y521226D01*
X228271Y521255D01*
X228209Y521276D01*
X228150Y521307D01*
X228096Y521315D01*
X228059Y521327D01*
X228019Y521326D01*
X227965Y521334D01*
X224155Y521334D01*
X224090Y521323D01*
X224024Y521321D01*
X223981Y521303D01*
X223934Y521295D01*
X223877Y521261D01*
X223817Y521236D01*
X223782Y521205D01*
X223741Y521180D01*
X223700Y521129D01*
X223651Y521085D01*
X223629Y521043D01*
X223600Y521006D01*
X223579Y520944D01*
X223548Y520885D01*
X223540Y520831D01*
X223528Y520794D01*
X223528Y520791D01*
X223529Y520754D01*
X223521Y520700D01*
X223521Y518160D01*
X223532Y518095D01*
X223534Y518029D01*
X223552Y517986D01*
X223560Y517939D01*
X223594Y517882D01*
X223619Y517822D01*
X223650Y517787D01*
X223675Y517746D01*
X223726Y517705D01*
X223770Y517656D01*
X223812Y517634D01*
X223849Y517605D01*
X223911Y517584D01*
X223970Y517553D01*
X224024Y517545D01*
X224061Y517533D01*
X224101Y517534D01*
X224155Y517526D01*
X227965Y517526D01*
X228030Y517537D01*
G37*
G36*
X1177990Y984897D02*
X1177990Y984897D01*
X1178056Y984899D01*
X1178099Y984917D01*
X1178146Y984925D01*
X1178203Y984959D01*
X1178263Y984984D01*
X1178298Y985015D01*
X1178339Y985040D01*
X1178381Y985091D01*
X1178429Y985135D01*
X1178451Y985177D01*
X1178480Y985214D01*
X1178501Y985276D01*
X1178532Y985335D01*
X1178540Y985389D01*
X1178552Y985426D01*
X1178551Y985466D01*
X1178559Y985520D01*
X1178559Y988060D01*
X1178548Y988125D01*
X1178546Y988191D01*
X1178528Y988234D01*
X1178520Y988281D01*
X1178486Y988338D01*
X1178461Y988398D01*
X1178430Y988433D01*
X1178405Y988474D01*
X1178354Y988516D01*
X1178310Y988564D01*
X1178268Y988586D01*
X1178231Y988615D01*
X1178169Y988636D01*
X1178110Y988667D01*
X1178056Y988675D01*
X1178019Y988687D01*
X1177979Y988686D01*
X1177925Y988694D01*
X1174115Y988694D01*
X1174050Y988683D01*
X1173984Y988681D01*
X1173941Y988663D01*
X1173894Y988655D01*
X1173837Y988621D01*
X1173777Y988596D01*
X1173742Y988565D01*
X1173701Y988540D01*
X1173660Y988489D01*
X1173611Y988445D01*
X1173589Y988403D01*
X1173560Y988366D01*
X1173539Y988304D01*
X1173508Y988245D01*
X1173500Y988191D01*
X1173488Y988154D01*
X1173488Y988151D01*
X1173489Y988114D01*
X1173481Y988060D01*
X1173481Y985520D01*
X1173492Y985455D01*
X1173494Y985389D01*
X1173512Y985346D01*
X1173520Y985299D01*
X1173554Y985242D01*
X1173579Y985182D01*
X1173610Y985147D01*
X1173635Y985106D01*
X1173686Y985065D01*
X1173730Y985016D01*
X1173772Y984994D01*
X1173809Y984965D01*
X1173871Y984944D01*
X1173930Y984913D01*
X1173984Y984905D01*
X1174021Y984893D01*
X1174061Y984894D01*
X1174115Y984886D01*
X1177925Y984886D01*
X1177990Y984897D01*
G37*
G36*
X703010Y984897D02*
X703010Y984897D01*
X703076Y984899D01*
X703119Y984917D01*
X703166Y984925D01*
X703223Y984959D01*
X703283Y984984D01*
X703318Y985015D01*
X703359Y985040D01*
X703401Y985091D01*
X703449Y985135D01*
X703471Y985177D01*
X703500Y985214D01*
X703521Y985276D01*
X703552Y985335D01*
X703560Y985389D01*
X703572Y985426D01*
X703571Y985466D01*
X703579Y985520D01*
X703579Y988060D01*
X703568Y988125D01*
X703566Y988191D01*
X703548Y988234D01*
X703540Y988281D01*
X703506Y988338D01*
X703481Y988398D01*
X703450Y988433D01*
X703425Y988474D01*
X703374Y988516D01*
X703330Y988564D01*
X703288Y988586D01*
X703251Y988615D01*
X703189Y988636D01*
X703130Y988667D01*
X703076Y988675D01*
X703039Y988687D01*
X702999Y988686D01*
X702945Y988694D01*
X699135Y988694D01*
X699070Y988683D01*
X699004Y988681D01*
X698961Y988663D01*
X698914Y988655D01*
X698857Y988621D01*
X698797Y988596D01*
X698762Y988565D01*
X698721Y988540D01*
X698680Y988489D01*
X698631Y988445D01*
X698609Y988403D01*
X698580Y988366D01*
X698559Y988304D01*
X698528Y988245D01*
X698520Y988191D01*
X698508Y988154D01*
X698508Y988151D01*
X698509Y988114D01*
X698501Y988060D01*
X698501Y985520D01*
X698512Y985455D01*
X698514Y985389D01*
X698532Y985346D01*
X698540Y985299D01*
X698574Y985242D01*
X698599Y985182D01*
X698630Y985147D01*
X698655Y985106D01*
X698706Y985065D01*
X698750Y985016D01*
X698792Y984994D01*
X698829Y984965D01*
X698891Y984944D01*
X698950Y984913D01*
X699004Y984905D01*
X699041Y984893D01*
X699081Y984894D01*
X699135Y984886D01*
X702945Y984886D01*
X703010Y984897D01*
G37*
G36*
X228030Y984897D02*
X228030Y984897D01*
X228096Y984899D01*
X228139Y984917D01*
X228186Y984925D01*
X228243Y984959D01*
X228303Y984984D01*
X228338Y985015D01*
X228379Y985040D01*
X228421Y985091D01*
X228469Y985135D01*
X228491Y985177D01*
X228520Y985214D01*
X228541Y985276D01*
X228572Y985335D01*
X228580Y985389D01*
X228592Y985426D01*
X228591Y985466D01*
X228599Y985520D01*
X228599Y988060D01*
X228588Y988125D01*
X228586Y988191D01*
X228568Y988234D01*
X228560Y988281D01*
X228526Y988338D01*
X228501Y988398D01*
X228470Y988433D01*
X228445Y988474D01*
X228394Y988516D01*
X228350Y988564D01*
X228308Y988586D01*
X228271Y988615D01*
X228209Y988636D01*
X228150Y988667D01*
X228096Y988675D01*
X228059Y988687D01*
X228019Y988686D01*
X227965Y988694D01*
X224155Y988694D01*
X224090Y988683D01*
X224024Y988681D01*
X223981Y988663D01*
X223934Y988655D01*
X223877Y988621D01*
X223817Y988596D01*
X223782Y988565D01*
X223741Y988540D01*
X223700Y988489D01*
X223651Y988445D01*
X223629Y988403D01*
X223600Y988366D01*
X223579Y988304D01*
X223548Y988245D01*
X223540Y988191D01*
X223528Y988154D01*
X223528Y988151D01*
X223529Y988114D01*
X223521Y988060D01*
X223521Y985520D01*
X223532Y985455D01*
X223534Y985389D01*
X223552Y985346D01*
X223560Y985299D01*
X223594Y985242D01*
X223619Y985182D01*
X223650Y985147D01*
X223675Y985106D01*
X223726Y985065D01*
X223770Y985016D01*
X223812Y984994D01*
X223849Y984965D01*
X223911Y984944D01*
X223970Y984913D01*
X224024Y984905D01*
X224061Y984893D01*
X224101Y984894D01*
X224155Y984886D01*
X227965Y984886D01*
X228030Y984897D01*
G37*
G36*
X228030Y751217D02*
X228030Y751217D01*
X228096Y751219D01*
X228139Y751237D01*
X228186Y751245D01*
X228243Y751279D01*
X228303Y751304D01*
X228338Y751335D01*
X228379Y751360D01*
X228421Y751411D01*
X228469Y751455D01*
X228491Y751497D01*
X228520Y751534D01*
X228541Y751596D01*
X228572Y751655D01*
X228580Y751709D01*
X228592Y751746D01*
X228591Y751786D01*
X228599Y751840D01*
X228599Y754380D01*
X228588Y754445D01*
X228586Y754511D01*
X228568Y754554D01*
X228560Y754601D01*
X228526Y754658D01*
X228501Y754718D01*
X228470Y754753D01*
X228445Y754794D01*
X228394Y754836D01*
X228350Y754884D01*
X228308Y754906D01*
X228271Y754935D01*
X228209Y754956D01*
X228150Y754987D01*
X228096Y754995D01*
X228059Y755007D01*
X228019Y755006D01*
X227965Y755014D01*
X224155Y755014D01*
X224090Y755003D01*
X224024Y755001D01*
X223981Y754983D01*
X223934Y754975D01*
X223877Y754941D01*
X223817Y754916D01*
X223782Y754885D01*
X223741Y754860D01*
X223700Y754809D01*
X223651Y754765D01*
X223629Y754723D01*
X223600Y754686D01*
X223579Y754624D01*
X223548Y754565D01*
X223540Y754511D01*
X223528Y754474D01*
X223528Y754471D01*
X223529Y754434D01*
X223521Y754380D01*
X223521Y751840D01*
X223532Y751775D01*
X223534Y751709D01*
X223552Y751666D01*
X223560Y751619D01*
X223594Y751562D01*
X223619Y751502D01*
X223650Y751467D01*
X223675Y751426D01*
X223726Y751385D01*
X223770Y751336D01*
X223812Y751314D01*
X223849Y751285D01*
X223911Y751264D01*
X223970Y751233D01*
X224024Y751225D01*
X224061Y751213D01*
X224101Y751214D01*
X224155Y751206D01*
X227965Y751206D01*
X228030Y751217D01*
G37*
G36*
X1177990Y751217D02*
X1177990Y751217D01*
X1178056Y751219D01*
X1178099Y751237D01*
X1178146Y751245D01*
X1178203Y751279D01*
X1178263Y751304D01*
X1178298Y751335D01*
X1178339Y751360D01*
X1178381Y751411D01*
X1178429Y751455D01*
X1178451Y751497D01*
X1178480Y751534D01*
X1178501Y751596D01*
X1178532Y751655D01*
X1178540Y751709D01*
X1178552Y751746D01*
X1178551Y751786D01*
X1178559Y751840D01*
X1178559Y754380D01*
X1178548Y754445D01*
X1178546Y754511D01*
X1178528Y754554D01*
X1178520Y754601D01*
X1178486Y754658D01*
X1178461Y754718D01*
X1178430Y754753D01*
X1178405Y754794D01*
X1178354Y754836D01*
X1178310Y754884D01*
X1178268Y754906D01*
X1178231Y754935D01*
X1178169Y754956D01*
X1178110Y754987D01*
X1178056Y754995D01*
X1178019Y755007D01*
X1177979Y755006D01*
X1177925Y755014D01*
X1174115Y755014D01*
X1174050Y755003D01*
X1173984Y755001D01*
X1173941Y754983D01*
X1173894Y754975D01*
X1173837Y754941D01*
X1173777Y754916D01*
X1173742Y754885D01*
X1173701Y754860D01*
X1173660Y754809D01*
X1173611Y754765D01*
X1173589Y754723D01*
X1173560Y754686D01*
X1173539Y754624D01*
X1173508Y754565D01*
X1173500Y754511D01*
X1173488Y754474D01*
X1173488Y754471D01*
X1173489Y754434D01*
X1173481Y754380D01*
X1173481Y751840D01*
X1173492Y751775D01*
X1173494Y751709D01*
X1173512Y751666D01*
X1173520Y751619D01*
X1173554Y751562D01*
X1173579Y751502D01*
X1173610Y751467D01*
X1173635Y751426D01*
X1173686Y751385D01*
X1173730Y751336D01*
X1173772Y751314D01*
X1173809Y751285D01*
X1173871Y751264D01*
X1173930Y751233D01*
X1173984Y751225D01*
X1174021Y751213D01*
X1174061Y751214D01*
X1174115Y751206D01*
X1177925Y751206D01*
X1177990Y751217D01*
G37*
G36*
X703010Y751217D02*
X703010Y751217D01*
X703076Y751219D01*
X703119Y751237D01*
X703166Y751245D01*
X703223Y751279D01*
X703283Y751304D01*
X703318Y751335D01*
X703359Y751360D01*
X703401Y751411D01*
X703449Y751455D01*
X703471Y751497D01*
X703500Y751534D01*
X703521Y751596D01*
X703552Y751655D01*
X703560Y751709D01*
X703572Y751746D01*
X703571Y751786D01*
X703579Y751840D01*
X703579Y754380D01*
X703568Y754445D01*
X703566Y754511D01*
X703548Y754554D01*
X703540Y754601D01*
X703506Y754658D01*
X703481Y754718D01*
X703450Y754753D01*
X703425Y754794D01*
X703374Y754836D01*
X703330Y754884D01*
X703288Y754906D01*
X703251Y754935D01*
X703189Y754956D01*
X703130Y754987D01*
X703076Y754995D01*
X703039Y755007D01*
X702999Y755006D01*
X702945Y755014D01*
X699135Y755014D01*
X699070Y755003D01*
X699004Y755001D01*
X698961Y754983D01*
X698914Y754975D01*
X698857Y754941D01*
X698797Y754916D01*
X698762Y754885D01*
X698721Y754860D01*
X698680Y754809D01*
X698631Y754765D01*
X698609Y754723D01*
X698580Y754686D01*
X698559Y754624D01*
X698528Y754565D01*
X698520Y754511D01*
X698508Y754474D01*
X698508Y754471D01*
X698509Y754434D01*
X698501Y754380D01*
X698501Y751840D01*
X698512Y751775D01*
X698514Y751709D01*
X698532Y751666D01*
X698540Y751619D01*
X698574Y751562D01*
X698599Y751502D01*
X698630Y751467D01*
X698655Y751426D01*
X698706Y751385D01*
X698750Y751336D01*
X698792Y751314D01*
X698829Y751285D01*
X698891Y751264D01*
X698950Y751233D01*
X699004Y751225D01*
X699041Y751213D01*
X699081Y751214D01*
X699135Y751206D01*
X702945Y751206D01*
X703010Y751217D01*
G37*
G36*
X1177990Y283857D02*
X1177990Y283857D01*
X1178056Y283859D01*
X1178099Y283877D01*
X1178146Y283885D01*
X1178203Y283919D01*
X1178263Y283944D01*
X1178298Y283975D01*
X1178339Y284000D01*
X1178381Y284051D01*
X1178429Y284095D01*
X1178451Y284137D01*
X1178480Y284174D01*
X1178501Y284236D01*
X1178532Y284295D01*
X1178540Y284349D01*
X1178552Y284386D01*
X1178551Y284426D01*
X1178559Y284480D01*
X1178559Y287020D01*
X1178548Y287085D01*
X1178546Y287151D01*
X1178528Y287194D01*
X1178520Y287241D01*
X1178486Y287298D01*
X1178461Y287358D01*
X1178430Y287393D01*
X1178405Y287434D01*
X1178354Y287476D01*
X1178310Y287524D01*
X1178268Y287546D01*
X1178231Y287575D01*
X1178169Y287596D01*
X1178110Y287627D01*
X1178056Y287635D01*
X1178019Y287647D01*
X1177979Y287646D01*
X1177925Y287654D01*
X1174115Y287654D01*
X1174050Y287643D01*
X1173984Y287641D01*
X1173941Y287623D01*
X1173894Y287615D01*
X1173837Y287581D01*
X1173777Y287556D01*
X1173742Y287525D01*
X1173701Y287500D01*
X1173660Y287449D01*
X1173611Y287405D01*
X1173589Y287363D01*
X1173560Y287326D01*
X1173539Y287264D01*
X1173508Y287205D01*
X1173500Y287151D01*
X1173488Y287114D01*
X1173488Y287111D01*
X1173489Y287074D01*
X1173481Y287020D01*
X1173481Y284480D01*
X1173492Y284415D01*
X1173494Y284349D01*
X1173512Y284306D01*
X1173520Y284259D01*
X1173554Y284202D01*
X1173579Y284142D01*
X1173610Y284107D01*
X1173635Y284066D01*
X1173686Y284025D01*
X1173730Y283976D01*
X1173772Y283954D01*
X1173809Y283925D01*
X1173871Y283904D01*
X1173930Y283873D01*
X1173984Y283865D01*
X1174021Y283853D01*
X1174061Y283854D01*
X1174115Y283846D01*
X1177925Y283846D01*
X1177990Y283857D01*
G37*
G36*
X703010Y283857D02*
X703010Y283857D01*
X703076Y283859D01*
X703119Y283877D01*
X703166Y283885D01*
X703223Y283919D01*
X703283Y283944D01*
X703318Y283975D01*
X703359Y284000D01*
X703401Y284051D01*
X703449Y284095D01*
X703471Y284137D01*
X703500Y284174D01*
X703521Y284236D01*
X703552Y284295D01*
X703560Y284349D01*
X703572Y284386D01*
X703571Y284426D01*
X703579Y284480D01*
X703579Y287020D01*
X703568Y287085D01*
X703566Y287151D01*
X703548Y287194D01*
X703540Y287241D01*
X703506Y287298D01*
X703481Y287358D01*
X703450Y287393D01*
X703425Y287434D01*
X703374Y287476D01*
X703330Y287524D01*
X703288Y287546D01*
X703251Y287575D01*
X703189Y287596D01*
X703130Y287627D01*
X703076Y287635D01*
X703039Y287647D01*
X702999Y287646D01*
X702945Y287654D01*
X699135Y287654D01*
X699070Y287643D01*
X699004Y287641D01*
X698961Y287623D01*
X698914Y287615D01*
X698857Y287581D01*
X698797Y287556D01*
X698762Y287525D01*
X698721Y287500D01*
X698680Y287449D01*
X698631Y287405D01*
X698609Y287363D01*
X698580Y287326D01*
X698559Y287264D01*
X698528Y287205D01*
X698520Y287151D01*
X698508Y287114D01*
X698508Y287111D01*
X698509Y287074D01*
X698501Y287020D01*
X698501Y284480D01*
X698512Y284415D01*
X698514Y284349D01*
X698532Y284306D01*
X698540Y284259D01*
X698574Y284202D01*
X698599Y284142D01*
X698630Y284107D01*
X698655Y284066D01*
X698706Y284025D01*
X698750Y283976D01*
X698792Y283954D01*
X698829Y283925D01*
X698891Y283904D01*
X698950Y283873D01*
X699004Y283865D01*
X699041Y283853D01*
X699081Y283854D01*
X699135Y283846D01*
X702945Y283846D01*
X703010Y283857D01*
G37*
G36*
X228030Y283857D02*
X228030Y283857D01*
X228096Y283859D01*
X228139Y283877D01*
X228186Y283885D01*
X228243Y283919D01*
X228303Y283944D01*
X228338Y283975D01*
X228379Y284000D01*
X228421Y284051D01*
X228469Y284095D01*
X228491Y284137D01*
X228520Y284174D01*
X228541Y284236D01*
X228572Y284295D01*
X228580Y284349D01*
X228592Y284386D01*
X228591Y284426D01*
X228599Y284480D01*
X228599Y287020D01*
X228588Y287085D01*
X228586Y287151D01*
X228568Y287194D01*
X228560Y287241D01*
X228526Y287298D01*
X228501Y287358D01*
X228470Y287393D01*
X228445Y287434D01*
X228394Y287476D01*
X228350Y287524D01*
X228308Y287546D01*
X228271Y287575D01*
X228209Y287596D01*
X228150Y287627D01*
X228096Y287635D01*
X228059Y287647D01*
X228019Y287646D01*
X227965Y287654D01*
X224155Y287654D01*
X224090Y287643D01*
X224024Y287641D01*
X223981Y287623D01*
X223934Y287615D01*
X223877Y287581D01*
X223817Y287556D01*
X223782Y287525D01*
X223741Y287500D01*
X223700Y287449D01*
X223651Y287405D01*
X223629Y287363D01*
X223600Y287326D01*
X223579Y287264D01*
X223548Y287205D01*
X223540Y287151D01*
X223528Y287114D01*
X223528Y287111D01*
X223529Y287074D01*
X223521Y287020D01*
X223521Y284480D01*
X223532Y284415D01*
X223534Y284349D01*
X223552Y284306D01*
X223560Y284259D01*
X223594Y284202D01*
X223619Y284142D01*
X223650Y284107D01*
X223675Y284066D01*
X223726Y284025D01*
X223770Y283976D01*
X223812Y283954D01*
X223849Y283925D01*
X223911Y283904D01*
X223970Y283873D01*
X224024Y283865D01*
X224061Y283853D01*
X224101Y283854D01*
X224155Y283846D01*
X227965Y283846D01*
X228030Y283857D01*
G37*
G36*
X1177990Y50177D02*
X1177990Y50177D01*
X1178056Y50179D01*
X1178099Y50197D01*
X1178146Y50205D01*
X1178203Y50239D01*
X1178263Y50264D01*
X1178298Y50295D01*
X1178339Y50320D01*
X1178381Y50371D01*
X1178429Y50415D01*
X1178451Y50457D01*
X1178480Y50494D01*
X1178501Y50556D01*
X1178532Y50615D01*
X1178540Y50669D01*
X1178552Y50706D01*
X1178551Y50746D01*
X1178559Y50800D01*
X1178559Y53340D01*
X1178548Y53405D01*
X1178546Y53471D01*
X1178528Y53514D01*
X1178520Y53561D01*
X1178486Y53618D01*
X1178461Y53678D01*
X1178430Y53713D01*
X1178405Y53754D01*
X1178354Y53796D01*
X1178310Y53844D01*
X1178268Y53866D01*
X1178231Y53895D01*
X1178169Y53916D01*
X1178110Y53947D01*
X1178056Y53955D01*
X1178019Y53967D01*
X1177979Y53966D01*
X1177925Y53974D01*
X1174115Y53974D01*
X1174050Y53963D01*
X1173984Y53961D01*
X1173941Y53943D01*
X1173894Y53935D01*
X1173837Y53901D01*
X1173777Y53876D01*
X1173742Y53845D01*
X1173701Y53820D01*
X1173660Y53769D01*
X1173611Y53725D01*
X1173589Y53683D01*
X1173560Y53646D01*
X1173539Y53584D01*
X1173508Y53525D01*
X1173500Y53471D01*
X1173488Y53434D01*
X1173488Y53431D01*
X1173489Y53394D01*
X1173481Y53340D01*
X1173481Y50800D01*
X1173492Y50735D01*
X1173494Y50669D01*
X1173512Y50626D01*
X1173520Y50579D01*
X1173554Y50522D01*
X1173579Y50462D01*
X1173610Y50427D01*
X1173635Y50386D01*
X1173686Y50345D01*
X1173730Y50296D01*
X1173772Y50274D01*
X1173809Y50245D01*
X1173871Y50224D01*
X1173930Y50193D01*
X1173984Y50185D01*
X1174021Y50173D01*
X1174061Y50174D01*
X1174115Y50166D01*
X1177925Y50166D01*
X1177990Y50177D01*
G37*
G36*
X703010Y50177D02*
X703010Y50177D01*
X703076Y50179D01*
X703119Y50197D01*
X703166Y50205D01*
X703223Y50239D01*
X703283Y50264D01*
X703318Y50295D01*
X703359Y50320D01*
X703401Y50371D01*
X703449Y50415D01*
X703471Y50457D01*
X703500Y50494D01*
X703521Y50556D01*
X703552Y50615D01*
X703560Y50669D01*
X703572Y50706D01*
X703571Y50746D01*
X703579Y50800D01*
X703579Y53340D01*
X703568Y53405D01*
X703566Y53471D01*
X703548Y53514D01*
X703540Y53561D01*
X703506Y53618D01*
X703481Y53678D01*
X703450Y53713D01*
X703425Y53754D01*
X703374Y53796D01*
X703330Y53844D01*
X703288Y53866D01*
X703251Y53895D01*
X703189Y53916D01*
X703130Y53947D01*
X703076Y53955D01*
X703039Y53967D01*
X702999Y53966D01*
X702945Y53974D01*
X699135Y53974D01*
X699070Y53963D01*
X699004Y53961D01*
X698961Y53943D01*
X698914Y53935D01*
X698857Y53901D01*
X698797Y53876D01*
X698762Y53845D01*
X698721Y53820D01*
X698680Y53769D01*
X698631Y53725D01*
X698609Y53683D01*
X698580Y53646D01*
X698559Y53584D01*
X698528Y53525D01*
X698520Y53471D01*
X698508Y53434D01*
X698508Y53431D01*
X698509Y53394D01*
X698501Y53340D01*
X698501Y50800D01*
X698512Y50735D01*
X698514Y50669D01*
X698532Y50626D01*
X698540Y50579D01*
X698574Y50522D01*
X698599Y50462D01*
X698630Y50427D01*
X698655Y50386D01*
X698706Y50345D01*
X698750Y50296D01*
X698792Y50274D01*
X698829Y50245D01*
X698891Y50224D01*
X698950Y50193D01*
X699004Y50185D01*
X699041Y50173D01*
X699081Y50174D01*
X699135Y50166D01*
X702945Y50166D01*
X703010Y50177D01*
G37*
G36*
X228030Y50177D02*
X228030Y50177D01*
X228096Y50179D01*
X228139Y50197D01*
X228186Y50205D01*
X228243Y50239D01*
X228303Y50264D01*
X228338Y50295D01*
X228379Y50320D01*
X228421Y50371D01*
X228469Y50415D01*
X228491Y50457D01*
X228520Y50494D01*
X228541Y50556D01*
X228572Y50615D01*
X228580Y50669D01*
X228592Y50706D01*
X228591Y50746D01*
X228599Y50800D01*
X228599Y53340D01*
X228588Y53405D01*
X228586Y53471D01*
X228568Y53514D01*
X228560Y53561D01*
X228526Y53618D01*
X228501Y53678D01*
X228470Y53713D01*
X228445Y53754D01*
X228394Y53796D01*
X228350Y53844D01*
X228308Y53866D01*
X228271Y53895D01*
X228209Y53916D01*
X228150Y53947D01*
X228096Y53955D01*
X228059Y53967D01*
X228019Y53966D01*
X227965Y53974D01*
X224155Y53974D01*
X224090Y53963D01*
X224024Y53961D01*
X223981Y53943D01*
X223934Y53935D01*
X223877Y53901D01*
X223817Y53876D01*
X223782Y53845D01*
X223741Y53820D01*
X223700Y53769D01*
X223651Y53725D01*
X223629Y53683D01*
X223600Y53646D01*
X223579Y53584D01*
X223548Y53525D01*
X223540Y53471D01*
X223528Y53434D01*
X223528Y53431D01*
X223529Y53394D01*
X223521Y53340D01*
X223521Y50800D01*
X223532Y50735D01*
X223534Y50669D01*
X223552Y50626D01*
X223560Y50579D01*
X223594Y50522D01*
X223619Y50462D01*
X223650Y50427D01*
X223675Y50386D01*
X223726Y50345D01*
X223770Y50296D01*
X223812Y50274D01*
X223849Y50245D01*
X223911Y50224D01*
X223970Y50193D01*
X224024Y50185D01*
X224061Y50173D01*
X224101Y50174D01*
X224155Y50166D01*
X227965Y50166D01*
X228030Y50177D01*
G37*
D10*
X49050Y143200D03*
X49050Y85400D03*
D11*
X301600Y29300D03*
X409600Y199300D03*
D12*
X417460Y86000D03*
X355960Y24500D03*
D13*
X25400Y25400D03*
X25400Y203200D03*
D14*
X190500Y12700D03*
X165100Y12700D03*
X139700Y12700D03*
X114300Y12700D03*
X88900Y12700D03*
X63500Y12700D03*
D15*
X231140Y52070D03*
X220980Y52070D03*
D10*
X524030Y143200D03*
X524030Y85400D03*
D11*
X776580Y29300D03*
X884580Y199300D03*
D12*
X892440Y86000D03*
X830940Y24500D03*
D13*
X500380Y25400D03*
X500380Y203200D03*
D14*
X665480Y12700D03*
X640080Y12700D03*
X614680Y12700D03*
X589280Y12700D03*
X563880Y12700D03*
X538480Y12700D03*
D15*
X706120Y52070D03*
X695960Y52070D03*
D10*
X999010Y143200D03*
X999010Y85400D03*
D11*
X1251560Y29300D03*
X1359560Y199300D03*
D12*
X1367420Y86000D03*
X1305920Y24500D03*
D13*
X975360Y25400D03*
X975360Y203200D03*
D14*
X1140460Y12700D03*
X1115060Y12700D03*
X1089660Y12700D03*
X1064260Y12700D03*
X1038860Y12700D03*
X1013460Y12700D03*
D15*
X1181100Y52070D03*
X1170940Y52070D03*
D10*
X49050Y376880D03*
X49050Y319080D03*
D11*
X301600Y262980D03*
X409600Y432980D03*
D12*
X417460Y319680D03*
X355960Y258180D03*
D13*
X25400Y259080D03*
X25400Y436880D03*
D14*
X190500Y246380D03*
X165100Y246380D03*
X139700Y246380D03*
X114300Y246380D03*
X88900Y246380D03*
X63500Y246380D03*
D15*
X231140Y285750D03*
X220980Y285750D03*
D10*
X524030Y376880D03*
X524030Y319080D03*
D11*
X776580Y262980D03*
X884580Y432980D03*
D12*
X892440Y319680D03*
X830940Y258180D03*
D13*
X500380Y259080D03*
X500380Y436880D03*
D14*
X665480Y246380D03*
X640080Y246380D03*
X614680Y246380D03*
X589280Y246380D03*
X563880Y246380D03*
X538480Y246380D03*
D15*
X706120Y285750D03*
X695960Y285750D03*
D10*
X999010Y376880D03*
X999010Y319080D03*
D11*
X1251560Y262980D03*
X1359560Y432980D03*
D12*
X1367420Y319680D03*
X1305920Y258180D03*
D13*
X975360Y259080D03*
X975360Y436880D03*
D14*
X1140460Y246380D03*
X1115060Y246380D03*
X1089660Y246380D03*
X1064260Y246380D03*
X1038860Y246380D03*
X1013460Y246380D03*
D15*
X1181100Y285750D03*
X1170940Y285750D03*
D10*
X49050Y610560D03*
X49050Y552760D03*
D11*
X301600Y496660D03*
X409600Y666660D03*
D12*
X417460Y553360D03*
X355960Y491860D03*
D13*
X25400Y492760D03*
X25400Y670560D03*
D14*
X190500Y480060D03*
X165100Y480060D03*
X139700Y480060D03*
X114300Y480060D03*
X88900Y480060D03*
X63500Y480060D03*
D15*
X231140Y519430D03*
X220980Y519430D03*
D10*
X524030Y610560D03*
X524030Y552760D03*
D11*
X776580Y496660D03*
X884580Y666660D03*
D12*
X892440Y553360D03*
X830940Y491860D03*
D13*
X500380Y492760D03*
X500380Y670560D03*
D14*
X665480Y480060D03*
X640080Y480060D03*
X614680Y480060D03*
X589280Y480060D03*
X563880Y480060D03*
X538480Y480060D03*
D15*
X706120Y519430D03*
X695960Y519430D03*
D10*
X999010Y610560D03*
X999010Y552760D03*
D11*
X1251560Y496660D03*
X1359560Y666660D03*
D12*
X1367420Y553360D03*
X1305920Y491860D03*
D13*
X975360Y492760D03*
X975360Y670560D03*
D14*
X1140460Y480060D03*
X1115060Y480060D03*
X1089660Y480060D03*
X1064260Y480060D03*
X1038860Y480060D03*
X1013460Y480060D03*
D15*
X1181100Y519430D03*
X1170940Y519430D03*
D10*
X49050Y844240D03*
X49050Y786440D03*
D11*
X301600Y730340D03*
X409600Y900340D03*
D12*
X417460Y787040D03*
X355960Y725540D03*
D13*
X25400Y726440D03*
X25400Y904240D03*
D14*
X190500Y713740D03*
X165100Y713740D03*
X139700Y713740D03*
X114300Y713740D03*
X88900Y713740D03*
X63500Y713740D03*
D15*
X231140Y753110D03*
X220980Y753110D03*
D10*
X524030Y844240D03*
X524030Y786440D03*
D11*
X776580Y730340D03*
X884580Y900340D03*
D12*
X892440Y787040D03*
X830940Y725540D03*
D13*
X500380Y726440D03*
X500380Y904240D03*
D14*
X665480Y713740D03*
X640080Y713740D03*
X614680Y713740D03*
X589280Y713740D03*
X563880Y713740D03*
X538480Y713740D03*
D15*
X706120Y753110D03*
X695960Y753110D03*
D10*
X999010Y844240D03*
X999010Y786440D03*
D11*
X1251560Y730340D03*
X1359560Y900340D03*
D12*
X1367420Y787040D03*
X1305920Y725540D03*
D13*
X975360Y726440D03*
X975360Y904240D03*
D14*
X1140460Y713740D03*
X1115060Y713740D03*
X1089660Y713740D03*
X1064260Y713740D03*
X1038860Y713740D03*
X1013460Y713740D03*
D15*
X1181100Y753110D03*
X1170940Y753110D03*
D10*
X49050Y1077920D03*
X49050Y1020120D03*
D11*
X301600Y964020D03*
X409600Y1134020D03*
D12*
X417460Y1020720D03*
X355960Y959220D03*
D13*
X25400Y960120D03*
X25400Y1137920D03*
D14*
X190500Y947420D03*
X165100Y947420D03*
X139700Y947420D03*
X114300Y947420D03*
X88900Y947420D03*
X63500Y947420D03*
D15*
X231140Y986790D03*
X220980Y986790D03*
D10*
X524030Y1077920D03*
X524030Y1020120D03*
D11*
X776580Y964020D03*
X884580Y1134020D03*
D12*
X892440Y1020720D03*
X830940Y959220D03*
D13*
X500380Y960120D03*
X500380Y1137920D03*
D14*
X665480Y947420D03*
X640080Y947420D03*
X614680Y947420D03*
X589280Y947420D03*
X563880Y947420D03*
X538480Y947420D03*
D15*
X706120Y986790D03*
X695960Y986790D03*
D10*
X999010Y1077920D03*
X999010Y1020120D03*
D11*
X1251560Y964020D03*
X1359560Y1134020D03*
D12*
X1367420Y1020720D03*
X1305920Y959220D03*
D13*
X975360Y960120D03*
X975360Y1137920D03*
D14*
X1140460Y947420D03*
X1115060Y947420D03*
X1089660Y947420D03*
X1064260Y947420D03*
X1038860Y947420D03*
X1013460Y947420D03*
D15*
X1181100Y986790D03*
X1170940Y986790D03*
D16*
X93980Y1184275D03*
X1376045Y1184275D03*
M02*
