M48
;GenerationSoftware,Autodesk,EAGLE,9.5.2*%
;CreationDate,2020-03-12T14:57:59Z*%
FMAT,2
ICI,OFF
METRIC,TZ,000.000
T6C0.381
T5C0.650
T4C0.800
T3C1.016
T2C2.000
T1C3.302
%
G90
M71
T1
X2540Y2540
X97536Y20320
X50038Y2540
X50038Y20320
X97536Y67056
X97536Y72644
X50038Y49276
X50038Y113792
X2540Y20320
X50038Y67056
X50038Y96012
X97536Y90424
X97536Y49276
X97536Y2540
X2540Y25908
X2540Y43688
X2540Y72644
X50038Y25908
X50038Y43688
X2540Y90424
X2540Y113792
X97536Y25908
X97536Y43688
X2540Y96012
X50038Y72644
X50038Y90424
X2540Y49276
X2540Y67056
X97536Y113792
X97536Y96012
T2
X30160Y73034
X88458Y66666
X125156Y73034
X40960Y90034
X30160Y96402
X77658Y26298
X88458Y43298
X40960Y113402
X30160Y2930
X40960Y19930
X135956Y90034
X40960Y66666
X88458Y113402
X125156Y26298
X135956Y43298
X135956Y113402
X77658Y73034
X77658Y2930
X88458Y19930
X88458Y90034
X125156Y96402
X30160Y49666
X77658Y96402
X125156Y49666
X135956Y66666
X125156Y2930
X135956Y19930
X30160Y26298
X40960Y43298
X77658Y49666
T3
X56388Y48006
X53848Y48006
X114046Y48006
X111506Y48006
X108966Y48006
X106426Y48006
X103886Y48006
X101346Y48006
X19050Y71374
X16510Y71374
X13970Y71374
X11430Y71374
X8890Y71374
X101346Y94742
X6350Y71374
X66548Y71374
X64008Y71374
X61468Y71374
X58928Y71374
X56388Y71374
X53848Y71374
X114046Y71374
X111506Y71374
X108966Y71374
X106426Y71374
X103886Y71374
X101346Y71374
X19050Y94742
X53848Y1270
X16510Y94742
X13970Y94742
X11430Y94742
X8890Y94742
X6350Y94742
X66548Y94742
X64008Y94742
X61468Y94742
X58928Y94742
X56388Y94742
X53848Y94742
X114046Y94742
X111506Y94742
X108966Y94742
X106426Y94742
X103886Y94742
X56388Y1270
X19050Y1270
X16510Y1270
X13970Y1270
X11430Y1270
X8890Y1270
X6350Y1270
X66548Y1270
X64008Y1270
X61468Y1270
X58928Y1270
X114046Y1270
X111506Y1270
X108966Y1270
X106426Y1270
X103886Y1270
X101346Y1270
X19050Y24638
X16510Y24638
X13970Y24638
X11430Y24638
X8890Y24638
X6350Y24638
X66548Y24638
X64008Y24638
X61468Y24638
X58928Y24638
X56388Y24638
X53848Y24638
X114046Y24638
X111506Y24638
X108966Y24638
X106426Y24638
X103886Y24638
X101346Y24638
X19050Y48006
X16510Y48006
X13970Y48006
X11430Y48006
X8890Y48006
X6350Y48006
X66548Y48006
X64008Y48006
X61468Y48006
X58928Y48006
T4
X83094Y2450
X41746Y78704
X41746Y8600
X35596Y2450
X136742Y55336
X130592Y49186
X89244Y8600
X35596Y25818
X35596Y72554
X89244Y78704
X136742Y8600
X130592Y2450
X83094Y72554
X41746Y31968
X130592Y72554
X35596Y95922
X136742Y78704
X89244Y31968
X83094Y25818
X136742Y102072
X130592Y95922
X136742Y31968
X130592Y25818
X83094Y49186
X35596Y49186
X41746Y102072
X41746Y55336
X89244Y102072
X83094Y95922
X89244Y55336
T5
X4905Y8540
X52403Y14320
X52403Y8540
X99901Y14320
X99901Y8540
X4905Y37688
X4905Y14320
X52403Y37688
X52403Y31908
X99901Y37688
X99901Y31908
X4905Y55276
X4905Y31908
X52403Y61056
X52403Y55276
X4905Y61056
X99901Y61056
X52403Y84424
X52403Y78644
X99901Y78644
X99901Y84424
X52403Y102012
X99901Y55276
X4905Y84424
X99901Y102012
X4905Y78644
X4905Y102012
X4905Y107792
X99901Y107792
X52403Y107792
T6
X72136Y60960
X79121Y63246
X55118Y60706
X55118Y55626
X63627Y68707
X69088Y64516
X79248Y68199
X73406Y63246
X73406Y65996
X51562Y59563
X51562Y57887
X51562Y58725
X51562Y57048
X72263Y49784
X101346Y64516
X100076Y64516
X102616Y61976
X96266Y59436
X96266Y56896
X113411Y57785
X112395Y56896
X119634Y63246
X119634Y62103
X110236Y63246
X114046Y67056
X114046Y65786
X114046Y64516
X110236Y60071
X119634Y60960
X126619Y63246
X102616Y60706
X102616Y55626
X111125Y68707
X116586Y64516
X126746Y68199
X120904Y63246
X120904Y65996
X99060Y59563
X99060Y57887
X99060Y58725
X99060Y57048
X119761Y49784
X6350Y87884
X5080Y87884
X7620Y85344
X1270Y82804
X1270Y80264
X18415Y81153
X17399Y80264
X24638Y86614
X24638Y85471
X15240Y86614
X19050Y90424
X19050Y89154
X19050Y87884
X15240Y83439
X24638Y84328
X31623Y86614
X7620Y84074
X7620Y78994
X16129Y92075
X21590Y87884
X31750Y91567
X25908Y86614
X25908Y89364
X4064Y82931
X4064Y81255
X4064Y82093
X4064Y80416
X24765Y73152
X53848Y87884
X52578Y87884
X55118Y85344
X48768Y82804
X48768Y80264
X65913Y81153
X64897Y80264
X72136Y86614
X72136Y85471
X62738Y86614
X66548Y90424
X66548Y89154
X66548Y87884
X62738Y83439
X72136Y84328
X79121Y86614
X55118Y84074
X55118Y78994
X63627Y92075
X69088Y87884
X79248Y91567
X73406Y86614
X73406Y89364
X51562Y82931
X51562Y81255
X51562Y82093
X51562Y80416
X72263Y73152
X101346Y87884
X100076Y87884
X102616Y85344
X96266Y82804
X96266Y80264
X113411Y81153
X112395Y80264
X120904Y19260
X119634Y85471
X110236Y86614
X114046Y90424
X114046Y89154
X114046Y87884
X110236Y83439
X119634Y84328
X126619Y86614
X102616Y84074
X102616Y78994
X111125Y92075
X116586Y87884
X126746Y91567
X120904Y86614
X120904Y89364
X99060Y82931
X99060Y81255
X99060Y82093
X99060Y80416
X119761Y73152
X6350Y111252
X5080Y111252
X7620Y108712
X1270Y106172
X1270Y103632
X18415Y104521
X17399Y103632
X24638Y109982
X24638Y108839
X15240Y109982
X19050Y113792
X19050Y112522
X19050Y111252
X15240Y106807
X24638Y107696
X31623Y109982
X7620Y107442
X7620Y102362
X16129Y115443
X21590Y111252
X31750Y114935
X25908Y109982
X25908Y112732
X4064Y106299
X4064Y104623
X4064Y105461
X4064Y103784
X24765Y96520
X53848Y111252
X52578Y111252
X55118Y108712
X48768Y106172
X48768Y103632
X65913Y104521
X64897Y103632
X72136Y109982
X72136Y108839
X62738Y109982
X66548Y113792
X66548Y112522
X66548Y111252
X62738Y106807
X72136Y107696
X79121Y109982
X55118Y107442
X55118Y102362
X63627Y115443
X69088Y111252
X79248Y114935
X73406Y109982
X73406Y112732
X51562Y106299
X51562Y104623
X51562Y105461
X51562Y103784
X72263Y96520
X101346Y111252
X100076Y111252
X102616Y108712
X96266Y106172
X96266Y103632
X113411Y104521
X112395Y103632
X119634Y109982
X119634Y108839
X110236Y109982
X114046Y113792
X114046Y112522
X114046Y111252
X110236Y106807
X119634Y107696
X126619Y109982
X102616Y107442
X102616Y102362
X111125Y115443
X116586Y111252
X126746Y114935
X120904Y109982
X120904Y112732
X99060Y106299
X99060Y104623
X99060Y105461
X99060Y103784
X119761Y96520
X6350Y17780
X5080Y17780
X7620Y15240
X1270Y12700
X1270Y10160
X18415Y11049
X17399Y10160
X24638Y16510
X24638Y15367
X15240Y16510
X19050Y20320
X19050Y19050
X19050Y17780
X15240Y13335
X24638Y14224
X31623Y16510
X7620Y13970
X7620Y8890
X16129Y21971
X21590Y17780
X31750Y21463
X25908Y16510
X25908Y19260
X4064Y12827
X4064Y11151
X4064Y11989
X4064Y10312
X24765Y3048
X53848Y17780
X52578Y17780
X55118Y15240
X48768Y12700
X48768Y10160
X65913Y11049
X64897Y10160
X72136Y16510
X72136Y15367
X62738Y16510
X66548Y20320
X66548Y19050
X66548Y17780
X62738Y13335
X72136Y14224
X79121Y16510
X55118Y13970
X55118Y8890
X63627Y21971
X69088Y17780
X79248Y21463
X73406Y16510
X73406Y19260
X51562Y12827
X51562Y11151
X51562Y11989
X51562Y10312
X72263Y3048
X101346Y17780
X100076Y17780
X102616Y15240
X96266Y12700
X96266Y10160
X113411Y11049
X112395Y10160
X119634Y16510
X119634Y15367
X110236Y16510
X114046Y20320
X114046Y19050
X114046Y17780
X110236Y13335
X119634Y14224
X126619Y16510
X102616Y13970
X102616Y8890
X111125Y21971
X116586Y17780
X126746Y21463
X120904Y16510
X99060Y12827
X99060Y11151
X99060Y11989
X99060Y10312
X119761Y3048
X6350Y41148
X5080Y41148
X7620Y38608
X1270Y36068
X1270Y33528
X18415Y34417
X17399Y33528
X24638Y39878
X24638Y38735
X15240Y39878
X19050Y43688
X19050Y42418
X19050Y41148
X15240Y36703
X24638Y37592
X31623Y39878
X7620Y37338
X7620Y32258
X16129Y45339
X21590Y41148
X31750Y44831
X25908Y39878
X25908Y42628
X4064Y36195
X4064Y34519
X4064Y35357
X4064Y33680
X24765Y26416
X53848Y41148
X52578Y41148
X55118Y38608
X48768Y36068
X48768Y33528
X65913Y34417
X64897Y33528
X72136Y39878
X72136Y38735
X62738Y39878
X66548Y43688
X66548Y42418
X66548Y41148
X62738Y36703
X72136Y37592
X79121Y39878
X55118Y37338
X55118Y32258
X63627Y45339
X69088Y41148
X119634Y86614
X79248Y44831
X73406Y39878
X73406Y42628
X51562Y36195
X51562Y34519
X51562Y35357
X51562Y33680
X72263Y26416
X101346Y41148
X100076Y41148
X102616Y38608
X96266Y36068
X96266Y33528
X113411Y34417
X112395Y33528
X119634Y39878
X119634Y38735
X110236Y39878
X114046Y43688
X114046Y42418
X114046Y41148
X110236Y36703
X119634Y37592
X126619Y39878
X102616Y37338
X102616Y32258
X111125Y45339
X116586Y41148
X126746Y44831
X120904Y39878
X120904Y42628
X99060Y36195
X99060Y34519
X99060Y35357
X99060Y33680
X119761Y26416
X6350Y64516
X5080Y64516
X7620Y61976
X1270Y59436
X1270Y56896
X18415Y57785
X17399Y56896
X24638Y63246
X24638Y62103
X15240Y63246
X19050Y67056
X19050Y65786
X19050Y64516
X15240Y60071
X24638Y60960
X31623Y63246
X7620Y60706
X7620Y55626
X16129Y68707
X21590Y64516
X31750Y68199
X25908Y63246
X25908Y65996
X4064Y59563
X4064Y57887
X4064Y58725
X4064Y57048
X24765Y49784
X53848Y64516
X52578Y64516
X55118Y61976
X48768Y59436
X48768Y56896
X65913Y57785
X64897Y56896
X72136Y63246
X72136Y62103
X62738Y63246
X66548Y67056
X66548Y65786
X66548Y64516
X62738Y60071
M30