%
M48
M72
T01C0.0150
T02C0.0256
T03C0.0315
T04C0.0400
T05C0.0787
T06C0.1300
%
T01
X14925Y6510
X14925Y6840
X14925Y7170
X14925Y7500
X16725Y7700
X18925Y8850
X19425Y8100
X21425Y8350
X21425Y8850
X21925Y9850
X23425Y9100
X23925Y10350
X23925Y11850
X23425Y11850
X26375Y10350
X26925Y9850
X28025Y12300
X27425Y12550
X27525Y13150
X28075Y13350
X30025Y13950
X34025Y13400
X34025Y13070
X34025Y12740
X34025Y12410
X33925Y9850
X32925Y9850
X35725Y7700
X37925Y8850
X38425Y8100
X40425Y8350
X40425Y8850
X40925Y9850
X42425Y9100
X42925Y10350
X42925Y11850
X42425Y11850
X45375Y10350
X45925Y9850
X47025Y12300
X46425Y12550
X46525Y13150
X47075Y13350
X49025Y13950
X53025Y13400
X53025Y13070
X53025Y12740
X53025Y12410
X52925Y9850
X51925Y9850
X54725Y7700
X52925Y7500
X52925Y7170
X52925Y6840
X52925Y6510
X55925Y5850
X56425Y5350
X57425Y8100
X56925Y8850
X55925Y9850
X59425Y8850
X59425Y8350
X61425Y9100
X59925Y9850
X61925Y10350
X61925Y11850
X61425Y11850
X64375Y10350
X64925Y9850
X66025Y12300
X65425Y12550
X65525Y13150
X66075Y13350
X68025Y13950
X61925Y14350
X58925Y14350
X63825Y18850
X65425Y21050
X64825Y21350
X61425Y23300
X59925Y24050
X59425Y23050
X59425Y22550
X57425Y22300
X56925Y23050
X55925Y24050
X52925Y24050
X51925Y24050
X52925Y21700
X52925Y21370
X52925Y21040
X52925Y20710
X54725Y21900
X55925Y20050
X56425Y19550
X61925Y24550
X61925Y26050
X61425Y26050
X64375Y24550
X64925Y24050
X66025Y26500
X65425Y26750
X65525Y27350
X66075Y27550
X68025Y28150
X61925Y28550
X58925Y28550
X53025Y27600
X53025Y27270
X53025Y26940
X53025Y26610
X49025Y28150
X47075Y27550
X46525Y27350
X46425Y26750
X47025Y26500
X45375Y24550
X45925Y24050
X42925Y24550
X40925Y24050
X42425Y23300
X40425Y23050
X40425Y22550
X38425Y22300
X37925Y23050
X35725Y21900
X33925Y21700
X33925Y21370
X33925Y21040
X33925Y20710
X36925Y20050
X37425Y19550
X44825Y18850
X46425Y21050
X45825Y21350
X42925Y26050
X42425Y26050
X42925Y28550
X39925Y28550
X34025Y27600
X34025Y27270
X34025Y26940
X34025Y26610
X30025Y28150
X28075Y27550
X27525Y27350
X27425Y26750
X28025Y26500
X26375Y24550
X26925Y24050
X23925Y24550
X21925Y24050
X23425Y23300
X21425Y23050
X21425Y22550
X19425Y22300
X18925Y23050
X17925Y24050
X14925Y24050
X13925Y24050
X14925Y21700
X14925Y21370
X14925Y21040
X14925Y20710
X16725Y21900
X17925Y20050
X18425Y19550
X25825Y18850
X27425Y21050
X26825Y21350
X32925Y24050
X33925Y24050
X36925Y24050
X23925Y26050
X23425Y26050
X23925Y28550
X20925Y28550
X15025Y27600
X15025Y27270
X15025Y26940
X15025Y26610
X25825Y33050
X26825Y35550
X27425Y35250
X23425Y37500
X21925Y38250
X21425Y37250
X21425Y36750
X19425Y36500
X18925Y37250
X17925Y38250
X16725Y36100
X14925Y35900
X14925Y35570
X14925Y35240
X14925Y34910
X17925Y34250
X18425Y33750
X14925Y38250
X13925Y38250
X15025Y40810
X15025Y41140
X15025Y41470
X15025Y41800
X20925Y42750
X23925Y42750
X27525Y41550
X28075Y41750
X27425Y40950
X28025Y40700
X26375Y38750
X26925Y38250
X23925Y38750
X23925Y40250
X23425Y40250
X30025Y42350
X34025Y41800
X34025Y41470
X34025Y41140
X34025Y40810
X33925Y38250
X32925Y38250
X35725Y36100
X37925Y37250
X38425Y36500
X40425Y36750
X40425Y37250
X40925Y38250
X42425Y37500
X42925Y38750
X42925Y40250
X42425Y40250
X45375Y38750
X45925Y38250
X47025Y40700
X46425Y40950
X46525Y41550
X47075Y41750
X49025Y42350
X53025Y41800
X53025Y41470
X53025Y41140
X53025Y40810
X52925Y38250
X51925Y38250
X54725Y36100
X52925Y35900
X52925Y35570
X52925Y35240
X52925Y34910
X55925Y34250
X56425Y33750
X57425Y36500
X56925Y37250
X55925Y38250
X59425Y37250
X59425Y36750
X61425Y37500
X59925Y38250
X61925Y38750
X61925Y40250
X61425Y40250
X64375Y38750
X64925Y38250
X66025Y40700
X65425Y40950
X65525Y41550
X66075Y41750
X68025Y42350
X61925Y42750
X58925Y42750
X64825Y35550
X65425Y35250
X63825Y33050
X46425Y35250
X45825Y35550
X44825Y33050
X37425Y33750
X36925Y34250
X33925Y34910
X33925Y35240
X33925Y35570
X33925Y35900
X36925Y38250
X39925Y42750
X42925Y42750
X42925Y14350
X39925Y14350
X36925Y9850
X33925Y7500
X33925Y7170
X33925Y6840
X33925Y6510
X36925Y5850
X37425Y5350
X44825Y4650
X45825Y7150
X46425Y6850
X63825Y4650
X64825Y7150
X65425Y6850
X27425Y6850
X26825Y7150
X25825Y4650
X18425Y5350
X17925Y5850
X17925Y9850
X14925Y9850
X13925Y9850
X15025Y12410
X15025Y12740
X15025Y13070
X15025Y13400
X20925Y14350
X23925Y14350
T02
X15356Y13988
X15356Y11712
X15356Y7988
X15356Y5712
X34356Y5712
X34356Y7988
X34356Y11712
X34356Y13988
X34356Y19912
X34356Y22188
X34356Y25912
X34356Y28188
X34356Y34112
X34356Y36388
X34356Y40112
X34356Y42388
X53356Y42388
X53356Y40112
X53356Y36388
X53356Y34112
X53356Y28188
X53356Y25912
X53356Y22188
X53356Y19912
X53356Y13988
X53356Y11712
X53356Y7988
X53356Y5712
X15356Y19912
X15356Y22188
X15356Y25912
X15356Y28188
X15356Y34112
X15356Y36388
X15356Y40112
X15356Y42388
T03
X20539Y41215
X22960Y43636
X39539Y41215
X41960Y43636
X58539Y41215
X60960Y43636
X60960Y29436
X58539Y27015
X41960Y29436
X39539Y27015
X22960Y29436
X20539Y27015
X22960Y15236
X20539Y12815
X39539Y12815
X41960Y15236
X58539Y12815
X60960Y15236
T04
X58425Y17550
X57425Y17550
X56425Y17550
X55425Y17550
X54425Y17550
X39425Y17550
X38425Y17550
X37425Y17550
X36425Y17550
X35425Y17550
X20425Y17550
X19425Y17550
X18425Y17550
X17425Y17550
X16425Y17550
X16425Y3350
X17425Y3350
X18425Y3350
X19425Y3350
X20425Y3350
X35425Y3350
X36425Y3350
X37425Y3350
X38425Y3350
X39425Y3350
X54425Y3350
X55425Y3350
X56425Y3350
X57425Y3350
X58425Y3350
X58425Y31750
X57425Y31750
X56425Y31750
X55425Y31750
X54425Y31750
X39425Y31750
X38425Y31750
X37425Y31750
X36425Y31750
X35425Y31750
X20425Y31750
X19425Y31750
X18425Y31750
X17425Y31750
X16425Y31750
T05
X24799Y34904
X29051Y41596
X43799Y34904
X48051Y41596
X62799Y34904
X67051Y41596
X67051Y27396
X62799Y20704
X67051Y13196
X62799Y6504
X48051Y13196
X43799Y6504
X29051Y13196
X24799Y6504
X24799Y20704
X29051Y27396
X43799Y20704
X48051Y27396
T06
X14425Y3850
X29425Y3850
X33425Y3850
X48425Y3850
X52425Y3850
X67425Y3850
X67425Y15850
X67425Y18050
X52425Y18050
X52425Y15850
X48425Y15850
X48425Y18050
X33425Y18050
X33425Y15850
X29425Y15850
X29425Y18050
X14425Y18050
X14425Y15850
X14425Y30050
X14425Y32250
X29425Y32250
X29425Y30050
X33425Y30050
X33425Y32250
X48425Y32250
X48425Y30050
X52425Y30050
X52425Y32250
X67425Y32250
X67425Y30050
X67425Y44250
X52425Y44250
X48425Y44250
X33425Y44250
X29425Y44250
X14425Y44250
M30
