G75*
%MOIN*%
%OFA0B0*%
%FSLAX25Y25*%
%IPPOS*%
%LPD*%
%AMOC8*
5,1,8,0,0,1.08239X$1,22.5*
%
%ADD10C,0.03359*%
%ADD11C,0.08674*%
%ADD12C,0.03950*%
%ADD13C,0.08200*%
%ADD14C,0.13800*%
D10*
X0153557Y0057122D03*
X0153557Y0079878D03*
X0153557Y0117122D03*
X0153557Y0139878D03*
X0153557Y0199122D03*
X0153557Y0221878D03*
X0153557Y0259122D03*
X0153557Y0281878D03*
X0153557Y0341122D03*
X0153557Y0363878D03*
X0153557Y0401122D03*
X0153557Y0423878D03*
X0343557Y0423878D03*
X0343557Y0401122D03*
X0343557Y0363878D03*
X0343557Y0341122D03*
X0343557Y0281878D03*
X0343557Y0259122D03*
X0343557Y0221878D03*
X0343557Y0199122D03*
X0343557Y0139878D03*
X0343557Y0117122D03*
X0343557Y0079878D03*
X0343557Y0057122D03*
X0533557Y0057122D03*
X0533557Y0079878D03*
X0533557Y0117122D03*
X0533557Y0139878D03*
X0533557Y0199122D03*
X0533557Y0221878D03*
X0533557Y0259122D03*
X0533557Y0281878D03*
X0533557Y0341122D03*
X0533557Y0363878D03*
X0533557Y0401122D03*
X0533557Y0423878D03*
D11*
X0480506Y0415965D03*
X0437986Y0349035D03*
X0480506Y0273965D03*
X0437986Y0207035D03*
X0480506Y0131965D03*
X0437986Y0065035D03*
X0290506Y0131965D03*
X0247986Y0065035D03*
X0247986Y0207035D03*
X0290506Y0273965D03*
X0247986Y0349035D03*
X0290506Y0415965D03*
X0627986Y0349035D03*
X0670506Y0415965D03*
X0670506Y0273965D03*
X0627986Y0207035D03*
X0670506Y0131965D03*
X0627986Y0065035D03*
D12*
X0585388Y0128146D03*
X0609600Y0152358D03*
X0419600Y0152358D03*
X0395388Y0128146D03*
X0229600Y0152358D03*
X0205388Y0128146D03*
X0205388Y0270146D03*
X0229600Y0294358D03*
X0395388Y0270146D03*
X0419600Y0294358D03*
X0585388Y0270146D03*
X0609600Y0294358D03*
X0585388Y0412146D03*
X0609600Y0436358D03*
X0419600Y0436358D03*
X0395388Y0412146D03*
X0229600Y0436358D03*
X0205388Y0412146D03*
D13*
X0204246Y0317500D03*
X0194246Y0317500D03*
X0184246Y0317500D03*
X0174246Y0317500D03*
X0164246Y0317500D03*
X0354246Y0317500D03*
X0364246Y0317500D03*
X0374246Y0317500D03*
X0384246Y0317500D03*
X0394246Y0317500D03*
X0544246Y0317500D03*
X0554246Y0317500D03*
X0564246Y0317500D03*
X0574246Y0317500D03*
X0584246Y0317500D03*
X0584246Y0175500D03*
X0574246Y0175500D03*
X0564246Y0175500D03*
X0554246Y0175500D03*
X0544246Y0175500D03*
X0394246Y0175500D03*
X0384246Y0175500D03*
X0374246Y0175500D03*
X0364246Y0175500D03*
X0354246Y0175500D03*
X0204246Y0175500D03*
X0194246Y0175500D03*
X0184246Y0175500D03*
X0174246Y0175500D03*
X0164246Y0175500D03*
X0164246Y0033500D03*
X0174246Y0033500D03*
X0184246Y0033500D03*
X0194246Y0033500D03*
X0204246Y0033500D03*
X0354246Y0033500D03*
X0364246Y0033500D03*
X0374246Y0033500D03*
X0384246Y0033500D03*
X0394246Y0033500D03*
X0544246Y0033500D03*
X0554246Y0033500D03*
X0564246Y0033500D03*
X0574246Y0033500D03*
X0584246Y0033500D03*
D14*
X0144246Y0038500D03*
X0294246Y0038500D03*
X0334246Y0038500D03*
X0484246Y0038500D03*
X0524246Y0038500D03*
X0674246Y0038500D03*
X0674246Y0158500D03*
X0674246Y0180500D03*
X0524246Y0180500D03*
X0524246Y0158500D03*
X0484246Y0158500D03*
X0484246Y0180500D03*
X0334246Y0180500D03*
X0334246Y0158500D03*
X0294246Y0158500D03*
X0294246Y0180500D03*
X0144246Y0180500D03*
X0144246Y0158500D03*
X0144246Y0300500D03*
X0144246Y0322500D03*
X0294246Y0322500D03*
X0294246Y0300500D03*
X0334246Y0300500D03*
X0334246Y0322500D03*
X0484246Y0322500D03*
X0484246Y0300500D03*
X0524246Y0300500D03*
X0524246Y0322500D03*
X0674246Y0322500D03*
X0674246Y0300500D03*
X0674246Y0442500D03*
X0524246Y0442500D03*
X0484246Y0442500D03*
X0334246Y0442500D03*
X0294246Y0442500D03*
X0144246Y0442500D03*
M02*
